M48
; DRILL file {KiCad 5.1.6-1.fc32} date Sat Feb  6 18:10:29 2021
; FORMAT={-:-/ absolute / metric / decimal}
; #@! TF.CreationDate,2021-02-06T18:10:29+01:00
; #@! TF.GenerationSoftware,Kicad,Pcbnew,5.1.6-1.fc32
; #@! TF.FileFunction,Plated,1,2,PTH
FMAT,2
METRIC
T1C0.400
T2C0.800
T3C0.900
T4C1.000
T5C1.100
T6C1.300
T7C1.600
T8C1.700
%
G90
G05
T1
X116.633Y-79.174
X116.75Y-90.25
X116.75Y-134.5
X116.85Y-87.75
X117.25Y-68.0
X118.0Y-82.0
X118.5Y-86.25
X118.5Y-87.25
X118.75Y-92.0
X118.75Y-93.0
X119.75Y-86.25
X119.75Y-87.25
X119.75Y-92.0
X119.75Y-93.0
X120.5Y-67.5
X120.75Y-92.0
X120.75Y-93.0
X128.5Y-83.5
X128.5Y-87.25
X128.5Y-88.5
X133.0Y-113.5
X134.5Y-78.0
X137.75Y-83.0
X138.0Y-113.5
X138.43Y-86.436
X139.344Y-92.253
X140.31Y-89.764
X141.554Y-99.263
X141.554Y-103.225
X143.0Y-113.5
X145.0Y-133.75
X146.5Y-82.5
X147.25Y-84.25
X148.75Y-138.5
X149.225Y-88.621
X149.225Y-90.881
X151.5Y-82.5
X152.25Y-84.25
X152.541Y-91.992
X156.439Y-68.25
X156.75Y-152.0
X157.0Y-82.5
X157.75Y-84.25
X158.272Y-85.268
X159.944Y-95.555
X160.274Y-98.095
X160.35Y-85.268
X160.401Y-96.977
X162.607Y-86.032
X162.75Y-95.75
X163.119Y-98.095
X163.576Y-96.926
X163.75Y-84.0
X164.0Y-81.5
X164.0Y-83.0
X164.59Y-71.349
X164.8Y-139.2
X164.8Y-140.3
X164.8Y-141.4
X165.9Y-139.2
X165.9Y-140.3
X165.9Y-141.4
X165.938Y-98.273
X166.268Y-84.0
X166.37Y-95.656
X166.573Y-76.556
X174.168Y-126.111
X174.346Y-76.556
X175.235Y-123.647
X175.539Y-95.733
X176.352Y-98.273
T2
X152.0Y-143.38
X152.0Y-151.0
T3
X151.939Y-74.475
X153.209Y-71.935
X154.479Y-74.475
X155.749Y-71.935
X157.019Y-74.475
X158.289Y-71.935
X159.559Y-74.475
X160.829Y-71.935
X132.254Y-74.475
X133.524Y-71.935
X134.794Y-74.475
X136.064Y-71.935
X137.334Y-74.475
X138.604Y-71.935
X139.874Y-74.475
X141.144Y-71.935
T4
X142.5Y-93.0
X145.04Y-93.0
X147.58Y-93.0
X150.12Y-93.0
X121.9Y-143.19
X121.9Y-147.0
X121.9Y-150.81
X144.05Y-140.95
X144.05Y-152.95
X122.46Y-69.36
X122.46Y-71.9
X122.46Y-74.44
X122.46Y-76.98
X122.46Y-79.52
X122.46Y-82.06
X122.46Y-84.6
X122.46Y-87.14
X122.46Y-92.22
X122.46Y-94.76
X122.46Y-97.3
X122.46Y-99.84
X122.46Y-102.38
X122.46Y-104.92
X122.46Y-107.46
X122.46Y-110.0
X122.46Y-112.54
X122.46Y-115.08
X122.46Y-117.62
X122.46Y-120.16
X122.46Y-122.7
X122.46Y-125.24
X122.46Y-127.78
X125.0Y-69.36
X125.0Y-71.9
X125.0Y-74.44
X125.0Y-76.98
X125.0Y-79.52
X125.0Y-82.06
X125.0Y-84.6
X125.0Y-87.14
X125.0Y-92.22
X125.0Y-94.76
X125.0Y-97.3
X125.0Y-99.84
X125.0Y-102.38
X125.0Y-104.92
X125.0Y-107.46
X125.0Y-110.0
X125.0Y-112.54
X125.0Y-115.08
X125.0Y-117.62
X125.0Y-120.16
X125.0Y-122.7
X125.0Y-125.24
X125.0Y-127.78
X168.18Y-59.962
X168.18Y-62.502
X168.18Y-65.042
X168.18Y-67.582
X168.18Y-70.122
X168.18Y-72.662
X168.18Y-75.202
X168.18Y-77.742
X168.18Y-80.282
X168.18Y-82.822
X168.18Y-86.886
X168.18Y-89.426
X168.18Y-91.966
X168.18Y-94.506
X168.18Y-97.046
X168.18Y-99.586
X168.18Y-102.126
X168.18Y-104.666
X168.18Y-107.206
X168.18Y-109.746
X168.18Y-112.286
X168.18Y-114.826
X168.18Y-117.366
X168.18Y-119.906
X168.18Y-122.446
X168.18Y-124.986
X168.18Y-127.526
X170.72Y-59.962
X170.72Y-62.502
X170.72Y-65.042
X170.72Y-67.582
X170.72Y-70.122
X170.72Y-72.662
X170.72Y-75.202
X170.72Y-77.742
X170.72Y-80.282
X170.72Y-82.822
X170.72Y-86.886
X170.72Y-89.426
X170.72Y-91.966
X170.72Y-94.506
X170.72Y-97.046
X170.72Y-99.586
X170.72Y-102.126
X170.72Y-104.666
X170.72Y-107.206
X170.72Y-109.746
X170.72Y-112.286
X170.72Y-114.826
X170.72Y-117.366
X170.72Y-119.906
X170.72Y-122.446
X170.72Y-124.986
X170.72Y-127.526
X172.1Y-149.09
X172.1Y-152.9
T5
X118.284Y-60.886
X118.284Y-65.386
X124.784Y-60.886
X124.784Y-65.386
X151.5Y-121.5
X151.5Y-126.0
X158.0Y-121.5
X158.0Y-126.0
T6
X131.8Y-153.0
X131.85Y-140.95
X146.0Y-147.0
T7
X148.614Y-62.535
X164.154Y-62.535
X128.929Y-62.535
X144.469Y-62.535
T8
X170.05Y-134.48
X170.05Y-139.56
T0
M30
