%TF.GenerationSoftware,KiCad,Pcbnew,5.1.6-1.fc32*%
%TF.CreationDate,2021-02-06T18:10:13+01:00*%
%TF.ProjectId,acnode-nucleo144,61636e6f-6465-42d6-9e75-636c656f3134,rev?*%
%TF.SameCoordinates,Original*%
%TF.FileFunction,Soldermask,Bot*%
%TF.FilePolarity,Negative*%
%FSLAX46Y46*%
G04 Gerber Fmt 4.6, Leading zero omitted, Abs format (unit mm)*
G04 Created by KiCad (PCBNEW 5.1.6-1.fc32) date 2021-02-06 18:10:13*
%MOMM*%
%LPD*%
G01*
G04 APERTURE LIST*
%ADD10C,1.600000*%
%ADD11C,3.100000*%
%ADD12R,1.600000X1.600000*%
%ADD13C,3.350000*%
%ADD14C,1.800000*%
%ADD15C,2.600000*%
%ADD16C,2.000000*%
%ADD17C,2.100000*%
%ADD18O,1.800000X1.800000*%
%ADD19R,1.800000X1.800000*%
%ADD20C,2.640000*%
%ADD21R,1.700000X1.700000*%
%ADD22O,1.700000X1.700000*%
G04 APERTURE END LIST*
D10*
%TO.C,J2*%
X154479000Y-74475000D03*
X151939000Y-74475000D03*
D11*
X164154000Y-62535000D03*
D10*
X159559000Y-74475000D03*
D12*
X160829000Y-71935000D03*
D10*
X153209000Y-71935000D03*
X157019000Y-74475000D03*
X155749000Y-71935000D03*
X158289000Y-71935000D03*
D13*
X162099000Y-65585000D03*
D11*
X148614000Y-62535000D03*
D13*
X150669000Y-65585000D03*
%TD*%
D10*
%TO.C,J1*%
X134794000Y-74475000D03*
X132254000Y-74475000D03*
D11*
X144469000Y-62535000D03*
D10*
X139874000Y-74475000D03*
D12*
X141144000Y-71935000D03*
D10*
X133524000Y-71935000D03*
X137334000Y-74475000D03*
X136064000Y-71935000D03*
X138604000Y-71935000D03*
D13*
X142414000Y-65585000D03*
D11*
X128929000Y-62535000D03*
D13*
X130984000Y-65585000D03*
%TD*%
D14*
%TO.C,U2*%
X170720000Y-127526000D03*
X168180000Y-127526000D03*
X170720000Y-59962000D03*
X168180000Y-59962000D03*
X168180000Y-62502000D03*
X170720000Y-62502000D03*
X168180000Y-80282000D03*
X168180000Y-77742000D03*
X168180000Y-75202000D03*
X168180000Y-72662000D03*
X168180000Y-70122000D03*
X168180000Y-67582000D03*
X168180000Y-65042000D03*
X170720000Y-65042000D03*
X170720000Y-67582000D03*
X170720000Y-70122000D03*
X170720000Y-72662000D03*
X170720000Y-75202000D03*
X170720000Y-77742000D03*
X170720000Y-80282000D03*
X168180000Y-82822000D03*
X170720000Y-82822000D03*
X170720000Y-119906000D03*
X170720000Y-117366000D03*
X170720000Y-114826000D03*
X170720000Y-112286000D03*
X170720000Y-109746000D03*
X170720000Y-107206000D03*
X170720000Y-104666000D03*
X170720000Y-102126000D03*
X170720000Y-99586000D03*
X170720000Y-97046000D03*
X170720000Y-94506000D03*
X170720000Y-91966000D03*
X170720000Y-89426000D03*
X170720000Y-86886000D03*
X168180000Y-86886000D03*
X168180000Y-89426000D03*
X168180000Y-91966000D03*
X168180000Y-94506000D03*
X168180000Y-97046000D03*
X168180000Y-99586000D03*
X168180000Y-102126000D03*
X168180000Y-104666000D03*
X168180000Y-107206000D03*
X168180000Y-109746000D03*
X168180000Y-112286000D03*
X168180000Y-114826000D03*
X168180000Y-117366000D03*
X168180000Y-119906000D03*
X170720000Y-122446000D03*
X168180000Y-122446000D03*
X168180000Y-124986000D03*
X125000000Y-69360000D03*
X125000000Y-71900000D03*
X125000000Y-74440000D03*
X125000000Y-76980000D03*
X125000000Y-79520000D03*
X125000000Y-82060000D03*
X125000000Y-84600000D03*
X125000000Y-87140000D03*
X122460000Y-69360000D03*
X122460000Y-71900000D03*
X122460000Y-74440000D03*
X122460000Y-76980000D03*
X122460000Y-79520000D03*
X122460000Y-82060000D03*
X122460000Y-84600000D03*
X122460000Y-87140000D03*
X125000000Y-92220000D03*
X122460000Y-92220000D03*
X125000000Y-127780000D03*
X125000000Y-125240000D03*
X125000000Y-122700000D03*
X125000000Y-120160000D03*
X125000000Y-117620000D03*
X125000000Y-115080000D03*
X125000000Y-112540000D03*
X125000000Y-110000000D03*
X125000000Y-107460000D03*
X125000000Y-104920000D03*
X125000000Y-102380000D03*
X125000000Y-99840000D03*
X125000000Y-97300000D03*
X125000000Y-94760000D03*
X122460000Y-94760000D03*
X122460000Y-97300000D03*
X122460000Y-99840000D03*
X122460000Y-102380000D03*
X122460000Y-104920000D03*
X122460000Y-107460000D03*
X122460000Y-110000000D03*
X122460000Y-112540000D03*
X122460000Y-115080000D03*
X122460000Y-117620000D03*
X122460000Y-120160000D03*
X122460000Y-122700000D03*
X122460000Y-125240000D03*
X170720000Y-124986000D03*
X122460000Y-127780000D03*
%TD*%
D15*
%TO.C,K1*%
X144050000Y-140950000D03*
D11*
X131850000Y-140950000D03*
X131800000Y-153000000D03*
D15*
X144050000Y-152950000D03*
D11*
X146000000Y-147000000D03*
%TD*%
D16*
%TO.C,J5*%
X172100000Y-149090000D03*
X172100000Y-152900000D03*
%TD*%
D17*
%TO.C,J4*%
X121900000Y-143190000D03*
X121900000Y-147000000D03*
X121900000Y-150810000D03*
%TD*%
%TO.C,SW2*%
X158000000Y-121500000D03*
X158000000Y-126000000D03*
X151500000Y-121500000D03*
X151500000Y-126000000D03*
%TD*%
%TO.C,SW1*%
X124784000Y-60886000D03*
X124784000Y-65386000D03*
X118284000Y-60886000D03*
X118284000Y-65386000D03*
%TD*%
D18*
%TO.C,J6*%
X150120000Y-93000000D03*
X147580000Y-93000000D03*
X145040000Y-93000000D03*
D19*
X142500000Y-93000000D03*
%TD*%
D20*
%TO.C,J3*%
X170050000Y-134480000D03*
X170050000Y-139560000D03*
%TD*%
D21*
%TO.C,D2*%
X152000000Y-151000000D03*
D22*
X152000000Y-143380000D03*
%TD*%
M02*
