%TF.GenerationSoftware,KiCad,Pcbnew,5.1.6-1.fc32*%
%TF.CreationDate,2021-02-06T18:10:12+01:00*%
%TF.ProjectId,acnode-nucleo144,61636e6f-6465-42d6-9e75-636c656f3134,rev?*%
%TF.SameCoordinates,Original*%
%TF.FileFunction,Copper,L1,Top*%
%TF.FilePolarity,Positive*%
%FSLAX46Y46*%
G04 Gerber Fmt 4.6, Leading zero omitted, Abs format (unit mm)*
G04 Created by KiCad (PCBNEW 5.1.6-1.fc32) date 2021-02-06 18:10:12*
%MOMM*%
%LPD*%
G01*
G04 APERTURE LIST*
%TA.AperFunction,ComponentPad*%
%ADD10C,1.500000*%
%TD*%
%TA.AperFunction,ComponentPad*%
%ADD11C,3.000000*%
%TD*%
%TA.AperFunction,ComponentPad*%
%ADD12R,1.500000X1.500000*%
%TD*%
%TA.AperFunction,ComponentPad*%
%ADD13C,1.700000*%
%TD*%
%TA.AperFunction,ComponentPad*%
%ADD14C,2.500000*%
%TD*%
%TA.AperFunction,SMDPad,CuDef*%
%ADD15R,1.000000X0.800000*%
%TD*%
%TA.AperFunction,ComponentPad*%
%ADD16C,1.900000*%
%TD*%
%TA.AperFunction,ComponentPad*%
%ADD17C,2.000000*%
%TD*%
%TA.AperFunction,SMDPad,CuDef*%
%ADD18R,1.500000X0.900000*%
%TD*%
%TA.AperFunction,SMDPad,CuDef*%
%ADD19R,0.800000X0.900000*%
%TD*%
%TA.AperFunction,SMDPad,CuDef*%
%ADD20R,2.000000X1.500000*%
%TD*%
%TA.AperFunction,SMDPad,CuDef*%
%ADD21R,2.000000X3.800000*%
%TD*%
%TA.AperFunction,ComponentPad*%
%ADD22O,1.700000X1.700000*%
%TD*%
%TA.AperFunction,ComponentPad*%
%ADD23R,1.700000X1.700000*%
%TD*%
%TA.AperFunction,ComponentPad*%
%ADD24C,2.540000*%
%TD*%
%TA.AperFunction,ComponentPad*%
%ADD25R,1.600000X1.600000*%
%TD*%
%TA.AperFunction,ComponentPad*%
%ADD26O,1.600000X1.600000*%
%TD*%
%TA.AperFunction,ViaPad*%
%ADD27C,0.800000*%
%TD*%
%TA.AperFunction,Conductor*%
%ADD28C,0.500000*%
%TD*%
%TA.AperFunction,Conductor*%
%ADD29C,0.250000*%
%TD*%
%TA.AperFunction,Conductor*%
%ADD30C,0.200000*%
%TD*%
%TA.AperFunction,Conductor*%
%ADD31C,1.000000*%
%TD*%
%TA.AperFunction,Conductor*%
%ADD32C,0.254000*%
%TD*%
G04 APERTURE END LIST*
%TO.P,U3,8*%
%TO.N,+3V3*%
%TA.AperFunction,SMDPad,CuDef*%
G36*
G01*
X160708000Y-88277500D02*
X160708000Y-87977500D01*
G75*
G02*
X160858000Y-87827500I150000J0D01*
G01*
X162158000Y-87827500D01*
G75*
G02*
X162308000Y-87977500I0J-150000D01*
G01*
X162308000Y-88277500D01*
G75*
G02*
X162158000Y-88427500I-150000J0D01*
G01*
X160858000Y-88427500D01*
G75*
G02*
X160708000Y-88277500I0J150000D01*
G01*
G37*
%TD.AperFunction*%
%TO.P,U3,7*%
%TA.AperFunction,SMDPad,CuDef*%
G36*
G01*
X160708000Y-89547500D02*
X160708000Y-89247500D01*
G75*
G02*
X160858000Y-89097500I150000J0D01*
G01*
X162158000Y-89097500D01*
G75*
G02*
X162308000Y-89247500I0J-150000D01*
G01*
X162308000Y-89547500D01*
G75*
G02*
X162158000Y-89697500I-150000J0D01*
G01*
X160858000Y-89697500D01*
G75*
G02*
X160708000Y-89547500I0J150000D01*
G01*
G37*
%TD.AperFunction*%
%TO.P,U3,6*%
%TO.N,/SPI_Clk*%
%TA.AperFunction,SMDPad,CuDef*%
G36*
G01*
X160708000Y-90817500D02*
X160708000Y-90517500D01*
G75*
G02*
X160858000Y-90367500I150000J0D01*
G01*
X162158000Y-90367500D01*
G75*
G02*
X162308000Y-90517500I0J-150000D01*
G01*
X162308000Y-90817500D01*
G75*
G02*
X162158000Y-90967500I-150000J0D01*
G01*
X160858000Y-90967500D01*
G75*
G02*
X160708000Y-90817500I0J150000D01*
G01*
G37*
%TD.AperFunction*%
%TO.P,U3,5*%
%TO.N,/SPI_MOSI*%
%TA.AperFunction,SMDPad,CuDef*%
G36*
G01*
X160708000Y-92087500D02*
X160708000Y-91787500D01*
G75*
G02*
X160858000Y-91637500I150000J0D01*
G01*
X162158000Y-91637500D01*
G75*
G02*
X162308000Y-91787500I0J-150000D01*
G01*
X162308000Y-92087500D01*
G75*
G02*
X162158000Y-92237500I-150000J0D01*
G01*
X160858000Y-92237500D01*
G75*
G02*
X160708000Y-92087500I0J150000D01*
G01*
G37*
%TD.AperFunction*%
%TO.P,U3,4*%
%TO.N,GND*%
%TA.AperFunction,SMDPad,CuDef*%
G36*
G01*
X153508000Y-92087500D02*
X153508000Y-91787500D01*
G75*
G02*
X153658000Y-91637500I150000J0D01*
G01*
X154958000Y-91637500D01*
G75*
G02*
X155108000Y-91787500I0J-150000D01*
G01*
X155108000Y-92087500D01*
G75*
G02*
X154958000Y-92237500I-150000J0D01*
G01*
X153658000Y-92237500D01*
G75*
G02*
X153508000Y-92087500I0J150000D01*
G01*
G37*
%TD.AperFunction*%
%TO.P,U3,3*%
%TO.N,+3V3*%
%TA.AperFunction,SMDPad,CuDef*%
G36*
G01*
X153508000Y-90817500D02*
X153508000Y-90517500D01*
G75*
G02*
X153658000Y-90367500I150000J0D01*
G01*
X154958000Y-90367500D01*
G75*
G02*
X155108000Y-90517500I0J-150000D01*
G01*
X155108000Y-90817500D01*
G75*
G02*
X154958000Y-90967500I-150000J0D01*
G01*
X153658000Y-90967500D01*
G75*
G02*
X153508000Y-90817500I0J150000D01*
G01*
G37*
%TD.AperFunction*%
%TO.P,U3,2*%
%TO.N,/SPI_MISO*%
%TA.AperFunction,SMDPad,CuDef*%
G36*
G01*
X153508000Y-89547500D02*
X153508000Y-89247500D01*
G75*
G02*
X153658000Y-89097500I150000J0D01*
G01*
X154958000Y-89097500D01*
G75*
G02*
X155108000Y-89247500I0J-150000D01*
G01*
X155108000Y-89547500D01*
G75*
G02*
X154958000Y-89697500I-150000J0D01*
G01*
X153658000Y-89697500D01*
G75*
G02*
X153508000Y-89547500I0J150000D01*
G01*
G37*
%TD.AperFunction*%
%TO.P,U3,1*%
%TO.N,/SPIFlash_CS*%
%TA.AperFunction,SMDPad,CuDef*%
G36*
G01*
X153508000Y-88277500D02*
X153508000Y-87977500D01*
G75*
G02*
X153658000Y-87827500I150000J0D01*
G01*
X154958000Y-87827500D01*
G75*
G02*
X155108000Y-87977500I0J-150000D01*
G01*
X155108000Y-88277500D01*
G75*
G02*
X154958000Y-88427500I-150000J0D01*
G01*
X153658000Y-88427500D01*
G75*
G02*
X153508000Y-88277500I0J150000D01*
G01*
G37*
%TD.AperFunction*%
%TD*%
%TO.P,R2,2*%
%TO.N,/SPIFlash_CS*%
%TA.AperFunction,SMDPad,CuDef*%
G36*
G01*
X151306250Y-88666500D02*
X150793750Y-88666500D01*
G75*
G02*
X150575000Y-88447750I0J218750D01*
G01*
X150575000Y-88010250D01*
G75*
G02*
X150793750Y-87791500I218750J0D01*
G01*
X151306250Y-87791500D01*
G75*
G02*
X151525000Y-88010250I0J-218750D01*
G01*
X151525000Y-88447750D01*
G75*
G02*
X151306250Y-88666500I-218750J0D01*
G01*
G37*
%TD.AperFunction*%
%TO.P,R2,1*%
%TO.N,+3V3*%
%TA.AperFunction,SMDPad,CuDef*%
G36*
G01*
X151306250Y-90241500D02*
X150793750Y-90241500D01*
G75*
G02*
X150575000Y-90022750I0J218750D01*
G01*
X150575000Y-89585250D01*
G75*
G02*
X150793750Y-89366500I218750J0D01*
G01*
X151306250Y-89366500D01*
G75*
G02*
X151525000Y-89585250I0J-218750D01*
G01*
X151525000Y-90022750D01*
G75*
G02*
X151306250Y-90241500I-218750J0D01*
G01*
G37*
%TD.AperFunction*%
%TD*%
%TO.P,C2,2*%
%TO.N,+3V3*%
%TA.AperFunction,SMDPad,CuDef*%
G36*
G01*
X163684250Y-87398000D02*
X164196750Y-87398000D01*
G75*
G02*
X164415500Y-87616750I0J-218750D01*
G01*
X164415500Y-88054250D01*
G75*
G02*
X164196750Y-88273000I-218750J0D01*
G01*
X163684250Y-88273000D01*
G75*
G02*
X163465500Y-88054250I0J218750D01*
G01*
X163465500Y-87616750D01*
G75*
G02*
X163684250Y-87398000I218750J0D01*
G01*
G37*
%TD.AperFunction*%
%TO.P,C2,1*%
%TO.N,GND*%
%TA.AperFunction,SMDPad,CuDef*%
G36*
G01*
X163684250Y-85823000D02*
X164196750Y-85823000D01*
G75*
G02*
X164415500Y-86041750I0J-218750D01*
G01*
X164415500Y-86479250D01*
G75*
G02*
X164196750Y-86698000I-218750J0D01*
G01*
X163684250Y-86698000D01*
G75*
G02*
X163465500Y-86479250I0J218750D01*
G01*
X163465500Y-86041750D01*
G75*
G02*
X163684250Y-85823000I218750J0D01*
G01*
G37*
%TD.AperFunction*%
%TD*%
D10*
%TO.P,J2,6*%
%TO.N,/Reader_SerialTx*%
X154479000Y-74475000D03*
%TO.P,J2,8*%
%TO.N,/LED_Blue_Cathode*%
X151939000Y-74475000D03*
D11*
%TO.P,J2,SH*%
%TO.N,GND*%
X164154000Y-62535000D03*
D10*
%TO.P,J2,2*%
X159559000Y-74475000D03*
D12*
%TO.P,J2,1*%
%TO.N,+5V*%
X160829000Y-71935000D03*
D10*
%TO.P,J2,7*%
%TO.N,/LED_Green_Cathode*%
X153209000Y-71935000D03*
%TO.P,J2,4*%
%TO.N,/LED_Red_Cathode*%
X157019000Y-74475000D03*
%TO.P,J2,5*%
%TO.N,BigButton*%
X155749000Y-71935000D03*
%TO.P,J2,3*%
%TO.N,/Reader_SerialRx*%
X158289000Y-71935000D03*
D11*
%TO.P,J2,SH*%
%TO.N,GND*%
X148614000Y-62535000D03*
%TD*%
D10*
%TO.P,J1,6*%
%TO.N,/422_RX+*%
X134794000Y-74475000D03*
%TO.P,J1,8*%
%TO.N,/422_TX+*%
X132254000Y-74475000D03*
D11*
%TO.P,J1,SH*%
%TO.N,GND*%
X144469000Y-62535000D03*
D10*
%TO.P,J1,2*%
X139874000Y-74475000D03*
D12*
%TO.P,J1,1*%
X141144000Y-71935000D03*
D10*
%TO.P,J1,7*%
%TO.N,/422_TX-*%
X133524000Y-71935000D03*
%TO.P,J1,4*%
%TO.N,+12V*%
X137334000Y-74475000D03*
%TO.P,J1,5*%
X136064000Y-71935000D03*
%TO.P,J1,3*%
%TO.N,/422_RX-*%
X138604000Y-71935000D03*
D11*
%TO.P,J1,SH*%
%TO.N,GND*%
X128929000Y-62535000D03*
%TD*%
D13*
%TO.P,U2,100*%
%TO.N,N/C*%
X170720000Y-127526000D03*
%TO.P,U2,99*%
%TO.N,BigButton*%
X168180000Y-127526000D03*
%TO.P,U2,48*%
%TO.N,i2c_SCL*%
X170720000Y-59962000D03*
%TO.P,U2,47*%
%TO.N,N/C*%
X168180000Y-59962000D03*
%TO.P,U2,49*%
X168180000Y-62502000D03*
%TO.P,U2,50*%
%TO.N,i2c_SDA*%
X170720000Y-62502000D03*
%TO.P,U2,63*%
%TO.N,/SPIFlash_CS*%
X168180000Y-80282000D03*
%TO.P,U2,61*%
%TO.N,/SPI_Clk*%
X168180000Y-77742000D03*
%TO.P,U2,59*%
%TO.N,/SPI_MOSI*%
X168180000Y-75202000D03*
%TO.P,U2,57*%
%TO.N,N/C*%
X168180000Y-72662000D03*
%TO.P,U2,55*%
X168180000Y-70122000D03*
%TO.P,U2,53*%
X168180000Y-67582000D03*
%TO.P,U2,51*%
X168180000Y-65042000D03*
%TO.P,U2,52*%
X170720000Y-65042000D03*
%TO.P,U2,54*%
%TO.N,GND*%
X170720000Y-67582000D03*
%TO.P,U2,56*%
%TO.N,N/C*%
X170720000Y-70122000D03*
%TO.P,U2,58*%
X170720000Y-72662000D03*
%TO.P,U2,60*%
X170720000Y-75202000D03*
%TO.P,U2,62*%
X170720000Y-77742000D03*
%TO.P,U2,64*%
X170720000Y-80282000D03*
%TO.P,U2,65*%
%TO.N,/SPI_MISO*%
X168180000Y-82822000D03*
%TO.P,U2,66*%
%TO.N,N/C*%
X170720000Y-82822000D03*
%TO.P,U2,94*%
X170720000Y-119906000D03*
%TO.P,U2,92*%
X170720000Y-117366000D03*
%TO.P,U2,90*%
X170720000Y-114826000D03*
%TO.P,U2,88*%
%TO.N,GND*%
X170720000Y-112286000D03*
%TO.P,U2,86*%
%TO.N,N/C*%
X170720000Y-109746000D03*
%TO.P,U2,84*%
X170720000Y-107206000D03*
%TO.P,U2,82*%
%TO.N,/Reader_SerialRx*%
X170720000Y-104666000D03*
%TO.P,U2,80*%
%TO.N,/Reader_SerialTx*%
X170720000Y-102126000D03*
%TO.P,U2,78*%
%TO.N,N/C*%
X170720000Y-99586000D03*
%TO.P,U2,76*%
%TO.N,/LED_B_Trigger*%
X170720000Y-97046000D03*
%TO.P,U2,74*%
%TO.N,N/C*%
X170720000Y-94506000D03*
%TO.P,U2,72*%
%TO.N,/LED_G_Trigger*%
X170720000Y-91966000D03*
%TO.P,U2,70*%
%TO.N,/LED_R_Trigger*%
X170720000Y-89426000D03*
%TO.P,U2,68*%
%TO.N,/ToolEnable*%
X170720000Y-86886000D03*
%TO.P,U2,67*%
%TO.N,N/C*%
X168180000Y-86886000D03*
%TO.P,U2,69*%
X168180000Y-89426000D03*
%TO.P,U2,71*%
%TO.N,GND*%
X168180000Y-91966000D03*
%TO.P,U2,73*%
%TO.N,N/C*%
X168180000Y-94506000D03*
%TO.P,U2,75*%
X168180000Y-97046000D03*
%TO.P,U2,77*%
X168180000Y-99586000D03*
%TO.P,U2,79*%
X168180000Y-102126000D03*
%TO.P,U2,81*%
X168180000Y-104666000D03*
%TO.P,U2,83*%
%TO.N,GND*%
X168180000Y-107206000D03*
%TO.P,U2,85*%
%TO.N,N/C*%
X168180000Y-109746000D03*
%TO.P,U2,87*%
X168180000Y-112286000D03*
%TO.P,U2,89*%
X168180000Y-114826000D03*
%TO.P,U2,91*%
X168180000Y-117366000D03*
%TO.P,U2,93*%
%TO.N,GND*%
X168180000Y-119906000D03*
%TO.P,U2,96*%
%TO.N,N/C*%
X170720000Y-122446000D03*
%TO.P,U2,95*%
%TO.N,/~ToolOn*%
X168180000Y-122446000D03*
%TO.P,U2,97*%
%TO.N,N/C*%
X168180000Y-124986000D03*
%TO.P,U2,2*%
X125000000Y-69360000D03*
%TO.P,U2,4*%
X125000000Y-71900000D03*
%TO.P,U2,6*%
X125000000Y-74440000D03*
%TO.P,U2,8*%
X125000000Y-76980000D03*
%TO.P,U2,10*%
X125000000Y-79520000D03*
%TO.P,U2,12*%
X125000000Y-82060000D03*
%TO.P,U2,14*%
X125000000Y-84600000D03*
%TO.P,U2,16*%
X125000000Y-87140000D03*
%TO.P,U2,1*%
X122460000Y-69360000D03*
%TO.P,U2,3*%
X122460000Y-71900000D03*
%TO.P,U2,5*%
%TO.N,~Reset*%
X122460000Y-74440000D03*
%TO.P,U2,7*%
%TO.N,+3V3*%
X122460000Y-76980000D03*
%TO.P,U2,9*%
%TO.N,+5V*%
X122460000Y-79520000D03*
%TO.P,U2,11*%
%TO.N,GND*%
X122460000Y-82060000D03*
%TO.P,U2,13*%
X122460000Y-84600000D03*
%TO.P,U2,15*%
%TO.N,+12V*%
X122460000Y-87140000D03*
%TO.P,U2,18*%
%TO.N,N/C*%
X125000000Y-92220000D03*
%TO.P,U2,17*%
X122460000Y-92220000D03*
%TO.P,U2,46*%
X125000000Y-127780000D03*
%TO.P,U2,44*%
X125000000Y-125240000D03*
%TO.P,U2,42*%
X125000000Y-122700000D03*
%TO.P,U2,40*%
X125000000Y-120160000D03*
%TO.P,U2,38*%
X125000000Y-117620000D03*
%TO.P,U2,36*%
X125000000Y-115080000D03*
%TO.P,U2,34*%
X125000000Y-112540000D03*
%TO.P,U2,32*%
X125000000Y-110000000D03*
%TO.P,U2,30*%
X125000000Y-107460000D03*
%TO.P,U2,28*%
%TO.N,GND*%
X125000000Y-104920000D03*
%TO.P,U2,26*%
%TO.N,N/C*%
X125000000Y-102380000D03*
%TO.P,U2,24*%
X125000000Y-99840000D03*
%TO.P,U2,22*%
X125000000Y-97300000D03*
%TO.P,U2,20*%
X125000000Y-94760000D03*
%TO.P,U2,19*%
X122460000Y-94760000D03*
%TO.P,U2,21*%
X122460000Y-97300000D03*
%TO.P,U2,23*%
X122460000Y-99840000D03*
%TO.P,U2,25*%
X122460000Y-102380000D03*
%TO.P,U2,27*%
X122460000Y-104920000D03*
%TO.P,U2,29*%
X122460000Y-107460000D03*
%TO.P,U2,31*%
X122460000Y-110000000D03*
%TO.P,U2,33*%
X122460000Y-112540000D03*
%TO.P,U2,35*%
X122460000Y-115080000D03*
%TO.P,U2,37*%
X122460000Y-117620000D03*
%TO.P,U2,39*%
%TO.N,GND*%
X122460000Y-120160000D03*
%TO.P,U2,41*%
%TO.N,N/C*%
X122460000Y-122700000D03*
%TO.P,U2,43*%
X122460000Y-125240000D03*
%TO.P,U2,98*%
X170720000Y-124986000D03*
%TO.P,U2,45*%
X122460000Y-127780000D03*
%TD*%
D14*
%TO.P,K1,2*%
%TO.N,Net-(D2-Pad2)*%
X144050000Y-140950000D03*
D11*
%TO.P,K1,3*%
%TO.N,Net-(J4-Pad1)*%
X131850000Y-140950000D03*
%TO.P,K1,4*%
%TO.N,Net-(J4-Pad3)*%
X131800000Y-153000000D03*
D14*
%TO.P,K1,5*%
%TO.N,+5V*%
X144050000Y-152950000D03*
D11*
%TO.P,K1,1*%
%TO.N,Net-(J4-Pad2)*%
X146000000Y-147000000D03*
%TD*%
D15*
%TO.P,U4,2*%
%TO.N,Net-(J5-Pad2)*%
X165050000Y-149330000D03*
%TO.P,U4,3*%
%TO.N,/~ToolOn*%
X158550000Y-149330000D03*
%TO.P,U4,4*%
%TO.N,GND*%
X158550000Y-151870000D03*
%TO.P,U4,1*%
%TO.N,Net-(R11-Pad1)*%
X165050000Y-151870000D03*
%TD*%
D16*
%TO.P,J5,2*%
%TO.N,Net-(J5-Pad2)*%
X172100000Y-149090000D03*
%TO.P,J5,1*%
%TO.N,Net-(J5-Pad1)*%
X172100000Y-152900000D03*
%TD*%
D17*
%TO.P,J4,1*%
%TO.N,Net-(J4-Pad1)*%
X121900000Y-143190000D03*
%TO.P,J4,2*%
%TO.N,Net-(J4-Pad2)*%
X121900000Y-147000000D03*
%TO.P,J4,3*%
%TO.N,Net-(J4-Pad3)*%
X121900000Y-150810000D03*
%TD*%
D18*
%TO.P,D1,2*%
%TO.N,Net-(D1-Pad2)*%
X140550000Y-124700000D03*
%TO.P,D1,1*%
%TO.N,+3V3*%
X140550000Y-123300000D03*
%TO.P,D1,4*%
%TO.N,Net-(D1-Pad4)*%
X137450000Y-124700000D03*
%TO.P,D1,3*%
%TO.N,Net-(D1-Pad3)*%
X137450000Y-123300000D03*
%TD*%
%TO.P,U1,14*%
%TO.N,+3V3*%
%TA.AperFunction,SMDPad,CuDef*%
G36*
G01*
X134500000Y-81090000D02*
X134500000Y-80790000D01*
G75*
G02*
X134650000Y-80640000I150000J0D01*
G01*
X136300000Y-80640000D01*
G75*
G02*
X136450000Y-80790000I0J-150000D01*
G01*
X136450000Y-81090000D01*
G75*
G02*
X136300000Y-81240000I-150000J0D01*
G01*
X134650000Y-81240000D01*
G75*
G02*
X134500000Y-81090000I0J150000D01*
G01*
G37*
%TD.AperFunction*%
%TO.P,U1,13*%
%TO.N,N/C*%
%TA.AperFunction,SMDPad,CuDef*%
G36*
G01*
X134500000Y-82360000D02*
X134500000Y-82060000D01*
G75*
G02*
X134650000Y-81910000I150000J0D01*
G01*
X136300000Y-81910000D01*
G75*
G02*
X136450000Y-82060000I0J-150000D01*
G01*
X136450000Y-82360000D01*
G75*
G02*
X136300000Y-82510000I-150000J0D01*
G01*
X134650000Y-82510000D01*
G75*
G02*
X134500000Y-82360000I0J150000D01*
G01*
G37*
%TD.AperFunction*%
%TO.P,U1,12*%
%TO.N,/422_RX+*%
%TA.AperFunction,SMDPad,CuDef*%
G36*
G01*
X134500000Y-83630000D02*
X134500000Y-83330000D01*
G75*
G02*
X134650000Y-83180000I150000J0D01*
G01*
X136300000Y-83180000D01*
G75*
G02*
X136450000Y-83330000I0J-150000D01*
G01*
X136450000Y-83630000D01*
G75*
G02*
X136300000Y-83780000I-150000J0D01*
G01*
X134650000Y-83780000D01*
G75*
G02*
X134500000Y-83630000I0J150000D01*
G01*
G37*
%TD.AperFunction*%
%TO.P,U1,11*%
%TO.N,/422_RX-*%
%TA.AperFunction,SMDPad,CuDef*%
G36*
G01*
X134500000Y-84900000D02*
X134500000Y-84600000D01*
G75*
G02*
X134650000Y-84450000I150000J0D01*
G01*
X136300000Y-84450000D01*
G75*
G02*
X136450000Y-84600000I0J-150000D01*
G01*
X136450000Y-84900000D01*
G75*
G02*
X136300000Y-85050000I-150000J0D01*
G01*
X134650000Y-85050000D01*
G75*
G02*
X134500000Y-84900000I0J150000D01*
G01*
G37*
%TD.AperFunction*%
%TO.P,U1,10*%
%TO.N,/422_TX-*%
%TA.AperFunction,SMDPad,CuDef*%
G36*
G01*
X134500000Y-86170000D02*
X134500000Y-85870000D01*
G75*
G02*
X134650000Y-85720000I150000J0D01*
G01*
X136300000Y-85720000D01*
G75*
G02*
X136450000Y-85870000I0J-150000D01*
G01*
X136450000Y-86170000D01*
G75*
G02*
X136300000Y-86320000I-150000J0D01*
G01*
X134650000Y-86320000D01*
G75*
G02*
X134500000Y-86170000I0J150000D01*
G01*
G37*
%TD.AperFunction*%
%TO.P,U1,9*%
%TO.N,/422_TX+*%
%TA.AperFunction,SMDPad,CuDef*%
G36*
G01*
X134500000Y-87440000D02*
X134500000Y-87140000D01*
G75*
G02*
X134650000Y-86990000I150000J0D01*
G01*
X136300000Y-86990000D01*
G75*
G02*
X136450000Y-87140000I0J-150000D01*
G01*
X136450000Y-87440000D01*
G75*
G02*
X136300000Y-87590000I-150000J0D01*
G01*
X134650000Y-87590000D01*
G75*
G02*
X134500000Y-87440000I0J150000D01*
G01*
G37*
%TD.AperFunction*%
%TO.P,U1,8*%
%TO.N,N/C*%
%TA.AperFunction,SMDPad,CuDef*%
G36*
G01*
X134500000Y-88710000D02*
X134500000Y-88410000D01*
G75*
G02*
X134650000Y-88260000I150000J0D01*
G01*
X136300000Y-88260000D01*
G75*
G02*
X136450000Y-88410000I0J-150000D01*
G01*
X136450000Y-88710000D01*
G75*
G02*
X136300000Y-88860000I-150000J0D01*
G01*
X134650000Y-88860000D01*
G75*
G02*
X134500000Y-88710000I0J150000D01*
G01*
G37*
%TD.AperFunction*%
%TO.P,U1,7*%
%TO.N,GND*%
%TA.AperFunction,SMDPad,CuDef*%
G36*
G01*
X129550000Y-88710000D02*
X129550000Y-88410000D01*
G75*
G02*
X129700000Y-88260000I150000J0D01*
G01*
X131350000Y-88260000D01*
G75*
G02*
X131500000Y-88410000I0J-150000D01*
G01*
X131500000Y-88710000D01*
G75*
G02*
X131350000Y-88860000I-150000J0D01*
G01*
X129700000Y-88860000D01*
G75*
G02*
X129550000Y-88710000I0J150000D01*
G01*
G37*
%TD.AperFunction*%
%TO.P,U1,6*%
%TA.AperFunction,SMDPad,CuDef*%
G36*
G01*
X129550000Y-87440000D02*
X129550000Y-87140000D01*
G75*
G02*
X129700000Y-86990000I150000J0D01*
G01*
X131350000Y-86990000D01*
G75*
G02*
X131500000Y-87140000I0J-150000D01*
G01*
X131500000Y-87440000D01*
G75*
G02*
X131350000Y-87590000I-150000J0D01*
G01*
X129700000Y-87590000D01*
G75*
G02*
X129550000Y-87440000I0J150000D01*
G01*
G37*
%TD.AperFunction*%
%TO.P,U1,5*%
%TO.N,/Reader_SerialTx*%
%TA.AperFunction,SMDPad,CuDef*%
G36*
G01*
X129550000Y-86170000D02*
X129550000Y-85870000D01*
G75*
G02*
X129700000Y-85720000I150000J0D01*
G01*
X131350000Y-85720000D01*
G75*
G02*
X131500000Y-85870000I0J-150000D01*
G01*
X131500000Y-86170000D01*
G75*
G02*
X131350000Y-86320000I-150000J0D01*
G01*
X129700000Y-86320000D01*
G75*
G02*
X129550000Y-86170000I0J150000D01*
G01*
G37*
%TD.AperFunction*%
%TO.P,U1,4*%
%TO.N,+3V3*%
%TA.AperFunction,SMDPad,CuDef*%
G36*
G01*
X129550000Y-84900000D02*
X129550000Y-84600000D01*
G75*
G02*
X129700000Y-84450000I150000J0D01*
G01*
X131350000Y-84450000D01*
G75*
G02*
X131500000Y-84600000I0J-150000D01*
G01*
X131500000Y-84900000D01*
G75*
G02*
X131350000Y-85050000I-150000J0D01*
G01*
X129700000Y-85050000D01*
G75*
G02*
X129550000Y-84900000I0J150000D01*
G01*
G37*
%TD.AperFunction*%
%TO.P,U1,3*%
%TO.N,GND*%
%TA.AperFunction,SMDPad,CuDef*%
G36*
G01*
X129550000Y-83630000D02*
X129550000Y-83330000D01*
G75*
G02*
X129700000Y-83180000I150000J0D01*
G01*
X131350000Y-83180000D01*
G75*
G02*
X131500000Y-83330000I0J-150000D01*
G01*
X131500000Y-83630000D01*
G75*
G02*
X131350000Y-83780000I-150000J0D01*
G01*
X129700000Y-83780000D01*
G75*
G02*
X129550000Y-83630000I0J150000D01*
G01*
G37*
%TD.AperFunction*%
%TO.P,U1,2*%
%TO.N,/Reader_SerialRx*%
%TA.AperFunction,SMDPad,CuDef*%
G36*
G01*
X129550000Y-82360000D02*
X129550000Y-82060000D01*
G75*
G02*
X129700000Y-81910000I150000J0D01*
G01*
X131350000Y-81910000D01*
G75*
G02*
X131500000Y-82060000I0J-150000D01*
G01*
X131500000Y-82360000D01*
G75*
G02*
X131350000Y-82510000I-150000J0D01*
G01*
X129700000Y-82510000D01*
G75*
G02*
X129550000Y-82360000I0J150000D01*
G01*
G37*
%TD.AperFunction*%
%TO.P,U1,1*%
%TO.N,N/C*%
%TA.AperFunction,SMDPad,CuDef*%
G36*
G01*
X129550000Y-81090000D02*
X129550000Y-80790000D01*
G75*
G02*
X129700000Y-80640000I150000J0D01*
G01*
X131350000Y-80640000D01*
G75*
G02*
X131500000Y-80790000I0J-150000D01*
G01*
X131500000Y-81090000D01*
G75*
G02*
X131350000Y-81240000I-150000J0D01*
G01*
X129700000Y-81240000D01*
G75*
G02*
X129550000Y-81090000I0J150000D01*
G01*
G37*
%TD.AperFunction*%
%TD*%
D17*
%TO.P,SW2,1*%
%TO.N,GND*%
X158000000Y-121500000D03*
%TO.P,SW2,2*%
%TO.N,BigButton*%
X158000000Y-126000000D03*
%TO.P,SW2,1*%
%TO.N,GND*%
X151500000Y-121500000D03*
%TO.P,SW2,2*%
%TO.N,BigButton*%
X151500000Y-126000000D03*
%TD*%
%TO.P,SW1,1*%
%TO.N,GND*%
X124784000Y-60886000D03*
%TO.P,SW1,2*%
%TO.N,~Reset*%
X124784000Y-65386000D03*
%TO.P,SW1,1*%
%TO.N,GND*%
X118284000Y-60886000D03*
%TO.P,SW1,2*%
%TO.N,~Reset*%
X118284000Y-65386000D03*
%TD*%
%TO.P,R14,2*%
%TO.N,BigButton*%
%TA.AperFunction,SMDPad,CuDef*%
G36*
G01*
X148100000Y-126256250D02*
X148100000Y-125743750D01*
G75*
G02*
X148318750Y-125525000I218750J0D01*
G01*
X148756250Y-125525000D01*
G75*
G02*
X148975000Y-125743750I0J-218750D01*
G01*
X148975000Y-126256250D01*
G75*
G02*
X148756250Y-126475000I-218750J0D01*
G01*
X148318750Y-126475000D01*
G75*
G02*
X148100000Y-126256250I0J218750D01*
G01*
G37*
%TD.AperFunction*%
%TO.P,R14,1*%
%TO.N,+3V3*%
%TA.AperFunction,SMDPad,CuDef*%
G36*
G01*
X146525000Y-126256250D02*
X146525000Y-125743750D01*
G75*
G02*
X146743750Y-125525000I218750J0D01*
G01*
X147181250Y-125525000D01*
G75*
G02*
X147400000Y-125743750I0J-218750D01*
G01*
X147400000Y-126256250D01*
G75*
G02*
X147181250Y-126475000I-218750J0D01*
G01*
X146743750Y-126475000D01*
G75*
G02*
X146525000Y-126256250I0J218750D01*
G01*
G37*
%TD.AperFunction*%
%TD*%
%TO.P,R13,2*%
%TO.N,i2c_SDA*%
%TA.AperFunction,SMDPad,CuDef*%
G36*
G01*
X151006250Y-98650000D02*
X150493750Y-98650000D01*
G75*
G02*
X150275000Y-98431250I0J218750D01*
G01*
X150275000Y-97993750D01*
G75*
G02*
X150493750Y-97775000I218750J0D01*
G01*
X151006250Y-97775000D01*
G75*
G02*
X151225000Y-97993750I0J-218750D01*
G01*
X151225000Y-98431250D01*
G75*
G02*
X151006250Y-98650000I-218750J0D01*
G01*
G37*
%TD.AperFunction*%
%TO.P,R13,1*%
%TO.N,+3V3*%
%TA.AperFunction,SMDPad,CuDef*%
G36*
G01*
X151006250Y-100225000D02*
X150493750Y-100225000D01*
G75*
G02*
X150275000Y-100006250I0J218750D01*
G01*
X150275000Y-99568750D01*
G75*
G02*
X150493750Y-99350000I218750J0D01*
G01*
X151006250Y-99350000D01*
G75*
G02*
X151225000Y-99568750I0J-218750D01*
G01*
X151225000Y-100006250D01*
G75*
G02*
X151006250Y-100225000I-218750J0D01*
G01*
G37*
%TD.AperFunction*%
%TD*%
%TO.P,R12,2*%
%TO.N,i2c_SCL*%
%TA.AperFunction,SMDPad,CuDef*%
G36*
G01*
X148006250Y-98650000D02*
X147493750Y-98650000D01*
G75*
G02*
X147275000Y-98431250I0J218750D01*
G01*
X147275000Y-97993750D01*
G75*
G02*
X147493750Y-97775000I218750J0D01*
G01*
X148006250Y-97775000D01*
G75*
G02*
X148225000Y-97993750I0J-218750D01*
G01*
X148225000Y-98431250D01*
G75*
G02*
X148006250Y-98650000I-218750J0D01*
G01*
G37*
%TD.AperFunction*%
%TO.P,R12,1*%
%TO.N,+3V3*%
%TA.AperFunction,SMDPad,CuDef*%
G36*
G01*
X148006250Y-100225000D02*
X147493750Y-100225000D01*
G75*
G02*
X147275000Y-100006250I0J218750D01*
G01*
X147275000Y-99568750D01*
G75*
G02*
X147493750Y-99350000I218750J0D01*
G01*
X148006250Y-99350000D01*
G75*
G02*
X148225000Y-99568750I0J-218750D01*
G01*
X148225000Y-100006250D01*
G75*
G02*
X148006250Y-100225000I-218750J0D01*
G01*
G37*
%TD.AperFunction*%
%TD*%
%TO.P,R11,2*%
%TO.N,Net-(J5-Pad1)*%
%TA.AperFunction,SMDPad,CuDef*%
G36*
G01*
X168550000Y-154656250D02*
X168550000Y-154143750D01*
G75*
G02*
X168768750Y-153925000I218750J0D01*
G01*
X169206250Y-153925000D01*
G75*
G02*
X169425000Y-154143750I0J-218750D01*
G01*
X169425000Y-154656250D01*
G75*
G02*
X169206250Y-154875000I-218750J0D01*
G01*
X168768750Y-154875000D01*
G75*
G02*
X168550000Y-154656250I0J218750D01*
G01*
G37*
%TD.AperFunction*%
%TO.P,R11,1*%
%TO.N,Net-(R11-Pad1)*%
%TA.AperFunction,SMDPad,CuDef*%
G36*
G01*
X166975000Y-154656250D02*
X166975000Y-154143750D01*
G75*
G02*
X167193750Y-153925000I218750J0D01*
G01*
X167631250Y-153925000D01*
G75*
G02*
X167850000Y-154143750I0J-218750D01*
G01*
X167850000Y-154656250D01*
G75*
G02*
X167631250Y-154875000I-218750J0D01*
G01*
X167193750Y-154875000D01*
G75*
G02*
X166975000Y-154656250I0J218750D01*
G01*
G37*
%TD.AperFunction*%
%TD*%
%TO.P,R10,2*%
%TO.N,/~ToolOn*%
%TA.AperFunction,SMDPad,CuDef*%
G36*
G01*
X174695600Y-129847050D02*
X174695600Y-129334550D01*
G75*
G02*
X174914350Y-129115800I218750J0D01*
G01*
X175351850Y-129115800D01*
G75*
G02*
X175570600Y-129334550I0J-218750D01*
G01*
X175570600Y-129847050D01*
G75*
G02*
X175351850Y-130065800I-218750J0D01*
G01*
X174914350Y-130065800D01*
G75*
G02*
X174695600Y-129847050I0J218750D01*
G01*
G37*
%TD.AperFunction*%
%TO.P,R10,1*%
%TO.N,+3V3*%
%TA.AperFunction,SMDPad,CuDef*%
G36*
G01*
X173120600Y-129847050D02*
X173120600Y-129334550D01*
G75*
G02*
X173339350Y-129115800I218750J0D01*
G01*
X173776850Y-129115800D01*
G75*
G02*
X173995600Y-129334550I0J-218750D01*
G01*
X173995600Y-129847050D01*
G75*
G02*
X173776850Y-130065800I-218750J0D01*
G01*
X173339350Y-130065800D01*
G75*
G02*
X173120600Y-129847050I0J218750D01*
G01*
G37*
%TD.AperFunction*%
%TD*%
%TO.P,R9,2*%
%TO.N,GND*%
%TA.AperFunction,SMDPad,CuDef*%
G36*
G01*
X148493750Y-136600000D02*
X149006250Y-136600000D01*
G75*
G02*
X149225000Y-136818750I0J-218750D01*
G01*
X149225000Y-137256250D01*
G75*
G02*
X149006250Y-137475000I-218750J0D01*
G01*
X148493750Y-137475000D01*
G75*
G02*
X148275000Y-137256250I0J218750D01*
G01*
X148275000Y-136818750D01*
G75*
G02*
X148493750Y-136600000I218750J0D01*
G01*
G37*
%TD.AperFunction*%
%TO.P,R9,1*%
%TO.N,/ToolEnable*%
%TA.AperFunction,SMDPad,CuDef*%
G36*
G01*
X148493750Y-135025000D02*
X149006250Y-135025000D01*
G75*
G02*
X149225000Y-135243750I0J-218750D01*
G01*
X149225000Y-135681250D01*
G75*
G02*
X149006250Y-135900000I-218750J0D01*
G01*
X148493750Y-135900000D01*
G75*
G02*
X148275000Y-135681250I0J218750D01*
G01*
X148275000Y-135243750D01*
G75*
G02*
X148493750Y-135025000I218750J0D01*
G01*
G37*
%TD.AperFunction*%
%TD*%
%TO.P,R8,2*%
%TO.N,GND*%
%TA.AperFunction,SMDPad,CuDef*%
G36*
G01*
X145350000Y-84506250D02*
X145350000Y-83993750D01*
G75*
G02*
X145568750Y-83775000I218750J0D01*
G01*
X146006250Y-83775000D01*
G75*
G02*
X146225000Y-83993750I0J-218750D01*
G01*
X146225000Y-84506250D01*
G75*
G02*
X146006250Y-84725000I-218750J0D01*
G01*
X145568750Y-84725000D01*
G75*
G02*
X145350000Y-84506250I0J218750D01*
G01*
G37*
%TD.AperFunction*%
%TO.P,R8,1*%
%TO.N,/LED_B_Trigger*%
%TA.AperFunction,SMDPad,CuDef*%
G36*
G01*
X143775000Y-84506250D02*
X143775000Y-83993750D01*
G75*
G02*
X143993750Y-83775000I218750J0D01*
G01*
X144431250Y-83775000D01*
G75*
G02*
X144650000Y-83993750I0J-218750D01*
G01*
X144650000Y-84506250D01*
G75*
G02*
X144431250Y-84725000I-218750J0D01*
G01*
X143993750Y-84725000D01*
G75*
G02*
X143775000Y-84506250I0J218750D01*
G01*
G37*
%TD.AperFunction*%
%TD*%
%TO.P,R7,2*%
%TO.N,GND*%
%TA.AperFunction,SMDPad,CuDef*%
G36*
G01*
X150350000Y-84506250D02*
X150350000Y-83993750D01*
G75*
G02*
X150568750Y-83775000I218750J0D01*
G01*
X151006250Y-83775000D01*
G75*
G02*
X151225000Y-83993750I0J-218750D01*
G01*
X151225000Y-84506250D01*
G75*
G02*
X151006250Y-84725000I-218750J0D01*
G01*
X150568750Y-84725000D01*
G75*
G02*
X150350000Y-84506250I0J218750D01*
G01*
G37*
%TD.AperFunction*%
%TO.P,R7,1*%
%TO.N,/LED_G_Trigger*%
%TA.AperFunction,SMDPad,CuDef*%
G36*
G01*
X148775000Y-84506250D02*
X148775000Y-83993750D01*
G75*
G02*
X148993750Y-83775000I218750J0D01*
G01*
X149431250Y-83775000D01*
G75*
G02*
X149650000Y-83993750I0J-218750D01*
G01*
X149650000Y-84506250D01*
G75*
G02*
X149431250Y-84725000I-218750J0D01*
G01*
X148993750Y-84725000D01*
G75*
G02*
X148775000Y-84506250I0J218750D01*
G01*
G37*
%TD.AperFunction*%
%TD*%
%TO.P,R6,2*%
%TO.N,GND*%
%TA.AperFunction,SMDPad,CuDef*%
G36*
G01*
X155850000Y-84506250D02*
X155850000Y-83993750D01*
G75*
G02*
X156068750Y-83775000I218750J0D01*
G01*
X156506250Y-83775000D01*
G75*
G02*
X156725000Y-83993750I0J-218750D01*
G01*
X156725000Y-84506250D01*
G75*
G02*
X156506250Y-84725000I-218750J0D01*
G01*
X156068750Y-84725000D01*
G75*
G02*
X155850000Y-84506250I0J218750D01*
G01*
G37*
%TD.AperFunction*%
%TO.P,R6,1*%
%TO.N,/LED_R_Trigger*%
%TA.AperFunction,SMDPad,CuDef*%
G36*
G01*
X154275000Y-84506250D02*
X154275000Y-83993750D01*
G75*
G02*
X154493750Y-83775000I218750J0D01*
G01*
X154931250Y-83775000D01*
G75*
G02*
X155150000Y-83993750I0J-218750D01*
G01*
X155150000Y-84506250D01*
G75*
G02*
X154931250Y-84725000I-218750J0D01*
G01*
X154493750Y-84725000D01*
G75*
G02*
X154275000Y-84506250I0J218750D01*
G01*
G37*
%TD.AperFunction*%
%TD*%
%TO.P,R5,2*%
%TO.N,Net-(Q6-Pad3)*%
%TA.AperFunction,SMDPad,CuDef*%
G36*
G01*
X144256250Y-119362500D02*
X143743750Y-119362500D01*
G75*
G02*
X143525000Y-119143750I0J218750D01*
G01*
X143525000Y-118706250D01*
G75*
G02*
X143743750Y-118487500I218750J0D01*
G01*
X144256250Y-118487500D01*
G75*
G02*
X144475000Y-118706250I0J-218750D01*
G01*
X144475000Y-119143750D01*
G75*
G02*
X144256250Y-119362500I-218750J0D01*
G01*
G37*
%TD.AperFunction*%
%TO.P,R5,1*%
%TO.N,Net-(D1-Pad2)*%
%TA.AperFunction,SMDPad,CuDef*%
G36*
G01*
X144256250Y-120937500D02*
X143743750Y-120937500D01*
G75*
G02*
X143525000Y-120718750I0J218750D01*
G01*
X143525000Y-120281250D01*
G75*
G02*
X143743750Y-120062500I218750J0D01*
G01*
X144256250Y-120062500D01*
G75*
G02*
X144475000Y-120281250I0J-218750D01*
G01*
X144475000Y-120718750D01*
G75*
G02*
X144256250Y-120937500I-218750J0D01*
G01*
G37*
%TD.AperFunction*%
%TD*%
%TO.P,R4,2*%
%TO.N,Net-(Q5-Pad3)*%
%TA.AperFunction,SMDPad,CuDef*%
G36*
G01*
X139256250Y-119150000D02*
X138743750Y-119150000D01*
G75*
G02*
X138525000Y-118931250I0J218750D01*
G01*
X138525000Y-118493750D01*
G75*
G02*
X138743750Y-118275000I218750J0D01*
G01*
X139256250Y-118275000D01*
G75*
G02*
X139475000Y-118493750I0J-218750D01*
G01*
X139475000Y-118931250D01*
G75*
G02*
X139256250Y-119150000I-218750J0D01*
G01*
G37*
%TD.AperFunction*%
%TO.P,R4,1*%
%TO.N,Net-(D1-Pad4)*%
%TA.AperFunction,SMDPad,CuDef*%
G36*
G01*
X139256250Y-120725000D02*
X138743750Y-120725000D01*
G75*
G02*
X138525000Y-120506250I0J218750D01*
G01*
X138525000Y-120068750D01*
G75*
G02*
X138743750Y-119850000I218750J0D01*
G01*
X139256250Y-119850000D01*
G75*
G02*
X139475000Y-120068750I0J-218750D01*
G01*
X139475000Y-120506250D01*
G75*
G02*
X139256250Y-120725000I-218750J0D01*
G01*
G37*
%TD.AperFunction*%
%TD*%
%TO.P,R3,2*%
%TO.N,Net-(Q4-Pad3)*%
%TA.AperFunction,SMDPad,CuDef*%
G36*
G01*
X134256250Y-119150000D02*
X133743750Y-119150000D01*
G75*
G02*
X133525000Y-118931250I0J218750D01*
G01*
X133525000Y-118493750D01*
G75*
G02*
X133743750Y-118275000I218750J0D01*
G01*
X134256250Y-118275000D01*
G75*
G02*
X134475000Y-118493750I0J-218750D01*
G01*
X134475000Y-118931250D01*
G75*
G02*
X134256250Y-119150000I-218750J0D01*
G01*
G37*
%TD.AperFunction*%
%TO.P,R3,1*%
%TO.N,Net-(D1-Pad3)*%
%TA.AperFunction,SMDPad,CuDef*%
G36*
G01*
X134256250Y-120725000D02*
X133743750Y-120725000D01*
G75*
G02*
X133525000Y-120506250I0J218750D01*
G01*
X133525000Y-120068750D01*
G75*
G02*
X133743750Y-119850000I218750J0D01*
G01*
X134256250Y-119850000D01*
G75*
G02*
X134475000Y-120068750I0J-218750D01*
G01*
X134475000Y-120506250D01*
G75*
G02*
X134256250Y-120725000I-218750J0D01*
G01*
G37*
%TD.AperFunction*%
%TD*%
%TO.P,R1,2*%
%TO.N,/422_RX+*%
%TA.AperFunction,SMDPad,CuDef*%
G36*
G01*
X140150000Y-78743750D02*
X140150000Y-79256250D01*
G75*
G02*
X139931250Y-79475000I-218750J0D01*
G01*
X139493750Y-79475000D01*
G75*
G02*
X139275000Y-79256250I0J218750D01*
G01*
X139275000Y-78743750D01*
G75*
G02*
X139493750Y-78525000I218750J0D01*
G01*
X139931250Y-78525000D01*
G75*
G02*
X140150000Y-78743750I0J-218750D01*
G01*
G37*
%TD.AperFunction*%
%TO.P,R1,1*%
%TO.N,/422_RX-*%
%TA.AperFunction,SMDPad,CuDef*%
G36*
G01*
X141725000Y-78743750D02*
X141725000Y-79256250D01*
G75*
G02*
X141506250Y-79475000I-218750J0D01*
G01*
X141068750Y-79475000D01*
G75*
G02*
X140850000Y-79256250I0J218750D01*
G01*
X140850000Y-78743750D01*
G75*
G02*
X141068750Y-78525000I218750J0D01*
G01*
X141506250Y-78525000D01*
G75*
G02*
X141725000Y-78743750I0J-218750D01*
G01*
G37*
%TD.AperFunction*%
%TD*%
D19*
%TO.P,Q8,3*%
%TO.N,Net-(D2-Pad2)*%
X146000000Y-137500000D03*
%TO.P,Q8,2*%
%TO.N,GND*%
X145050000Y-135500000D03*
%TO.P,Q8,1*%
%TO.N,/ToolEnable*%
X146950000Y-135500000D03*
%TD*%
D20*
%TO.P,Q7,1*%
%TO.N,GND*%
X165150000Y-136800000D03*
%TO.P,Q7,3*%
%TO.N,+12V*%
X165150000Y-132200000D03*
%TO.P,Q7,2*%
%TO.N,Net-(J3-Pad2)*%
X165150000Y-134500000D03*
D21*
%TO.P,Q7,4*%
X158850000Y-134500000D03*
%TD*%
D19*
%TO.P,Q6,3*%
%TO.N,Net-(Q6-Pad3)*%
X144000000Y-117000000D03*
%TO.P,Q6,2*%
%TO.N,GND*%
X143050000Y-115000000D03*
%TO.P,Q6,1*%
%TO.N,/LED_B_Trigger*%
X144950000Y-115000000D03*
%TD*%
%TO.P,Q5,3*%
%TO.N,Net-(Q5-Pad3)*%
X139000000Y-117000000D03*
%TO.P,Q5,2*%
%TO.N,GND*%
X138050000Y-115000000D03*
%TO.P,Q5,1*%
%TO.N,/LED_G_Trigger*%
X139950000Y-115000000D03*
%TD*%
%TO.P,Q4,3*%
%TO.N,Net-(Q4-Pad3)*%
X134000000Y-117000000D03*
%TO.P,Q4,2*%
%TO.N,GND*%
X133050000Y-115000000D03*
%TO.P,Q4,1*%
%TO.N,/LED_R_Trigger*%
X134950000Y-115000000D03*
%TD*%
%TO.P,Q3,3*%
%TO.N,/LED_Blue_Cathode*%
X145500000Y-79000000D03*
%TO.P,Q3,2*%
%TO.N,GND*%
X146450000Y-81000000D03*
%TO.P,Q3,1*%
%TO.N,/LED_B_Trigger*%
X144550000Y-81000000D03*
%TD*%
%TO.P,Q2,3*%
%TO.N,/LED_Green_Cathode*%
X150500000Y-79000000D03*
%TO.P,Q2,2*%
%TO.N,GND*%
X151450000Y-81000000D03*
%TO.P,Q2,1*%
%TO.N,/LED_G_Trigger*%
X149550000Y-81000000D03*
%TD*%
%TO.P,Q1,3*%
%TO.N,/LED_Red_Cathode*%
X156000000Y-79000000D03*
%TO.P,Q1,2*%
%TO.N,GND*%
X156950000Y-81000000D03*
%TO.P,Q1,1*%
%TO.N,/LED_R_Trigger*%
X155050000Y-81000000D03*
%TD*%
D22*
%TO.P,J6,4*%
%TO.N,i2c_SDA*%
X150120000Y-93000000D03*
%TO.P,J6,3*%
%TO.N,i2c_SCL*%
X147580000Y-93000000D03*
%TO.P,J6,2*%
%TO.N,GND*%
X145040000Y-93000000D03*
D23*
%TO.P,J6,1*%
%TO.N,+5V*%
X142500000Y-93000000D03*
%TD*%
D24*
%TO.P,J3,2*%
%TO.N,Net-(J3-Pad2)*%
X170050000Y-134480000D03*
%TO.P,J3,1*%
%TO.N,GND*%
X170050000Y-139560000D03*
%TD*%
D25*
%TO.P,D2,1*%
%TO.N,+5V*%
X152000000Y-151000000D03*
D26*
%TO.P,D2,2*%
%TO.N,Net-(D2-Pad2)*%
X152000000Y-143380000D03*
%TD*%
%TO.P,C1,2*%
%TO.N,GND*%
%TA.AperFunction,SMDPad,CuDef*%
G36*
G01*
X134900000Y-78993750D02*
X134900000Y-79506250D01*
G75*
G02*
X134681250Y-79725000I-218750J0D01*
G01*
X134243750Y-79725000D01*
G75*
G02*
X134025000Y-79506250I0J218750D01*
G01*
X134025000Y-78993750D01*
G75*
G02*
X134243750Y-78775000I218750J0D01*
G01*
X134681250Y-78775000D01*
G75*
G02*
X134900000Y-78993750I0J-218750D01*
G01*
G37*
%TD.AperFunction*%
%TO.P,C1,1*%
%TO.N,+3V3*%
%TA.AperFunction,SMDPad,CuDef*%
G36*
G01*
X136475000Y-78993750D02*
X136475000Y-79506250D01*
G75*
G02*
X136256250Y-79725000I-218750J0D01*
G01*
X135818750Y-79725000D01*
G75*
G02*
X135600000Y-79506250I0J218750D01*
G01*
X135600000Y-78993750D01*
G75*
G02*
X135818750Y-78775000I218750J0D01*
G01*
X136256250Y-78775000D01*
G75*
G02*
X136475000Y-78993750I0J-218750D01*
G01*
G37*
%TD.AperFunction*%
%TD*%
D27*
%TO.N,GND*%
X134500000Y-78000000D03*
X145000000Y-133750000D03*
X156750000Y-152000000D03*
X128500000Y-87250000D03*
X128500000Y-88500000D03*
X128500000Y-83500000D03*
X157000000Y-82500000D03*
X151500000Y-82500000D03*
X146500000Y-82500000D03*
X133000000Y-113500000D03*
X138000000Y-113500000D03*
X143000000Y-113500000D03*
X164800000Y-139200000D03*
X165900000Y-139200000D03*
X165900000Y-140300000D03*
X164800000Y-140300000D03*
X164800000Y-141400000D03*
X165900000Y-141400000D03*
X147250000Y-84250000D03*
X152250000Y-84250000D03*
X157750000Y-84250000D03*
X148750000Y-138500000D03*
X152540810Y-91992001D03*
X162607000Y-86032000D03*
%TO.N,+3V3*%
X137750000Y-83000000D03*
X138430000Y-86436200D03*
%TO.N,+5V*%
X116750000Y-90250000D03*
X116850010Y-87750000D03*
X116750000Y-134500000D03*
X156438798Y-68249998D03*
%TO.N,+12V*%
X120750000Y-92000000D03*
X119750000Y-92000000D03*
X118750000Y-92000000D03*
X120750000Y-93000000D03*
X119750000Y-93000000D03*
X118750000Y-93000000D03*
X117250000Y-68000000D03*
X118000000Y-82000000D03*
X120499988Y-67500012D03*
X118500000Y-87250000D03*
X119750000Y-87250000D03*
X119750000Y-86250000D03*
X118500000Y-86250000D03*
X116633000Y-79173990D03*
%TO.N,BigButton*%
X166573200Y-76555600D03*
X174345600Y-76555602D03*
X174167800Y-126111000D03*
%TO.N,/Reader_SerialRx*%
X164590398Y-71348600D03*
%TO.N,i2c_SDA*%
X166370000Y-95656400D03*
X175539400Y-95732600D03*
X163576000Y-96926400D03*
X160401000Y-96977200D03*
%TO.N,i2c_SCL*%
X176352200Y-98272600D03*
X165938200Y-98272600D03*
X160274000Y-98094800D03*
X163118802Y-98094800D03*
%TO.N,/LED_R_Trigger*%
X158272376Y-85267800D03*
X160350198Y-85267800D03*
X163750000Y-84000000D03*
X166268400Y-83999998D03*
%TO.N,/LED_G_Trigger*%
X162750000Y-95750000D03*
X159943800Y-95554800D03*
X149225000Y-90881200D03*
X149225000Y-88620600D03*
%TO.N,/LED_B_Trigger*%
X139344400Y-92252800D03*
X140309600Y-89763600D03*
X141554200Y-103225000D03*
X141554200Y-99263202D03*
%TO.N,/SPIFlash_CS*%
X164000000Y-81500000D03*
%TO.N,/SPI_MISO*%
X164000000Y-83000000D03*
%TO.N,/~ToolOn*%
X175234600Y-123647200D03*
%TD*%
D28*
%TO.N,GND*%
X143050000Y-113550000D02*
X143000000Y-113500000D01*
X143050000Y-115000000D02*
X143050000Y-113550000D01*
X138050000Y-113550000D02*
X138000000Y-113500000D01*
X138050000Y-115000000D02*
X138050000Y-113550000D01*
X133050000Y-113550000D02*
X133000000Y-113500000D01*
X133050000Y-115000000D02*
X133050000Y-113550000D01*
X157000000Y-81050000D02*
X156950000Y-81000000D01*
X157000000Y-82500000D02*
X157000000Y-81050000D01*
X151500000Y-81050000D02*
X151450000Y-81000000D01*
X151500000Y-82500000D02*
X151500000Y-81050000D01*
X146500000Y-81050000D02*
X146450000Y-81000000D01*
X146500000Y-82500000D02*
X146500000Y-81050000D01*
X128560000Y-88560000D02*
X128500000Y-88500000D01*
X130525000Y-88560000D02*
X128560000Y-88560000D01*
X128540000Y-87290000D02*
X128500000Y-87250000D01*
X130525000Y-87290000D02*
X128540000Y-87290000D01*
X128520000Y-83480000D02*
X128500000Y-83500000D01*
X130525000Y-83480000D02*
X128520000Y-83480000D01*
X158420000Y-152000000D02*
X158550000Y-151870000D01*
X156750000Y-152000000D02*
X158420000Y-152000000D01*
X145050000Y-133800000D02*
X145000000Y-133750000D01*
X145050000Y-135500000D02*
X145050000Y-133800000D01*
X134462500Y-78037500D02*
X134500000Y-78000000D01*
X134462500Y-79250000D02*
X134462500Y-78037500D01*
X157750000Y-84250000D02*
X156287500Y-84250000D01*
X152250000Y-84250000D02*
X150787500Y-84250000D01*
X147250000Y-84250000D02*
X145787500Y-84250000D01*
X148750000Y-137037500D02*
X148750000Y-138500000D01*
X154400000Y-91905000D02*
X152627811Y-91905000D01*
X152627811Y-91905000D02*
X152540810Y-91992001D01*
X162787500Y-86212500D02*
X162607000Y-86032000D01*
X164000000Y-86212500D02*
X162787500Y-86212500D01*
%TO.N,+3V3*%
X161135000Y-89365000D02*
X161600000Y-89365000D01*
X159865000Y-90635000D02*
X161135000Y-89365000D01*
X151000000Y-89787500D02*
X151037500Y-89787500D01*
X151885000Y-90635000D02*
X154400000Y-90635000D01*
X151037500Y-89787500D02*
X151885000Y-90635000D01*
X164000000Y-87787500D02*
X164000000Y-87750000D01*
X135475000Y-80940000D02*
X137060000Y-80940000D01*
X137060000Y-80940000D02*
X137500000Y-80500000D01*
X137500000Y-80500000D02*
X137500000Y-79750000D01*
X137000000Y-79250000D02*
X136037500Y-79250000D01*
X137500000Y-79750000D02*
X137000000Y-79250000D01*
X136037500Y-78712500D02*
X136037500Y-79250000D01*
X136500000Y-78250000D02*
X136037500Y-78712500D01*
X137500000Y-78250000D02*
X136500000Y-78250000D01*
X138250000Y-79000000D02*
X137500000Y-78250000D01*
X138250000Y-81000000D02*
X138250000Y-79000000D01*
X137750000Y-81500000D02*
X138250000Y-81000000D01*
X137750000Y-83000000D02*
X137750000Y-81500000D01*
X130525000Y-84750000D02*
X128000000Y-84750000D01*
X128000000Y-84750000D02*
X127250000Y-85500000D01*
X127250000Y-88750000D02*
X127000000Y-89000000D01*
X127250000Y-85500000D02*
X127250000Y-88750000D01*
X147750000Y-99787500D02*
X150750000Y-99787500D01*
X157635000Y-90635000D02*
X159865000Y-90635000D01*
X154400000Y-90635000D02*
X157635000Y-90635000D01*
X140550000Y-123300000D02*
X140550000Y-123200000D01*
X139325010Y-123914988D02*
X139325010Y-125485012D01*
X139839998Y-126000000D02*
X146962500Y-126000000D01*
X139939998Y-123300000D02*
X139325010Y-123914988D01*
X139325010Y-125485012D02*
X139839998Y-126000000D01*
X140550000Y-123300000D02*
X139939998Y-123300000D01*
X127750000Y-89000000D02*
X127000000Y-89000000D01*
X129250200Y-90500200D02*
X127750000Y-89000000D01*
X138787500Y-90500200D02*
X129250200Y-90500200D01*
X138939900Y-90652600D02*
X138787500Y-90500200D01*
X147548600Y-90652600D02*
X138939900Y-90652600D01*
X148209000Y-89992200D02*
X147548600Y-90652600D01*
X150795300Y-89992200D02*
X148209000Y-89992200D01*
X151000000Y-89787500D02*
X150795300Y-89992200D01*
X138430000Y-90142700D02*
X138430000Y-86436200D01*
X138787500Y-90500200D02*
X138430000Y-90142700D01*
X130250000Y-126000000D02*
X139839998Y-126000000D01*
X129750000Y-125500000D02*
X130250000Y-126000000D01*
X129750000Y-102863200D02*
X129750000Y-125500000D01*
X132296798Y-100316402D02*
X129750000Y-102863200D01*
X147221098Y-100316402D02*
X132296798Y-100316402D01*
X147750000Y-99787500D02*
X147221098Y-100316402D01*
X159865000Y-92123200D02*
X159865000Y-90635000D01*
X161267176Y-93525376D02*
X159865000Y-92123200D01*
X150750000Y-99787500D02*
X160105300Y-99787500D01*
X160105300Y-99787500D02*
X161267176Y-98625624D01*
X161267176Y-98625624D02*
X161267176Y-93525376D01*
X146962500Y-127212500D02*
X146962500Y-126000000D01*
X148000000Y-128250000D02*
X146962500Y-127212500D01*
X165750000Y-128250000D02*
X148000000Y-128250000D01*
X167000000Y-129500000D02*
X165750000Y-128250000D01*
X173467300Y-129500000D02*
X167000000Y-129500000D01*
X173558100Y-129590800D02*
X173467300Y-129500000D01*
X122460000Y-76980000D02*
X120541518Y-76980000D01*
X116000000Y-88500000D02*
X116500000Y-89000000D01*
X116500000Y-89000000D02*
X127000000Y-89000000D01*
X120541518Y-76980000D02*
X116000000Y-81521518D01*
X116000000Y-81521518D02*
X116000000Y-88500000D01*
X163692500Y-88095000D02*
X164000000Y-87787500D01*
X161600000Y-88095000D02*
X163692500Y-88095000D01*
X164029932Y-87817432D02*
X164000000Y-87787500D01*
X164029932Y-88800068D02*
X164029932Y-87817432D01*
X163465000Y-89365000D02*
X164029932Y-88800068D01*
X161600000Y-89365000D02*
X163465000Y-89365000D01*
%TO.N,Net-(D2-Pad2)*%
X149570000Y-140950000D02*
X152000000Y-143380000D01*
X144050000Y-140950000D02*
X149570000Y-140950000D01*
D29*
X144050000Y-140950000D02*
X144050000Y-138450000D01*
X145000000Y-137500000D02*
X146000000Y-137500000D01*
X144050000Y-138450000D02*
X145000000Y-137500000D01*
D28*
%TO.N,+5V*%
X150050000Y-152950000D02*
X152000000Y-151000000D01*
X144050000Y-152950000D02*
X150050000Y-152950000D01*
X152000000Y-151000000D02*
X152750000Y-151000000D01*
X116750000Y-133500000D02*
X116750000Y-134500000D01*
X116750000Y-90250000D02*
X116750000Y-133500000D01*
X140889200Y-91389200D02*
X142500000Y-93000000D01*
X128473200Y-91389200D02*
X140889200Y-91389200D01*
X127334000Y-90250000D02*
X128473200Y-91389200D01*
X116750000Y-90250000D02*
X127334000Y-90250000D01*
X116750000Y-90250000D02*
X115000000Y-88500000D01*
X115000000Y-65250000D02*
X116500000Y-63750000D01*
X115000000Y-88500000D02*
X115000000Y-65250000D01*
X130396000Y-68249998D02*
X156438798Y-68249998D01*
X116500000Y-63750000D02*
X125896002Y-63750000D01*
X125896002Y-63750000D02*
X130396000Y-68249998D01*
X122460000Y-79520000D02*
X118991482Y-79520000D01*
X118991482Y-79520000D02*
X116850010Y-81661472D01*
X116850010Y-81661472D02*
X116850010Y-87750000D01*
D30*
%TO.N,/422_TX+*%
X132116835Y-74546835D02*
X132110000Y-74540000D01*
X132930000Y-75360000D02*
X132116835Y-74546835D01*
X132930000Y-77980000D02*
X132930000Y-75360000D01*
X132900291Y-78110165D02*
X132922479Y-78046756D01*
X132817047Y-78214549D02*
X132864550Y-78167046D01*
X132864550Y-78167046D02*
X132900291Y-78110165D01*
X132630000Y-78880000D02*
X132243113Y-78880000D01*
X132760166Y-78909709D02*
X132696757Y-78887521D01*
X132900291Y-79049834D02*
X132864550Y-78992953D01*
X132760166Y-78250290D02*
X132817047Y-78214549D01*
X132864550Y-78992953D02*
X132817047Y-78945450D01*
X132696757Y-78887521D02*
X132630000Y-78880000D01*
X132008564Y-78392953D02*
X132056067Y-78345450D01*
X132922479Y-79113243D02*
X132900291Y-79049834D01*
X132930000Y-79180000D02*
X132922479Y-79113243D01*
X133811800Y-86880000D02*
X132930000Y-85998200D01*
X131943113Y-78580000D02*
X131950635Y-78513243D01*
X132243113Y-78280000D02*
X132630000Y-78280000D01*
X132817047Y-78945450D02*
X132760166Y-78909709D01*
X132930000Y-85998200D02*
X132930000Y-79180000D01*
X135065000Y-86880000D02*
X133811800Y-86880000D01*
X135475000Y-87290000D02*
X135065000Y-86880000D01*
X132243113Y-78880000D02*
X132176357Y-78872478D01*
X132176357Y-78872478D02*
X132112948Y-78850290D01*
X132056067Y-78345450D02*
X132112948Y-78309709D01*
X132056067Y-78814549D02*
X132008564Y-78767046D01*
X132922479Y-78046756D02*
X132930000Y-77980000D01*
X132008564Y-78767046D02*
X131972823Y-78710165D01*
X131972823Y-78710165D02*
X131950635Y-78646756D01*
X131950635Y-78513243D02*
X131972823Y-78449834D01*
X131950635Y-78646756D02*
X131943113Y-78580000D01*
X131972823Y-78449834D02*
X132008564Y-78392953D01*
X132112948Y-78850290D02*
X132056067Y-78814549D01*
X132112948Y-78309709D02*
X132176357Y-78287521D01*
X132176357Y-78287521D02*
X132243113Y-78280000D01*
X132630000Y-78280000D02*
X132696757Y-78272478D01*
X132696757Y-78272478D02*
X132760166Y-78250290D01*
%TO.N,/422_TX-*%
X133380000Y-75360000D02*
X133380000Y-72000000D01*
X133380000Y-85811800D02*
X133380000Y-75360000D01*
X133998200Y-86430000D02*
X133380000Y-85811800D01*
X135065000Y-86430000D02*
X133998200Y-86430000D01*
X135475000Y-86020000D02*
X135065000Y-86430000D01*
%TO.N,/422_RX+*%
X139744675Y-79032175D02*
X139712500Y-79000000D01*
X140275000Y-79562500D02*
X139744675Y-79032175D01*
X140245291Y-80655165D02*
X140267479Y-80591756D01*
X140209550Y-80712046D02*
X140245291Y-80655165D01*
X140162047Y-80759549D02*
X140209550Y-80712046D01*
X140105166Y-80795290D02*
X140162047Y-80759549D01*
X140041757Y-80817478D02*
X140105166Y-80795290D01*
X140041757Y-81432521D02*
X139975000Y-81425000D01*
X139909426Y-81425000D02*
X139842670Y-81417478D01*
X139639136Y-80994834D02*
X139674877Y-80937953D01*
X140105166Y-81454709D02*
X140041757Y-81432521D01*
X140245291Y-81594834D02*
X140209550Y-81537953D01*
X139975000Y-81425000D02*
X139909426Y-81425000D01*
X140209550Y-81537953D02*
X140162047Y-81490450D01*
X139616948Y-81058243D02*
X139639136Y-80994834D01*
X140162047Y-81490450D02*
X140105166Y-81454709D01*
X139722380Y-81359549D02*
X139674877Y-81312046D01*
X139909426Y-80825000D02*
X139975000Y-80825000D01*
X140275000Y-81725000D02*
X140267479Y-81658243D01*
X139639136Y-81255165D02*
X139616948Y-81191756D01*
X139360000Y-83890000D02*
X140275000Y-82975000D01*
X135885000Y-83890000D02*
X139360000Y-83890000D01*
X140275000Y-82975000D02*
X140275000Y-81725000D01*
X135475000Y-83480000D02*
X135885000Y-83890000D01*
X140267479Y-80591756D02*
X140275000Y-80525000D01*
X139779261Y-81395290D02*
X139722380Y-81359549D01*
X139616948Y-81191756D02*
X139609426Y-81125000D01*
X140275000Y-80525000D02*
X140275000Y-79562500D01*
X139674877Y-81312046D02*
X139639136Y-81255165D01*
X139609426Y-81125000D02*
X139616948Y-81058243D01*
X139674877Y-80937953D02*
X139722380Y-80890450D01*
X139722380Y-80890450D02*
X139779261Y-80854709D01*
X140267479Y-81658243D02*
X140245291Y-81594834D01*
X139779261Y-80854709D02*
X139842670Y-80832521D01*
X139842670Y-80832521D02*
X139909426Y-80825000D01*
X139842670Y-81417478D02*
X139779261Y-81395290D01*
X139975000Y-80825000D02*
X140041757Y-80817478D01*
X136750000Y-75750000D02*
X138250000Y-75750000D01*
X138250000Y-75750000D02*
X139712500Y-77212500D01*
X136750000Y-75654002D02*
X136750000Y-75750000D01*
X135250000Y-75250000D02*
X136345998Y-75250000D01*
X134650000Y-74650000D02*
X135250000Y-75250000D01*
X139712500Y-77212500D02*
X139712500Y-79000000D01*
X136345998Y-75250000D02*
X136750000Y-75654002D01*
X134650000Y-74540000D02*
X134650000Y-74650000D01*
D31*
%TO.N,+12V*%
X137190000Y-73270000D02*
X135920000Y-72000000D01*
X137190000Y-74540000D02*
X137190000Y-73270000D01*
X129000000Y-69500000D02*
X127000012Y-67500012D01*
X135920000Y-72000000D02*
X133420000Y-69500000D01*
X133420000Y-69500000D02*
X129000000Y-69500000D01*
X127000012Y-67500012D02*
X120499988Y-67500012D01*
X118000000Y-85750000D02*
X118500000Y-86250000D01*
X118000000Y-82000000D02*
X118000000Y-85750000D01*
X117250000Y-78556990D02*
X116633000Y-79173990D01*
X117250000Y-68000000D02*
X117250000Y-78556990D01*
D30*
%TO.N,/422_RX-*%
X140725000Y-79562500D02*
X141287500Y-79000000D01*
X140725000Y-83275000D02*
X140725000Y-79562500D01*
X139660000Y-84340000D02*
X140725000Y-83275000D01*
X135885000Y-84340000D02*
X139660000Y-84340000D01*
X135475000Y-84750000D02*
X135885000Y-84340000D01*
X138460000Y-75394300D02*
X138460000Y-72000000D01*
X141287500Y-78221800D02*
X138460000Y-75394300D01*
X141287500Y-79000000D02*
X141287500Y-78221800D01*
D29*
%TO.N,/LED_Blue_Cathode*%
X147548500Y-76951500D02*
X145500000Y-79000000D01*
X151113500Y-76951500D02*
X147548500Y-76951500D01*
X151939000Y-76126000D02*
X151113500Y-76951500D01*
X151939000Y-74475000D02*
X151939000Y-76126000D01*
%TO.N,/LED_Green_Cathode*%
X152887998Y-71935000D02*
X153209000Y-71935000D01*
X153209000Y-78285000D02*
X153209000Y-71935000D01*
X152494000Y-79000000D02*
X153209000Y-78285000D01*
X150500000Y-79000000D02*
X152494000Y-79000000D01*
%TO.N,/Reader_SerialTx*%
X131500000Y-86020000D02*
X130525000Y-86020000D01*
X154479000Y-74475000D02*
X154479000Y-78793000D01*
X154479000Y-78793000D02*
X153236600Y-80035400D01*
X153236600Y-80035400D02*
X143738600Y-80035400D01*
X143002000Y-80772000D02*
X143002000Y-84429600D01*
X141909800Y-85521800D02*
X138049000Y-85521800D01*
X143002000Y-84429600D02*
X141909800Y-85521800D01*
X131851400Y-89281000D02*
X131851400Y-86371400D01*
X143738600Y-80035400D02*
X143002000Y-80772000D01*
X137541000Y-86029800D02*
X137541000Y-89662000D01*
X131851400Y-86371400D02*
X131500000Y-86020000D01*
X138049000Y-85521800D02*
X137541000Y-86029800D01*
X137337800Y-89865200D02*
X132435600Y-89865200D01*
X137541000Y-89662000D02*
X137337800Y-89865200D01*
X132435600Y-89865200D02*
X131851400Y-89281000D01*
X161818811Y-69875400D02*
X155332100Y-69875400D01*
X155332100Y-69875400D02*
X154479000Y-70728500D01*
X171373800Y-73914000D02*
X163887500Y-73914000D01*
X172618400Y-100481600D02*
X172618400Y-75158600D01*
X172618400Y-75158600D02*
X171373800Y-73914000D01*
X162930011Y-72956511D02*
X162930011Y-70986600D01*
X154479000Y-73414340D02*
X154479000Y-74475000D01*
X154479000Y-70728500D02*
X154479000Y-73414340D01*
X162930011Y-70986600D02*
X161818811Y-69875400D01*
X163887500Y-73914000D02*
X162930011Y-72956511D01*
X170720000Y-102380000D02*
X172618400Y-100481600D01*
%TO.N,BigButton*%
X151500000Y-126000000D02*
X158000000Y-126000000D01*
X158000000Y-126000000D02*
X165250000Y-126000000D01*
X166776000Y-127526000D02*
X168180000Y-127526000D01*
X165250000Y-126000000D02*
X166776000Y-127526000D01*
X148537500Y-126000000D02*
X151500000Y-126000000D01*
X174345600Y-125933200D02*
X174345600Y-76555602D01*
X174167800Y-126111000D02*
X174345600Y-125933200D01*
X164692190Y-76555600D02*
X166573200Y-76555600D01*
X162480000Y-74343410D02*
X164692190Y-76555600D01*
X162480000Y-71173000D02*
X162480000Y-74343410D01*
X157273000Y-70411000D02*
X161718000Y-70411000D01*
X161718000Y-70411000D02*
X162480000Y-71173000D01*
X155749000Y-71935000D02*
X157273000Y-70411000D01*
%TO.N,/LED_Red_Cathode*%
X157019000Y-77205500D02*
X157019000Y-74475000D01*
X156000000Y-78224500D02*
X157019000Y-77205500D01*
X156000000Y-79000000D02*
X156000000Y-78224500D01*
%TO.N,/Reader_SerialRx*%
X173431200Y-73304400D02*
X171475400Y-71348600D01*
X141723401Y-85071789D02*
X142551989Y-84243201D01*
X173431200Y-102208800D02*
X173431200Y-73304400D01*
X170720000Y-104920000D02*
X173431200Y-102208800D01*
X131500000Y-82210000D02*
X132301410Y-83011410D01*
X136982200Y-89408000D02*
X136982200Y-85598000D01*
X171475400Y-71348600D02*
X164590398Y-71348600D01*
X132969000Y-89408000D02*
X136982200Y-89408000D01*
X145738010Y-69425390D02*
X162667188Y-69425390D01*
X142551989Y-84243201D02*
X142551990Y-72611410D01*
X137508411Y-85071789D02*
X141723401Y-85071789D01*
X136982200Y-85598000D02*
X137508411Y-85071789D01*
X162667188Y-69425390D02*
X164590398Y-71348600D01*
X132301411Y-88740411D02*
X132969000Y-89408000D01*
X130525000Y-82210000D02*
X131500000Y-82210000D01*
X142551990Y-72611410D02*
X145738010Y-69425390D01*
X132301410Y-83011410D02*
X132301411Y-88740411D01*
%TO.N,i2c_SDA*%
X150750000Y-93630000D02*
X150120000Y-93000000D01*
X150750000Y-98212500D02*
X150750000Y-93630000D01*
X173500000Y-62502000D02*
X170720000Y-62502000D01*
X175539400Y-64541400D02*
X173500000Y-62502000D01*
X175539400Y-95732600D02*
X175539400Y-64541400D01*
X166370000Y-95656400D02*
X165100000Y-96926400D01*
X165100000Y-96926400D02*
X163576000Y-96926400D01*
X150750000Y-98212500D02*
X158429100Y-98212500D01*
X158429100Y-98212500D02*
X159664400Y-96977200D01*
X159664400Y-96977200D02*
X160401000Y-96977200D01*
%TO.N,i2c_SCL*%
X147750000Y-93170000D02*
X147580000Y-93000000D01*
X147750000Y-98212500D02*
X147750000Y-93170000D01*
X170720000Y-59962000D02*
X175176400Y-59962000D01*
X176352200Y-61137800D02*
X176352200Y-98272600D01*
X175176400Y-59962000D02*
X176352200Y-61137800D01*
X159393790Y-98975010D02*
X160274000Y-98094800D01*
X148512510Y-98975010D02*
X159393790Y-98975010D01*
X147750000Y-98212500D02*
X148512510Y-98975010D01*
X163296602Y-98272600D02*
X163118802Y-98094800D01*
X165938200Y-98272600D02*
X163296602Y-98272600D01*
%TO.N,/LED_R_Trigger*%
X154712500Y-81337500D02*
X155050000Y-81000000D01*
X154712500Y-84250000D02*
X154712500Y-81337500D01*
X155730300Y-85267800D02*
X158272376Y-85267800D01*
X154712500Y-84250000D02*
X155730300Y-85267800D01*
X134950000Y-102895600D02*
X136192187Y-101653413D01*
X169696600Y-90703400D02*
X170720000Y-89680000D01*
X165881602Y-92410998D02*
X167589200Y-90703400D01*
X159052575Y-101653413D02*
X161842187Y-98863801D01*
X136192187Y-101653413D02*
X159052575Y-101653413D01*
X163839002Y-92410998D02*
X165881602Y-92410998D01*
X167589200Y-90703400D02*
X169696600Y-90703400D01*
X161842187Y-98863801D02*
X161842187Y-94407813D01*
X134950000Y-115000000D02*
X134950000Y-102895600D01*
X161842187Y-94407813D02*
X163839002Y-92410998D01*
X169465000Y-86380915D02*
X167084083Y-83999998D01*
X169465000Y-88171000D02*
X169465000Y-86380915D01*
X167084083Y-83999998D02*
X166268400Y-83999998D01*
X170720000Y-89426000D02*
X169465000Y-88171000D01*
X160350198Y-85267800D02*
X161617998Y-84000000D01*
X161617998Y-84000000D02*
X163750000Y-84000000D01*
%TO.N,/LED_G_Trigger*%
X149212500Y-81337500D02*
X149550000Y-81000000D01*
X149212500Y-84250000D02*
X149212500Y-81337500D01*
X169696600Y-93243400D02*
X170720000Y-92220000D01*
X165256600Y-93243400D02*
X169696600Y-93243400D01*
X162750000Y-95750000D02*
X165256600Y-93243400D01*
X162750000Y-95750000D02*
X162750000Y-95750000D01*
X149225000Y-84262500D02*
X149212500Y-84250000D01*
X149225000Y-88620600D02*
X149225000Y-84262500D01*
X149250400Y-90906600D02*
X149225000Y-90881200D01*
X150901400Y-90906600D02*
X149250400Y-90906600D01*
X151815800Y-91821000D02*
X150901400Y-90906600D01*
X152400000Y-95554800D02*
X151815800Y-94970600D01*
X159943800Y-95554800D02*
X152400000Y-95554800D01*
X151815800Y-94970600D02*
X151815800Y-91821000D01*
X162350001Y-96149999D02*
X162750000Y-95750000D01*
X162350001Y-99433499D02*
X162350001Y-96149999D01*
X159283500Y-102500000D02*
X162350001Y-99433499D01*
X140425600Y-102500000D02*
X159283500Y-102500000D01*
X139950000Y-102975600D02*
X140425600Y-102500000D01*
X139950000Y-115000000D02*
X139950000Y-102975600D01*
%TO.N,/LED_B_Trigger*%
X144212500Y-81337500D02*
X144550000Y-81000000D01*
X144212500Y-84250000D02*
X144212500Y-81337500D01*
X144212500Y-84250000D02*
X144212500Y-85860700D01*
X144212500Y-85860700D02*
X140309600Y-89763600D01*
X144950000Y-104411600D02*
X144950000Y-115000000D01*
X143763400Y-103225000D02*
X144950000Y-104411600D01*
X141554200Y-103225000D02*
X143763400Y-103225000D01*
X141554200Y-94462600D02*
X141554200Y-99263202D01*
X139344400Y-92252800D02*
X141554200Y-94462600D01*
X167309800Y-98348800D02*
X169671200Y-98348800D01*
X169671200Y-98348800D02*
X170720000Y-97300000D01*
X162433000Y-103225600D02*
X167309800Y-98348800D01*
X143764000Y-103225600D02*
X162433000Y-103225600D01*
X144950000Y-104411600D02*
X143764000Y-103225600D01*
D28*
%TO.N,Net-(Q4-Pad3)*%
X134000000Y-118712500D02*
X134000000Y-117000000D01*
%TO.N,Net-(Q5-Pad3)*%
X139000000Y-118712500D02*
X139000000Y-117000000D01*
%TO.N,Net-(Q6-Pad3)*%
X144000000Y-118925000D02*
X144000000Y-117000000D01*
D29*
%TO.N,/ToolEnable*%
X148712500Y-135500000D02*
X148750000Y-135462500D01*
X146950000Y-135500000D02*
X148712500Y-135500000D01*
X172034200Y-100279200D02*
X172034200Y-88200200D01*
X170206199Y-100761001D02*
X171552399Y-100761001D01*
X169468800Y-101498400D02*
X170206199Y-100761001D01*
X148750000Y-135462500D02*
X154537900Y-135462500D01*
X174370590Y-141630810D02*
X174370590Y-129159296D01*
X171552399Y-100761001D02*
X172034200Y-100279200D01*
X171386400Y-105943400D02*
X169926000Y-105943400D01*
X169468800Y-105486200D02*
X169468800Y-101498400D01*
X155143200Y-136067800D02*
X155143200Y-141452600D01*
X154537900Y-135462500D02*
X155143200Y-136067800D01*
X156819600Y-143129000D02*
X172872400Y-143129000D01*
X172872400Y-143129000D02*
X174370590Y-141630810D01*
X173278800Y-107835800D02*
X171386400Y-105943400D01*
X172034200Y-88200200D02*
X170720000Y-86886000D01*
X169926000Y-105943400D02*
X169468800Y-105486200D01*
X174370590Y-129159296D02*
X173278800Y-128067506D01*
X155143200Y-141452600D02*
X156819600Y-143129000D01*
X173278800Y-128067506D02*
X173278800Y-107835800D01*
%TO.N,/SPIFlash_CS*%
X154282500Y-88212500D02*
X154400000Y-88095000D01*
X151000000Y-88212500D02*
X154282500Y-88212500D01*
X158997386Y-82502614D02*
X160000000Y-81500000D01*
X160000000Y-81500000D02*
X164000000Y-81500000D01*
X158997386Y-85776803D02*
X158997386Y-82502614D01*
X154400000Y-88095000D02*
X156679189Y-88095000D01*
X156679189Y-88095000D02*
X158997386Y-85776803D01*
%TO.N,~Reset*%
X124670000Y-65500000D02*
X124784000Y-65386000D01*
X118347500Y-65500000D02*
X124670000Y-65500000D01*
X118347500Y-72847500D02*
X118347500Y-65500000D01*
X119940000Y-74440000D02*
X118347500Y-72847500D01*
X122460000Y-74440000D02*
X119940000Y-74440000D01*
%TO.N,/SPI_Clk*%
X165703990Y-77996000D02*
X168180000Y-77996000D01*
X164800010Y-78899980D02*
X165703990Y-77996000D01*
X164800010Y-90699990D02*
X164800010Y-78899980D01*
X164565000Y-90935000D02*
X164800010Y-90699990D01*
X161900000Y-90935000D02*
X164565000Y-90935000D01*
X161600000Y-90635000D02*
X161900000Y-90935000D01*
%TO.N,/SPI_MOSI*%
X165500000Y-91500000D02*
X165500000Y-80000000D01*
X165095000Y-91905000D02*
X165500000Y-91500000D01*
X169355001Y-76631001D02*
X168180000Y-75456000D01*
X166455200Y-79044800D02*
X168870202Y-79044800D01*
X168870202Y-79044800D02*
X169355001Y-78560001D01*
X161600000Y-91905000D02*
X165095000Y-91905000D01*
X169355001Y-78560001D02*
X169355001Y-76631001D01*
X165500000Y-80000000D02*
X166455200Y-79044800D01*
%TO.N,/SPI_MISO*%
X160500000Y-83000000D02*
X164000000Y-83000000D01*
X159518613Y-83981387D02*
X160500000Y-83000000D01*
X159518613Y-88421887D02*
X159518613Y-83981387D01*
X158575500Y-89365000D02*
X159518613Y-88421887D01*
X154400000Y-89365000D02*
X158575500Y-89365000D01*
%TO.N,Net-(D1-Pad2)*%
X140800000Y-124700000D02*
X141000000Y-124500000D01*
X140550000Y-124700000D02*
X140800000Y-124700000D01*
X141000000Y-124500000D02*
X143500000Y-124500000D01*
X144000000Y-124000000D02*
X144000000Y-120500000D01*
X143500000Y-124500000D02*
X144000000Y-124000000D01*
%TO.N,Net-(D1-Pad4)*%
X138300000Y-124700000D02*
X137450000Y-124700000D01*
X138750000Y-124250000D02*
X138300000Y-124700000D01*
X138750000Y-120537500D02*
X138750000Y-124250000D01*
X139000000Y-120287500D02*
X138750000Y-120537500D01*
%TO.N,Net-(D1-Pad3)*%
X134000000Y-120287500D02*
X134000000Y-122500000D01*
X134800000Y-123300000D02*
X137450000Y-123300000D01*
X134000000Y-122500000D02*
X134800000Y-123300000D01*
%TO.N,Net-(J5-Pad2)*%
X171860000Y-149330000D02*
X172100000Y-149090000D01*
%TO.N,/~ToolOn*%
X158550000Y-149330000D02*
X158550000Y-144827600D01*
X158550000Y-144827600D02*
X159639000Y-143738600D01*
X159639000Y-143738600D02*
X173761400Y-143738600D01*
X173761400Y-143738600D02*
X175234600Y-142265400D01*
X175234600Y-142265400D02*
X175234600Y-123647200D01*
%TD*%
D32*
%TO.N,Net-(J3-Pad2)*%
G36*
X162873000Y-133500000D02*
G01*
X162875440Y-133524776D01*
X162882667Y-133548601D01*
X162894403Y-133570557D01*
X162910197Y-133589803D01*
X162929443Y-133605597D01*
X162951399Y-133617333D01*
X162975224Y-133624560D01*
X163000000Y-133627000D01*
X168000000Y-133627000D01*
X168024776Y-133624560D01*
X168048601Y-133617333D01*
X168070557Y-133605597D01*
X168089803Y-133589803D01*
X168105597Y-133570557D01*
X168117333Y-133548601D01*
X168124560Y-133524776D01*
X168127000Y-133500000D01*
X168127000Y-132627000D01*
X171773000Y-132627000D01*
X171773000Y-136373000D01*
X168127000Y-136373000D01*
X168127000Y-135500000D01*
X168124560Y-135475224D01*
X168117333Y-135451399D01*
X168105597Y-135429443D01*
X168089803Y-135410197D01*
X168070557Y-135394403D01*
X168048601Y-135382667D01*
X168024776Y-135375440D01*
X168000000Y-135373000D01*
X163400000Y-135373000D01*
X163375224Y-135375440D01*
X163351399Y-135382667D01*
X163329443Y-135394403D01*
X163310197Y-135410197D01*
X163294403Y-135429443D01*
X163282667Y-135451399D01*
X163275440Y-135475224D01*
X163273000Y-135500000D01*
X163273000Y-136573000D01*
X157427837Y-136573000D01*
X157453768Y-132627000D01*
X162873000Y-132627000D01*
X162873000Y-133500000D01*
G37*
X162873000Y-133500000D02*
X162875440Y-133524776D01*
X162882667Y-133548601D01*
X162894403Y-133570557D01*
X162910197Y-133589803D01*
X162929443Y-133605597D01*
X162951399Y-133617333D01*
X162975224Y-133624560D01*
X163000000Y-133627000D01*
X168000000Y-133627000D01*
X168024776Y-133624560D01*
X168048601Y-133617333D01*
X168070557Y-133605597D01*
X168089803Y-133589803D01*
X168105597Y-133570557D01*
X168117333Y-133548601D01*
X168124560Y-133524776D01*
X168127000Y-133500000D01*
X168127000Y-132627000D01*
X171773000Y-132627000D01*
X171773000Y-136373000D01*
X168127000Y-136373000D01*
X168127000Y-135500000D01*
X168124560Y-135475224D01*
X168117333Y-135451399D01*
X168105597Y-135429443D01*
X168089803Y-135410197D01*
X168070557Y-135394403D01*
X168048601Y-135382667D01*
X168024776Y-135375440D01*
X168000000Y-135373000D01*
X163400000Y-135373000D01*
X163375224Y-135375440D01*
X163351399Y-135382667D01*
X163329443Y-135394403D01*
X163310197Y-135410197D01*
X163294403Y-135429443D01*
X163282667Y-135451399D01*
X163275440Y-135475224D01*
X163273000Y-135500000D01*
X163273000Y-136573000D01*
X157427837Y-136573000D01*
X157453768Y-132627000D01*
X162873000Y-132627000D01*
X162873000Y-133500000D01*
%TO.N,GND*%
G36*
X166873000Y-137500000D02*
G01*
X166875440Y-137524776D01*
X166882667Y-137548601D01*
X166894403Y-137570557D01*
X166910197Y-137589803D01*
X166929443Y-137605597D01*
X166951399Y-137617333D01*
X166975224Y-137624560D01*
X167000000Y-137627000D01*
X171873000Y-137627000D01*
X171873000Y-142623000D01*
X164127000Y-142623000D01*
X164127000Y-136127000D01*
X166873000Y-136127000D01*
X166873000Y-137500000D01*
G37*
X166873000Y-137500000D02*
X166875440Y-137524776D01*
X166882667Y-137548601D01*
X166894403Y-137570557D01*
X166910197Y-137589803D01*
X166929443Y-137605597D01*
X166951399Y-137617333D01*
X166975224Y-137624560D01*
X167000000Y-137627000D01*
X171873000Y-137627000D01*
X171873000Y-142623000D01*
X164127000Y-142623000D01*
X164127000Y-136127000D01*
X166873000Y-136127000D01*
X166873000Y-137500000D01*
%TO.N,Net-(J4-Pad2)*%
G36*
X140770826Y-145633933D02*
G01*
X140829316Y-145646365D01*
X140838470Y-145647327D01*
X140838476Y-145647328D01*
X140838481Y-145647328D01*
X140935598Y-145656850D01*
X140967581Y-145660000D01*
X147840000Y-145660000D01*
X147840001Y-148340000D01*
X140967581Y-148340000D01*
X140939671Y-148342749D01*
X140936693Y-148342728D01*
X140927522Y-148343627D01*
X140879360Y-148348689D01*
X140870617Y-148349550D01*
X140870325Y-148349638D01*
X140830473Y-148353827D01*
X140771854Y-148365860D01*
X140734422Y-148373000D01*
X120127000Y-148373000D01*
X120127000Y-145627000D01*
X140735814Y-145627000D01*
X140770826Y-145633933D01*
G37*
X140770826Y-145633933D02*
X140829316Y-145646365D01*
X140838470Y-145647327D01*
X140838476Y-145647328D01*
X140838481Y-145647328D01*
X140935598Y-145656850D01*
X140967581Y-145660000D01*
X147840000Y-145660000D01*
X147840001Y-148340000D01*
X140967581Y-148340000D01*
X140939671Y-148342749D01*
X140936693Y-148342728D01*
X140927522Y-148343627D01*
X140879360Y-148348689D01*
X140870617Y-148349550D01*
X140870325Y-148349638D01*
X140830473Y-148353827D01*
X140771854Y-148365860D01*
X140734422Y-148373000D01*
X120127000Y-148373000D01*
X120127000Y-145627000D01*
X140735814Y-145627000D01*
X140770826Y-145633933D01*
%TO.N,Net-(J4-Pad3)*%
G36*
X134873000Y-156373000D02*
G01*
X120127000Y-156373000D01*
X120127000Y-149627000D01*
X134873000Y-149627000D01*
X134873000Y-156373000D01*
G37*
X134873000Y-156373000D02*
X120127000Y-156373000D01*
X120127000Y-149627000D01*
X134873000Y-149627000D01*
X134873000Y-156373000D01*
%TO.N,Net-(J4-Pad1)*%
G36*
X134873000Y-144373000D02*
G01*
X120127000Y-144373000D01*
X120127000Y-137660000D01*
X134873000Y-137660000D01*
X134873000Y-144373000D01*
G37*
X134873000Y-144373000D02*
X120127000Y-144373000D01*
X120127000Y-137660000D01*
X134873000Y-137660000D01*
X134873000Y-144373000D01*
%TO.N,Net-(J5-Pad2)*%
G36*
X173373000Y-150373000D02*
G01*
X164127234Y-150373000D01*
X164130878Y-148392126D01*
X164869198Y-147880982D01*
X173373000Y-147877059D01*
X173373000Y-150373000D01*
G37*
X173373000Y-150373000D02*
X164127234Y-150373000D01*
X164130878Y-148392126D01*
X164869198Y-147880982D01*
X173373000Y-147877059D01*
X173373000Y-150373000D01*
%TO.N,Net-(J5-Pad1)*%
G36*
X173373000Y-155623000D02*
G01*
X168627000Y-155623000D01*
X168627000Y-151627000D01*
X173373000Y-151627000D01*
X173373000Y-155623000D01*
G37*
X173373000Y-155623000D02*
X168627000Y-155623000D01*
X168627000Y-151627000D01*
X173373000Y-151627000D01*
X173373000Y-155623000D01*
%TO.N,Net-(R11-Pad1)*%
G36*
X167873000Y-155623000D02*
G01*
X164377000Y-155623000D01*
X164377000Y-151377000D01*
X167873000Y-151377000D01*
X167873000Y-155623000D01*
G37*
X167873000Y-155623000D02*
X164377000Y-155623000D01*
X164377000Y-151377000D01*
X167873000Y-151377000D01*
X167873000Y-155623000D01*
%TO.N,+12V*%
G36*
X121123000Y-129250000D02*
G01*
X121125440Y-129274776D01*
X121132667Y-129298601D01*
X121144403Y-129320557D01*
X121160197Y-129339803D01*
X121179443Y-129355597D01*
X121201399Y-129367333D01*
X121225224Y-129374560D01*
X121250000Y-129377000D01*
X165984632Y-129377000D01*
X166373000Y-129765369D01*
X166373000Y-132873000D01*
X163877000Y-132873000D01*
X163877000Y-132006000D01*
X163874560Y-131981224D01*
X163867333Y-131957399D01*
X163855597Y-131935443D01*
X163839803Y-131916197D01*
X163820557Y-131900403D01*
X163798601Y-131888667D01*
X163774776Y-131881440D01*
X163750000Y-131879000D01*
X156750000Y-131879000D01*
X156725224Y-131881440D01*
X156701399Y-131888667D01*
X156679443Y-131900403D01*
X156660197Y-131916197D01*
X156644403Y-131935443D01*
X156632667Y-131957399D01*
X156625440Y-131981224D01*
X156623000Y-132006000D01*
X156623000Y-132623000D01*
X118127000Y-132623000D01*
X118127000Y-91627000D01*
X121123000Y-91627000D01*
X121123000Y-129250000D01*
G37*
X121123000Y-129250000D02*
X121125440Y-129274776D01*
X121132667Y-129298601D01*
X121144403Y-129320557D01*
X121160197Y-129339803D01*
X121179443Y-129355597D01*
X121201399Y-129367333D01*
X121225224Y-129374560D01*
X121250000Y-129377000D01*
X165984632Y-129377000D01*
X166373000Y-129765369D01*
X166373000Y-132873000D01*
X163877000Y-132873000D01*
X163877000Y-132006000D01*
X163874560Y-131981224D01*
X163867333Y-131957399D01*
X163855597Y-131935443D01*
X163839803Y-131916197D01*
X163820557Y-131900403D01*
X163798601Y-131888667D01*
X163774776Y-131881440D01*
X163750000Y-131879000D01*
X156750000Y-131879000D01*
X156725224Y-131881440D01*
X156701399Y-131888667D01*
X156679443Y-131900403D01*
X156660197Y-131916197D01*
X156644403Y-131935443D01*
X156632667Y-131957399D01*
X156625440Y-131981224D01*
X156623000Y-132006000D01*
X156623000Y-132623000D01*
X118127000Y-132623000D01*
X118127000Y-91627000D01*
X121123000Y-91627000D01*
X121123000Y-129250000D01*
G36*
X120373000Y-87873000D02*
G01*
X118127000Y-87873000D01*
X118127000Y-85877000D01*
X120373000Y-85877000D01*
X120373000Y-87873000D01*
G37*
X120373000Y-87873000D02*
X118127000Y-87873000D01*
X118127000Y-85877000D01*
X120373000Y-85877000D01*
X120373000Y-87873000D01*
%TD*%
M02*
