%TF.GenerationSoftware,KiCad,Pcbnew,5.1.6-1.fc32*%
%TF.CreationDate,2021-02-06T18:10:13+01:00*%
%TF.ProjectId,acnode-nucleo144,61636e6f-6465-42d6-9e75-636c656f3134,rev?*%
%TF.SameCoordinates,Original*%
%TF.FileFunction,Legend,Bot*%
%TF.FilePolarity,Positive*%
%FSLAX46Y46*%
G04 Gerber Fmt 4.6, Leading zero omitted, Abs format (unit mm)*
G04 Created by KiCad (PCBNEW 5.1.6-1.fc32) date 2021-02-06 18:10:13*
%MOMM*%
%LPD*%
G01*
G04 APERTURE LIST*
%ADD10C,0.200000*%
G04 APERTURE END LIST*
D10*
X166457142Y-106570833D02*
X165861904Y-106570833D01*
X166576190Y-106927976D02*
X166159523Y-105677976D01*
X165742857Y-106927976D01*
X164611904Y-106808928D02*
X164671428Y-106868452D01*
X164850000Y-106927976D01*
X164969047Y-106927976D01*
X165147619Y-106868452D01*
X165266666Y-106749404D01*
X165326190Y-106630357D01*
X165385714Y-106392261D01*
X165385714Y-106213690D01*
X165326190Y-105975595D01*
X165266666Y-105856547D01*
X165147619Y-105737500D01*
X164969047Y-105677976D01*
X164850000Y-105677976D01*
X164671428Y-105737500D01*
X164611904Y-105797023D01*
X164076190Y-106927976D02*
X164076190Y-105677976D01*
X163361904Y-106927976D01*
X163361904Y-105677976D01*
X162588095Y-106927976D02*
X162707142Y-106868452D01*
X162766666Y-106808928D01*
X162826190Y-106689880D01*
X162826190Y-106332738D01*
X162766666Y-106213690D01*
X162707142Y-106154166D01*
X162588095Y-106094642D01*
X162409523Y-106094642D01*
X162290476Y-106154166D01*
X162230952Y-106213690D01*
X162171428Y-106332738D01*
X162171428Y-106689880D01*
X162230952Y-106808928D01*
X162290476Y-106868452D01*
X162409523Y-106927976D01*
X162588095Y-106927976D01*
X161100000Y-106927976D02*
X161100000Y-105677976D01*
X161100000Y-106868452D02*
X161219047Y-106927976D01*
X161457142Y-106927976D01*
X161576190Y-106868452D01*
X161635714Y-106808928D01*
X161695238Y-106689880D01*
X161695238Y-106332738D01*
X161635714Y-106213690D01*
X161576190Y-106154166D01*
X161457142Y-106094642D01*
X161219047Y-106094642D01*
X161100000Y-106154166D01*
X160028571Y-106868452D02*
X160147619Y-106927976D01*
X160385714Y-106927976D01*
X160504761Y-106868452D01*
X160564285Y-106749404D01*
X160564285Y-106273214D01*
X160504761Y-106154166D01*
X160385714Y-106094642D01*
X160147619Y-106094642D01*
X160028571Y-106154166D01*
X159969047Y-106273214D01*
X159969047Y-106392261D01*
X160564285Y-106511309D01*
X158480952Y-106273214D02*
X158064285Y-106273214D01*
X157885714Y-106927976D02*
X158480952Y-106927976D01*
X158480952Y-105677976D01*
X157885714Y-105677976D01*
X157469047Y-106927976D02*
X156814285Y-106094642D01*
X157469047Y-106094642D02*
X156814285Y-106927976D01*
X156338095Y-106094642D02*
X156338095Y-107344642D01*
X156338095Y-106154166D02*
X156219047Y-106094642D01*
X155980952Y-106094642D01*
X155861904Y-106154166D01*
X155802380Y-106213690D01*
X155742857Y-106332738D01*
X155742857Y-106689880D01*
X155802380Y-106808928D01*
X155861904Y-106868452D01*
X155980952Y-106927976D01*
X156219047Y-106927976D01*
X156338095Y-106868452D01*
X154730952Y-106868452D02*
X154850000Y-106927976D01*
X155088095Y-106927976D01*
X155207142Y-106868452D01*
X155266666Y-106749404D01*
X155266666Y-106273214D01*
X155207142Y-106154166D01*
X155088095Y-106094642D01*
X154850000Y-106094642D01*
X154730952Y-106154166D01*
X154671428Y-106273214D01*
X154671428Y-106392261D01*
X155266666Y-106511309D01*
X154135714Y-106927976D02*
X154135714Y-106094642D01*
X154135714Y-106332738D02*
X154076190Y-106213690D01*
X154016666Y-106154166D01*
X153897619Y-106094642D01*
X153778571Y-106094642D01*
X153361904Y-106927976D02*
X153361904Y-106094642D01*
X153361904Y-105677976D02*
X153421428Y-105737500D01*
X153361904Y-105797023D01*
X153302380Y-105737500D01*
X153361904Y-105677976D01*
X153361904Y-105797023D01*
X152766666Y-106927976D02*
X152766666Y-106094642D01*
X152766666Y-106213690D02*
X152707142Y-106154166D01*
X152588095Y-106094642D01*
X152409523Y-106094642D01*
X152290476Y-106154166D01*
X152230952Y-106273214D01*
X152230952Y-106927976D01*
X152230952Y-106273214D02*
X152171428Y-106154166D01*
X152052380Y-106094642D01*
X151873809Y-106094642D01*
X151754761Y-106154166D01*
X151695238Y-106273214D01*
X151695238Y-106927976D01*
X150623809Y-106868452D02*
X150742857Y-106927976D01*
X150980952Y-106927976D01*
X151100000Y-106868452D01*
X151159523Y-106749404D01*
X151159523Y-106273214D01*
X151100000Y-106154166D01*
X150980952Y-106094642D01*
X150742857Y-106094642D01*
X150623809Y-106154166D01*
X150564285Y-106273214D01*
X150564285Y-106392261D01*
X151159523Y-106511309D01*
X150028571Y-106094642D02*
X150028571Y-106927976D01*
X150028571Y-106213690D02*
X149969047Y-106154166D01*
X149850000Y-106094642D01*
X149671428Y-106094642D01*
X149552380Y-106154166D01*
X149492857Y-106273214D01*
X149492857Y-106927976D01*
X149076190Y-106094642D02*
X148600000Y-106094642D01*
X148897619Y-105677976D02*
X148897619Y-106749404D01*
X148838095Y-106868452D01*
X148719047Y-106927976D01*
X148600000Y-106927976D01*
X147647619Y-106927976D02*
X147647619Y-106273214D01*
X147707142Y-106154166D01*
X147826190Y-106094642D01*
X148064285Y-106094642D01*
X148183333Y-106154166D01*
X147647619Y-106868452D02*
X147766666Y-106927976D01*
X148064285Y-106927976D01*
X148183333Y-106868452D01*
X148242857Y-106749404D01*
X148242857Y-106630357D01*
X148183333Y-106511309D01*
X148064285Y-106451785D01*
X147766666Y-106451785D01*
X147647619Y-106392261D01*
X146873809Y-106927976D02*
X146992857Y-106868452D01*
X147052380Y-106749404D01*
X147052380Y-105677976D01*
X145445238Y-106927976D02*
X145445238Y-105677976D01*
X144730952Y-106927976D01*
X144730952Y-105677976D01*
X143600000Y-106094642D02*
X143600000Y-106927976D01*
X144135714Y-106094642D02*
X144135714Y-106749404D01*
X144076190Y-106868452D01*
X143957142Y-106927976D01*
X143778571Y-106927976D01*
X143659523Y-106868452D01*
X143600000Y-106808928D01*
X142469047Y-106868452D02*
X142588095Y-106927976D01*
X142826190Y-106927976D01*
X142945238Y-106868452D01*
X143004761Y-106808928D01*
X143064285Y-106689880D01*
X143064285Y-106332738D01*
X143004761Y-106213690D01*
X142945238Y-106154166D01*
X142826190Y-106094642D01*
X142588095Y-106094642D01*
X142469047Y-106154166D01*
X141754761Y-106927976D02*
X141873809Y-106868452D01*
X141933333Y-106749404D01*
X141933333Y-105677976D01*
X140802380Y-106868452D02*
X140921428Y-106927976D01*
X141159523Y-106927976D01*
X141278571Y-106868452D01*
X141338095Y-106749404D01*
X141338095Y-106273214D01*
X141278571Y-106154166D01*
X141159523Y-106094642D01*
X140921428Y-106094642D01*
X140802380Y-106154166D01*
X140742857Y-106273214D01*
X140742857Y-106392261D01*
X141338095Y-106511309D01*
X140028571Y-106927976D02*
X140147619Y-106868452D01*
X140207142Y-106808928D01*
X140266666Y-106689880D01*
X140266666Y-106332738D01*
X140207142Y-106213690D01*
X140147619Y-106154166D01*
X140028571Y-106094642D01*
X139850000Y-106094642D01*
X139730952Y-106154166D01*
X139671428Y-106213690D01*
X139611904Y-106332738D01*
X139611904Y-106689880D01*
X139671428Y-106808928D01*
X139730952Y-106868452D01*
X139850000Y-106927976D01*
X140028571Y-106927976D01*
X137707142Y-106273214D02*
X137528571Y-106332738D01*
X137469047Y-106392261D01*
X137409523Y-106511309D01*
X137409523Y-106689880D01*
X137469047Y-106808928D01*
X137528571Y-106868452D01*
X137647619Y-106927976D01*
X138123809Y-106927976D01*
X138123809Y-105677976D01*
X137707142Y-105677976D01*
X137588095Y-105737500D01*
X137528571Y-105797023D01*
X137469047Y-105916071D01*
X137469047Y-106035119D01*
X137528571Y-106154166D01*
X137588095Y-106213690D01*
X137707142Y-106273214D01*
X138123809Y-106273214D01*
X136695238Y-106927976D02*
X136814285Y-106868452D01*
X136873809Y-106808928D01*
X136933333Y-106689880D01*
X136933333Y-106332738D01*
X136873809Y-106213690D01*
X136814285Y-106154166D01*
X136695238Y-106094642D01*
X136516666Y-106094642D01*
X136397619Y-106154166D01*
X136338095Y-106213690D01*
X136278571Y-106332738D01*
X136278571Y-106689880D01*
X136338095Y-106808928D01*
X136397619Y-106868452D01*
X136516666Y-106927976D01*
X136695238Y-106927976D01*
X135207142Y-106927976D02*
X135207142Y-106273214D01*
X135266666Y-106154166D01*
X135385714Y-106094642D01*
X135623809Y-106094642D01*
X135742857Y-106154166D01*
X135207142Y-106868452D02*
X135326190Y-106927976D01*
X135623809Y-106927976D01*
X135742857Y-106868452D01*
X135802380Y-106749404D01*
X135802380Y-106630357D01*
X135742857Y-106511309D01*
X135623809Y-106451785D01*
X135326190Y-106451785D01*
X135207142Y-106392261D01*
X134611904Y-106927976D02*
X134611904Y-106094642D01*
X134611904Y-106332738D02*
X134552380Y-106213690D01*
X134492857Y-106154166D01*
X134373809Y-106094642D01*
X134254761Y-106094642D01*
X133302380Y-106927976D02*
X133302380Y-105677976D01*
X133302380Y-106868452D02*
X133421428Y-106927976D01*
X133659523Y-106927976D01*
X133778571Y-106868452D01*
X133838095Y-106808928D01*
X133897619Y-106689880D01*
X133897619Y-106332738D01*
X133838095Y-106213690D01*
X133778571Y-106154166D01*
X133659523Y-106094642D01*
X133421428Y-106094642D01*
X133302380Y-106154166D01*
X161486904Y-109002976D02*
X161486904Y-107752976D01*
X161070238Y-108645833D01*
X160653571Y-107752976D01*
X160653571Y-109002976D01*
X160058333Y-109002976D02*
X160058333Y-108169642D01*
X160058333Y-107752976D02*
X160117857Y-107812500D01*
X160058333Y-107872023D01*
X159998809Y-107812500D01*
X160058333Y-107752976D01*
X160058333Y-107872023D01*
X158927380Y-108943452D02*
X159046428Y-109002976D01*
X159284523Y-109002976D01*
X159403571Y-108943452D01*
X159463095Y-108883928D01*
X159522619Y-108764880D01*
X159522619Y-108407738D01*
X159463095Y-108288690D01*
X159403571Y-108229166D01*
X159284523Y-108169642D01*
X159046428Y-108169642D01*
X158927380Y-108229166D01*
X158391666Y-109002976D02*
X158391666Y-107752976D01*
X157855952Y-109002976D02*
X157855952Y-108348214D01*
X157915476Y-108229166D01*
X158034523Y-108169642D01*
X158213095Y-108169642D01*
X158332142Y-108229166D01*
X158391666Y-108288690D01*
X156725000Y-109002976D02*
X156725000Y-108348214D01*
X156784523Y-108229166D01*
X156903571Y-108169642D01*
X157141666Y-108169642D01*
X157260714Y-108229166D01*
X156725000Y-108943452D02*
X156844047Y-109002976D01*
X157141666Y-109002976D01*
X157260714Y-108943452D01*
X157320238Y-108824404D01*
X157320238Y-108705357D01*
X157260714Y-108586309D01*
X157141666Y-108526785D01*
X156844047Y-108526785D01*
X156725000Y-108467261D01*
X155653571Y-108943452D02*
X155772619Y-109002976D01*
X156010714Y-109002976D01*
X156129761Y-108943452D01*
X156189285Y-108824404D01*
X156189285Y-108348214D01*
X156129761Y-108229166D01*
X156010714Y-108169642D01*
X155772619Y-108169642D01*
X155653571Y-108229166D01*
X155594047Y-108348214D01*
X155594047Y-108467261D01*
X156189285Y-108586309D01*
X154879761Y-109002976D02*
X154998809Y-108943452D01*
X155058333Y-108824404D01*
X155058333Y-107752976D01*
X152736904Y-108883928D02*
X152796428Y-108943452D01*
X152975000Y-109002976D01*
X153094047Y-109002976D01*
X153272619Y-108943452D01*
X153391666Y-108824404D01*
X153451190Y-108705357D01*
X153510714Y-108467261D01*
X153510714Y-108288690D01*
X153451190Y-108050595D01*
X153391666Y-107931547D01*
X153272619Y-107812500D01*
X153094047Y-107752976D01*
X152975000Y-107752976D01*
X152796428Y-107812500D01*
X152736904Y-107872023D01*
X151665476Y-108169642D02*
X151665476Y-109002976D01*
X152201190Y-108169642D02*
X152201190Y-108824404D01*
X152141666Y-108943452D01*
X152022619Y-109002976D01*
X151844047Y-109002976D01*
X151725000Y-108943452D01*
X151665476Y-108883928D01*
X150891666Y-109002976D02*
X151010714Y-108943452D01*
X151070238Y-108824404D01*
X151070238Y-107752976D01*
X150236904Y-109002976D02*
X150355952Y-108943452D01*
X150415476Y-108824404D01*
X150415476Y-107752976D01*
X149284523Y-108943452D02*
X149403571Y-109002976D01*
X149641666Y-109002976D01*
X149760714Y-108943452D01*
X149820238Y-108824404D01*
X149820238Y-108348214D01*
X149760714Y-108229166D01*
X149641666Y-108169642D01*
X149403571Y-108169642D01*
X149284523Y-108229166D01*
X149225000Y-108348214D01*
X149225000Y-108467261D01*
X149820238Y-108586309D01*
X148689285Y-108169642D02*
X148689285Y-109002976D01*
X148689285Y-108288690D02*
X148629761Y-108229166D01*
X148510714Y-108169642D01*
X148332142Y-108169642D01*
X148213095Y-108229166D01*
X148153571Y-108348214D01*
X148153571Y-109002976D01*
X146189285Y-108348214D02*
X146605952Y-108348214D01*
X146605952Y-109002976D02*
X146605952Y-107752976D01*
X146010714Y-107752976D01*
X145058333Y-108943452D02*
X145177380Y-109002976D01*
X145415476Y-109002976D01*
X145534523Y-108943452D01*
X145594047Y-108824404D01*
X145594047Y-108348214D01*
X145534523Y-108229166D01*
X145415476Y-108169642D01*
X145177380Y-108169642D01*
X145058333Y-108229166D01*
X144998809Y-108348214D01*
X144998809Y-108467261D01*
X145594047Y-108586309D01*
X144463095Y-109002976D02*
X144463095Y-107752976D01*
X144463095Y-108229166D02*
X144344047Y-108169642D01*
X144105952Y-108169642D01*
X143986904Y-108229166D01*
X143927380Y-108288690D01*
X143867857Y-108407738D01*
X143867857Y-108764880D01*
X143927380Y-108883928D01*
X143986904Y-108943452D01*
X144105952Y-109002976D01*
X144344047Y-109002976D01*
X144463095Y-108943452D01*
X142439285Y-107872023D02*
X142379761Y-107812500D01*
X142260714Y-107752976D01*
X141963095Y-107752976D01*
X141844047Y-107812500D01*
X141784523Y-107872023D01*
X141725000Y-107991071D01*
X141725000Y-108110119D01*
X141784523Y-108288690D01*
X142498809Y-109002976D01*
X141725000Y-109002976D01*
X140951190Y-107752976D02*
X140832142Y-107752976D01*
X140713095Y-107812500D01*
X140653571Y-107872023D01*
X140594047Y-107991071D01*
X140534523Y-108229166D01*
X140534523Y-108526785D01*
X140594047Y-108764880D01*
X140653571Y-108883928D01*
X140713095Y-108943452D01*
X140832142Y-109002976D01*
X140951190Y-109002976D01*
X141070238Y-108943452D01*
X141129761Y-108883928D01*
X141189285Y-108764880D01*
X141248809Y-108526785D01*
X141248809Y-108229166D01*
X141189285Y-107991071D01*
X141129761Y-107872023D01*
X141070238Y-107812500D01*
X140951190Y-107752976D01*
X140058333Y-107872023D02*
X139998809Y-107812500D01*
X139879761Y-107752976D01*
X139582142Y-107752976D01*
X139463095Y-107812500D01*
X139403571Y-107872023D01*
X139344047Y-107991071D01*
X139344047Y-108110119D01*
X139403571Y-108288690D01*
X140117857Y-109002976D01*
X139344047Y-109002976D01*
X138153571Y-109002976D02*
X138867857Y-109002976D01*
X138510714Y-109002976D02*
X138510714Y-107752976D01*
X138629761Y-107931547D01*
X138748809Y-108050595D01*
X138867857Y-108110119D01*
M02*
