%TF.GenerationSoftware,KiCad,Pcbnew,5.1.6-1.fc32*%
%TF.CreationDate,2021-02-06T18:10:13+01:00*%
%TF.ProjectId,acnode-nucleo144,61636e6f-6465-42d6-9e75-636c656f3134,rev?*%
%TF.SameCoordinates,Original*%
%TF.FileFunction,Legend,Top*%
%TF.FilePolarity,Positive*%
%FSLAX46Y46*%
G04 Gerber Fmt 4.6, Leading zero omitted, Abs format (unit mm)*
G04 Created by KiCad (PCBNEW 5.1.6-1.fc32) date 2021-02-06 18:10:13*
%MOMM*%
%LPD*%
G01*
G04 APERTURE LIST*
%ADD10C,0.200000*%
%ADD11C,0.150000*%
%ADD12C,0.120000*%
%ADD13C,0.300000*%
%ADD14C,0.500000*%
G04 APERTURE END LIST*
D10*
X150264285Y-128342857D02*
X150950000Y-128342857D01*
X150607142Y-129542857D02*
X150607142Y-128342857D01*
X151350000Y-129542857D02*
X151350000Y-128342857D01*
X151350000Y-128914285D02*
X152035714Y-128914285D01*
X152035714Y-129542857D02*
X152035714Y-128342857D01*
X152607142Y-128914285D02*
X153007142Y-128914285D01*
X153178571Y-129542857D02*
X152607142Y-129542857D01*
X152607142Y-128342857D01*
X153178571Y-128342857D01*
X155007142Y-128914285D02*
X155178571Y-128971428D01*
X155235714Y-129028571D01*
X155292857Y-129142857D01*
X155292857Y-129314285D01*
X155235714Y-129428571D01*
X155178571Y-129485714D01*
X155064285Y-129542857D01*
X154607142Y-129542857D01*
X154607142Y-128342857D01*
X155007142Y-128342857D01*
X155121428Y-128400000D01*
X155178571Y-128457142D01*
X155235714Y-128571428D01*
X155235714Y-128685714D01*
X155178571Y-128800000D01*
X155121428Y-128857142D01*
X155007142Y-128914285D01*
X154607142Y-128914285D01*
X156321428Y-128742857D02*
X156321428Y-129542857D01*
X155807142Y-128742857D02*
X155807142Y-129371428D01*
X155864285Y-129485714D01*
X155978571Y-129542857D01*
X156150000Y-129542857D01*
X156264285Y-129485714D01*
X156321428Y-129428571D01*
X156721428Y-128742857D02*
X157178571Y-128742857D01*
X156892857Y-128342857D02*
X156892857Y-129371428D01*
X156950000Y-129485714D01*
X157064285Y-129542857D01*
X157178571Y-129542857D01*
X157407142Y-128742857D02*
X157864285Y-128742857D01*
X157578571Y-128342857D02*
X157578571Y-129371428D01*
X157635714Y-129485714D01*
X157750000Y-129542857D01*
X157864285Y-129542857D01*
X158435714Y-129542857D02*
X158321428Y-129485714D01*
X158264285Y-129428571D01*
X158207142Y-129314285D01*
X158207142Y-128971428D01*
X158264285Y-128857142D01*
X158321428Y-128800000D01*
X158435714Y-128742857D01*
X158607142Y-128742857D01*
X158721428Y-128800000D01*
X158778571Y-128857142D01*
X158835714Y-128971428D01*
X158835714Y-129314285D01*
X158778571Y-129428571D01*
X158721428Y-129485714D01*
X158607142Y-129542857D01*
X158435714Y-129542857D01*
X159350000Y-128742857D02*
X159350000Y-129542857D01*
X159350000Y-128857142D02*
X159407142Y-128800000D01*
X159521428Y-128742857D01*
X159692857Y-128742857D01*
X159807142Y-128800000D01*
X159864285Y-128914285D01*
X159864285Y-129542857D01*
D11*
X169214285Y-129952380D02*
X169880952Y-129952380D01*
X169452380Y-130952380D01*
X170261904Y-130571428D02*
X171023809Y-130571428D01*
X172023809Y-130952380D02*
X171452380Y-130952380D01*
X171738095Y-130952380D02*
X171738095Y-129952380D01*
X171642857Y-130095238D01*
X171547619Y-130190476D01*
X171452380Y-130238095D01*
X172404761Y-130047619D02*
X172452380Y-130000000D01*
X172547619Y-129952380D01*
X172785714Y-129952380D01*
X172880952Y-130000000D01*
X172928571Y-130047619D01*
X172976190Y-130142857D01*
X172976190Y-130238095D01*
X172928571Y-130380952D01*
X172357142Y-130952380D01*
X172976190Y-130952380D01*
X173261904Y-129952380D02*
X173595238Y-130952380D01*
X173928571Y-129952380D01*
X175023809Y-130952380D02*
X175023809Y-129952380D01*
X175261904Y-129952380D01*
X175404761Y-130000000D01*
X175500000Y-130095238D01*
X175547619Y-130190476D01*
X175595238Y-130380952D01*
X175595238Y-130523809D01*
X175547619Y-130714285D01*
X175500000Y-130809523D01*
X175404761Y-130904761D01*
X175261904Y-130952380D01*
X175023809Y-130952380D01*
X176595238Y-130857142D02*
X176547619Y-130904761D01*
X176404761Y-130952380D01*
X176309523Y-130952380D01*
X176166666Y-130904761D01*
X176071428Y-130809523D01*
X176023809Y-130714285D01*
X175976190Y-130523809D01*
X175976190Y-130380952D01*
X176023809Y-130190476D01*
X176071428Y-130095238D01*
X176166666Y-130000000D01*
X176309523Y-129952380D01*
X176404761Y-129952380D01*
X176547619Y-130000000D01*
X176595238Y-130047619D01*
X177785714Y-130952380D02*
X177785714Y-129952380D01*
X178261904Y-130285714D02*
X178261904Y-130952380D01*
X178261904Y-130380952D02*
X178309523Y-130333333D01*
X178404761Y-130285714D01*
X178547619Y-130285714D01*
X178642857Y-130333333D01*
X178690476Y-130428571D01*
X178690476Y-130952380D01*
X167452380Y-135119047D02*
X167452380Y-135690476D01*
X167452380Y-135404761D02*
X166452380Y-135404761D01*
X166595238Y-135500000D01*
X166690476Y-135595238D01*
X166738095Y-135690476D01*
X166547619Y-134738095D02*
X166500000Y-134690476D01*
X166452380Y-134595238D01*
X166452380Y-134357142D01*
X166500000Y-134261904D01*
X166547619Y-134214285D01*
X166642857Y-134166666D01*
X166738095Y-134166666D01*
X166880952Y-134214285D01*
X167452380Y-134785714D01*
X167452380Y-134166666D01*
X166452380Y-133880952D02*
X167452380Y-133547619D01*
X166452380Y-133214285D01*
X166500000Y-140761904D02*
X166452380Y-140857142D01*
X166452380Y-141000000D01*
X166500000Y-141142857D01*
X166595238Y-141238095D01*
X166690476Y-141285714D01*
X166880952Y-141333333D01*
X167023809Y-141333333D01*
X167214285Y-141285714D01*
X167309523Y-141238095D01*
X167404761Y-141142857D01*
X167452380Y-141000000D01*
X167452380Y-140904761D01*
X167404761Y-140761904D01*
X167357142Y-140714285D01*
X167023809Y-140714285D01*
X167023809Y-140904761D01*
X167452380Y-140285714D02*
X166452380Y-140285714D01*
X167452380Y-139714285D01*
X166452380Y-139714285D01*
X167452380Y-139238095D02*
X166452380Y-139238095D01*
X166452380Y-139000000D01*
X166500000Y-138857142D01*
X166595238Y-138761904D01*
X166690476Y-138714285D01*
X166880952Y-138666666D01*
X167023809Y-138666666D01*
X167214285Y-138714285D01*
X167309523Y-138761904D01*
X167404761Y-138857142D01*
X167452380Y-139000000D01*
X167452380Y-139238095D01*
X170071428Y-149680952D02*
X170071428Y-148919047D01*
X169719047Y-152871428D02*
X170480952Y-152871428D01*
X170100000Y-153252380D02*
X170100000Y-152490476D01*
X168152380Y-153709523D02*
X168152380Y-153138095D01*
X169152380Y-153423809D02*
X168152380Y-153423809D01*
X169152380Y-152661904D02*
X169104761Y-152757142D01*
X169057142Y-152804761D01*
X168961904Y-152852380D01*
X168676190Y-152852380D01*
X168580952Y-152804761D01*
X168533333Y-152757142D01*
X168485714Y-152661904D01*
X168485714Y-152519047D01*
X168533333Y-152423809D01*
X168580952Y-152376190D01*
X168676190Y-152328571D01*
X168961904Y-152328571D01*
X169057142Y-152376190D01*
X169104761Y-152423809D01*
X169152380Y-152519047D01*
X169152380Y-152661904D01*
X169152380Y-151757142D02*
X169104761Y-151852380D01*
X169057142Y-151900000D01*
X168961904Y-151947619D01*
X168676190Y-151947619D01*
X168580952Y-151900000D01*
X168533333Y-151852380D01*
X168485714Y-151757142D01*
X168485714Y-151614285D01*
X168533333Y-151519047D01*
X168580952Y-151471428D01*
X168676190Y-151423809D01*
X168961904Y-151423809D01*
X169057142Y-151471428D01*
X169104761Y-151519047D01*
X169152380Y-151614285D01*
X169152380Y-151757142D01*
X169152380Y-150852380D02*
X169104761Y-150947619D01*
X169009523Y-150995238D01*
X168152380Y-150995238D01*
X168152380Y-149519047D02*
X168152380Y-149328571D01*
X168200000Y-149233333D01*
X168295238Y-149138095D01*
X168485714Y-149090476D01*
X168819047Y-149090476D01*
X169009523Y-149138095D01*
X169104761Y-149233333D01*
X169152380Y-149328571D01*
X169152380Y-149519047D01*
X169104761Y-149614285D01*
X169009523Y-149709523D01*
X168819047Y-149757142D01*
X168485714Y-149757142D01*
X168295238Y-149709523D01*
X168200000Y-149614285D01*
X168152380Y-149519047D01*
X168485714Y-148661904D02*
X169152380Y-148661904D01*
X168580952Y-148661904D02*
X168533333Y-148614285D01*
X168485714Y-148519047D01*
X168485714Y-148376190D01*
X168533333Y-148280952D01*
X168628571Y-148233333D01*
X169152380Y-148233333D01*
X124214285Y-151452380D02*
X124214285Y-150452380D01*
X124785714Y-151452380D01*
X124785714Y-150452380D01*
X125833333Y-151357142D02*
X125785714Y-151404761D01*
X125642857Y-151452380D01*
X125547619Y-151452380D01*
X125404761Y-151404761D01*
X125309523Y-151309523D01*
X125261904Y-151214285D01*
X125214285Y-151023809D01*
X125214285Y-150880952D01*
X125261904Y-150690476D01*
X125309523Y-150595238D01*
X125404761Y-150500000D01*
X125547619Y-150452380D01*
X125642857Y-150452380D01*
X125785714Y-150500000D01*
X125833333Y-150547619D01*
X124190476Y-143452380D02*
X124190476Y-142452380D01*
X124761904Y-143452380D01*
X124761904Y-142452380D01*
X125428571Y-142452380D02*
X125619047Y-142452380D01*
X125714285Y-142500000D01*
X125809523Y-142595238D01*
X125857142Y-142785714D01*
X125857142Y-143119047D01*
X125809523Y-143309523D01*
X125714285Y-143404761D01*
X125619047Y-143452380D01*
X125428571Y-143452380D01*
X125333333Y-143404761D01*
X125238095Y-143309523D01*
X125190476Y-143119047D01*
X125190476Y-142785714D01*
X125238095Y-142595238D01*
X125333333Y-142500000D01*
X125428571Y-142452380D01*
X124714285Y-147357142D02*
X124666666Y-147404761D01*
X124523809Y-147452380D01*
X124428571Y-147452380D01*
X124285714Y-147404761D01*
X124190476Y-147309523D01*
X124142857Y-147214285D01*
X124095238Y-147023809D01*
X124095238Y-146880952D01*
X124142857Y-146690476D01*
X124190476Y-146595238D01*
X124285714Y-146500000D01*
X124428571Y-146452380D01*
X124523809Y-146452380D01*
X124666666Y-146500000D01*
X124714285Y-146547619D01*
X125333333Y-146452380D02*
X125523809Y-146452380D01*
X125619047Y-146500000D01*
X125714285Y-146595238D01*
X125761904Y-146785714D01*
X125761904Y-147119047D01*
X125714285Y-147309523D01*
X125619047Y-147404761D01*
X125523809Y-147452380D01*
X125333333Y-147452380D01*
X125238095Y-147404761D01*
X125142857Y-147309523D01*
X125095238Y-147119047D01*
X125095238Y-146785714D01*
X125142857Y-146595238D01*
X125238095Y-146500000D01*
X125333333Y-146452380D01*
X126190476Y-147452380D02*
X126190476Y-146452380D01*
X126523809Y-147166666D01*
X126857142Y-146452380D01*
X126857142Y-147452380D01*
X142452380Y-96952380D02*
X142452380Y-95952380D01*
X142880952Y-96047619D02*
X142928571Y-96000000D01*
X143023809Y-95952380D01*
X143261904Y-95952380D01*
X143357142Y-96000000D01*
X143404761Y-96047619D01*
X143452380Y-96142857D01*
X143452380Y-96238095D01*
X143404761Y-96380952D01*
X142833333Y-96952380D01*
X143452380Y-96952380D01*
X144452380Y-96857142D02*
X144404761Y-96904761D01*
X144261904Y-96952380D01*
X144166666Y-96952380D01*
X144023809Y-96904761D01*
X143928571Y-96809523D01*
X143880952Y-96714285D01*
X143833333Y-96523809D01*
X143833333Y-96380952D01*
X143880952Y-96190476D01*
X143928571Y-96095238D01*
X144023809Y-96000000D01*
X144166666Y-95952380D01*
X144261904Y-95952380D01*
X144404761Y-96000000D01*
X144452380Y-96047619D01*
X145642857Y-96952380D02*
X145642857Y-95952380D01*
X145880952Y-95952380D01*
X146023809Y-96000000D01*
X146119047Y-96095238D01*
X146166666Y-96190476D01*
X146214285Y-96380952D01*
X146214285Y-96523809D01*
X146166666Y-96714285D01*
X146119047Y-96809523D01*
X146023809Y-96904761D01*
X145880952Y-96952380D01*
X145642857Y-96952380D01*
X146642857Y-96952380D02*
X146642857Y-96285714D01*
X146642857Y-95952380D02*
X146595238Y-96000000D01*
X146642857Y-96047619D01*
X146690476Y-96000000D01*
X146642857Y-95952380D01*
X146642857Y-96047619D01*
X147071428Y-96904761D02*
X147166666Y-96952380D01*
X147357142Y-96952380D01*
X147452380Y-96904761D01*
X147500000Y-96809523D01*
X147500000Y-96761904D01*
X147452380Y-96666666D01*
X147357142Y-96619047D01*
X147214285Y-96619047D01*
X147119047Y-96571428D01*
X147071428Y-96476190D01*
X147071428Y-96428571D01*
X147119047Y-96333333D01*
X147214285Y-96285714D01*
X147357142Y-96285714D01*
X147452380Y-96333333D01*
X147928571Y-96285714D02*
X147928571Y-97285714D01*
X147928571Y-96333333D02*
X148023809Y-96285714D01*
X148214285Y-96285714D01*
X148309523Y-96333333D01*
X148357142Y-96380952D01*
X148404761Y-96476190D01*
X148404761Y-96761904D01*
X148357142Y-96857142D01*
X148309523Y-96904761D01*
X148214285Y-96952380D01*
X148023809Y-96952380D01*
X147928571Y-96904761D01*
X148976190Y-96952380D02*
X148880952Y-96904761D01*
X148833333Y-96809523D01*
X148833333Y-95952380D01*
X149785714Y-96952380D02*
X149785714Y-96428571D01*
X149738095Y-96333333D01*
X149642857Y-96285714D01*
X149452380Y-96285714D01*
X149357142Y-96333333D01*
X149785714Y-96904761D02*
X149690476Y-96952380D01*
X149452380Y-96952380D01*
X149357142Y-96904761D01*
X149309523Y-96809523D01*
X149309523Y-96714285D01*
X149357142Y-96619047D01*
X149452380Y-96571428D01*
X149690476Y-96571428D01*
X149785714Y-96523809D01*
X150166666Y-96285714D02*
X150404761Y-96952380D01*
X150642857Y-96285714D02*
X150404761Y-96952380D01*
X150309523Y-97190476D01*
X150261904Y-97238095D01*
X150166666Y-97285714D01*
X150857142Y-76452380D02*
X150380952Y-76452380D01*
X150333333Y-76928571D01*
X150380952Y-76880952D01*
X150476190Y-76833333D01*
X150714285Y-76833333D01*
X150809523Y-76880952D01*
X150857142Y-76928571D01*
X150904761Y-77023809D01*
X150904761Y-77261904D01*
X150857142Y-77357142D01*
X150809523Y-77404761D01*
X150714285Y-77452380D01*
X150476190Y-77452380D01*
X150380952Y-77404761D01*
X150333333Y-77357142D01*
X151190476Y-76452380D02*
X151523809Y-77452380D01*
X151857142Y-76452380D01*
X153523809Y-77452380D02*
X153190476Y-76976190D01*
X152952380Y-77452380D02*
X152952380Y-76452380D01*
X153333333Y-76452380D01*
X153428571Y-76500000D01*
X153476190Y-76547619D01*
X153523809Y-76642857D01*
X153523809Y-76785714D01*
X153476190Y-76880952D01*
X153428571Y-76928571D01*
X153333333Y-76976190D01*
X152952380Y-76976190D01*
X154333333Y-77404761D02*
X154238095Y-77452380D01*
X154047619Y-77452380D01*
X153952380Y-77404761D01*
X153904761Y-77309523D01*
X153904761Y-76928571D01*
X153952380Y-76833333D01*
X154047619Y-76785714D01*
X154238095Y-76785714D01*
X154333333Y-76833333D01*
X154380952Y-76928571D01*
X154380952Y-77023809D01*
X153904761Y-77119047D01*
X155238095Y-77452380D02*
X155238095Y-76928571D01*
X155190476Y-76833333D01*
X155095238Y-76785714D01*
X154904761Y-76785714D01*
X154809523Y-76833333D01*
X155238095Y-77404761D02*
X155142857Y-77452380D01*
X154904761Y-77452380D01*
X154809523Y-77404761D01*
X154761904Y-77309523D01*
X154761904Y-77214285D01*
X154809523Y-77119047D01*
X154904761Y-77071428D01*
X155142857Y-77071428D01*
X155238095Y-77023809D01*
X156142857Y-77452380D02*
X156142857Y-76452380D01*
X156142857Y-77404761D02*
X156047619Y-77452380D01*
X155857142Y-77452380D01*
X155761904Y-77404761D01*
X155714285Y-77357142D01*
X155666666Y-77261904D01*
X155666666Y-76976190D01*
X155714285Y-76880952D01*
X155761904Y-76833333D01*
X155857142Y-76785714D01*
X156047619Y-76785714D01*
X156142857Y-76833333D01*
X157000000Y-77404761D02*
X156904761Y-77452380D01*
X156714285Y-77452380D01*
X156619047Y-77404761D01*
X156571428Y-77309523D01*
X156571428Y-76928571D01*
X156619047Y-76833333D01*
X156714285Y-76785714D01*
X156904761Y-76785714D01*
X157000000Y-76833333D01*
X157047619Y-76928571D01*
X157047619Y-77023809D01*
X156571428Y-77119047D01*
X157476190Y-77452380D02*
X157476190Y-76785714D01*
X157476190Y-76976190D02*
X157523809Y-76880952D01*
X157571428Y-76833333D01*
X157666666Y-76785714D01*
X157761904Y-76785714D01*
X133428571Y-77452380D02*
X132857142Y-77452380D01*
X133142857Y-77452380D02*
X133142857Y-76452380D01*
X133047619Y-76595238D01*
X132952380Y-76690476D01*
X132857142Y-76738095D01*
X133809523Y-76547619D02*
X133857142Y-76500000D01*
X133952380Y-76452380D01*
X134190476Y-76452380D01*
X134285714Y-76500000D01*
X134333333Y-76547619D01*
X134380952Y-76642857D01*
X134380952Y-76738095D01*
X134333333Y-76880952D01*
X133761904Y-77452380D01*
X134380952Y-77452380D01*
X134666666Y-76452380D02*
X135000000Y-77452380D01*
X135333333Y-76452380D01*
X137000000Y-77452380D02*
X136666666Y-76976190D01*
X136428571Y-77452380D02*
X136428571Y-76452380D01*
X136809523Y-76452380D01*
X136904761Y-76500000D01*
X136952380Y-76547619D01*
X137000000Y-76642857D01*
X137000000Y-76785714D01*
X136952380Y-76880952D01*
X136904761Y-76928571D01*
X136809523Y-76976190D01*
X136428571Y-76976190D01*
X137809523Y-77404761D02*
X137714285Y-77452380D01*
X137523809Y-77452380D01*
X137428571Y-77404761D01*
X137380952Y-77309523D01*
X137380952Y-76928571D01*
X137428571Y-76833333D01*
X137523809Y-76785714D01*
X137714285Y-76785714D01*
X137809523Y-76833333D01*
X137857142Y-76928571D01*
X137857142Y-77023809D01*
X137380952Y-77119047D01*
X138714285Y-77452380D02*
X138714285Y-76928571D01*
X138666666Y-76833333D01*
X138571428Y-76785714D01*
X138380952Y-76785714D01*
X138285714Y-76833333D01*
X138714285Y-77404761D02*
X138619047Y-77452380D01*
X138380952Y-77452380D01*
X138285714Y-77404761D01*
X138238095Y-77309523D01*
X138238095Y-77214285D01*
X138285714Y-77119047D01*
X138380952Y-77071428D01*
X138619047Y-77071428D01*
X138714285Y-77023809D01*
X139619047Y-77452380D02*
X139619047Y-76452380D01*
X139619047Y-77404761D02*
X139523809Y-77452380D01*
X139333333Y-77452380D01*
X139238095Y-77404761D01*
X139190476Y-77357142D01*
X139142857Y-77261904D01*
X139142857Y-76976190D01*
X139190476Y-76880952D01*
X139238095Y-76833333D01*
X139333333Y-76785714D01*
X139523809Y-76785714D01*
X139619047Y-76833333D01*
X140476190Y-77404761D02*
X140380952Y-77452380D01*
X140190476Y-77452380D01*
X140095238Y-77404761D01*
X140047619Y-77309523D01*
X140047619Y-76928571D01*
X140095238Y-76833333D01*
X140190476Y-76785714D01*
X140380952Y-76785714D01*
X140476190Y-76833333D01*
X140523809Y-76928571D01*
X140523809Y-77023809D01*
X140047619Y-77119047D01*
X140952380Y-77452380D02*
X140952380Y-76785714D01*
X140952380Y-76976190D02*
X141000000Y-76880952D01*
X141047619Y-76833333D01*
X141142857Y-76785714D01*
X141238095Y-76785714D01*
X116452380Y-64238095D02*
X115976190Y-64571428D01*
X116452380Y-64809523D02*
X115452380Y-64809523D01*
X115452380Y-64428571D01*
X115500000Y-64333333D01*
X115547619Y-64285714D01*
X115642857Y-64238095D01*
X115785714Y-64238095D01*
X115880952Y-64285714D01*
X115928571Y-64333333D01*
X115976190Y-64428571D01*
X115976190Y-64809523D01*
X116404761Y-63428571D02*
X116452380Y-63523809D01*
X116452380Y-63714285D01*
X116404761Y-63809523D01*
X116309523Y-63857142D01*
X115928571Y-63857142D01*
X115833333Y-63809523D01*
X115785714Y-63714285D01*
X115785714Y-63523809D01*
X115833333Y-63428571D01*
X115928571Y-63380952D01*
X116023809Y-63380952D01*
X116119047Y-63857142D01*
X116404761Y-63000000D02*
X116452380Y-62904761D01*
X116452380Y-62714285D01*
X116404761Y-62619047D01*
X116309523Y-62571428D01*
X116261904Y-62571428D01*
X116166666Y-62619047D01*
X116119047Y-62714285D01*
X116119047Y-62857142D01*
X116071428Y-62952380D01*
X115976190Y-63000000D01*
X115928571Y-63000000D01*
X115833333Y-62952380D01*
X115785714Y-62857142D01*
X115785714Y-62714285D01*
X115833333Y-62619047D01*
X116404761Y-61761904D02*
X116452380Y-61857142D01*
X116452380Y-62047619D01*
X116404761Y-62142857D01*
X116309523Y-62190476D01*
X115928571Y-62190476D01*
X115833333Y-62142857D01*
X115785714Y-62047619D01*
X115785714Y-61857142D01*
X115833333Y-61761904D01*
X115928571Y-61714285D01*
X116023809Y-61714285D01*
X116119047Y-62190476D01*
X115785714Y-61428571D02*
X115785714Y-61047619D01*
X115452380Y-61285714D02*
X116309523Y-61285714D01*
X116404761Y-61238095D01*
X116452380Y-61142857D01*
X116452380Y-61047619D01*
D12*
X132700000Y-118700000D02*
X132700000Y-91400000D01*
X160000000Y-118700000D02*
X132700000Y-118700000D01*
X160000000Y-91400000D02*
X160000000Y-118700000D01*
X132700000Y-91400000D02*
X160000000Y-91400000D01*
%TO.C,U3*%
X155183000Y-87567500D02*
X153508000Y-87567500D01*
X155183000Y-87307500D02*
X155183000Y-87567500D01*
X157908000Y-87307500D02*
X155183000Y-87307500D01*
X160633000Y-87307500D02*
X160633000Y-87567500D01*
X157908000Y-87307500D02*
X160633000Y-87307500D01*
X155183000Y-92757500D02*
X155183000Y-92497500D01*
X157908000Y-92757500D02*
X155183000Y-92757500D01*
X160633000Y-92757500D02*
X160633000Y-92497500D01*
X157908000Y-92757500D02*
X160633000Y-92757500D01*
%TO.C,R2*%
X151560000Y-89179279D02*
X151560000Y-88853721D01*
X150540000Y-89179279D02*
X150540000Y-88853721D01*
%TO.C,C2*%
X163430500Y-86885221D02*
X163430500Y-87210779D01*
X164450500Y-86885221D02*
X164450500Y-87210779D01*
%TO.C,J2*%
X148374000Y-76215000D02*
X148374000Y-64285000D01*
X148374000Y-76215000D02*
X164394000Y-76215000D01*
X164394000Y-76215000D02*
X164394000Y-64285000D01*
X148374000Y-57345000D02*
X164394000Y-57345000D01*
X148374000Y-60785000D02*
X148374000Y-57345000D01*
X164762000Y-71935000D02*
X165270000Y-72443000D01*
X165270000Y-72443000D02*
X165270000Y-71427000D01*
X165270000Y-71427000D02*
X164762000Y-71935000D01*
X164394000Y-60785000D02*
X164394000Y-57345000D01*
%TO.C,J1*%
X128689000Y-76215000D02*
X128689000Y-64285000D01*
X128689000Y-76215000D02*
X144709000Y-76215000D01*
X144709000Y-76215000D02*
X144709000Y-64285000D01*
X128689000Y-57345000D02*
X144709000Y-57345000D01*
X128689000Y-60785000D02*
X128689000Y-57345000D01*
X145077000Y-71935000D02*
X145585000Y-72443000D01*
X145585000Y-72443000D02*
X145585000Y-71427000D01*
X145585000Y-71427000D02*
X145077000Y-71935000D01*
X144709000Y-60785000D02*
X144709000Y-57345000D01*
%TO.C,U2*%
X166910000Y-128796000D02*
X166910000Y-85489000D01*
X171990000Y-128796000D02*
X166910000Y-128796000D01*
X171990000Y-85489000D02*
X171990000Y-128796000D01*
X166910000Y-85489000D02*
X171990000Y-85489000D01*
X166910000Y-84092000D02*
X166910000Y-58692000D01*
X171990000Y-84092000D02*
X166910000Y-84092000D01*
X171990000Y-58692000D02*
X171990000Y-84092000D01*
X166910000Y-58692000D02*
X171990000Y-58692000D01*
X121190000Y-129050000D02*
X121190000Y-90950000D01*
X126270000Y-129050000D02*
X121190000Y-129050000D01*
X126270000Y-90950000D02*
X126270000Y-129050000D01*
X121190000Y-90950000D02*
X126270000Y-90950000D01*
X121190000Y-88410000D02*
X121190000Y-68090000D01*
X126270000Y-88410000D02*
X121190000Y-88410000D01*
X126270000Y-68090000D02*
X126270000Y-88410000D01*
X121190000Y-68090000D02*
X126270000Y-68090000D01*
%TO.C,K1*%
X137950000Y-145150000D02*
X141950000Y-145150000D01*
X137950000Y-148750000D02*
X137950000Y-145150000D01*
X141950000Y-148750000D02*
X137950000Y-148750000D01*
X141950000Y-145150000D02*
X141950000Y-148750000D01*
X137950000Y-145150000D02*
X141950000Y-148750000D01*
X139950000Y-145150000D02*
X139950000Y-140950000D01*
X139950000Y-152950000D02*
X139950000Y-148750000D01*
X143350000Y-146950000D02*
X143350000Y-143350000D01*
X136550000Y-146950000D02*
X136550000Y-143350000D01*
X136550000Y-143350000D02*
X143350000Y-143350000D01*
X135050000Y-146950000D02*
X130450000Y-149450000D01*
X136550000Y-146950000D02*
X135050000Y-146950000D01*
X139950000Y-152950000D02*
X142450000Y-152950000D01*
X143350000Y-146950000D02*
X144150000Y-146950000D01*
X142450000Y-140950000D02*
X139950000Y-140950000D01*
X131850000Y-151200000D02*
X131850000Y-148700000D01*
X131850000Y-142800000D02*
X131850000Y-145250000D01*
X127600000Y-139200000D02*
X147400000Y-139200000D01*
X127600000Y-154800000D02*
X127600000Y-139200000D01*
X147400000Y-154800000D02*
X127600000Y-154800000D01*
X147400000Y-154800000D02*
X147400000Y-148200000D01*
X147400000Y-145800000D02*
X147400000Y-139200000D01*
D13*
%TO.C,U4*%
X163615139Y-151975000D02*
G75*
G03*
X163615139Y-151975000I-90139J0D01*
G01*
D12*
X164000000Y-148675000D02*
X164000000Y-152525000D01*
X159600000Y-148675000D02*
X164000000Y-148675000D01*
X159600000Y-152525000D02*
X159600000Y-148675000D01*
X164000000Y-152525000D02*
X159600000Y-152525000D01*
%TO.C,J5*%
X180100000Y-155200000D02*
X170900000Y-155200000D01*
X180100000Y-146800000D02*
X180100000Y-155200000D01*
X170900000Y-146800000D02*
X180100000Y-146800000D01*
X170900000Y-155200000D02*
X170900000Y-146800000D01*
%TO.C,J4*%
X123100000Y-140890000D02*
X123100000Y-153110000D01*
X123100000Y-153110000D02*
X113900000Y-153110000D01*
X113900000Y-153110000D02*
X113900000Y-140890000D01*
X113900000Y-140890000D02*
X123100000Y-140890000D01*
D14*
%TO.C,D1*%
X135700000Y-123100000D02*
G75*
G03*
X135700000Y-123100000I-100000J0D01*
G01*
D12*
%TO.C,U1*%
X133000000Y-89185000D02*
X134950000Y-89185000D01*
X133000000Y-89185000D02*
X131050000Y-89185000D01*
X133000000Y-80315000D02*
X134950000Y-80315000D01*
X133000000Y-80315000D02*
X129550000Y-80315000D01*
%TO.C,SW2*%
X152500000Y-127000000D02*
X157000000Y-127000000D01*
X151250000Y-123000000D02*
X151250000Y-124500000D01*
X157000000Y-120500000D02*
X152500000Y-120500000D01*
X158250000Y-124500000D02*
X158250000Y-123000000D01*
%TO.C,SW1*%
X119284000Y-66386000D02*
X123784000Y-66386000D01*
X118034000Y-62386000D02*
X118034000Y-63886000D01*
X123784000Y-59886000D02*
X119284000Y-59886000D01*
X125034000Y-63886000D02*
X125034000Y-62386000D01*
%TO.C,R14*%
X147587221Y-125490000D02*
X147912779Y-125490000D01*
X147587221Y-126510000D02*
X147912779Y-126510000D01*
%TO.C,R13*%
X150240000Y-99162779D02*
X150240000Y-98837221D01*
X151260000Y-99162779D02*
X151260000Y-98837221D01*
%TO.C,R12*%
X147240000Y-99162779D02*
X147240000Y-98837221D01*
X148260000Y-99162779D02*
X148260000Y-98837221D01*
%TO.C,R11*%
X168037221Y-153890000D02*
X168362779Y-153890000D01*
X168037221Y-154910000D02*
X168362779Y-154910000D01*
%TO.C,R10*%
X174182821Y-129080800D02*
X174508379Y-129080800D01*
X174182821Y-130100800D02*
X174508379Y-130100800D01*
%TO.C,R9*%
X149260000Y-136087221D02*
X149260000Y-136412779D01*
X148240000Y-136087221D02*
X148240000Y-136412779D01*
%TO.C,R8*%
X144837221Y-83740000D02*
X145162779Y-83740000D01*
X144837221Y-84760000D02*
X145162779Y-84760000D01*
%TO.C,R7*%
X149837221Y-83740000D02*
X150162779Y-83740000D01*
X149837221Y-84760000D02*
X150162779Y-84760000D01*
%TO.C,R6*%
X155337221Y-83740000D02*
X155662779Y-83740000D01*
X155337221Y-84760000D02*
X155662779Y-84760000D01*
%TO.C,R5*%
X143490000Y-119875279D02*
X143490000Y-119549721D01*
X144510000Y-119875279D02*
X144510000Y-119549721D01*
%TO.C,R4*%
X138490000Y-119662779D02*
X138490000Y-119337221D01*
X139510000Y-119662779D02*
X139510000Y-119337221D01*
%TO.C,R3*%
X133490000Y-119662779D02*
X133490000Y-119337221D01*
X134510000Y-119662779D02*
X134510000Y-119337221D01*
%TO.C,R1*%
X140662779Y-79510000D02*
X140337221Y-79510000D01*
X140662779Y-78490000D02*
X140337221Y-78490000D01*
%TO.C,Q8*%
X144420000Y-137260000D02*
X145350000Y-137260000D01*
X147580000Y-137260000D02*
X146650000Y-137260000D01*
X147580000Y-137260000D02*
X147580000Y-135100000D01*
X144420000Y-137260000D02*
X144420000Y-135800000D01*
%TO.C,Q7*%
X160090000Y-131090000D02*
X160090000Y-132350000D01*
X160090000Y-137910000D02*
X160090000Y-136650000D01*
X163850000Y-131090000D02*
X160090000Y-131090000D01*
X166100000Y-137910000D02*
X160090000Y-137910000D01*
%TO.C,Q6*%
X142420000Y-116760000D02*
X143350000Y-116760000D01*
X145580000Y-116760000D02*
X144650000Y-116760000D01*
X145580000Y-116760000D02*
X145580000Y-114600000D01*
X142420000Y-116760000D02*
X142420000Y-115300000D01*
%TO.C,Q5*%
X137420000Y-116760000D02*
X138350000Y-116760000D01*
X140580000Y-116760000D02*
X139650000Y-116760000D01*
X140580000Y-116760000D02*
X140580000Y-114600000D01*
X137420000Y-116760000D02*
X137420000Y-115300000D01*
%TO.C,Q4*%
X132420000Y-116760000D02*
X133350000Y-116760000D01*
X135580000Y-116760000D02*
X134650000Y-116760000D01*
X135580000Y-116760000D02*
X135580000Y-114600000D01*
X132420000Y-116760000D02*
X132420000Y-115300000D01*
%TO.C,Q3*%
X147080000Y-79240000D02*
X146150000Y-79240000D01*
X143920000Y-79240000D02*
X144850000Y-79240000D01*
X143920000Y-79240000D02*
X143920000Y-81400000D01*
X147080000Y-79240000D02*
X147080000Y-80700000D01*
%TO.C,Q2*%
X152080000Y-79240000D02*
X151150000Y-79240000D01*
X148920000Y-79240000D02*
X149850000Y-79240000D01*
X148920000Y-79240000D02*
X148920000Y-81400000D01*
X152080000Y-79240000D02*
X152080000Y-80700000D01*
%TO.C,Q1*%
X157580000Y-79240000D02*
X156650000Y-79240000D01*
X154420000Y-79240000D02*
X155350000Y-79240000D01*
X154420000Y-79240000D02*
X154420000Y-81400000D01*
X157580000Y-79240000D02*
X157580000Y-80700000D01*
%TO.C,J6*%
X151450000Y-94330000D02*
X151450000Y-91670000D01*
X143770000Y-94330000D02*
X151450000Y-94330000D01*
X143770000Y-91670000D02*
X151450000Y-91670000D01*
X143770000Y-94330000D02*
X143770000Y-91670000D01*
X142500000Y-94330000D02*
X141170000Y-94330000D01*
X141170000Y-94330000D02*
X141170000Y-93000000D01*
%TO.C,J3*%
X180100000Y-142700000D02*
X167950000Y-142700000D01*
X180100000Y-131300000D02*
X180100000Y-142700000D01*
X167950000Y-131300000D02*
X180100000Y-131300000D01*
X167950000Y-142700000D02*
X167950000Y-131300000D01*
%TO.C,D2*%
X150880000Y-148710000D02*
X153120000Y-148710000D01*
X150880000Y-148470000D02*
X153120000Y-148470000D01*
X150880000Y-148590000D02*
X153120000Y-148590000D01*
X152000000Y-144420000D02*
X152000000Y-145070000D01*
X152000000Y-149960000D02*
X152000000Y-149310000D01*
X150880000Y-145070000D02*
X150880000Y-149310000D01*
X153120000Y-145070000D02*
X150880000Y-145070000D01*
X153120000Y-149310000D02*
X153120000Y-145070000D01*
X150880000Y-149310000D02*
X153120000Y-149310000D01*
%TO.C,C1*%
X135412779Y-79760000D02*
X135087221Y-79760000D01*
X135412779Y-78740000D02*
X135087221Y-78740000D01*
%TO.C,U3*%
D11*
X157146095Y-85924880D02*
X157146095Y-86734404D01*
X157193714Y-86829642D01*
X157241333Y-86877261D01*
X157336571Y-86924880D01*
X157527047Y-86924880D01*
X157622285Y-86877261D01*
X157669904Y-86829642D01*
X157717523Y-86734404D01*
X157717523Y-85924880D01*
X158098476Y-85924880D02*
X158717523Y-85924880D01*
X158384190Y-86305833D01*
X158527047Y-86305833D01*
X158622285Y-86353452D01*
X158669904Y-86401071D01*
X158717523Y-86496309D01*
X158717523Y-86734404D01*
X158669904Y-86829642D01*
X158622285Y-86877261D01*
X158527047Y-86924880D01*
X158241333Y-86924880D01*
X158146095Y-86877261D01*
X158098476Y-86829642D01*
%TO.C,R2*%
X150072380Y-89183166D02*
X149596190Y-89516500D01*
X150072380Y-89754595D02*
X149072380Y-89754595D01*
X149072380Y-89373642D01*
X149120000Y-89278404D01*
X149167619Y-89230785D01*
X149262857Y-89183166D01*
X149405714Y-89183166D01*
X149500952Y-89230785D01*
X149548571Y-89278404D01*
X149596190Y-89373642D01*
X149596190Y-89754595D01*
X149167619Y-88802214D02*
X149120000Y-88754595D01*
X149072380Y-88659357D01*
X149072380Y-88421261D01*
X149120000Y-88326023D01*
X149167619Y-88278404D01*
X149262857Y-88230785D01*
X149358095Y-88230785D01*
X149500952Y-88278404D01*
X150072380Y-88849833D01*
X150072380Y-88230785D01*
%TO.C,C2*%
X165727642Y-87214666D02*
X165775261Y-87262285D01*
X165822880Y-87405142D01*
X165822880Y-87500380D01*
X165775261Y-87643238D01*
X165680023Y-87738476D01*
X165584785Y-87786095D01*
X165394309Y-87833714D01*
X165251452Y-87833714D01*
X165060976Y-87786095D01*
X164965738Y-87738476D01*
X164870500Y-87643238D01*
X164822880Y-87500380D01*
X164822880Y-87405142D01*
X164870500Y-87262285D01*
X164918119Y-87214666D01*
X164918119Y-86833714D02*
X164870500Y-86786095D01*
X164822880Y-86690857D01*
X164822880Y-86452761D01*
X164870500Y-86357523D01*
X164918119Y-86309904D01*
X165013357Y-86262285D01*
X165108595Y-86262285D01*
X165251452Y-86309904D01*
X165822880Y-86881333D01*
X165822880Y-86262285D01*
%TO.C,J2*%
X156050666Y-76727380D02*
X156050666Y-77441666D01*
X156003047Y-77584523D01*
X155907809Y-77679761D01*
X155764952Y-77727380D01*
X155669714Y-77727380D01*
X156479238Y-76822619D02*
X156526857Y-76775000D01*
X156622095Y-76727380D01*
X156860190Y-76727380D01*
X156955428Y-76775000D01*
X157003047Y-76822619D01*
X157050666Y-76917857D01*
X157050666Y-77013095D01*
X157003047Y-77155952D01*
X156431619Y-77727380D01*
X157050666Y-77727380D01*
%TO.C,J1*%
X136365666Y-76727380D02*
X136365666Y-77441666D01*
X136318047Y-77584523D01*
X136222809Y-77679761D01*
X136079952Y-77727380D01*
X135984714Y-77727380D01*
X137365666Y-77727380D02*
X136794238Y-77727380D01*
X137079952Y-77727380D02*
X137079952Y-76727380D01*
X136984714Y-76870238D01*
X136889476Y-76965476D01*
X136794238Y-77013095D01*
%TO.C,U2*%
X166092380Y-112888666D02*
X165092380Y-112888666D01*
X166092380Y-112317238D01*
X165092380Y-112317238D01*
X165425714Y-111412476D02*
X166092380Y-111412476D01*
X165425714Y-111841047D02*
X165949523Y-111841047D01*
X166044761Y-111793428D01*
X166092380Y-111698190D01*
X166092380Y-111555333D01*
X166044761Y-111460095D01*
X165997142Y-111412476D01*
X166044761Y-110507714D02*
X166092380Y-110602952D01*
X166092380Y-110793428D01*
X166044761Y-110888666D01*
X165997142Y-110936285D01*
X165901904Y-110983904D01*
X165616190Y-110983904D01*
X165520952Y-110936285D01*
X165473333Y-110888666D01*
X165425714Y-110793428D01*
X165425714Y-110602952D01*
X165473333Y-110507714D01*
X166092380Y-109936285D02*
X166044761Y-110031523D01*
X165949523Y-110079142D01*
X165092380Y-110079142D01*
X166044761Y-109174380D02*
X166092380Y-109269619D01*
X166092380Y-109460095D01*
X166044761Y-109555333D01*
X165949523Y-109602952D01*
X165568571Y-109602952D01*
X165473333Y-109555333D01*
X165425714Y-109460095D01*
X165425714Y-109269619D01*
X165473333Y-109174380D01*
X165568571Y-109126761D01*
X165663809Y-109126761D01*
X165759047Y-109602952D01*
X166092380Y-108555333D02*
X166044761Y-108650571D01*
X165997142Y-108698190D01*
X165901904Y-108745809D01*
X165616190Y-108745809D01*
X165520952Y-108698190D01*
X165473333Y-108650571D01*
X165425714Y-108555333D01*
X165425714Y-108412476D01*
X165473333Y-108317238D01*
X165520952Y-108269619D01*
X165616190Y-108222000D01*
X165901904Y-108222000D01*
X165997142Y-108269619D01*
X166044761Y-108317238D01*
X166092380Y-108412476D01*
X166092380Y-108555333D01*
X165997142Y-106460095D02*
X166044761Y-106507714D01*
X166092380Y-106650571D01*
X166092380Y-106745809D01*
X166044761Y-106888666D01*
X165949523Y-106983904D01*
X165854285Y-107031523D01*
X165663809Y-107079142D01*
X165520952Y-107079142D01*
X165330476Y-107031523D01*
X165235238Y-106983904D01*
X165140000Y-106888666D01*
X165092380Y-106745809D01*
X165092380Y-106650571D01*
X165140000Y-106507714D01*
X165187619Y-106460095D01*
X166092380Y-106031523D02*
X165092380Y-106031523D01*
X166092380Y-105460095D01*
X165092380Y-105460095D01*
X166092380Y-104460095D02*
X166092380Y-105031523D01*
X166092380Y-104745809D02*
X165092380Y-104745809D01*
X165235238Y-104841047D01*
X165330476Y-104936285D01*
X165378095Y-105031523D01*
X165092380Y-103841047D02*
X165092380Y-103745809D01*
X165140000Y-103650571D01*
X165187619Y-103602952D01*
X165282857Y-103555333D01*
X165473333Y-103507714D01*
X165711428Y-103507714D01*
X165901904Y-103555333D01*
X165997142Y-103602952D01*
X166044761Y-103650571D01*
X166092380Y-103745809D01*
X166092380Y-103841047D01*
X166044761Y-103936285D01*
X165997142Y-103983904D01*
X165901904Y-104031523D01*
X165711428Y-104079142D01*
X165473333Y-104079142D01*
X165282857Y-104031523D01*
X165187619Y-103983904D01*
X165140000Y-103936285D01*
X165092380Y-103841047D01*
X166092380Y-76090476D02*
X165092380Y-76090476D01*
X166092380Y-75519047D01*
X165092380Y-75519047D01*
X165425714Y-74614285D02*
X166092380Y-74614285D01*
X165425714Y-75042857D02*
X165949523Y-75042857D01*
X166044761Y-74995238D01*
X166092380Y-74900000D01*
X166092380Y-74757142D01*
X166044761Y-74661904D01*
X165997142Y-74614285D01*
X166044761Y-73709523D02*
X166092380Y-73804761D01*
X166092380Y-73995238D01*
X166044761Y-74090476D01*
X165997142Y-74138095D01*
X165901904Y-74185714D01*
X165616190Y-74185714D01*
X165520952Y-74138095D01*
X165473333Y-74090476D01*
X165425714Y-73995238D01*
X165425714Y-73804761D01*
X165473333Y-73709523D01*
X166092380Y-73138095D02*
X166044761Y-73233333D01*
X165949523Y-73280952D01*
X165092380Y-73280952D01*
X166044761Y-72376190D02*
X166092380Y-72471428D01*
X166092380Y-72661904D01*
X166044761Y-72757142D01*
X165949523Y-72804761D01*
X165568571Y-72804761D01*
X165473333Y-72757142D01*
X165425714Y-72661904D01*
X165425714Y-72471428D01*
X165473333Y-72376190D01*
X165568571Y-72328571D01*
X165663809Y-72328571D01*
X165759047Y-72804761D01*
X166092380Y-71757142D02*
X166044761Y-71852380D01*
X165997142Y-71900000D01*
X165901904Y-71947619D01*
X165616190Y-71947619D01*
X165520952Y-71900000D01*
X165473333Y-71852380D01*
X165425714Y-71757142D01*
X165425714Y-71614285D01*
X165473333Y-71519047D01*
X165520952Y-71471428D01*
X165616190Y-71423809D01*
X165901904Y-71423809D01*
X165997142Y-71471428D01*
X166044761Y-71519047D01*
X166092380Y-71614285D01*
X166092380Y-71757142D01*
X165997142Y-69661904D02*
X166044761Y-69709523D01*
X166092380Y-69852380D01*
X166092380Y-69947619D01*
X166044761Y-70090476D01*
X165949523Y-70185714D01*
X165854285Y-70233333D01*
X165663809Y-70280952D01*
X165520952Y-70280952D01*
X165330476Y-70233333D01*
X165235238Y-70185714D01*
X165140000Y-70090476D01*
X165092380Y-69947619D01*
X165092380Y-69852380D01*
X165140000Y-69709523D01*
X165187619Y-69661904D01*
X166092380Y-69233333D02*
X165092380Y-69233333D01*
X166092380Y-68661904D01*
X165092380Y-68661904D01*
X165092380Y-68280952D02*
X165092380Y-67614285D01*
X166092380Y-68042857D01*
X127738380Y-113428476D02*
X126738380Y-113428476D01*
X127738380Y-112857047D01*
X126738380Y-112857047D01*
X127071714Y-111952285D02*
X127738380Y-111952285D01*
X127071714Y-112380857D02*
X127595523Y-112380857D01*
X127690761Y-112333238D01*
X127738380Y-112238000D01*
X127738380Y-112095142D01*
X127690761Y-111999904D01*
X127643142Y-111952285D01*
X127690761Y-111047523D02*
X127738380Y-111142761D01*
X127738380Y-111333238D01*
X127690761Y-111428476D01*
X127643142Y-111476095D01*
X127547904Y-111523714D01*
X127262190Y-111523714D01*
X127166952Y-111476095D01*
X127119333Y-111428476D01*
X127071714Y-111333238D01*
X127071714Y-111142761D01*
X127119333Y-111047523D01*
X127738380Y-110476095D02*
X127690761Y-110571333D01*
X127595523Y-110618952D01*
X126738380Y-110618952D01*
X127690761Y-109714190D02*
X127738380Y-109809428D01*
X127738380Y-109999904D01*
X127690761Y-110095142D01*
X127595523Y-110142761D01*
X127214571Y-110142761D01*
X127119333Y-110095142D01*
X127071714Y-109999904D01*
X127071714Y-109809428D01*
X127119333Y-109714190D01*
X127214571Y-109666571D01*
X127309809Y-109666571D01*
X127405047Y-110142761D01*
X127738380Y-109095142D02*
X127690761Y-109190380D01*
X127643142Y-109238000D01*
X127547904Y-109285619D01*
X127262190Y-109285619D01*
X127166952Y-109238000D01*
X127119333Y-109190380D01*
X127071714Y-109095142D01*
X127071714Y-108952285D01*
X127119333Y-108857047D01*
X127166952Y-108809428D01*
X127262190Y-108761809D01*
X127547904Y-108761809D01*
X127643142Y-108809428D01*
X127690761Y-108857047D01*
X127738380Y-108952285D01*
X127738380Y-109095142D01*
X127643142Y-106999904D02*
X127690761Y-107047523D01*
X127738380Y-107190380D01*
X127738380Y-107285619D01*
X127690761Y-107428476D01*
X127595523Y-107523714D01*
X127500285Y-107571333D01*
X127309809Y-107618952D01*
X127166952Y-107618952D01*
X126976476Y-107571333D01*
X126881238Y-107523714D01*
X126786000Y-107428476D01*
X126738380Y-107285619D01*
X126738380Y-107190380D01*
X126786000Y-107047523D01*
X126833619Y-106999904D01*
X127738380Y-106571333D02*
X126738380Y-106571333D01*
X127738380Y-105999904D01*
X126738380Y-105999904D01*
X127738380Y-105476095D02*
X127738380Y-105285619D01*
X127690761Y-105190380D01*
X127643142Y-105142761D01*
X127500285Y-105047523D01*
X127309809Y-104999904D01*
X126928857Y-104999904D01*
X126833619Y-105047523D01*
X126786000Y-105095142D01*
X126738380Y-105190380D01*
X126738380Y-105380857D01*
X126786000Y-105476095D01*
X126833619Y-105523714D01*
X126928857Y-105571333D01*
X127166952Y-105571333D01*
X127262190Y-105523714D01*
X127309809Y-105476095D01*
X127357428Y-105380857D01*
X127357428Y-105190380D01*
X127309809Y-105095142D01*
X127262190Y-105047523D01*
X127166952Y-104999904D01*
X127738380Y-82440476D02*
X126738380Y-82440476D01*
X127738380Y-81869047D01*
X126738380Y-81869047D01*
X127071714Y-80964285D02*
X127738380Y-80964285D01*
X127071714Y-81392857D02*
X127595523Y-81392857D01*
X127690761Y-81345238D01*
X127738380Y-81250000D01*
X127738380Y-81107142D01*
X127690761Y-81011904D01*
X127643142Y-80964285D01*
X127690761Y-80059523D02*
X127738380Y-80154761D01*
X127738380Y-80345238D01*
X127690761Y-80440476D01*
X127643142Y-80488095D01*
X127547904Y-80535714D01*
X127262190Y-80535714D01*
X127166952Y-80488095D01*
X127119333Y-80440476D01*
X127071714Y-80345238D01*
X127071714Y-80154761D01*
X127119333Y-80059523D01*
X127738380Y-79488095D02*
X127690761Y-79583333D01*
X127595523Y-79630952D01*
X126738380Y-79630952D01*
X127690761Y-78726190D02*
X127738380Y-78821428D01*
X127738380Y-79011904D01*
X127690761Y-79107142D01*
X127595523Y-79154761D01*
X127214571Y-79154761D01*
X127119333Y-79107142D01*
X127071714Y-79011904D01*
X127071714Y-78821428D01*
X127119333Y-78726190D01*
X127214571Y-78678571D01*
X127309809Y-78678571D01*
X127405047Y-79154761D01*
X127738380Y-78107142D02*
X127690761Y-78202380D01*
X127643142Y-78250000D01*
X127547904Y-78297619D01*
X127262190Y-78297619D01*
X127166952Y-78250000D01*
X127119333Y-78202380D01*
X127071714Y-78107142D01*
X127071714Y-77964285D01*
X127119333Y-77869047D01*
X127166952Y-77821428D01*
X127262190Y-77773809D01*
X127547904Y-77773809D01*
X127643142Y-77821428D01*
X127690761Y-77869047D01*
X127738380Y-77964285D01*
X127738380Y-78107142D01*
X127643142Y-76011904D02*
X127690761Y-76059523D01*
X127738380Y-76202380D01*
X127738380Y-76297619D01*
X127690761Y-76440476D01*
X127595523Y-76535714D01*
X127500285Y-76583333D01*
X127309809Y-76630952D01*
X127166952Y-76630952D01*
X126976476Y-76583333D01*
X126881238Y-76535714D01*
X126786000Y-76440476D01*
X126738380Y-76297619D01*
X126738380Y-76202380D01*
X126786000Y-76059523D01*
X126833619Y-76011904D01*
X127738380Y-75583333D02*
X126738380Y-75583333D01*
X127738380Y-75011904D01*
X126738380Y-75011904D01*
X127166952Y-74392857D02*
X127119333Y-74488095D01*
X127071714Y-74535714D01*
X126976476Y-74583333D01*
X126928857Y-74583333D01*
X126833619Y-74535714D01*
X126786000Y-74488095D01*
X126738380Y-74392857D01*
X126738380Y-74202380D01*
X126786000Y-74107142D01*
X126833619Y-74059523D01*
X126928857Y-74011904D01*
X126976476Y-74011904D01*
X127071714Y-74059523D01*
X127119333Y-74107142D01*
X127166952Y-74202380D01*
X127166952Y-74392857D01*
X127214571Y-74488095D01*
X127262190Y-74535714D01*
X127357428Y-74583333D01*
X127547904Y-74583333D01*
X127643142Y-74535714D01*
X127690761Y-74488095D01*
X127738380Y-74392857D01*
X127738380Y-74202380D01*
X127690761Y-74107142D01*
X127643142Y-74059523D01*
X127547904Y-74011904D01*
X127357428Y-74011904D01*
X127262190Y-74059523D01*
X127214571Y-74107142D01*
X127166952Y-74202380D01*
%TO.C,K1*%
X137161904Y-138252380D02*
X137161904Y-137252380D01*
X137733333Y-138252380D02*
X137304761Y-137680952D01*
X137733333Y-137252380D02*
X137161904Y-137823809D01*
X138685714Y-138252380D02*
X138114285Y-138252380D01*
X138400000Y-138252380D02*
X138400000Y-137252380D01*
X138304761Y-137395238D01*
X138209523Y-137490476D01*
X138114285Y-137538095D01*
%TO.C,U4*%
X160261904Y-154047619D02*
X160261904Y-153238095D01*
X160214285Y-153142857D01*
X160166666Y-153095238D01*
X160071428Y-153047619D01*
X159880952Y-153047619D01*
X159785714Y-153095238D01*
X159738095Y-153142857D01*
X159690476Y-153238095D01*
X159690476Y-154047619D01*
X158785714Y-153714285D02*
X158785714Y-153047619D01*
X159023809Y-154095238D02*
X159261904Y-153380952D01*
X158642857Y-153380952D01*
%TO.C,J5*%
X174852380Y-151333333D02*
X175566666Y-151333333D01*
X175709523Y-151380952D01*
X175804761Y-151476190D01*
X175852380Y-151619047D01*
X175852380Y-151714285D01*
X174852380Y-150380952D02*
X174852380Y-150857142D01*
X175328571Y-150904761D01*
X175280952Y-150857142D01*
X175233333Y-150761904D01*
X175233333Y-150523809D01*
X175280952Y-150428571D01*
X175328571Y-150380952D01*
X175423809Y-150333333D01*
X175661904Y-150333333D01*
X175757142Y-150380952D01*
X175804761Y-150428571D01*
X175852380Y-150523809D01*
X175852380Y-150761904D01*
X175804761Y-150857142D01*
X175757142Y-150904761D01*
%TO.C,J4*%
X117952380Y-147333333D02*
X118666666Y-147333333D01*
X118809523Y-147380952D01*
X118904761Y-147476190D01*
X118952380Y-147619047D01*
X118952380Y-147714285D01*
X118285714Y-146428571D02*
X118952380Y-146428571D01*
X117904761Y-146666666D02*
X118619047Y-146904761D01*
X118619047Y-146285714D01*
%TO.C,D1*%
X138261904Y-126952380D02*
X138261904Y-125952380D01*
X138500000Y-125952380D01*
X138642857Y-126000000D01*
X138738095Y-126095238D01*
X138785714Y-126190476D01*
X138833333Y-126380952D01*
X138833333Y-126523809D01*
X138785714Y-126714285D01*
X138738095Y-126809523D01*
X138642857Y-126904761D01*
X138500000Y-126952380D01*
X138261904Y-126952380D01*
X139785714Y-126952380D02*
X139214285Y-126952380D01*
X139500000Y-126952380D02*
X139500000Y-125952380D01*
X139404761Y-126095238D01*
X139309523Y-126190476D01*
X139214285Y-126238095D01*
%TO.C,U1*%
X132238095Y-89702380D02*
X132238095Y-90511904D01*
X132285714Y-90607142D01*
X132333333Y-90654761D01*
X132428571Y-90702380D01*
X132619047Y-90702380D01*
X132714285Y-90654761D01*
X132761904Y-90607142D01*
X132809523Y-90511904D01*
X132809523Y-89702380D01*
X133809523Y-90702380D02*
X133238095Y-90702380D01*
X133523809Y-90702380D02*
X133523809Y-89702380D01*
X133428571Y-89845238D01*
X133333333Y-89940476D01*
X133238095Y-89988095D01*
%TO.C,SW2*%
X153416666Y-119904761D02*
X153559523Y-119952380D01*
X153797619Y-119952380D01*
X153892857Y-119904761D01*
X153940476Y-119857142D01*
X153988095Y-119761904D01*
X153988095Y-119666666D01*
X153940476Y-119571428D01*
X153892857Y-119523809D01*
X153797619Y-119476190D01*
X153607142Y-119428571D01*
X153511904Y-119380952D01*
X153464285Y-119333333D01*
X153416666Y-119238095D01*
X153416666Y-119142857D01*
X153464285Y-119047619D01*
X153511904Y-119000000D01*
X153607142Y-118952380D01*
X153845238Y-118952380D01*
X153988095Y-119000000D01*
X154321428Y-118952380D02*
X154559523Y-119952380D01*
X154750000Y-119238095D01*
X154940476Y-119952380D01*
X155178571Y-118952380D01*
X155511904Y-119047619D02*
X155559523Y-119000000D01*
X155654761Y-118952380D01*
X155892857Y-118952380D01*
X155988095Y-119000000D01*
X156035714Y-119047619D01*
X156083333Y-119142857D01*
X156083333Y-119238095D01*
X156035714Y-119380952D01*
X155464285Y-119952380D01*
X156083333Y-119952380D01*
%TO.C,SW1*%
X120200666Y-59290761D02*
X120343523Y-59338380D01*
X120581619Y-59338380D01*
X120676857Y-59290761D01*
X120724476Y-59243142D01*
X120772095Y-59147904D01*
X120772095Y-59052666D01*
X120724476Y-58957428D01*
X120676857Y-58909809D01*
X120581619Y-58862190D01*
X120391142Y-58814571D01*
X120295904Y-58766952D01*
X120248285Y-58719333D01*
X120200666Y-58624095D01*
X120200666Y-58528857D01*
X120248285Y-58433619D01*
X120295904Y-58386000D01*
X120391142Y-58338380D01*
X120629238Y-58338380D01*
X120772095Y-58386000D01*
X121105428Y-58338380D02*
X121343523Y-59338380D01*
X121534000Y-58624095D01*
X121724476Y-59338380D01*
X121962571Y-58338380D01*
X122867333Y-59338380D02*
X122295904Y-59338380D01*
X122581619Y-59338380D02*
X122581619Y-58338380D01*
X122486380Y-58481238D01*
X122391142Y-58576476D01*
X122295904Y-58624095D01*
%TO.C,R14*%
X147107142Y-125022380D02*
X146773809Y-124546190D01*
X146535714Y-125022380D02*
X146535714Y-124022380D01*
X146916666Y-124022380D01*
X147011904Y-124070000D01*
X147059523Y-124117619D01*
X147107142Y-124212857D01*
X147107142Y-124355714D01*
X147059523Y-124450952D01*
X147011904Y-124498571D01*
X146916666Y-124546190D01*
X146535714Y-124546190D01*
X148059523Y-125022380D02*
X147488095Y-125022380D01*
X147773809Y-125022380D02*
X147773809Y-124022380D01*
X147678571Y-124165238D01*
X147583333Y-124260476D01*
X147488095Y-124308095D01*
X148916666Y-124355714D02*
X148916666Y-125022380D01*
X148678571Y-123974761D02*
X148440476Y-124689047D01*
X149059523Y-124689047D01*
%TO.C,R13*%
X149772380Y-99642857D02*
X149296190Y-99976190D01*
X149772380Y-100214285D02*
X148772380Y-100214285D01*
X148772380Y-99833333D01*
X148820000Y-99738095D01*
X148867619Y-99690476D01*
X148962857Y-99642857D01*
X149105714Y-99642857D01*
X149200952Y-99690476D01*
X149248571Y-99738095D01*
X149296190Y-99833333D01*
X149296190Y-100214285D01*
X149772380Y-98690476D02*
X149772380Y-99261904D01*
X149772380Y-98976190D02*
X148772380Y-98976190D01*
X148915238Y-99071428D01*
X149010476Y-99166666D01*
X149058095Y-99261904D01*
X148772380Y-98357142D02*
X148772380Y-97738095D01*
X149153333Y-98071428D01*
X149153333Y-97928571D01*
X149200952Y-97833333D01*
X149248571Y-97785714D01*
X149343809Y-97738095D01*
X149581904Y-97738095D01*
X149677142Y-97785714D01*
X149724761Y-97833333D01*
X149772380Y-97928571D01*
X149772380Y-98214285D01*
X149724761Y-98309523D01*
X149677142Y-98357142D01*
%TO.C,R12*%
X146772380Y-99642857D02*
X146296190Y-99976190D01*
X146772380Y-100214285D02*
X145772380Y-100214285D01*
X145772380Y-99833333D01*
X145820000Y-99738095D01*
X145867619Y-99690476D01*
X145962857Y-99642857D01*
X146105714Y-99642857D01*
X146200952Y-99690476D01*
X146248571Y-99738095D01*
X146296190Y-99833333D01*
X146296190Y-100214285D01*
X146772380Y-98690476D02*
X146772380Y-99261904D01*
X146772380Y-98976190D02*
X145772380Y-98976190D01*
X145915238Y-99071428D01*
X146010476Y-99166666D01*
X146058095Y-99261904D01*
X145867619Y-98309523D02*
X145820000Y-98261904D01*
X145772380Y-98166666D01*
X145772380Y-97928571D01*
X145820000Y-97833333D01*
X145867619Y-97785714D01*
X145962857Y-97738095D01*
X146058095Y-97738095D01*
X146200952Y-97785714D01*
X146772380Y-98357142D01*
X146772380Y-97738095D01*
%TO.C,R11*%
X167457142Y-156352380D02*
X167123809Y-155876190D01*
X166885714Y-156352380D02*
X166885714Y-155352380D01*
X167266666Y-155352380D01*
X167361904Y-155400000D01*
X167409523Y-155447619D01*
X167457142Y-155542857D01*
X167457142Y-155685714D01*
X167409523Y-155780952D01*
X167361904Y-155828571D01*
X167266666Y-155876190D01*
X166885714Y-155876190D01*
X168409523Y-156352380D02*
X167838095Y-156352380D01*
X168123809Y-156352380D02*
X168123809Y-155352380D01*
X168028571Y-155495238D01*
X167933333Y-155590476D01*
X167838095Y-155638095D01*
X169361904Y-156352380D02*
X168790476Y-156352380D01*
X169076190Y-156352380D02*
X169076190Y-155352380D01*
X168980952Y-155495238D01*
X168885714Y-155590476D01*
X168790476Y-155638095D01*
%TO.C,R10*%
X173702742Y-128613180D02*
X173369409Y-128136990D01*
X173131314Y-128613180D02*
X173131314Y-127613180D01*
X173512266Y-127613180D01*
X173607504Y-127660800D01*
X173655123Y-127708419D01*
X173702742Y-127803657D01*
X173702742Y-127946514D01*
X173655123Y-128041752D01*
X173607504Y-128089371D01*
X173512266Y-128136990D01*
X173131314Y-128136990D01*
X174655123Y-128613180D02*
X174083695Y-128613180D01*
X174369409Y-128613180D02*
X174369409Y-127613180D01*
X174274171Y-127756038D01*
X174178933Y-127851276D01*
X174083695Y-127898895D01*
X175274171Y-127613180D02*
X175369409Y-127613180D01*
X175464647Y-127660800D01*
X175512266Y-127708419D01*
X175559885Y-127803657D01*
X175607504Y-127994133D01*
X175607504Y-128232228D01*
X175559885Y-128422704D01*
X175512266Y-128517942D01*
X175464647Y-128565561D01*
X175369409Y-128613180D01*
X175274171Y-128613180D01*
X175178933Y-128565561D01*
X175131314Y-128517942D01*
X175083695Y-128422704D01*
X175036076Y-128232228D01*
X175036076Y-127994133D01*
X175083695Y-127803657D01*
X175131314Y-127708419D01*
X175178933Y-127660800D01*
X175274171Y-127613180D01*
%TO.C,R9*%
X150632380Y-136416666D02*
X150156190Y-136750000D01*
X150632380Y-136988095D02*
X149632380Y-136988095D01*
X149632380Y-136607142D01*
X149680000Y-136511904D01*
X149727619Y-136464285D01*
X149822857Y-136416666D01*
X149965714Y-136416666D01*
X150060952Y-136464285D01*
X150108571Y-136511904D01*
X150156190Y-136607142D01*
X150156190Y-136988095D01*
X150632380Y-135940476D02*
X150632380Y-135750000D01*
X150584761Y-135654761D01*
X150537142Y-135607142D01*
X150394285Y-135511904D01*
X150203809Y-135464285D01*
X149822857Y-135464285D01*
X149727619Y-135511904D01*
X149680000Y-135559523D01*
X149632380Y-135654761D01*
X149632380Y-135845238D01*
X149680000Y-135940476D01*
X149727619Y-135988095D01*
X149822857Y-136035714D01*
X150060952Y-136035714D01*
X150156190Y-135988095D01*
X150203809Y-135940476D01*
X150251428Y-135845238D01*
X150251428Y-135654761D01*
X150203809Y-135559523D01*
X150156190Y-135511904D01*
X150060952Y-135464285D01*
%TO.C,R8*%
X144833333Y-83272380D02*
X144500000Y-82796190D01*
X144261904Y-83272380D02*
X144261904Y-82272380D01*
X144642857Y-82272380D01*
X144738095Y-82320000D01*
X144785714Y-82367619D01*
X144833333Y-82462857D01*
X144833333Y-82605714D01*
X144785714Y-82700952D01*
X144738095Y-82748571D01*
X144642857Y-82796190D01*
X144261904Y-82796190D01*
X145404761Y-82700952D02*
X145309523Y-82653333D01*
X145261904Y-82605714D01*
X145214285Y-82510476D01*
X145214285Y-82462857D01*
X145261904Y-82367619D01*
X145309523Y-82320000D01*
X145404761Y-82272380D01*
X145595238Y-82272380D01*
X145690476Y-82320000D01*
X145738095Y-82367619D01*
X145785714Y-82462857D01*
X145785714Y-82510476D01*
X145738095Y-82605714D01*
X145690476Y-82653333D01*
X145595238Y-82700952D01*
X145404761Y-82700952D01*
X145309523Y-82748571D01*
X145261904Y-82796190D01*
X145214285Y-82891428D01*
X145214285Y-83081904D01*
X145261904Y-83177142D01*
X145309523Y-83224761D01*
X145404761Y-83272380D01*
X145595238Y-83272380D01*
X145690476Y-83224761D01*
X145738095Y-83177142D01*
X145785714Y-83081904D01*
X145785714Y-82891428D01*
X145738095Y-82796190D01*
X145690476Y-82748571D01*
X145595238Y-82700952D01*
%TO.C,R7*%
X149833333Y-83272380D02*
X149500000Y-82796190D01*
X149261904Y-83272380D02*
X149261904Y-82272380D01*
X149642857Y-82272380D01*
X149738095Y-82320000D01*
X149785714Y-82367619D01*
X149833333Y-82462857D01*
X149833333Y-82605714D01*
X149785714Y-82700952D01*
X149738095Y-82748571D01*
X149642857Y-82796190D01*
X149261904Y-82796190D01*
X150166666Y-82272380D02*
X150833333Y-82272380D01*
X150404761Y-83272380D01*
%TO.C,R6*%
X155333333Y-83272380D02*
X155000000Y-82796190D01*
X154761904Y-83272380D02*
X154761904Y-82272380D01*
X155142857Y-82272380D01*
X155238095Y-82320000D01*
X155285714Y-82367619D01*
X155333333Y-82462857D01*
X155333333Y-82605714D01*
X155285714Y-82700952D01*
X155238095Y-82748571D01*
X155142857Y-82796190D01*
X154761904Y-82796190D01*
X156190476Y-82272380D02*
X156000000Y-82272380D01*
X155904761Y-82320000D01*
X155857142Y-82367619D01*
X155761904Y-82510476D01*
X155714285Y-82700952D01*
X155714285Y-83081904D01*
X155761904Y-83177142D01*
X155809523Y-83224761D01*
X155904761Y-83272380D01*
X156095238Y-83272380D01*
X156190476Y-83224761D01*
X156238095Y-83177142D01*
X156285714Y-83081904D01*
X156285714Y-82843809D01*
X156238095Y-82748571D01*
X156190476Y-82700952D01*
X156095238Y-82653333D01*
X155904761Y-82653333D01*
X155809523Y-82700952D01*
X155761904Y-82748571D01*
X155714285Y-82843809D01*
%TO.C,R5*%
X143022380Y-119879166D02*
X142546190Y-120212500D01*
X143022380Y-120450595D02*
X142022380Y-120450595D01*
X142022380Y-120069642D01*
X142070000Y-119974404D01*
X142117619Y-119926785D01*
X142212857Y-119879166D01*
X142355714Y-119879166D01*
X142450952Y-119926785D01*
X142498571Y-119974404D01*
X142546190Y-120069642D01*
X142546190Y-120450595D01*
X142022380Y-118974404D02*
X142022380Y-119450595D01*
X142498571Y-119498214D01*
X142450952Y-119450595D01*
X142403333Y-119355357D01*
X142403333Y-119117261D01*
X142450952Y-119022023D01*
X142498571Y-118974404D01*
X142593809Y-118926785D01*
X142831904Y-118926785D01*
X142927142Y-118974404D01*
X142974761Y-119022023D01*
X143022380Y-119117261D01*
X143022380Y-119355357D01*
X142974761Y-119450595D01*
X142927142Y-119498214D01*
%TO.C,R4*%
X138022380Y-119666666D02*
X137546190Y-120000000D01*
X138022380Y-120238095D02*
X137022380Y-120238095D01*
X137022380Y-119857142D01*
X137070000Y-119761904D01*
X137117619Y-119714285D01*
X137212857Y-119666666D01*
X137355714Y-119666666D01*
X137450952Y-119714285D01*
X137498571Y-119761904D01*
X137546190Y-119857142D01*
X137546190Y-120238095D01*
X137355714Y-118809523D02*
X138022380Y-118809523D01*
X136974761Y-119047619D02*
X137689047Y-119285714D01*
X137689047Y-118666666D01*
%TO.C,R3*%
X132952380Y-119666666D02*
X132476190Y-120000000D01*
X132952380Y-120238095D02*
X131952380Y-120238095D01*
X131952380Y-119857142D01*
X132000000Y-119761904D01*
X132047619Y-119714285D01*
X132142857Y-119666666D01*
X132285714Y-119666666D01*
X132380952Y-119714285D01*
X132428571Y-119761904D01*
X132476190Y-119857142D01*
X132476190Y-120238095D01*
X131952380Y-119333333D02*
X131952380Y-118714285D01*
X132333333Y-119047619D01*
X132333333Y-118904761D01*
X132380952Y-118809523D01*
X132428571Y-118761904D01*
X132523809Y-118714285D01*
X132761904Y-118714285D01*
X132857142Y-118761904D01*
X132904761Y-118809523D01*
X132952380Y-118904761D01*
X132952380Y-119190476D01*
X132904761Y-119285714D01*
X132857142Y-119333333D01*
%TO.C,R1*%
X140333333Y-80882380D02*
X140000000Y-80406190D01*
X139761904Y-80882380D02*
X139761904Y-79882380D01*
X140142857Y-79882380D01*
X140238095Y-79930000D01*
X140285714Y-79977619D01*
X140333333Y-80072857D01*
X140333333Y-80215714D01*
X140285714Y-80310952D01*
X140238095Y-80358571D01*
X140142857Y-80406190D01*
X139761904Y-80406190D01*
X141285714Y-80882380D02*
X140714285Y-80882380D01*
X141000000Y-80882380D02*
X141000000Y-79882380D01*
X140904761Y-80025238D01*
X140809523Y-80120476D01*
X140714285Y-80168095D01*
%TO.C,Q8*%
X146404761Y-134547619D02*
X146309523Y-134500000D01*
X146214285Y-134404761D01*
X146071428Y-134261904D01*
X145976190Y-134214285D01*
X145880952Y-134214285D01*
X145928571Y-134452380D02*
X145833333Y-134404761D01*
X145738095Y-134309523D01*
X145690476Y-134119047D01*
X145690476Y-133785714D01*
X145738095Y-133595238D01*
X145833333Y-133500000D01*
X145928571Y-133452380D01*
X146119047Y-133452380D01*
X146214285Y-133500000D01*
X146309523Y-133595238D01*
X146357142Y-133785714D01*
X146357142Y-134119047D01*
X146309523Y-134309523D01*
X146214285Y-134404761D01*
X146119047Y-134452380D01*
X145928571Y-134452380D01*
X146928571Y-133880952D02*
X146833333Y-133833333D01*
X146785714Y-133785714D01*
X146738095Y-133690476D01*
X146738095Y-133642857D01*
X146785714Y-133547619D01*
X146833333Y-133500000D01*
X146928571Y-133452380D01*
X147119047Y-133452380D01*
X147214285Y-133500000D01*
X147261904Y-133547619D01*
X147309523Y-133642857D01*
X147309523Y-133690476D01*
X147261904Y-133785714D01*
X147214285Y-133833333D01*
X147119047Y-133880952D01*
X146928571Y-133880952D01*
X146833333Y-133928571D01*
X146785714Y-133976190D01*
X146738095Y-134071428D01*
X146738095Y-134261904D01*
X146785714Y-134357142D01*
X146833333Y-134404761D01*
X146928571Y-134452380D01*
X147119047Y-134452380D01*
X147214285Y-134404761D01*
X147261904Y-134357142D01*
X147309523Y-134261904D01*
X147309523Y-134071428D01*
X147261904Y-133976190D01*
X147214285Y-133928571D01*
X147119047Y-133880952D01*
%TO.C,Q7*%
X162647619Y-134595238D02*
X162600000Y-134690476D01*
X162504761Y-134785714D01*
X162361904Y-134928571D01*
X162314285Y-135023809D01*
X162314285Y-135119047D01*
X162552380Y-135071428D02*
X162504761Y-135166666D01*
X162409523Y-135261904D01*
X162219047Y-135309523D01*
X161885714Y-135309523D01*
X161695238Y-135261904D01*
X161600000Y-135166666D01*
X161552380Y-135071428D01*
X161552380Y-134880952D01*
X161600000Y-134785714D01*
X161695238Y-134690476D01*
X161885714Y-134642857D01*
X162219047Y-134642857D01*
X162409523Y-134690476D01*
X162504761Y-134785714D01*
X162552380Y-134880952D01*
X162552380Y-135071428D01*
X161552380Y-134309523D02*
X161552380Y-133642857D01*
X162552380Y-134071428D01*
%TO.C,Q6*%
X147047619Y-116095238D02*
X147000000Y-116190476D01*
X146904761Y-116285714D01*
X146761904Y-116428571D01*
X146714285Y-116523809D01*
X146714285Y-116619047D01*
X146952380Y-116571428D02*
X146904761Y-116666666D01*
X146809523Y-116761904D01*
X146619047Y-116809523D01*
X146285714Y-116809523D01*
X146095238Y-116761904D01*
X146000000Y-116666666D01*
X145952380Y-116571428D01*
X145952380Y-116380952D01*
X146000000Y-116285714D01*
X146095238Y-116190476D01*
X146285714Y-116142857D01*
X146619047Y-116142857D01*
X146809523Y-116190476D01*
X146904761Y-116285714D01*
X146952380Y-116380952D01*
X146952380Y-116571428D01*
X145952380Y-115285714D02*
X145952380Y-115476190D01*
X146000000Y-115571428D01*
X146047619Y-115619047D01*
X146190476Y-115714285D01*
X146380952Y-115761904D01*
X146761904Y-115761904D01*
X146857142Y-115714285D01*
X146904761Y-115666666D01*
X146952380Y-115571428D01*
X146952380Y-115380952D01*
X146904761Y-115285714D01*
X146857142Y-115238095D01*
X146761904Y-115190476D01*
X146523809Y-115190476D01*
X146428571Y-115238095D01*
X146380952Y-115285714D01*
X146333333Y-115380952D01*
X146333333Y-115571428D01*
X146380952Y-115666666D01*
X146428571Y-115714285D01*
X146523809Y-115761904D01*
%TO.C,Q5*%
X142047619Y-116095238D02*
X142000000Y-116190476D01*
X141904761Y-116285714D01*
X141761904Y-116428571D01*
X141714285Y-116523809D01*
X141714285Y-116619047D01*
X141952380Y-116571428D02*
X141904761Y-116666666D01*
X141809523Y-116761904D01*
X141619047Y-116809523D01*
X141285714Y-116809523D01*
X141095238Y-116761904D01*
X141000000Y-116666666D01*
X140952380Y-116571428D01*
X140952380Y-116380952D01*
X141000000Y-116285714D01*
X141095238Y-116190476D01*
X141285714Y-116142857D01*
X141619047Y-116142857D01*
X141809523Y-116190476D01*
X141904761Y-116285714D01*
X141952380Y-116380952D01*
X141952380Y-116571428D01*
X140952380Y-115238095D02*
X140952380Y-115714285D01*
X141428571Y-115761904D01*
X141380952Y-115714285D01*
X141333333Y-115619047D01*
X141333333Y-115380952D01*
X141380952Y-115285714D01*
X141428571Y-115238095D01*
X141523809Y-115190476D01*
X141761904Y-115190476D01*
X141857142Y-115238095D01*
X141904761Y-115285714D01*
X141952380Y-115380952D01*
X141952380Y-115619047D01*
X141904761Y-115714285D01*
X141857142Y-115761904D01*
%TO.C,Q4*%
X137047619Y-116095238D02*
X137000000Y-116190476D01*
X136904761Y-116285714D01*
X136761904Y-116428571D01*
X136714285Y-116523809D01*
X136714285Y-116619047D01*
X136952380Y-116571428D02*
X136904761Y-116666666D01*
X136809523Y-116761904D01*
X136619047Y-116809523D01*
X136285714Y-116809523D01*
X136095238Y-116761904D01*
X136000000Y-116666666D01*
X135952380Y-116571428D01*
X135952380Y-116380952D01*
X136000000Y-116285714D01*
X136095238Y-116190476D01*
X136285714Y-116142857D01*
X136619047Y-116142857D01*
X136809523Y-116190476D01*
X136904761Y-116285714D01*
X136952380Y-116380952D01*
X136952380Y-116571428D01*
X136285714Y-115285714D02*
X136952380Y-115285714D01*
X135904761Y-115523809D02*
X136619047Y-115761904D01*
X136619047Y-115142857D01*
%TO.C,Q3*%
X143547619Y-80095238D02*
X143500000Y-80190476D01*
X143404761Y-80285714D01*
X143261904Y-80428571D01*
X143214285Y-80523809D01*
X143214285Y-80619047D01*
X143452380Y-80571428D02*
X143404761Y-80666666D01*
X143309523Y-80761904D01*
X143119047Y-80809523D01*
X142785714Y-80809523D01*
X142595238Y-80761904D01*
X142500000Y-80666666D01*
X142452380Y-80571428D01*
X142452380Y-80380952D01*
X142500000Y-80285714D01*
X142595238Y-80190476D01*
X142785714Y-80142857D01*
X143119047Y-80142857D01*
X143309523Y-80190476D01*
X143404761Y-80285714D01*
X143452380Y-80380952D01*
X143452380Y-80571428D01*
X142452380Y-79809523D02*
X142452380Y-79190476D01*
X142833333Y-79523809D01*
X142833333Y-79380952D01*
X142880952Y-79285714D01*
X142928571Y-79238095D01*
X143023809Y-79190476D01*
X143261904Y-79190476D01*
X143357142Y-79238095D01*
X143404761Y-79285714D01*
X143452380Y-79380952D01*
X143452380Y-79666666D01*
X143404761Y-79761904D01*
X143357142Y-79809523D01*
%TO.C,Q2*%
X148547619Y-80095238D02*
X148500000Y-80190476D01*
X148404761Y-80285714D01*
X148261904Y-80428571D01*
X148214285Y-80523809D01*
X148214285Y-80619047D01*
X148452380Y-80571428D02*
X148404761Y-80666666D01*
X148309523Y-80761904D01*
X148119047Y-80809523D01*
X147785714Y-80809523D01*
X147595238Y-80761904D01*
X147500000Y-80666666D01*
X147452380Y-80571428D01*
X147452380Y-80380952D01*
X147500000Y-80285714D01*
X147595238Y-80190476D01*
X147785714Y-80142857D01*
X148119047Y-80142857D01*
X148309523Y-80190476D01*
X148404761Y-80285714D01*
X148452380Y-80380952D01*
X148452380Y-80571428D01*
X147547619Y-79761904D02*
X147500000Y-79714285D01*
X147452380Y-79619047D01*
X147452380Y-79380952D01*
X147500000Y-79285714D01*
X147547619Y-79238095D01*
X147642857Y-79190476D01*
X147738095Y-79190476D01*
X147880952Y-79238095D01*
X148452380Y-79809523D01*
X148452380Y-79190476D01*
%TO.C,Q1*%
X154047619Y-80095238D02*
X154000000Y-80190476D01*
X153904761Y-80285714D01*
X153761904Y-80428571D01*
X153714285Y-80523809D01*
X153714285Y-80619047D01*
X153952380Y-80571428D02*
X153904761Y-80666666D01*
X153809523Y-80761904D01*
X153619047Y-80809523D01*
X153285714Y-80809523D01*
X153095238Y-80761904D01*
X153000000Y-80666666D01*
X152952380Y-80571428D01*
X152952380Y-80380952D01*
X153000000Y-80285714D01*
X153095238Y-80190476D01*
X153285714Y-80142857D01*
X153619047Y-80142857D01*
X153809523Y-80190476D01*
X153904761Y-80285714D01*
X153952380Y-80380952D01*
X153952380Y-80571428D01*
X153952380Y-79190476D02*
X153952380Y-79761904D01*
X153952380Y-79476190D02*
X152952380Y-79476190D01*
X153095238Y-79571428D01*
X153190476Y-79666666D01*
X153238095Y-79761904D01*
%TO.C,J6*%
X139622380Y-93333333D02*
X140336666Y-93333333D01*
X140479523Y-93380952D01*
X140574761Y-93476190D01*
X140622380Y-93619047D01*
X140622380Y-93714285D01*
X139622380Y-92428571D02*
X139622380Y-92619047D01*
X139670000Y-92714285D01*
X139717619Y-92761904D01*
X139860476Y-92857142D01*
X140050952Y-92904761D01*
X140431904Y-92904761D01*
X140527142Y-92857142D01*
X140574761Y-92809523D01*
X140622380Y-92714285D01*
X140622380Y-92523809D01*
X140574761Y-92428571D01*
X140527142Y-92380952D01*
X140431904Y-92333333D01*
X140193809Y-92333333D01*
X140098571Y-92380952D01*
X140050952Y-92428571D01*
X140003333Y-92523809D01*
X140003333Y-92714285D01*
X140050952Y-92809523D01*
X140098571Y-92857142D01*
X140193809Y-92904761D01*
%TO.C,J3*%
X174652380Y-137333333D02*
X175366666Y-137333333D01*
X175509523Y-137380952D01*
X175604761Y-137476190D01*
X175652380Y-137619047D01*
X175652380Y-137714285D01*
X174652380Y-136952380D02*
X174652380Y-136333333D01*
X175033333Y-136666666D01*
X175033333Y-136523809D01*
X175080952Y-136428571D01*
X175128571Y-136380952D01*
X175223809Y-136333333D01*
X175461904Y-136333333D01*
X175557142Y-136380952D01*
X175604761Y-136428571D01*
X175652380Y-136523809D01*
X175652380Y-136809523D01*
X175604761Y-136904761D01*
X175557142Y-136952380D01*
%TO.C,D2*%
X154452380Y-147928095D02*
X153452380Y-147928095D01*
X153452380Y-147690000D01*
X153500000Y-147547142D01*
X153595238Y-147451904D01*
X153690476Y-147404285D01*
X153880952Y-147356666D01*
X154023809Y-147356666D01*
X154214285Y-147404285D01*
X154309523Y-147451904D01*
X154404761Y-147547142D01*
X154452380Y-147690000D01*
X154452380Y-147928095D01*
X153547619Y-146975714D02*
X153500000Y-146928095D01*
X153452380Y-146832857D01*
X153452380Y-146594761D01*
X153500000Y-146499523D01*
X153547619Y-146451904D01*
X153642857Y-146404285D01*
X153738095Y-146404285D01*
X153880952Y-146451904D01*
X154452380Y-147023333D01*
X154452380Y-146404285D01*
X154452380Y-151261904D02*
X153452380Y-151261904D01*
X154452380Y-150690476D02*
X153880952Y-151119047D01*
X153452380Y-150690476D02*
X154023809Y-151261904D01*
%TO.C,C1*%
X135833333Y-81107142D02*
X135785714Y-81154761D01*
X135642857Y-81202380D01*
X135547619Y-81202380D01*
X135404761Y-81154761D01*
X135309523Y-81059523D01*
X135261904Y-80964285D01*
X135214285Y-80773809D01*
X135214285Y-80630952D01*
X135261904Y-80440476D01*
X135309523Y-80345238D01*
X135404761Y-80250000D01*
X135547619Y-80202380D01*
X135642857Y-80202380D01*
X135785714Y-80250000D01*
X135833333Y-80297619D01*
X136785714Y-81202380D02*
X136214285Y-81202380D01*
X136500000Y-81202380D02*
X136500000Y-80202380D01*
X136404761Y-80345238D01*
X136309523Y-80440476D01*
X136214285Y-80488095D01*
%TD*%
M02*
