%TF.GenerationSoftware,KiCad,Pcbnew,5.1.6-1.fc32*%
%TF.CreationDate,2021-02-06T18:10:13+01:00*%
%TF.ProjectId,acnode-nucleo144,61636e6f-6465-42d6-9e75-636c656f3134,rev?*%
%TF.SameCoordinates,Original*%
%TF.FileFunction,Copper,L2,Bot*%
%TF.FilePolarity,Positive*%
%FSLAX46Y46*%
G04 Gerber Fmt 4.6, Leading zero omitted, Abs format (unit mm)*
G04 Created by KiCad (PCBNEW 5.1.6-1.fc32) date 2021-02-06 18:10:13*
%MOMM*%
%LPD*%
G01*
G04 APERTURE LIST*
%TA.AperFunction,ComponentPad*%
%ADD10C,1.500000*%
%TD*%
%TA.AperFunction,ComponentPad*%
%ADD11C,3.000000*%
%TD*%
%TA.AperFunction,ComponentPad*%
%ADD12R,1.500000X1.500000*%
%TD*%
%TA.AperFunction,ComponentPad*%
%ADD13C,1.700000*%
%TD*%
%TA.AperFunction,ComponentPad*%
%ADD14C,2.500000*%
%TD*%
%TA.AperFunction,ComponentPad*%
%ADD15C,1.900000*%
%TD*%
%TA.AperFunction,ComponentPad*%
%ADD16C,2.000000*%
%TD*%
%TA.AperFunction,ComponentPad*%
%ADD17O,1.700000X1.700000*%
%TD*%
%TA.AperFunction,ComponentPad*%
%ADD18R,1.700000X1.700000*%
%TD*%
%TA.AperFunction,ComponentPad*%
%ADD19C,2.540000*%
%TD*%
%TA.AperFunction,ComponentPad*%
%ADD20R,1.600000X1.600000*%
%TD*%
%TA.AperFunction,ComponentPad*%
%ADD21O,1.600000X1.600000*%
%TD*%
%TA.AperFunction,ViaPad*%
%ADD22C,0.800000*%
%TD*%
%TA.AperFunction,Conductor*%
%ADD23C,0.500000*%
%TD*%
%TA.AperFunction,Conductor*%
%ADD24C,1.000000*%
%TD*%
%TA.AperFunction,Conductor*%
%ADD25C,0.250000*%
%TD*%
%TA.AperFunction,Conductor*%
%ADD26C,0.254000*%
%TD*%
G04 APERTURE END LIST*
D10*
%TO.P,J2,6*%
%TO.N,/Reader_SerialTx*%
X154479000Y-74475000D03*
%TO.P,J2,8*%
%TO.N,/LED_Blue_Cathode*%
X151939000Y-74475000D03*
D11*
%TO.P,J2,SH*%
%TO.N,GND*%
X164154000Y-62535000D03*
D10*
%TO.P,J2,2*%
X159559000Y-74475000D03*
D12*
%TO.P,J2,1*%
%TO.N,+5V*%
X160829000Y-71935000D03*
D10*
%TO.P,J2,7*%
%TO.N,/LED_Green_Cathode*%
X153209000Y-71935000D03*
%TO.P,J2,4*%
%TO.N,/LED_Red_Cathode*%
X157019000Y-74475000D03*
%TO.P,J2,5*%
%TO.N,BigButton*%
X155749000Y-71935000D03*
%TO.P,J2,3*%
%TO.N,/Reader_SerialRx*%
X158289000Y-71935000D03*
D11*
%TO.P,J2,SH*%
%TO.N,GND*%
X148614000Y-62535000D03*
%TD*%
D10*
%TO.P,J1,6*%
%TO.N,/422_RX+*%
X134794000Y-74475000D03*
%TO.P,J1,8*%
%TO.N,/422_TX+*%
X132254000Y-74475000D03*
D11*
%TO.P,J1,SH*%
%TO.N,GND*%
X144469000Y-62535000D03*
D10*
%TO.P,J1,2*%
X139874000Y-74475000D03*
D12*
%TO.P,J1,1*%
X141144000Y-71935000D03*
D10*
%TO.P,J1,7*%
%TO.N,/422_TX-*%
X133524000Y-71935000D03*
%TO.P,J1,4*%
%TO.N,+12V*%
X137334000Y-74475000D03*
%TO.P,J1,5*%
X136064000Y-71935000D03*
%TO.P,J1,3*%
%TO.N,/422_RX-*%
X138604000Y-71935000D03*
D11*
%TO.P,J1,SH*%
%TO.N,GND*%
X128929000Y-62535000D03*
%TD*%
D13*
%TO.P,U2,100*%
%TO.N,N/C*%
X170720000Y-127526000D03*
%TO.P,U2,99*%
%TO.N,BigButton*%
X168180000Y-127526000D03*
%TO.P,U2,48*%
%TO.N,i2c_SCL*%
X170720000Y-59962000D03*
%TO.P,U2,47*%
%TO.N,N/C*%
X168180000Y-59962000D03*
%TO.P,U2,49*%
X168180000Y-62502000D03*
%TO.P,U2,50*%
%TO.N,i2c_SDA*%
X170720000Y-62502000D03*
%TO.P,U2,63*%
%TO.N,/SPIFlash_CS*%
X168180000Y-80282000D03*
%TO.P,U2,61*%
%TO.N,/SPI_Clk*%
X168180000Y-77742000D03*
%TO.P,U2,59*%
%TO.N,/SPI_MOSI*%
X168180000Y-75202000D03*
%TO.P,U2,57*%
%TO.N,N/C*%
X168180000Y-72662000D03*
%TO.P,U2,55*%
X168180000Y-70122000D03*
%TO.P,U2,53*%
X168180000Y-67582000D03*
%TO.P,U2,51*%
X168180000Y-65042000D03*
%TO.P,U2,52*%
X170720000Y-65042000D03*
%TO.P,U2,54*%
%TO.N,GND*%
X170720000Y-67582000D03*
%TO.P,U2,56*%
%TO.N,N/C*%
X170720000Y-70122000D03*
%TO.P,U2,58*%
X170720000Y-72662000D03*
%TO.P,U2,60*%
X170720000Y-75202000D03*
%TO.P,U2,62*%
X170720000Y-77742000D03*
%TO.P,U2,64*%
X170720000Y-80282000D03*
%TO.P,U2,65*%
%TO.N,/SPI_MISO*%
X168180000Y-82822000D03*
%TO.P,U2,66*%
%TO.N,N/C*%
X170720000Y-82822000D03*
%TO.P,U2,94*%
X170720000Y-119906000D03*
%TO.P,U2,92*%
X170720000Y-117366000D03*
%TO.P,U2,90*%
X170720000Y-114826000D03*
%TO.P,U2,88*%
%TO.N,GND*%
X170720000Y-112286000D03*
%TO.P,U2,86*%
%TO.N,N/C*%
X170720000Y-109746000D03*
%TO.P,U2,84*%
X170720000Y-107206000D03*
%TO.P,U2,82*%
%TO.N,/Reader_SerialRx*%
X170720000Y-104666000D03*
%TO.P,U2,80*%
%TO.N,/Reader_SerialTx*%
X170720000Y-102126000D03*
%TO.P,U2,78*%
%TO.N,N/C*%
X170720000Y-99586000D03*
%TO.P,U2,76*%
%TO.N,/LED_B_Trigger*%
X170720000Y-97046000D03*
%TO.P,U2,74*%
%TO.N,N/C*%
X170720000Y-94506000D03*
%TO.P,U2,72*%
%TO.N,/LED_G_Trigger*%
X170720000Y-91966000D03*
%TO.P,U2,70*%
%TO.N,/LED_R_Trigger*%
X170720000Y-89426000D03*
%TO.P,U2,68*%
%TO.N,/ToolEnable*%
X170720000Y-86886000D03*
%TO.P,U2,67*%
%TO.N,N/C*%
X168180000Y-86886000D03*
%TO.P,U2,69*%
X168180000Y-89426000D03*
%TO.P,U2,71*%
%TO.N,GND*%
X168180000Y-91966000D03*
%TO.P,U2,73*%
%TO.N,N/C*%
X168180000Y-94506000D03*
%TO.P,U2,75*%
X168180000Y-97046000D03*
%TO.P,U2,77*%
X168180000Y-99586000D03*
%TO.P,U2,79*%
X168180000Y-102126000D03*
%TO.P,U2,81*%
X168180000Y-104666000D03*
%TO.P,U2,83*%
%TO.N,GND*%
X168180000Y-107206000D03*
%TO.P,U2,85*%
%TO.N,N/C*%
X168180000Y-109746000D03*
%TO.P,U2,87*%
X168180000Y-112286000D03*
%TO.P,U2,89*%
X168180000Y-114826000D03*
%TO.P,U2,91*%
X168180000Y-117366000D03*
%TO.P,U2,93*%
%TO.N,GND*%
X168180000Y-119906000D03*
%TO.P,U2,96*%
%TO.N,N/C*%
X170720000Y-122446000D03*
%TO.P,U2,95*%
%TO.N,/~ToolOn*%
X168180000Y-122446000D03*
%TO.P,U2,97*%
%TO.N,N/C*%
X168180000Y-124986000D03*
%TO.P,U2,2*%
X125000000Y-69360000D03*
%TO.P,U2,4*%
X125000000Y-71900000D03*
%TO.P,U2,6*%
X125000000Y-74440000D03*
%TO.P,U2,8*%
X125000000Y-76980000D03*
%TO.P,U2,10*%
X125000000Y-79520000D03*
%TO.P,U2,12*%
X125000000Y-82060000D03*
%TO.P,U2,14*%
X125000000Y-84600000D03*
%TO.P,U2,16*%
X125000000Y-87140000D03*
%TO.P,U2,1*%
X122460000Y-69360000D03*
%TO.P,U2,3*%
X122460000Y-71900000D03*
%TO.P,U2,5*%
%TO.N,~Reset*%
X122460000Y-74440000D03*
%TO.P,U2,7*%
%TO.N,+3V3*%
X122460000Y-76980000D03*
%TO.P,U2,9*%
%TO.N,+5V*%
X122460000Y-79520000D03*
%TO.P,U2,11*%
%TO.N,GND*%
X122460000Y-82060000D03*
%TO.P,U2,13*%
X122460000Y-84600000D03*
%TO.P,U2,15*%
%TO.N,+12V*%
X122460000Y-87140000D03*
%TO.P,U2,18*%
%TO.N,N/C*%
X125000000Y-92220000D03*
%TO.P,U2,17*%
X122460000Y-92220000D03*
%TO.P,U2,46*%
X125000000Y-127780000D03*
%TO.P,U2,44*%
X125000000Y-125240000D03*
%TO.P,U2,42*%
X125000000Y-122700000D03*
%TO.P,U2,40*%
X125000000Y-120160000D03*
%TO.P,U2,38*%
X125000000Y-117620000D03*
%TO.P,U2,36*%
X125000000Y-115080000D03*
%TO.P,U2,34*%
X125000000Y-112540000D03*
%TO.P,U2,32*%
X125000000Y-110000000D03*
%TO.P,U2,30*%
X125000000Y-107460000D03*
%TO.P,U2,28*%
%TO.N,GND*%
X125000000Y-104920000D03*
%TO.P,U2,26*%
%TO.N,N/C*%
X125000000Y-102380000D03*
%TO.P,U2,24*%
X125000000Y-99840000D03*
%TO.P,U2,22*%
X125000000Y-97300000D03*
%TO.P,U2,20*%
X125000000Y-94760000D03*
%TO.P,U2,19*%
X122460000Y-94760000D03*
%TO.P,U2,21*%
X122460000Y-97300000D03*
%TO.P,U2,23*%
X122460000Y-99840000D03*
%TO.P,U2,25*%
X122460000Y-102380000D03*
%TO.P,U2,27*%
X122460000Y-104920000D03*
%TO.P,U2,29*%
X122460000Y-107460000D03*
%TO.P,U2,31*%
X122460000Y-110000000D03*
%TO.P,U2,33*%
X122460000Y-112540000D03*
%TO.P,U2,35*%
X122460000Y-115080000D03*
%TO.P,U2,37*%
X122460000Y-117620000D03*
%TO.P,U2,39*%
%TO.N,GND*%
X122460000Y-120160000D03*
%TO.P,U2,41*%
%TO.N,N/C*%
X122460000Y-122700000D03*
%TO.P,U2,43*%
X122460000Y-125240000D03*
%TO.P,U2,98*%
X170720000Y-124986000D03*
%TO.P,U2,45*%
X122460000Y-127780000D03*
%TD*%
D14*
%TO.P,K1,2*%
%TO.N,Net-(D2-Pad2)*%
X144050000Y-140950000D03*
D11*
%TO.P,K1,3*%
%TO.N,Net-(J4-Pad1)*%
X131850000Y-140950000D03*
%TO.P,K1,4*%
%TO.N,Net-(J4-Pad3)*%
X131800000Y-153000000D03*
D14*
%TO.P,K1,5*%
%TO.N,+5V*%
X144050000Y-152950000D03*
D11*
%TO.P,K1,1*%
%TO.N,Net-(J4-Pad2)*%
X146000000Y-147000000D03*
%TD*%
D15*
%TO.P,J5,2*%
%TO.N,Net-(J5-Pad2)*%
X172100000Y-149090000D03*
%TO.P,J5,1*%
%TO.N,Net-(J5-Pad1)*%
X172100000Y-152900000D03*
%TD*%
D16*
%TO.P,J4,1*%
%TO.N,Net-(J4-Pad1)*%
X121900000Y-143190000D03*
%TO.P,J4,2*%
%TO.N,Net-(J4-Pad2)*%
X121900000Y-147000000D03*
%TO.P,J4,3*%
%TO.N,Net-(J4-Pad3)*%
X121900000Y-150810000D03*
%TD*%
%TO.P,SW2,1*%
%TO.N,GND*%
X158000000Y-121500000D03*
%TO.P,SW2,2*%
%TO.N,BigButton*%
X158000000Y-126000000D03*
%TO.P,SW2,1*%
%TO.N,GND*%
X151500000Y-121500000D03*
%TO.P,SW2,2*%
%TO.N,BigButton*%
X151500000Y-126000000D03*
%TD*%
%TO.P,SW1,1*%
%TO.N,GND*%
X124784000Y-60886000D03*
%TO.P,SW1,2*%
%TO.N,~Reset*%
X124784000Y-65386000D03*
%TO.P,SW1,1*%
%TO.N,GND*%
X118284000Y-60886000D03*
%TO.P,SW1,2*%
%TO.N,~Reset*%
X118284000Y-65386000D03*
%TD*%
D17*
%TO.P,J6,4*%
%TO.N,i2c_SDA*%
X150120000Y-93000000D03*
%TO.P,J6,3*%
%TO.N,i2c_SCL*%
X147580000Y-93000000D03*
%TO.P,J6,2*%
%TO.N,GND*%
X145040000Y-93000000D03*
D18*
%TO.P,J6,1*%
%TO.N,+5V*%
X142500000Y-93000000D03*
%TD*%
D19*
%TO.P,J3,2*%
%TO.N,Net-(J3-Pad2)*%
X170050000Y-134480000D03*
%TO.P,J3,1*%
%TO.N,GND*%
X170050000Y-139560000D03*
%TD*%
D20*
%TO.P,D2,1*%
%TO.N,+5V*%
X152000000Y-151000000D03*
D21*
%TO.P,D2,2*%
%TO.N,Net-(D2-Pad2)*%
X152000000Y-143380000D03*
%TD*%
D22*
%TO.N,GND*%
X134500000Y-78000000D03*
X145000000Y-133750000D03*
X156750000Y-152000000D03*
X128500000Y-87250000D03*
X128500000Y-88500000D03*
X128500000Y-83500000D03*
X157000000Y-82500000D03*
X151500000Y-82500000D03*
X146500000Y-82500000D03*
X133000000Y-113500000D03*
X138000000Y-113500000D03*
X143000000Y-113500000D03*
X164800000Y-139200000D03*
X165900000Y-139200000D03*
X165900000Y-140300000D03*
X164800000Y-140300000D03*
X164800000Y-141400000D03*
X165900000Y-141400000D03*
X147250000Y-84250000D03*
X152250000Y-84250000D03*
X157750000Y-84250000D03*
X148750000Y-138500000D03*
X152540810Y-91992001D03*
X162607000Y-86032000D03*
%TO.N,+3V3*%
X137750000Y-83000000D03*
X138430000Y-86436200D03*
%TO.N,+5V*%
X116750000Y-90250000D03*
X116850010Y-87750000D03*
X116750000Y-134500000D03*
X156438798Y-68249998D03*
%TO.N,+12V*%
X120750000Y-92000000D03*
X119750000Y-92000000D03*
X118750000Y-92000000D03*
X120750000Y-93000000D03*
X119750000Y-93000000D03*
X118750000Y-93000000D03*
X117250000Y-68000000D03*
X118000000Y-82000000D03*
X120499988Y-67500012D03*
X118500000Y-87250000D03*
X119750000Y-87250000D03*
X119750000Y-86250000D03*
X118500000Y-86250000D03*
X116633000Y-79173990D03*
%TO.N,BigButton*%
X166573200Y-76555600D03*
X174345600Y-76555602D03*
X174167800Y-126111000D03*
%TO.N,/Reader_SerialRx*%
X164590398Y-71348600D03*
%TO.N,i2c_SDA*%
X166370000Y-95656400D03*
X175539400Y-95732600D03*
X163576000Y-96926400D03*
X160401000Y-96977200D03*
%TO.N,i2c_SCL*%
X176352200Y-98272600D03*
X165938200Y-98272600D03*
X160274000Y-98094800D03*
X163118802Y-98094800D03*
%TO.N,/LED_R_Trigger*%
X158272376Y-85267800D03*
X160350198Y-85267800D03*
X163750000Y-84000000D03*
X166268400Y-83999998D03*
%TO.N,/LED_G_Trigger*%
X162750000Y-95750000D03*
X159943800Y-95554800D03*
X149225000Y-90881200D03*
X149225000Y-88620600D03*
%TO.N,/LED_B_Trigger*%
X139344400Y-92252800D03*
X140309600Y-89763600D03*
X141554200Y-103225000D03*
X141554200Y-99263202D03*
%TO.N,/SPIFlash_CS*%
X164000000Y-81500000D03*
%TO.N,/SPI_MISO*%
X164000000Y-83000000D03*
%TO.N,/~ToolOn*%
X175234600Y-123647200D03*
%TD*%
D23*
%TO.N,+3V3*%
X137750000Y-83000000D02*
X137750000Y-85756200D01*
X137750000Y-85756200D02*
X138430000Y-86436200D01*
%TO.N,+5V*%
X116750000Y-87850010D02*
X116850010Y-87750000D01*
X116750000Y-90250000D02*
X116750000Y-87850010D01*
X143000000Y-134000000D02*
X117250000Y-134000000D01*
X150749999Y-141749999D02*
X143000000Y-134000000D01*
X150749999Y-149749999D02*
X150749999Y-141749999D01*
X117250000Y-134000000D02*
X116750000Y-134500000D01*
X152000000Y-151000000D02*
X150749999Y-149749999D01*
X160257500Y-70347500D02*
X158536300Y-70347500D01*
X158536300Y-70347500D02*
X156438798Y-68249998D01*
X160829000Y-70919000D02*
X160257500Y-70347500D01*
X160829000Y-71935000D02*
X160829000Y-70919000D01*
D24*
%TO.N,+12V*%
X117250000Y-68000000D02*
X120000000Y-68000000D01*
X120000000Y-68000000D02*
X120499988Y-67500012D01*
X118000000Y-82000000D02*
X116633000Y-80633000D01*
X116633000Y-80633000D02*
X116633000Y-79173990D01*
D25*
%TO.N,BigButton*%
X166573200Y-76555600D02*
X174345598Y-76555600D01*
X174345598Y-76555600D02*
X174345600Y-76555602D01*
X169355001Y-126350999D02*
X168180000Y-127526000D01*
X173927801Y-126350999D02*
X169355001Y-126350999D01*
X174167800Y-126111000D02*
X173927801Y-126350999D01*
%TO.N,/Reader_SerialRx*%
X159686000Y-73332000D02*
X162606998Y-73332000D01*
X162606998Y-73332000D02*
X164590398Y-71348600D01*
X158289000Y-71935000D02*
X159686000Y-73332000D01*
%TO.N,i2c_SDA*%
X166446200Y-95732600D02*
X175539400Y-95732600D01*
X166370000Y-95656400D02*
X166446200Y-95732600D01*
X160401000Y-96977200D02*
X163525200Y-96977200D01*
X163525200Y-96977200D02*
X163576000Y-96926400D01*
%TO.N,i2c_SCL*%
X176352200Y-98272600D02*
X165938200Y-98272600D01*
X160274000Y-98094800D02*
X163118802Y-98094800D01*
%TO.N,/LED_R_Trigger*%
X158272376Y-85267800D02*
X160350198Y-85267800D01*
X163750000Y-84000000D02*
X166268398Y-84000000D01*
X166268398Y-84000000D02*
X166268400Y-83999998D01*
%TO.N,/LED_G_Trigger*%
X160139000Y-95750000D02*
X159943800Y-95554800D01*
X162750000Y-95750000D02*
X160139000Y-95750000D01*
X149225000Y-90881200D02*
X149225000Y-88620600D01*
%TO.N,/LED_B_Trigger*%
X139344400Y-92252800D02*
X139344400Y-90728800D01*
X139344400Y-90728800D02*
X140309600Y-89763600D01*
X141554200Y-103225000D02*
X141554200Y-99263202D01*
%TO.N,/SPIFlash_CS*%
X167216000Y-81500000D02*
X168180000Y-80536000D01*
X164000000Y-81500000D02*
X167216000Y-81500000D01*
%TO.N,/SPI_MISO*%
X168104000Y-83000000D02*
X168180000Y-83076000D01*
X164000000Y-83000000D02*
X168104000Y-83000000D01*
%TO.N,/~ToolOn*%
X168180000Y-122446000D02*
X169381200Y-123647200D01*
X169381200Y-123647200D02*
X175234600Y-123647200D01*
%TD*%
D26*
%TO.N,+12V*%
G36*
X121756589Y-85915990D02*
G01*
X122026842Y-86027932D01*
X122313740Y-86085000D01*
X122606260Y-86085000D01*
X122893158Y-86027932D01*
X123163411Y-85915990D01*
X123221764Y-85877000D01*
X123623000Y-85877000D01*
X123623000Y-86583881D01*
X123572068Y-86706842D01*
X123515000Y-86993740D01*
X123515000Y-87286260D01*
X123572068Y-87573158D01*
X123623000Y-87696119D01*
X123623000Y-88373000D01*
X121250000Y-88373000D01*
X121225224Y-88375440D01*
X121201399Y-88382667D01*
X121179443Y-88394403D01*
X121160197Y-88410197D01*
X121144403Y-88429443D01*
X121132667Y-88451399D01*
X121125440Y-88475224D01*
X121123000Y-88500000D01*
X121123000Y-91567312D01*
X121032068Y-91786842D01*
X120975000Y-92073740D01*
X120975000Y-92366260D01*
X121032068Y-92653158D01*
X121123000Y-92872688D01*
X121123000Y-93373000D01*
X118127000Y-93373000D01*
X118127000Y-85877000D01*
X121698236Y-85877000D01*
X121756589Y-85915990D01*
G37*
X121756589Y-85915990D02*
X122026842Y-86027932D01*
X122313740Y-86085000D01*
X122606260Y-86085000D01*
X122893158Y-86027932D01*
X123163411Y-85915990D01*
X123221764Y-85877000D01*
X123623000Y-85877000D01*
X123623000Y-86583881D01*
X123572068Y-86706842D01*
X123515000Y-86993740D01*
X123515000Y-87286260D01*
X123572068Y-87573158D01*
X123623000Y-87696119D01*
X123623000Y-88373000D01*
X121250000Y-88373000D01*
X121225224Y-88375440D01*
X121201399Y-88382667D01*
X121179443Y-88394403D01*
X121160197Y-88410197D01*
X121144403Y-88429443D01*
X121132667Y-88451399D01*
X121125440Y-88475224D01*
X121123000Y-88500000D01*
X121123000Y-91567312D01*
X121032068Y-91786842D01*
X120975000Y-92073740D01*
X120975000Y-92366260D01*
X121032068Y-92653158D01*
X121123000Y-92872688D01*
X121123000Y-93373000D01*
X118127000Y-93373000D01*
X118127000Y-85877000D01*
X121698236Y-85877000D01*
X121756589Y-85915990D01*
%TO.N,GND*%
G36*
X167233368Y-58808525D02*
G01*
X167026525Y-59015368D01*
X166864010Y-59258589D01*
X166752068Y-59528842D01*
X166695000Y-59815740D01*
X166695000Y-60108260D01*
X166752068Y-60395158D01*
X166864010Y-60665411D01*
X167026525Y-60908632D01*
X167233368Y-61115475D01*
X167407760Y-61232000D01*
X167233368Y-61348525D01*
X167026525Y-61555368D01*
X166864010Y-61798589D01*
X166752068Y-62068842D01*
X166695000Y-62355740D01*
X166695000Y-62648260D01*
X166752068Y-62935158D01*
X166864010Y-63205411D01*
X167026525Y-63448632D01*
X167233368Y-63655475D01*
X167407760Y-63772000D01*
X167233368Y-63888525D01*
X167026525Y-64095368D01*
X166864010Y-64338589D01*
X166752068Y-64608842D01*
X166695000Y-64895740D01*
X166695000Y-65188260D01*
X166752068Y-65475158D01*
X166864010Y-65745411D01*
X167026525Y-65988632D01*
X167233368Y-66195475D01*
X167407760Y-66312000D01*
X167233368Y-66428525D01*
X167026525Y-66635368D01*
X166864010Y-66878589D01*
X166752068Y-67148842D01*
X166695000Y-67435740D01*
X166695000Y-67728260D01*
X166752068Y-68015158D01*
X166864010Y-68285411D01*
X167026525Y-68528632D01*
X167233368Y-68735475D01*
X167407760Y-68852000D01*
X167233368Y-68968525D01*
X167026525Y-69175368D01*
X166864010Y-69418589D01*
X166752068Y-69688842D01*
X166695000Y-69975740D01*
X166695000Y-70268260D01*
X166752068Y-70555158D01*
X166864010Y-70825411D01*
X167026525Y-71068632D01*
X167233368Y-71275475D01*
X167407760Y-71392000D01*
X167233368Y-71508525D01*
X167026525Y-71715368D01*
X166864010Y-71958589D01*
X166752068Y-72228842D01*
X166695000Y-72515740D01*
X166695000Y-72808260D01*
X166752068Y-73095158D01*
X166864010Y-73365411D01*
X167026525Y-73608632D01*
X167233368Y-73815475D01*
X167407760Y-73932000D01*
X167233368Y-74048525D01*
X167026525Y-74255368D01*
X166864010Y-74498589D01*
X166752068Y-74768842D01*
X166695000Y-75055740D01*
X166695000Y-75348260D01*
X166731511Y-75531813D01*
X166675139Y-75520600D01*
X166471261Y-75520600D01*
X166271302Y-75560374D01*
X166082944Y-75638395D01*
X165913426Y-75751663D01*
X165769263Y-75895826D01*
X165655995Y-76065344D01*
X165577974Y-76253702D01*
X165538200Y-76453661D01*
X165538200Y-76657539D01*
X165577974Y-76857498D01*
X165655995Y-77045856D01*
X165769263Y-77215374D01*
X165913426Y-77359537D01*
X166082944Y-77472805D01*
X166271302Y-77550826D01*
X166471261Y-77590600D01*
X166675139Y-77590600D01*
X166696883Y-77586275D01*
X166695000Y-77595740D01*
X166695000Y-77888260D01*
X166752068Y-78175158D01*
X166864010Y-78445411D01*
X167026525Y-78688632D01*
X167233368Y-78895475D01*
X167407760Y-79012000D01*
X167233368Y-79128525D01*
X167026525Y-79335368D01*
X166864010Y-79578589D01*
X166752068Y-79848842D01*
X166695000Y-80135740D01*
X166695000Y-80428260D01*
X166752068Y-80715158D01*
X166762358Y-80740000D01*
X164703711Y-80740000D01*
X164659774Y-80696063D01*
X164490256Y-80582795D01*
X164301898Y-80504774D01*
X164101939Y-80465000D01*
X163898061Y-80465000D01*
X163698102Y-80504774D01*
X163509744Y-80582795D01*
X163340226Y-80696063D01*
X163196063Y-80840226D01*
X163082795Y-81009744D01*
X163004774Y-81198102D01*
X162965000Y-81398061D01*
X162965000Y-81601939D01*
X163004774Y-81801898D01*
X163082795Y-81990256D01*
X163196063Y-82159774D01*
X163286289Y-82250000D01*
X163196063Y-82340226D01*
X163082795Y-82509744D01*
X163004774Y-82698102D01*
X162965000Y-82898061D01*
X162965000Y-83101939D01*
X163001392Y-83284897D01*
X162946063Y-83340226D01*
X162832795Y-83509744D01*
X162754774Y-83698102D01*
X162715000Y-83898061D01*
X162715000Y-84101939D01*
X162754774Y-84301898D01*
X162832795Y-84490256D01*
X162946063Y-84659774D01*
X163090226Y-84803937D01*
X163259744Y-84917205D01*
X163448102Y-84995226D01*
X163648061Y-85035000D01*
X163851939Y-85035000D01*
X164051898Y-84995226D01*
X164240256Y-84917205D01*
X164409774Y-84803937D01*
X164453711Y-84760000D01*
X165564691Y-84760000D01*
X165608626Y-84803935D01*
X165778144Y-84917203D01*
X165966502Y-84995224D01*
X166166461Y-85034998D01*
X166370339Y-85034998D01*
X166570298Y-84995224D01*
X166758656Y-84917203D01*
X166928174Y-84803935D01*
X167072337Y-84659772D01*
X167185605Y-84490254D01*
X167263626Y-84301896D01*
X167303400Y-84101937D01*
X167303400Y-84022269D01*
X167476589Y-84137990D01*
X167746842Y-84249932D01*
X168033740Y-84307000D01*
X168326260Y-84307000D01*
X168613158Y-84249932D01*
X168883411Y-84137990D01*
X169126632Y-83975475D01*
X169333475Y-83768632D01*
X169450000Y-83594240D01*
X169566525Y-83768632D01*
X169773368Y-83975475D01*
X170016589Y-84137990D01*
X170286842Y-84249932D01*
X170573740Y-84307000D01*
X170866260Y-84307000D01*
X171153158Y-84249932D01*
X171423411Y-84137990D01*
X171666632Y-83975475D01*
X171873475Y-83768632D01*
X172035990Y-83525411D01*
X172147932Y-83255158D01*
X172205000Y-82968260D01*
X172205000Y-82675740D01*
X172147932Y-82388842D01*
X172035990Y-82118589D01*
X171873475Y-81875368D01*
X171666632Y-81668525D01*
X171492240Y-81552000D01*
X171666632Y-81435475D01*
X171873475Y-81228632D01*
X172035990Y-80985411D01*
X172147932Y-80715158D01*
X172205000Y-80428260D01*
X172205000Y-80135740D01*
X172147932Y-79848842D01*
X172035990Y-79578589D01*
X171873475Y-79335368D01*
X171666632Y-79128525D01*
X171492240Y-79012000D01*
X171666632Y-78895475D01*
X171873475Y-78688632D01*
X172035990Y-78445411D01*
X172147932Y-78175158D01*
X172205000Y-77888260D01*
X172205000Y-77595740D01*
X172149276Y-77315600D01*
X173641887Y-77315600D01*
X173685826Y-77359539D01*
X173855344Y-77472807D01*
X174043702Y-77550828D01*
X174243661Y-77590602D01*
X174447539Y-77590602D01*
X174647498Y-77550828D01*
X174835856Y-77472807D01*
X175005374Y-77359539D01*
X175149537Y-77215376D01*
X175262805Y-77045858D01*
X175340826Y-76857500D01*
X175380600Y-76657541D01*
X175380600Y-76453663D01*
X175340826Y-76253704D01*
X175262805Y-76065346D01*
X175149537Y-75895828D01*
X175005374Y-75751665D01*
X174835856Y-75638397D01*
X174647498Y-75560376D01*
X174447539Y-75520602D01*
X174243661Y-75520602D01*
X174043702Y-75560376D01*
X173855344Y-75638397D01*
X173685826Y-75751665D01*
X173641891Y-75795600D01*
X172081475Y-75795600D01*
X172147932Y-75635158D01*
X172205000Y-75348260D01*
X172205000Y-75055740D01*
X172147932Y-74768842D01*
X172035990Y-74498589D01*
X171873475Y-74255368D01*
X171666632Y-74048525D01*
X171492240Y-73932000D01*
X171666632Y-73815475D01*
X171873475Y-73608632D01*
X172035990Y-73365411D01*
X172147932Y-73095158D01*
X172205000Y-72808260D01*
X172205000Y-72515740D01*
X172147932Y-72228842D01*
X172035990Y-71958589D01*
X171873475Y-71715368D01*
X171666632Y-71508525D01*
X171492240Y-71392000D01*
X171666632Y-71275475D01*
X171873475Y-71068632D01*
X172035990Y-70825411D01*
X172147932Y-70555158D01*
X172205000Y-70268260D01*
X172205000Y-69975740D01*
X172147932Y-69688842D01*
X172035990Y-69418589D01*
X171873475Y-69175368D01*
X171666632Y-68968525D01*
X171493271Y-68852689D01*
X171568792Y-68610397D01*
X170720000Y-67761605D01*
X169871208Y-68610397D01*
X169946729Y-68852689D01*
X169773368Y-68968525D01*
X169566525Y-69175368D01*
X169450000Y-69349760D01*
X169333475Y-69175368D01*
X169126632Y-68968525D01*
X168952240Y-68852000D01*
X169126632Y-68735475D01*
X169333475Y-68528632D01*
X169449311Y-68355271D01*
X169691603Y-68430792D01*
X170540395Y-67582000D01*
X170899605Y-67582000D01*
X171748397Y-68430792D01*
X171997472Y-68353157D01*
X172123371Y-68089117D01*
X172195339Y-67805589D01*
X172210611Y-67513469D01*
X172168599Y-67223981D01*
X172070919Y-66948253D01*
X171997472Y-66810843D01*
X171748397Y-66733208D01*
X170899605Y-67582000D01*
X170540395Y-67582000D01*
X169691603Y-66733208D01*
X169449311Y-66808729D01*
X169333475Y-66635368D01*
X169126632Y-66428525D01*
X168952240Y-66312000D01*
X169126632Y-66195475D01*
X169333475Y-65988632D01*
X169450000Y-65814240D01*
X169566525Y-65988632D01*
X169773368Y-66195475D01*
X169946729Y-66311311D01*
X169871208Y-66553603D01*
X170720000Y-67402395D01*
X171568792Y-66553603D01*
X171493271Y-66311311D01*
X171666632Y-66195475D01*
X171873475Y-65988632D01*
X172035990Y-65745411D01*
X172147932Y-65475158D01*
X172205000Y-65188260D01*
X172205000Y-64895740D01*
X172147932Y-64608842D01*
X172035990Y-64338589D01*
X171873475Y-64095368D01*
X171666632Y-63888525D01*
X171492240Y-63772000D01*
X171666632Y-63655475D01*
X171873475Y-63448632D01*
X172035990Y-63205411D01*
X172147932Y-62935158D01*
X172205000Y-62648260D01*
X172205000Y-62355740D01*
X172147932Y-62068842D01*
X172035990Y-61798589D01*
X171873475Y-61555368D01*
X171666632Y-61348525D01*
X171492240Y-61232000D01*
X171666632Y-61115475D01*
X171873475Y-60908632D01*
X172035990Y-60665411D01*
X172147932Y-60395158D01*
X172205000Y-60108260D01*
X172205000Y-59815740D01*
X172147932Y-59528842D01*
X172035990Y-59258589D01*
X171873475Y-59015368D01*
X171666632Y-58808525D01*
X171444349Y-58660000D01*
X176967721Y-58660000D01*
X177453893Y-58707670D01*
X177890498Y-58839489D01*
X178293185Y-59053600D01*
X178646612Y-59341848D01*
X178937327Y-59693261D01*
X179154242Y-60094439D01*
X179289106Y-60530113D01*
X179340000Y-61014344D01*
X179340001Y-143873000D01*
X176314105Y-143873000D01*
X176267804Y-143863158D01*
X176258639Y-143862195D01*
X176064405Y-143843150D01*
X176064402Y-143843150D01*
X176032419Y-143840000D01*
X164467581Y-143840000D01*
X164434613Y-143843247D01*
X164421633Y-143843247D01*
X164412468Y-143844210D01*
X164218518Y-143865965D01*
X164185422Y-143873000D01*
X160000000Y-143873000D01*
X159975224Y-143875440D01*
X159951399Y-143882667D01*
X159929443Y-143894403D01*
X159910197Y-143910197D01*
X159894403Y-143929443D01*
X159882667Y-143951399D01*
X159875440Y-143975224D01*
X159873000Y-144000000D01*
X159873000Y-153873000D01*
X156377000Y-153873000D01*
X156377000Y-140887852D01*
X168901753Y-140887852D01*
X169030076Y-141179871D01*
X169365695Y-141347723D01*
X169727611Y-141446874D01*
X170101916Y-141473514D01*
X170474227Y-141426618D01*
X170830235Y-141307988D01*
X171069924Y-141179871D01*
X171198247Y-140887852D01*
X170050000Y-139739605D01*
X168901753Y-140887852D01*
X156377000Y-140887852D01*
X156377000Y-139750000D01*
X156374560Y-139725224D01*
X156367333Y-139701399D01*
X156355597Y-139679443D01*
X156339803Y-139660197D01*
X156320557Y-139644403D01*
X156298601Y-139632667D01*
X156274776Y-139625440D01*
X156250000Y-139623000D01*
X149874579Y-139623000D01*
X149863495Y-139611916D01*
X168136486Y-139611916D01*
X168183382Y-139984227D01*
X168302012Y-140340235D01*
X168430129Y-140579924D01*
X168722148Y-140708247D01*
X169870395Y-139560000D01*
X170229605Y-139560000D01*
X171377852Y-140708247D01*
X171669871Y-140579924D01*
X171837723Y-140244305D01*
X171936874Y-139882389D01*
X171963514Y-139508084D01*
X171916618Y-139135773D01*
X171797988Y-138779765D01*
X171669871Y-138540076D01*
X171377852Y-138411753D01*
X170229605Y-139560000D01*
X169870395Y-139560000D01*
X168722148Y-138411753D01*
X168430129Y-138540076D01*
X168262277Y-138875695D01*
X168163126Y-139237611D01*
X168136486Y-139611916D01*
X149863495Y-139611916D01*
X148483727Y-138232148D01*
X168901753Y-138232148D01*
X170050000Y-139380395D01*
X171198247Y-138232148D01*
X171069924Y-137940129D01*
X170734305Y-137772277D01*
X170372389Y-137673126D01*
X169998084Y-137646486D01*
X169625773Y-137693382D01*
X169269765Y-137812012D01*
X169030076Y-137940129D01*
X168901753Y-138232148D01*
X148483727Y-138232148D01*
X144543953Y-134292374D01*
X168145000Y-134292374D01*
X168145000Y-134667626D01*
X168218209Y-135035668D01*
X168361811Y-135382356D01*
X168570290Y-135694366D01*
X168835634Y-135959710D01*
X169147644Y-136168189D01*
X169494332Y-136311791D01*
X169862374Y-136385000D01*
X170237626Y-136385000D01*
X170605668Y-136311791D01*
X170952356Y-136168189D01*
X171264366Y-135959710D01*
X171529710Y-135694366D01*
X171738189Y-135382356D01*
X171881791Y-135035668D01*
X171955000Y-134667626D01*
X171955000Y-134292374D01*
X171881791Y-133924332D01*
X171738189Y-133577644D01*
X171529710Y-133265634D01*
X171264366Y-133000290D01*
X170952356Y-132791811D01*
X170605668Y-132648209D01*
X170237626Y-132575000D01*
X169862374Y-132575000D01*
X169494332Y-132648209D01*
X169147644Y-132791811D01*
X168835634Y-133000290D01*
X168570290Y-133265634D01*
X168361811Y-133577644D01*
X168218209Y-133924332D01*
X168145000Y-134292374D01*
X144543953Y-134292374D01*
X143656534Y-133404956D01*
X143628817Y-133371183D01*
X143494059Y-133260589D01*
X143340313Y-133178411D01*
X143173490Y-133127805D01*
X143043477Y-133115000D01*
X143043469Y-133115000D01*
X143000000Y-133110719D01*
X142956531Y-133115000D01*
X117293469Y-133115000D01*
X117250000Y-133110719D01*
X117206531Y-133115000D01*
X117206523Y-133115000D01*
X117076510Y-133127805D01*
X116909687Y-133178411D01*
X116755941Y-133260589D01*
X116621183Y-133371183D01*
X116593466Y-133404956D01*
X116504957Y-133493465D01*
X116448102Y-133504774D01*
X116259744Y-133582795D01*
X116090226Y-133696063D01*
X115946063Y-133840226D01*
X115832795Y-134009744D01*
X115754774Y-134198102D01*
X115715000Y-134398061D01*
X115715000Y-134601939D01*
X115754774Y-134801898D01*
X115784226Y-134873000D01*
X114660000Y-134873000D01*
X114660000Y-120228531D01*
X120969389Y-120228531D01*
X121011401Y-120518019D01*
X121109081Y-120793747D01*
X121182528Y-120931157D01*
X121431603Y-121008792D01*
X122280395Y-120160000D01*
X121431603Y-119311208D01*
X121182528Y-119388843D01*
X121056629Y-119652883D01*
X120984661Y-119936411D01*
X120969389Y-120228531D01*
X114660000Y-120228531D01*
X114660000Y-90148061D01*
X115715000Y-90148061D01*
X115715000Y-90351939D01*
X115754774Y-90551898D01*
X115832795Y-90740256D01*
X115946063Y-90909774D01*
X116090226Y-91053937D01*
X116259744Y-91167205D01*
X116448102Y-91245226D01*
X116648061Y-91285000D01*
X116851939Y-91285000D01*
X117051898Y-91245226D01*
X117240256Y-91167205D01*
X117365000Y-91083854D01*
X117365000Y-93500000D01*
X117377201Y-93623882D01*
X117413336Y-93743004D01*
X117472017Y-93852787D01*
X117550987Y-93949013D01*
X117647213Y-94027983D01*
X117756996Y-94086664D01*
X117876118Y-94122799D01*
X118000000Y-94135000D01*
X121111531Y-94135000D01*
X121032068Y-94326842D01*
X120975000Y-94613740D01*
X120975000Y-94906260D01*
X121032068Y-95193158D01*
X121144010Y-95463411D01*
X121306525Y-95706632D01*
X121513368Y-95913475D01*
X121687760Y-96030000D01*
X121513368Y-96146525D01*
X121306525Y-96353368D01*
X121144010Y-96596589D01*
X121032068Y-96866842D01*
X120975000Y-97153740D01*
X120975000Y-97446260D01*
X121032068Y-97733158D01*
X121144010Y-98003411D01*
X121306525Y-98246632D01*
X121513368Y-98453475D01*
X121687760Y-98570000D01*
X121513368Y-98686525D01*
X121306525Y-98893368D01*
X121144010Y-99136589D01*
X121032068Y-99406842D01*
X120975000Y-99693740D01*
X120975000Y-99986260D01*
X121032068Y-100273158D01*
X121144010Y-100543411D01*
X121306525Y-100786632D01*
X121513368Y-100993475D01*
X121687760Y-101110000D01*
X121513368Y-101226525D01*
X121306525Y-101433368D01*
X121144010Y-101676589D01*
X121032068Y-101946842D01*
X120975000Y-102233740D01*
X120975000Y-102526260D01*
X121032068Y-102813158D01*
X121144010Y-103083411D01*
X121306525Y-103326632D01*
X121513368Y-103533475D01*
X121687760Y-103650000D01*
X121513368Y-103766525D01*
X121306525Y-103973368D01*
X121144010Y-104216589D01*
X121032068Y-104486842D01*
X120975000Y-104773740D01*
X120975000Y-105066260D01*
X121032068Y-105353158D01*
X121144010Y-105623411D01*
X121306525Y-105866632D01*
X121513368Y-106073475D01*
X121687760Y-106190000D01*
X121513368Y-106306525D01*
X121306525Y-106513368D01*
X121144010Y-106756589D01*
X121032068Y-107026842D01*
X120975000Y-107313740D01*
X120975000Y-107606260D01*
X121032068Y-107893158D01*
X121144010Y-108163411D01*
X121306525Y-108406632D01*
X121513368Y-108613475D01*
X121687760Y-108730000D01*
X121513368Y-108846525D01*
X121306525Y-109053368D01*
X121144010Y-109296589D01*
X121032068Y-109566842D01*
X120975000Y-109853740D01*
X120975000Y-110146260D01*
X121032068Y-110433158D01*
X121144010Y-110703411D01*
X121306525Y-110946632D01*
X121513368Y-111153475D01*
X121687760Y-111270000D01*
X121513368Y-111386525D01*
X121306525Y-111593368D01*
X121144010Y-111836589D01*
X121032068Y-112106842D01*
X120975000Y-112393740D01*
X120975000Y-112686260D01*
X121032068Y-112973158D01*
X121144010Y-113243411D01*
X121306525Y-113486632D01*
X121513368Y-113693475D01*
X121687760Y-113810000D01*
X121513368Y-113926525D01*
X121306525Y-114133368D01*
X121144010Y-114376589D01*
X121032068Y-114646842D01*
X120975000Y-114933740D01*
X120975000Y-115226260D01*
X121032068Y-115513158D01*
X121144010Y-115783411D01*
X121306525Y-116026632D01*
X121513368Y-116233475D01*
X121687760Y-116350000D01*
X121513368Y-116466525D01*
X121306525Y-116673368D01*
X121144010Y-116916589D01*
X121032068Y-117186842D01*
X120975000Y-117473740D01*
X120975000Y-117766260D01*
X121032068Y-118053158D01*
X121144010Y-118323411D01*
X121306525Y-118566632D01*
X121513368Y-118773475D01*
X121686729Y-118889311D01*
X121611208Y-119131603D01*
X122460000Y-119980395D01*
X123308792Y-119131603D01*
X123233271Y-118889311D01*
X123406632Y-118773475D01*
X123613475Y-118566632D01*
X123730000Y-118392240D01*
X123846525Y-118566632D01*
X124053368Y-118773475D01*
X124227760Y-118890000D01*
X124053368Y-119006525D01*
X123846525Y-119213368D01*
X123730689Y-119386729D01*
X123488397Y-119311208D01*
X122639605Y-120160000D01*
X123488397Y-121008792D01*
X123730689Y-120933271D01*
X123846525Y-121106632D01*
X124053368Y-121313475D01*
X124227760Y-121430000D01*
X124053368Y-121546525D01*
X123846525Y-121753368D01*
X123730000Y-121927760D01*
X123613475Y-121753368D01*
X123406632Y-121546525D01*
X123233271Y-121430689D01*
X123308792Y-121188397D01*
X122460000Y-120339605D01*
X121611208Y-121188397D01*
X121686729Y-121430689D01*
X121513368Y-121546525D01*
X121306525Y-121753368D01*
X121144010Y-121996589D01*
X121032068Y-122266842D01*
X120975000Y-122553740D01*
X120975000Y-122846260D01*
X121032068Y-123133158D01*
X121144010Y-123403411D01*
X121306525Y-123646632D01*
X121513368Y-123853475D01*
X121687760Y-123970000D01*
X121513368Y-124086525D01*
X121306525Y-124293368D01*
X121144010Y-124536589D01*
X121032068Y-124806842D01*
X120975000Y-125093740D01*
X120975000Y-125386260D01*
X121032068Y-125673158D01*
X121144010Y-125943411D01*
X121306525Y-126186632D01*
X121513368Y-126393475D01*
X121687760Y-126510000D01*
X121513368Y-126626525D01*
X121306525Y-126833368D01*
X121144010Y-127076589D01*
X121032068Y-127346842D01*
X120975000Y-127633740D01*
X120975000Y-127926260D01*
X121032068Y-128213158D01*
X121144010Y-128483411D01*
X121306525Y-128726632D01*
X121513368Y-128933475D01*
X121756589Y-129095990D01*
X122026842Y-129207932D01*
X122313740Y-129265000D01*
X122606260Y-129265000D01*
X122893158Y-129207932D01*
X123163411Y-129095990D01*
X123406632Y-128933475D01*
X123613475Y-128726632D01*
X123730000Y-128552240D01*
X123846525Y-128726632D01*
X124053368Y-128933475D01*
X124296589Y-129095990D01*
X124566842Y-129207932D01*
X124853740Y-129265000D01*
X125146260Y-129265000D01*
X125433158Y-129207932D01*
X125703411Y-129095990D01*
X125946632Y-128933475D01*
X126153475Y-128726632D01*
X126315990Y-128483411D01*
X126427932Y-128213158D01*
X126485000Y-127926260D01*
X126485000Y-127633740D01*
X126427932Y-127346842D01*
X126315990Y-127076589D01*
X126153475Y-126833368D01*
X125946632Y-126626525D01*
X125772240Y-126510000D01*
X125946632Y-126393475D01*
X126153475Y-126186632D01*
X126315990Y-125943411D01*
X126359251Y-125838967D01*
X149865000Y-125838967D01*
X149865000Y-126161033D01*
X149927832Y-126476912D01*
X150051082Y-126774463D01*
X150230013Y-127042252D01*
X150457748Y-127269987D01*
X150725537Y-127448918D01*
X151023088Y-127572168D01*
X151338967Y-127635000D01*
X151661033Y-127635000D01*
X151976912Y-127572168D01*
X152274463Y-127448918D01*
X152542252Y-127269987D01*
X152769987Y-127042252D01*
X152948918Y-126774463D01*
X153072168Y-126476912D01*
X153135000Y-126161033D01*
X153135000Y-125838967D01*
X156365000Y-125838967D01*
X156365000Y-126161033D01*
X156427832Y-126476912D01*
X156551082Y-126774463D01*
X156730013Y-127042252D01*
X156957748Y-127269987D01*
X157225537Y-127448918D01*
X157523088Y-127572168D01*
X157838967Y-127635000D01*
X158161033Y-127635000D01*
X158476912Y-127572168D01*
X158774463Y-127448918D01*
X159042252Y-127269987D01*
X159269987Y-127042252D01*
X159448918Y-126774463D01*
X159572168Y-126476912D01*
X159635000Y-126161033D01*
X159635000Y-125838967D01*
X159572168Y-125523088D01*
X159448918Y-125225537D01*
X159269987Y-124957748D01*
X159042252Y-124730013D01*
X158774463Y-124551082D01*
X158476912Y-124427832D01*
X158161033Y-124365000D01*
X157838967Y-124365000D01*
X157523088Y-124427832D01*
X157225537Y-124551082D01*
X156957748Y-124730013D01*
X156730013Y-124957748D01*
X156551082Y-125225537D01*
X156427832Y-125523088D01*
X156365000Y-125838967D01*
X153135000Y-125838967D01*
X153072168Y-125523088D01*
X152948918Y-125225537D01*
X152769987Y-124957748D01*
X152542252Y-124730013D01*
X152274463Y-124551082D01*
X151976912Y-124427832D01*
X151661033Y-124365000D01*
X151338967Y-124365000D01*
X151023088Y-124427832D01*
X150725537Y-124551082D01*
X150457748Y-124730013D01*
X150230013Y-124957748D01*
X150051082Y-125225537D01*
X149927832Y-125523088D01*
X149865000Y-125838967D01*
X126359251Y-125838967D01*
X126427932Y-125673158D01*
X126485000Y-125386260D01*
X126485000Y-125093740D01*
X126427932Y-124806842D01*
X126315990Y-124536589D01*
X126153475Y-124293368D01*
X125946632Y-124086525D01*
X125772240Y-123970000D01*
X125946632Y-123853475D01*
X126153475Y-123646632D01*
X126315990Y-123403411D01*
X126427932Y-123133158D01*
X126485000Y-122846260D01*
X126485000Y-122635413D01*
X150544192Y-122635413D01*
X150639956Y-122899814D01*
X150929571Y-123040704D01*
X151241108Y-123122384D01*
X151562595Y-123141718D01*
X151881675Y-123097961D01*
X152186088Y-122992795D01*
X152360044Y-122899814D01*
X152455808Y-122635413D01*
X157044192Y-122635413D01*
X157139956Y-122899814D01*
X157429571Y-123040704D01*
X157741108Y-123122384D01*
X158062595Y-123141718D01*
X158381675Y-123097961D01*
X158686088Y-122992795D01*
X158860044Y-122899814D01*
X158955808Y-122635413D01*
X158000000Y-121679605D01*
X157044192Y-122635413D01*
X152455808Y-122635413D01*
X151500000Y-121679605D01*
X150544192Y-122635413D01*
X126485000Y-122635413D01*
X126485000Y-122553740D01*
X126427932Y-122266842D01*
X126315990Y-121996589D01*
X126153475Y-121753368D01*
X125962702Y-121562595D01*
X149858282Y-121562595D01*
X149902039Y-121881675D01*
X150007205Y-122186088D01*
X150100186Y-122360044D01*
X150364587Y-122455808D01*
X151320395Y-121500000D01*
X151679605Y-121500000D01*
X152635413Y-122455808D01*
X152899814Y-122360044D01*
X153040704Y-122070429D01*
X153122384Y-121758892D01*
X153134189Y-121562595D01*
X156358282Y-121562595D01*
X156402039Y-121881675D01*
X156507205Y-122186088D01*
X156600186Y-122360044D01*
X156864587Y-122455808D01*
X157820395Y-121500000D01*
X158179605Y-121500000D01*
X159135413Y-122455808D01*
X159399814Y-122360044D01*
X159540704Y-122070429D01*
X159622384Y-121758892D01*
X159641718Y-121437405D01*
X159597961Y-121118325D01*
X159492795Y-120813912D01*
X159399814Y-120639956D01*
X159135413Y-120544192D01*
X158179605Y-121500000D01*
X157820395Y-121500000D01*
X156864587Y-120544192D01*
X156600186Y-120639956D01*
X156459296Y-120929571D01*
X156377616Y-121241108D01*
X156358282Y-121562595D01*
X153134189Y-121562595D01*
X153141718Y-121437405D01*
X153097961Y-121118325D01*
X152992795Y-120813912D01*
X152899814Y-120639956D01*
X152635413Y-120544192D01*
X151679605Y-121500000D01*
X151320395Y-121500000D01*
X150364587Y-120544192D01*
X150100186Y-120639956D01*
X149959296Y-120929571D01*
X149877616Y-121241108D01*
X149858282Y-121562595D01*
X125962702Y-121562595D01*
X125946632Y-121546525D01*
X125772240Y-121430000D01*
X125946632Y-121313475D01*
X126153475Y-121106632D01*
X126315990Y-120863411D01*
X126427932Y-120593158D01*
X126473397Y-120364587D01*
X150544192Y-120364587D01*
X151500000Y-121320395D01*
X152455808Y-120364587D01*
X157044192Y-120364587D01*
X158000000Y-121320395D01*
X158955808Y-120364587D01*
X158860044Y-120100186D01*
X158601747Y-119974531D01*
X166689389Y-119974531D01*
X166731401Y-120264019D01*
X166829081Y-120539747D01*
X166902528Y-120677157D01*
X167151603Y-120754792D01*
X168000395Y-119906000D01*
X167151603Y-119057208D01*
X166902528Y-119134843D01*
X166776629Y-119398883D01*
X166704661Y-119682411D01*
X166689389Y-119974531D01*
X158601747Y-119974531D01*
X158570429Y-119959296D01*
X158258892Y-119877616D01*
X157937405Y-119858282D01*
X157618325Y-119902039D01*
X157313912Y-120007205D01*
X157139956Y-120100186D01*
X157044192Y-120364587D01*
X152455808Y-120364587D01*
X152360044Y-120100186D01*
X152070429Y-119959296D01*
X151758892Y-119877616D01*
X151437405Y-119858282D01*
X151118325Y-119902039D01*
X150813912Y-120007205D01*
X150639956Y-120100186D01*
X150544192Y-120364587D01*
X126473397Y-120364587D01*
X126485000Y-120306260D01*
X126485000Y-120013740D01*
X126427932Y-119726842D01*
X126315990Y-119456589D01*
X126153475Y-119213368D01*
X125946632Y-119006525D01*
X125772240Y-118890000D01*
X125946632Y-118773475D01*
X126153475Y-118566632D01*
X126315990Y-118323411D01*
X126427932Y-118053158D01*
X126485000Y-117766260D01*
X126485000Y-117473740D01*
X126427932Y-117186842D01*
X126315990Y-116916589D01*
X126153475Y-116673368D01*
X125946632Y-116466525D01*
X125772240Y-116350000D01*
X125946632Y-116233475D01*
X126153475Y-116026632D01*
X126315990Y-115783411D01*
X126427932Y-115513158D01*
X126485000Y-115226260D01*
X126485000Y-114933740D01*
X126427932Y-114646842D01*
X126315990Y-114376589D01*
X126153475Y-114133368D01*
X125946632Y-113926525D01*
X125772240Y-113810000D01*
X125946632Y-113693475D01*
X126153475Y-113486632D01*
X126315990Y-113243411D01*
X126427932Y-112973158D01*
X126485000Y-112686260D01*
X126485000Y-112393740D01*
X126427932Y-112106842D01*
X126315990Y-111836589D01*
X126153475Y-111593368D01*
X125946632Y-111386525D01*
X125772240Y-111270000D01*
X125946632Y-111153475D01*
X126153475Y-110946632D01*
X126315990Y-110703411D01*
X126427932Y-110433158D01*
X126485000Y-110146260D01*
X126485000Y-109853740D01*
X126427932Y-109566842D01*
X126315990Y-109296589D01*
X126153475Y-109053368D01*
X125946632Y-108846525D01*
X125772240Y-108730000D01*
X125946632Y-108613475D01*
X126153475Y-108406632D01*
X126315990Y-108163411D01*
X126427932Y-107893158D01*
X126485000Y-107606260D01*
X126485000Y-107313740D01*
X126477201Y-107274531D01*
X166689389Y-107274531D01*
X166731401Y-107564019D01*
X166829081Y-107839747D01*
X166902528Y-107977157D01*
X167151603Y-108054792D01*
X168000395Y-107206000D01*
X167151603Y-106357208D01*
X166902528Y-106434843D01*
X166776629Y-106698883D01*
X166704661Y-106982411D01*
X166689389Y-107274531D01*
X126477201Y-107274531D01*
X126427932Y-107026842D01*
X126315990Y-106756589D01*
X126153475Y-106513368D01*
X125946632Y-106306525D01*
X125773271Y-106190689D01*
X125848792Y-105948397D01*
X125000000Y-105099605D01*
X124151208Y-105948397D01*
X124226729Y-106190689D01*
X124053368Y-106306525D01*
X123846525Y-106513368D01*
X123730000Y-106687760D01*
X123613475Y-106513368D01*
X123406632Y-106306525D01*
X123232240Y-106190000D01*
X123406632Y-106073475D01*
X123613475Y-105866632D01*
X123729311Y-105693271D01*
X123971603Y-105768792D01*
X124820395Y-104920000D01*
X125179605Y-104920000D01*
X126028397Y-105768792D01*
X126277472Y-105691157D01*
X126403371Y-105427117D01*
X126475339Y-105143589D01*
X126490611Y-104851469D01*
X126448599Y-104561981D01*
X126350919Y-104286253D01*
X126277472Y-104148843D01*
X126028397Y-104071208D01*
X125179605Y-104920000D01*
X124820395Y-104920000D01*
X123971603Y-104071208D01*
X123729311Y-104146729D01*
X123613475Y-103973368D01*
X123406632Y-103766525D01*
X123232240Y-103650000D01*
X123406632Y-103533475D01*
X123613475Y-103326632D01*
X123730000Y-103152240D01*
X123846525Y-103326632D01*
X124053368Y-103533475D01*
X124226729Y-103649311D01*
X124151208Y-103891603D01*
X125000000Y-104740395D01*
X125848792Y-103891603D01*
X125773271Y-103649311D01*
X125946632Y-103533475D01*
X126153475Y-103326632D01*
X126315990Y-103083411D01*
X126427932Y-102813158D01*
X126485000Y-102526260D01*
X126485000Y-102233740D01*
X126427932Y-101946842D01*
X126315990Y-101676589D01*
X126153475Y-101433368D01*
X125946632Y-101226525D01*
X125772240Y-101110000D01*
X125946632Y-100993475D01*
X126153475Y-100786632D01*
X126315990Y-100543411D01*
X126427932Y-100273158D01*
X126485000Y-99986260D01*
X126485000Y-99693740D01*
X126427932Y-99406842D01*
X126326211Y-99161263D01*
X140519200Y-99161263D01*
X140519200Y-99365141D01*
X140558974Y-99565100D01*
X140636995Y-99753458D01*
X140750263Y-99922976D01*
X140794201Y-99966914D01*
X140794200Y-102521289D01*
X140750263Y-102565226D01*
X140636995Y-102734744D01*
X140558974Y-102923102D01*
X140519200Y-103123061D01*
X140519200Y-103326939D01*
X140558974Y-103526898D01*
X140636995Y-103715256D01*
X140750263Y-103884774D01*
X140894426Y-104028937D01*
X141063944Y-104142205D01*
X141252302Y-104220226D01*
X141452261Y-104260000D01*
X141656139Y-104260000D01*
X141856098Y-104220226D01*
X142044456Y-104142205D01*
X142213974Y-104028937D01*
X142358137Y-103884774D01*
X142471405Y-103715256D01*
X142549426Y-103526898D01*
X142589200Y-103326939D01*
X142589200Y-103123061D01*
X142549426Y-102923102D01*
X142471405Y-102734744D01*
X142358137Y-102565226D01*
X142314200Y-102521289D01*
X142314200Y-99966913D01*
X142358137Y-99922976D01*
X142471405Y-99753458D01*
X142549426Y-99565100D01*
X142589200Y-99365141D01*
X142589200Y-99161263D01*
X142549426Y-98961304D01*
X142471405Y-98772946D01*
X142358137Y-98603428D01*
X142213974Y-98459265D01*
X142044456Y-98345997D01*
X141856098Y-98267976D01*
X141656139Y-98228202D01*
X141452261Y-98228202D01*
X141252302Y-98267976D01*
X141063944Y-98345997D01*
X140894426Y-98459265D01*
X140750263Y-98603428D01*
X140636995Y-98772946D01*
X140558974Y-98961304D01*
X140519200Y-99161263D01*
X126326211Y-99161263D01*
X126315990Y-99136589D01*
X126153475Y-98893368D01*
X125946632Y-98686525D01*
X125772240Y-98570000D01*
X125946632Y-98453475D01*
X126153475Y-98246632D01*
X126315990Y-98003411D01*
X126427932Y-97733158D01*
X126485000Y-97446260D01*
X126485000Y-97153740D01*
X126427932Y-96866842D01*
X126315990Y-96596589D01*
X126153475Y-96353368D01*
X125946632Y-96146525D01*
X125772240Y-96030000D01*
X125946632Y-95913475D01*
X126153475Y-95706632D01*
X126315990Y-95463411D01*
X126320359Y-95452861D01*
X158908800Y-95452861D01*
X158908800Y-95656739D01*
X158948574Y-95856698D01*
X159026595Y-96045056D01*
X159139863Y-96214574D01*
X159284026Y-96358737D01*
X159453544Y-96472005D01*
X159485055Y-96485058D01*
X159483795Y-96486944D01*
X159405774Y-96675302D01*
X159366000Y-96875261D01*
X159366000Y-97079139D01*
X159405774Y-97279098D01*
X159470274Y-97434815D01*
X159470063Y-97435026D01*
X159356795Y-97604544D01*
X159278774Y-97792902D01*
X159239000Y-97992861D01*
X159239000Y-98196739D01*
X159278774Y-98396698D01*
X159356795Y-98585056D01*
X159470063Y-98754574D01*
X159614226Y-98898737D01*
X159783744Y-99012005D01*
X159972102Y-99090026D01*
X160172061Y-99129800D01*
X160375939Y-99129800D01*
X160575898Y-99090026D01*
X160764256Y-99012005D01*
X160933774Y-98898737D01*
X160977711Y-98854800D01*
X162415091Y-98854800D01*
X162459028Y-98898737D01*
X162628546Y-99012005D01*
X162816904Y-99090026D01*
X163016863Y-99129800D01*
X163220741Y-99129800D01*
X163420700Y-99090026D01*
X163609058Y-99012005D01*
X163778576Y-98898737D01*
X163922739Y-98754574D01*
X164036007Y-98585056D01*
X164114028Y-98396698D01*
X164153802Y-98196739D01*
X164153802Y-98170661D01*
X164903200Y-98170661D01*
X164903200Y-98374539D01*
X164942974Y-98574498D01*
X165020995Y-98762856D01*
X165134263Y-98932374D01*
X165278426Y-99076537D01*
X165447944Y-99189805D01*
X165636302Y-99267826D01*
X165836261Y-99307600D01*
X166040139Y-99307600D01*
X166240098Y-99267826D01*
X166428456Y-99189805D01*
X166597974Y-99076537D01*
X166641911Y-99032600D01*
X166801874Y-99032600D01*
X166752068Y-99152842D01*
X166695000Y-99439740D01*
X166695000Y-99732260D01*
X166752068Y-100019158D01*
X166864010Y-100289411D01*
X167026525Y-100532632D01*
X167233368Y-100739475D01*
X167407760Y-100856000D01*
X167233368Y-100972525D01*
X167026525Y-101179368D01*
X166864010Y-101422589D01*
X166752068Y-101692842D01*
X166695000Y-101979740D01*
X166695000Y-102272260D01*
X166752068Y-102559158D01*
X166864010Y-102829411D01*
X167026525Y-103072632D01*
X167233368Y-103279475D01*
X167407760Y-103396000D01*
X167233368Y-103512525D01*
X167026525Y-103719368D01*
X166864010Y-103962589D01*
X166752068Y-104232842D01*
X166695000Y-104519740D01*
X166695000Y-104812260D01*
X166752068Y-105099158D01*
X166864010Y-105369411D01*
X167026525Y-105612632D01*
X167233368Y-105819475D01*
X167406729Y-105935311D01*
X167331208Y-106177603D01*
X168180000Y-107026395D01*
X169028792Y-106177603D01*
X168953271Y-105935311D01*
X169126632Y-105819475D01*
X169333475Y-105612632D01*
X169450000Y-105438240D01*
X169566525Y-105612632D01*
X169773368Y-105819475D01*
X169947760Y-105936000D01*
X169773368Y-106052525D01*
X169566525Y-106259368D01*
X169450689Y-106432729D01*
X169208397Y-106357208D01*
X168359605Y-107206000D01*
X169208397Y-108054792D01*
X169450689Y-107979271D01*
X169566525Y-108152632D01*
X169773368Y-108359475D01*
X169947760Y-108476000D01*
X169773368Y-108592525D01*
X169566525Y-108799368D01*
X169450000Y-108973760D01*
X169333475Y-108799368D01*
X169126632Y-108592525D01*
X168953271Y-108476689D01*
X169028792Y-108234397D01*
X168180000Y-107385605D01*
X167331208Y-108234397D01*
X167406729Y-108476689D01*
X167233368Y-108592525D01*
X167026525Y-108799368D01*
X166864010Y-109042589D01*
X166752068Y-109312842D01*
X166695000Y-109599740D01*
X166695000Y-109892260D01*
X166752068Y-110179158D01*
X166864010Y-110449411D01*
X167026525Y-110692632D01*
X167233368Y-110899475D01*
X167407760Y-111016000D01*
X167233368Y-111132525D01*
X167026525Y-111339368D01*
X166864010Y-111582589D01*
X166752068Y-111852842D01*
X166695000Y-112139740D01*
X166695000Y-112432260D01*
X166752068Y-112719158D01*
X166864010Y-112989411D01*
X167026525Y-113232632D01*
X167233368Y-113439475D01*
X167407760Y-113556000D01*
X167233368Y-113672525D01*
X167026525Y-113879368D01*
X166864010Y-114122589D01*
X166752068Y-114392842D01*
X166695000Y-114679740D01*
X166695000Y-114972260D01*
X166752068Y-115259158D01*
X166864010Y-115529411D01*
X167026525Y-115772632D01*
X167233368Y-115979475D01*
X167407760Y-116096000D01*
X167233368Y-116212525D01*
X167026525Y-116419368D01*
X166864010Y-116662589D01*
X166752068Y-116932842D01*
X166695000Y-117219740D01*
X166695000Y-117512260D01*
X166752068Y-117799158D01*
X166864010Y-118069411D01*
X167026525Y-118312632D01*
X167233368Y-118519475D01*
X167406729Y-118635311D01*
X167331208Y-118877603D01*
X168180000Y-119726395D01*
X169028792Y-118877603D01*
X168953271Y-118635311D01*
X169126632Y-118519475D01*
X169333475Y-118312632D01*
X169450000Y-118138240D01*
X169566525Y-118312632D01*
X169773368Y-118519475D01*
X169947760Y-118636000D01*
X169773368Y-118752525D01*
X169566525Y-118959368D01*
X169450689Y-119132729D01*
X169208397Y-119057208D01*
X168359605Y-119906000D01*
X169208397Y-120754792D01*
X169450689Y-120679271D01*
X169566525Y-120852632D01*
X169773368Y-121059475D01*
X169947760Y-121176000D01*
X169773368Y-121292525D01*
X169566525Y-121499368D01*
X169450000Y-121673760D01*
X169333475Y-121499368D01*
X169126632Y-121292525D01*
X168953271Y-121176689D01*
X169028792Y-120934397D01*
X168180000Y-120085605D01*
X167331208Y-120934397D01*
X167406729Y-121176689D01*
X167233368Y-121292525D01*
X167026525Y-121499368D01*
X166864010Y-121742589D01*
X166752068Y-122012842D01*
X166695000Y-122299740D01*
X166695000Y-122592260D01*
X166752068Y-122879158D01*
X166864010Y-123149411D01*
X167026525Y-123392632D01*
X167233368Y-123599475D01*
X167407760Y-123716000D01*
X167233368Y-123832525D01*
X167026525Y-124039368D01*
X166864010Y-124282589D01*
X166752068Y-124552842D01*
X166695000Y-124839740D01*
X166695000Y-125132260D01*
X166752068Y-125419158D01*
X166864010Y-125689411D01*
X167026525Y-125932632D01*
X167233368Y-126139475D01*
X167407760Y-126256000D01*
X167233368Y-126372525D01*
X167026525Y-126579368D01*
X166864010Y-126822589D01*
X166752068Y-127092842D01*
X166695000Y-127379740D01*
X166695000Y-127672260D01*
X166752068Y-127959158D01*
X166864010Y-128229411D01*
X167026525Y-128472632D01*
X167233368Y-128679475D01*
X167476589Y-128841990D01*
X167746842Y-128953932D01*
X168033740Y-129011000D01*
X168326260Y-129011000D01*
X168613158Y-128953932D01*
X168883411Y-128841990D01*
X169126632Y-128679475D01*
X169333475Y-128472632D01*
X169450000Y-128298240D01*
X169566525Y-128472632D01*
X169773368Y-128679475D01*
X170016589Y-128841990D01*
X170286842Y-128953932D01*
X170573740Y-129011000D01*
X170866260Y-129011000D01*
X171153158Y-128953932D01*
X171423411Y-128841990D01*
X171666632Y-128679475D01*
X171873475Y-128472632D01*
X172035990Y-128229411D01*
X172147932Y-127959158D01*
X172205000Y-127672260D01*
X172205000Y-127379740D01*
X172151544Y-127110999D01*
X173889898Y-127110999D01*
X174065861Y-127146000D01*
X174269739Y-127146000D01*
X174469698Y-127106226D01*
X174658056Y-127028205D01*
X174827574Y-126914937D01*
X174971737Y-126770774D01*
X175085005Y-126601256D01*
X175163026Y-126412898D01*
X175202800Y-126212939D01*
X175202800Y-126009061D01*
X175163026Y-125809102D01*
X175085005Y-125620744D01*
X174971737Y-125451226D01*
X174827574Y-125307063D01*
X174658056Y-125193795D01*
X174469698Y-125115774D01*
X174269739Y-125076000D01*
X174065861Y-125076000D01*
X173865902Y-125115774D01*
X173677544Y-125193795D01*
X173508026Y-125307063D01*
X173363863Y-125451226D01*
X173270470Y-125590999D01*
X172076753Y-125590999D01*
X172147932Y-125419158D01*
X172205000Y-125132260D01*
X172205000Y-124839740D01*
X172147932Y-124552842D01*
X172087605Y-124407200D01*
X174530889Y-124407200D01*
X174574826Y-124451137D01*
X174744344Y-124564405D01*
X174932702Y-124642426D01*
X175132661Y-124682200D01*
X175336539Y-124682200D01*
X175536498Y-124642426D01*
X175724856Y-124564405D01*
X175894374Y-124451137D01*
X176038537Y-124306974D01*
X176151805Y-124137456D01*
X176229826Y-123949098D01*
X176269600Y-123749139D01*
X176269600Y-123545261D01*
X176229826Y-123345302D01*
X176151805Y-123156944D01*
X176038537Y-122987426D01*
X175894374Y-122843263D01*
X175724856Y-122729995D01*
X175536498Y-122651974D01*
X175336539Y-122612200D01*
X175132661Y-122612200D01*
X174932702Y-122651974D01*
X174744344Y-122729995D01*
X174574826Y-122843263D01*
X174530889Y-122887200D01*
X172144601Y-122887200D01*
X172147932Y-122879158D01*
X172205000Y-122592260D01*
X172205000Y-122299740D01*
X172147932Y-122012842D01*
X172035990Y-121742589D01*
X171873475Y-121499368D01*
X171666632Y-121292525D01*
X171492240Y-121176000D01*
X171666632Y-121059475D01*
X171873475Y-120852632D01*
X172035990Y-120609411D01*
X172147932Y-120339158D01*
X172205000Y-120052260D01*
X172205000Y-119759740D01*
X172147932Y-119472842D01*
X172035990Y-119202589D01*
X171873475Y-118959368D01*
X171666632Y-118752525D01*
X171492240Y-118636000D01*
X171666632Y-118519475D01*
X171873475Y-118312632D01*
X172035990Y-118069411D01*
X172147932Y-117799158D01*
X172205000Y-117512260D01*
X172205000Y-117219740D01*
X172147932Y-116932842D01*
X172035990Y-116662589D01*
X171873475Y-116419368D01*
X171666632Y-116212525D01*
X171492240Y-116096000D01*
X171666632Y-115979475D01*
X171873475Y-115772632D01*
X172035990Y-115529411D01*
X172147932Y-115259158D01*
X172205000Y-114972260D01*
X172205000Y-114679740D01*
X172147932Y-114392842D01*
X172035990Y-114122589D01*
X171873475Y-113879368D01*
X171666632Y-113672525D01*
X171493271Y-113556689D01*
X171568792Y-113314397D01*
X170720000Y-112465605D01*
X169871208Y-113314397D01*
X169946729Y-113556689D01*
X169773368Y-113672525D01*
X169566525Y-113879368D01*
X169450000Y-114053760D01*
X169333475Y-113879368D01*
X169126632Y-113672525D01*
X168952240Y-113556000D01*
X169126632Y-113439475D01*
X169333475Y-113232632D01*
X169449311Y-113059271D01*
X169691603Y-113134792D01*
X170540395Y-112286000D01*
X170899605Y-112286000D01*
X171748397Y-113134792D01*
X171997472Y-113057157D01*
X172123371Y-112793117D01*
X172195339Y-112509589D01*
X172210611Y-112217469D01*
X172168599Y-111927981D01*
X172070919Y-111652253D01*
X171997472Y-111514843D01*
X171748397Y-111437208D01*
X170899605Y-112286000D01*
X170540395Y-112286000D01*
X169691603Y-111437208D01*
X169449311Y-111512729D01*
X169333475Y-111339368D01*
X169126632Y-111132525D01*
X168952240Y-111016000D01*
X169126632Y-110899475D01*
X169333475Y-110692632D01*
X169450000Y-110518240D01*
X169566525Y-110692632D01*
X169773368Y-110899475D01*
X169946729Y-111015311D01*
X169871208Y-111257603D01*
X170720000Y-112106395D01*
X171568792Y-111257603D01*
X171493271Y-111015311D01*
X171666632Y-110899475D01*
X171873475Y-110692632D01*
X172035990Y-110449411D01*
X172147932Y-110179158D01*
X172205000Y-109892260D01*
X172205000Y-109599740D01*
X172147932Y-109312842D01*
X172035990Y-109042589D01*
X171873475Y-108799368D01*
X171666632Y-108592525D01*
X171492240Y-108476000D01*
X171666632Y-108359475D01*
X171873475Y-108152632D01*
X172035990Y-107909411D01*
X172147932Y-107639158D01*
X172205000Y-107352260D01*
X172205000Y-107059740D01*
X172147932Y-106772842D01*
X172035990Y-106502589D01*
X171873475Y-106259368D01*
X171666632Y-106052525D01*
X171492240Y-105936000D01*
X171666632Y-105819475D01*
X171873475Y-105612632D01*
X172035990Y-105369411D01*
X172147932Y-105099158D01*
X172205000Y-104812260D01*
X172205000Y-104519740D01*
X172147932Y-104232842D01*
X172035990Y-103962589D01*
X171873475Y-103719368D01*
X171666632Y-103512525D01*
X171492240Y-103396000D01*
X171666632Y-103279475D01*
X171873475Y-103072632D01*
X172035990Y-102829411D01*
X172147932Y-102559158D01*
X172205000Y-102272260D01*
X172205000Y-101979740D01*
X172147932Y-101692842D01*
X172035990Y-101422589D01*
X171873475Y-101179368D01*
X171666632Y-100972525D01*
X171492240Y-100856000D01*
X171666632Y-100739475D01*
X171873475Y-100532632D01*
X172035990Y-100289411D01*
X172147932Y-100019158D01*
X172205000Y-99732260D01*
X172205000Y-99439740D01*
X172147932Y-99152842D01*
X172098126Y-99032600D01*
X175648489Y-99032600D01*
X175692426Y-99076537D01*
X175861944Y-99189805D01*
X176050302Y-99267826D01*
X176250261Y-99307600D01*
X176454139Y-99307600D01*
X176654098Y-99267826D01*
X176842456Y-99189805D01*
X177011974Y-99076537D01*
X177156137Y-98932374D01*
X177269405Y-98762856D01*
X177347426Y-98574498D01*
X177387200Y-98374539D01*
X177387200Y-98170661D01*
X177347426Y-97970702D01*
X177269405Y-97782344D01*
X177156137Y-97612826D01*
X177011974Y-97468663D01*
X176842456Y-97355395D01*
X176654098Y-97277374D01*
X176454139Y-97237600D01*
X176250261Y-97237600D01*
X176050302Y-97277374D01*
X175861944Y-97355395D01*
X175692426Y-97468663D01*
X175648489Y-97512600D01*
X172134080Y-97512600D01*
X172147932Y-97479158D01*
X172205000Y-97192260D01*
X172205000Y-96899740D01*
X172147932Y-96612842D01*
X172098126Y-96492600D01*
X174835689Y-96492600D01*
X174879626Y-96536537D01*
X175049144Y-96649805D01*
X175237502Y-96727826D01*
X175437461Y-96767600D01*
X175641339Y-96767600D01*
X175841298Y-96727826D01*
X176029656Y-96649805D01*
X176199174Y-96536537D01*
X176343337Y-96392374D01*
X176456605Y-96222856D01*
X176534626Y-96034498D01*
X176574400Y-95834539D01*
X176574400Y-95630661D01*
X176534626Y-95430702D01*
X176456605Y-95242344D01*
X176343337Y-95072826D01*
X176199174Y-94928663D01*
X176029656Y-94815395D01*
X175841298Y-94737374D01*
X175641339Y-94697600D01*
X175437461Y-94697600D01*
X175237502Y-94737374D01*
X175049144Y-94815395D01*
X174879626Y-94928663D01*
X174835689Y-94972600D01*
X172134080Y-94972600D01*
X172147932Y-94939158D01*
X172205000Y-94652260D01*
X172205000Y-94359740D01*
X172147932Y-94072842D01*
X172035990Y-93802589D01*
X171873475Y-93559368D01*
X171666632Y-93352525D01*
X171492240Y-93236000D01*
X171666632Y-93119475D01*
X171873475Y-92912632D01*
X172035990Y-92669411D01*
X172147932Y-92399158D01*
X172205000Y-92112260D01*
X172205000Y-91819740D01*
X172147932Y-91532842D01*
X172035990Y-91262589D01*
X171873475Y-91019368D01*
X171666632Y-90812525D01*
X171492240Y-90696000D01*
X171666632Y-90579475D01*
X171873475Y-90372632D01*
X172035990Y-90129411D01*
X172147932Y-89859158D01*
X172205000Y-89572260D01*
X172205000Y-89279740D01*
X172147932Y-88992842D01*
X172035990Y-88722589D01*
X171873475Y-88479368D01*
X171666632Y-88272525D01*
X171492240Y-88156000D01*
X171666632Y-88039475D01*
X171873475Y-87832632D01*
X172035990Y-87589411D01*
X172147932Y-87319158D01*
X172205000Y-87032260D01*
X172205000Y-86739740D01*
X172147932Y-86452842D01*
X172035990Y-86182589D01*
X171873475Y-85939368D01*
X171666632Y-85732525D01*
X171423411Y-85570010D01*
X171153158Y-85458068D01*
X170866260Y-85401000D01*
X170573740Y-85401000D01*
X170286842Y-85458068D01*
X170016589Y-85570010D01*
X169773368Y-85732525D01*
X169566525Y-85939368D01*
X169450000Y-86113760D01*
X169333475Y-85939368D01*
X169126632Y-85732525D01*
X168883411Y-85570010D01*
X168613158Y-85458068D01*
X168326260Y-85401000D01*
X168033740Y-85401000D01*
X167746842Y-85458068D01*
X167476589Y-85570010D01*
X167233368Y-85732525D01*
X167026525Y-85939368D01*
X166864010Y-86182589D01*
X166752068Y-86452842D01*
X166695000Y-86739740D01*
X166695000Y-87032260D01*
X166752068Y-87319158D01*
X166864010Y-87589411D01*
X167026525Y-87832632D01*
X167233368Y-88039475D01*
X167407760Y-88156000D01*
X167233368Y-88272525D01*
X167026525Y-88479368D01*
X166864010Y-88722589D01*
X166752068Y-88992842D01*
X166695000Y-89279740D01*
X166695000Y-89572260D01*
X166752068Y-89859158D01*
X166864010Y-90129411D01*
X167026525Y-90372632D01*
X167233368Y-90579475D01*
X167406729Y-90695311D01*
X167331208Y-90937603D01*
X168180000Y-91786395D01*
X169028792Y-90937603D01*
X168953271Y-90695311D01*
X169126632Y-90579475D01*
X169333475Y-90372632D01*
X169450000Y-90198240D01*
X169566525Y-90372632D01*
X169773368Y-90579475D01*
X169947760Y-90696000D01*
X169773368Y-90812525D01*
X169566525Y-91019368D01*
X169450689Y-91192729D01*
X169208397Y-91117208D01*
X168359605Y-91966000D01*
X169208397Y-92814792D01*
X169450689Y-92739271D01*
X169566525Y-92912632D01*
X169773368Y-93119475D01*
X169947760Y-93236000D01*
X169773368Y-93352525D01*
X169566525Y-93559368D01*
X169450000Y-93733760D01*
X169333475Y-93559368D01*
X169126632Y-93352525D01*
X168953271Y-93236689D01*
X169028792Y-92994397D01*
X168180000Y-92145605D01*
X167331208Y-92994397D01*
X167406729Y-93236689D01*
X167233368Y-93352525D01*
X167026525Y-93559368D01*
X166864010Y-93802589D01*
X166752068Y-94072842D01*
X166695000Y-94359740D01*
X166695000Y-94652260D01*
X166699007Y-94672403D01*
X166671898Y-94661174D01*
X166471939Y-94621400D01*
X166268061Y-94621400D01*
X166068102Y-94661174D01*
X165879744Y-94739195D01*
X165710226Y-94852463D01*
X165566063Y-94996626D01*
X165452795Y-95166144D01*
X165374774Y-95354502D01*
X165335000Y-95554461D01*
X165335000Y-95758339D01*
X165374774Y-95958298D01*
X165452795Y-96146656D01*
X165566063Y-96316174D01*
X165710226Y-96460337D01*
X165879744Y-96573605D01*
X166068102Y-96651626D01*
X166268061Y-96691400D01*
X166471939Y-96691400D01*
X166671898Y-96651626D01*
X166750859Y-96618919D01*
X166695000Y-96899740D01*
X166695000Y-97192260D01*
X166752068Y-97479158D01*
X166765920Y-97512600D01*
X166641911Y-97512600D01*
X166597974Y-97468663D01*
X166428456Y-97355395D01*
X166240098Y-97277374D01*
X166040139Y-97237600D01*
X165836261Y-97237600D01*
X165636302Y-97277374D01*
X165447944Y-97355395D01*
X165278426Y-97468663D01*
X165134263Y-97612826D01*
X165020995Y-97782344D01*
X164942974Y-97970702D01*
X164903200Y-98170661D01*
X164153802Y-98170661D01*
X164153802Y-97992861D01*
X164117326Y-97809481D01*
X164235774Y-97730337D01*
X164379937Y-97586174D01*
X164493205Y-97416656D01*
X164571226Y-97228298D01*
X164611000Y-97028339D01*
X164611000Y-96824461D01*
X164571226Y-96624502D01*
X164493205Y-96436144D01*
X164379937Y-96266626D01*
X164235774Y-96122463D01*
X164066256Y-96009195D01*
X163877898Y-95931174D01*
X163773375Y-95910383D01*
X163785000Y-95851939D01*
X163785000Y-95648061D01*
X163745226Y-95448102D01*
X163667205Y-95259744D01*
X163553937Y-95090226D01*
X163409774Y-94946063D01*
X163240256Y-94832795D01*
X163051898Y-94754774D01*
X162851939Y-94715000D01*
X162648061Y-94715000D01*
X162448102Y-94754774D01*
X162259744Y-94832795D01*
X162090226Y-94946063D01*
X162046289Y-94990000D01*
X160811196Y-94990000D01*
X160747737Y-94895026D01*
X160603574Y-94750863D01*
X160434056Y-94637595D01*
X160245698Y-94559574D01*
X160045739Y-94519800D01*
X159841861Y-94519800D01*
X159641902Y-94559574D01*
X159453544Y-94637595D01*
X159284026Y-94750863D01*
X159139863Y-94895026D01*
X159026595Y-95064544D01*
X158948574Y-95252902D01*
X158908800Y-95452861D01*
X126320359Y-95452861D01*
X126427932Y-95193158D01*
X126485000Y-94906260D01*
X126485000Y-94613740D01*
X126427932Y-94326842D01*
X126315990Y-94056589D01*
X126153475Y-93813368D01*
X125946632Y-93606525D01*
X125772240Y-93490000D01*
X125946632Y-93373475D01*
X126153475Y-93166632D01*
X126315990Y-92923411D01*
X126427932Y-92653158D01*
X126485000Y-92366260D01*
X126485000Y-92150861D01*
X138309400Y-92150861D01*
X138309400Y-92354739D01*
X138349174Y-92554698D01*
X138427195Y-92743056D01*
X138540463Y-92912574D01*
X138684626Y-93056737D01*
X138854144Y-93170005D01*
X139042502Y-93248026D01*
X139242461Y-93287800D01*
X139446339Y-93287800D01*
X139646298Y-93248026D01*
X139834656Y-93170005D01*
X140004174Y-93056737D01*
X140148337Y-92912574D01*
X140261605Y-92743056D01*
X140339626Y-92554698D01*
X140379400Y-92354739D01*
X140379400Y-92150861D01*
X140379229Y-92150000D01*
X141011928Y-92150000D01*
X141011928Y-93850000D01*
X141024188Y-93974482D01*
X141060498Y-94094180D01*
X141119463Y-94204494D01*
X141198815Y-94301185D01*
X141295506Y-94380537D01*
X141405820Y-94439502D01*
X141525518Y-94475812D01*
X141650000Y-94488072D01*
X143350000Y-94488072D01*
X143474482Y-94475812D01*
X143594180Y-94439502D01*
X143704494Y-94380537D01*
X143801185Y-94301185D01*
X143880537Y-94204494D01*
X143939502Y-94094180D01*
X143963966Y-94013534D01*
X144039731Y-94097588D01*
X144273080Y-94271641D01*
X144535901Y-94396825D01*
X144683110Y-94441476D01*
X144913000Y-94320155D01*
X144913000Y-93127000D01*
X144893000Y-93127000D01*
X144893000Y-92873000D01*
X144913000Y-92873000D01*
X144913000Y-91679845D01*
X145167000Y-91679845D01*
X145167000Y-92873000D01*
X145187000Y-92873000D01*
X145187000Y-93127000D01*
X145167000Y-93127000D01*
X145167000Y-94320155D01*
X145396890Y-94441476D01*
X145544099Y-94396825D01*
X145806920Y-94271641D01*
X146040269Y-94097588D01*
X146235178Y-93881355D01*
X146304805Y-93764466D01*
X146426525Y-93946632D01*
X146633368Y-94153475D01*
X146876589Y-94315990D01*
X147146842Y-94427932D01*
X147433740Y-94485000D01*
X147726260Y-94485000D01*
X148013158Y-94427932D01*
X148283411Y-94315990D01*
X148526632Y-94153475D01*
X148733475Y-93946632D01*
X148850000Y-93772240D01*
X148966525Y-93946632D01*
X149173368Y-94153475D01*
X149416589Y-94315990D01*
X149686842Y-94427932D01*
X149973740Y-94485000D01*
X150266260Y-94485000D01*
X150553158Y-94427932D01*
X150823411Y-94315990D01*
X151066632Y-94153475D01*
X151273475Y-93946632D01*
X151435990Y-93703411D01*
X151547932Y-93433158D01*
X151605000Y-93146260D01*
X151605000Y-92853740D01*
X151547932Y-92566842D01*
X151435990Y-92296589D01*
X151273475Y-92053368D01*
X151254638Y-92034531D01*
X166689389Y-92034531D01*
X166731401Y-92324019D01*
X166829081Y-92599747D01*
X166902528Y-92737157D01*
X167151603Y-92814792D01*
X168000395Y-91966000D01*
X167151603Y-91117208D01*
X166902528Y-91194843D01*
X166776629Y-91458883D01*
X166704661Y-91742411D01*
X166689389Y-92034531D01*
X151254638Y-92034531D01*
X151066632Y-91846525D01*
X150823411Y-91684010D01*
X150553158Y-91572068D01*
X150266260Y-91515000D01*
X150046292Y-91515000D01*
X150142205Y-91371456D01*
X150220226Y-91183098D01*
X150260000Y-90983139D01*
X150260000Y-90779261D01*
X150220226Y-90579302D01*
X150142205Y-90390944D01*
X150028937Y-90221426D01*
X149985000Y-90177489D01*
X149985000Y-89324311D01*
X150028937Y-89280374D01*
X150142205Y-89110856D01*
X150220226Y-88922498D01*
X150260000Y-88722539D01*
X150260000Y-88518661D01*
X150220226Y-88318702D01*
X150142205Y-88130344D01*
X150028937Y-87960826D01*
X149884774Y-87816663D01*
X149715256Y-87703395D01*
X149526898Y-87625374D01*
X149326939Y-87585600D01*
X149123061Y-87585600D01*
X148923102Y-87625374D01*
X148734744Y-87703395D01*
X148565226Y-87816663D01*
X148421063Y-87960826D01*
X148307795Y-88130344D01*
X148229774Y-88318702D01*
X148190000Y-88518661D01*
X148190000Y-88722539D01*
X148229774Y-88922498D01*
X148307795Y-89110856D01*
X148421063Y-89280374D01*
X148465001Y-89324312D01*
X148465000Y-90177489D01*
X148421063Y-90221426D01*
X148307795Y-90390944D01*
X148229774Y-90579302D01*
X148190000Y-90779261D01*
X148190000Y-90983139D01*
X148229774Y-91183098D01*
X148307795Y-91371456D01*
X148421063Y-91540974D01*
X148565226Y-91685137D01*
X148734744Y-91798405D01*
X148923102Y-91876426D01*
X149106906Y-91912987D01*
X148966525Y-92053368D01*
X148850000Y-92227760D01*
X148733475Y-92053368D01*
X148526632Y-91846525D01*
X148283411Y-91684010D01*
X148013158Y-91572068D01*
X147726260Y-91515000D01*
X147433740Y-91515000D01*
X147146842Y-91572068D01*
X146876589Y-91684010D01*
X146633368Y-91846525D01*
X146426525Y-92053368D01*
X146304805Y-92235534D01*
X146235178Y-92118645D01*
X146040269Y-91902412D01*
X145806920Y-91728359D01*
X145544099Y-91603175D01*
X145396890Y-91558524D01*
X145167000Y-91679845D01*
X144913000Y-91679845D01*
X144683110Y-91558524D01*
X144535901Y-91603175D01*
X144273080Y-91728359D01*
X144039731Y-91902412D01*
X143963966Y-91986466D01*
X143939502Y-91905820D01*
X143880537Y-91795506D01*
X143801185Y-91698815D01*
X143704494Y-91619463D01*
X143594180Y-91560498D01*
X143474482Y-91524188D01*
X143350000Y-91511928D01*
X141650000Y-91511928D01*
X141525518Y-91524188D01*
X141405820Y-91560498D01*
X141295506Y-91619463D01*
X141198815Y-91698815D01*
X141119463Y-91795506D01*
X141060498Y-91905820D01*
X141024188Y-92025518D01*
X141011928Y-92150000D01*
X140379229Y-92150000D01*
X140339626Y-91950902D01*
X140261605Y-91762544D01*
X140148337Y-91593026D01*
X140104400Y-91549089D01*
X140104400Y-91043601D01*
X140349401Y-90798600D01*
X140411539Y-90798600D01*
X140611498Y-90758826D01*
X140799856Y-90680805D01*
X140969374Y-90567537D01*
X141113537Y-90423374D01*
X141226805Y-90253856D01*
X141304826Y-90065498D01*
X141344600Y-89865539D01*
X141344600Y-89661661D01*
X141304826Y-89461702D01*
X141226805Y-89273344D01*
X141113537Y-89103826D01*
X140969374Y-88959663D01*
X140799856Y-88846395D01*
X140611498Y-88768374D01*
X140411539Y-88728600D01*
X140207661Y-88728600D01*
X140007702Y-88768374D01*
X139819344Y-88846395D01*
X139649826Y-88959663D01*
X139505663Y-89103826D01*
X139392395Y-89273344D01*
X139314374Y-89461702D01*
X139274600Y-89661661D01*
X139274600Y-89723799D01*
X138833398Y-90165001D01*
X138804400Y-90188799D01*
X138780602Y-90217797D01*
X138780601Y-90217798D01*
X138709426Y-90304524D01*
X138638854Y-90436554D01*
X138614330Y-90517401D01*
X138595398Y-90579814D01*
X138584401Y-90691467D01*
X138580724Y-90728800D01*
X138584401Y-90766132D01*
X138584400Y-91549089D01*
X138540463Y-91593026D01*
X138427195Y-91762544D01*
X138349174Y-91950902D01*
X138309400Y-92150861D01*
X126485000Y-92150861D01*
X126485000Y-92073740D01*
X126427932Y-91786842D01*
X126315990Y-91516589D01*
X126153475Y-91273368D01*
X125946632Y-91066525D01*
X125703411Y-90904010D01*
X125433158Y-90792068D01*
X125146260Y-90735000D01*
X124853740Y-90735000D01*
X124566842Y-90792068D01*
X124296589Y-90904010D01*
X124053368Y-91066525D01*
X123846525Y-91273368D01*
X123730000Y-91447760D01*
X123613475Y-91273368D01*
X123406632Y-91066525D01*
X123163411Y-90904010D01*
X122893158Y-90792068D01*
X122606260Y-90735000D01*
X122313740Y-90735000D01*
X122026842Y-90792068D01*
X121885000Y-90850821D01*
X121885000Y-89135000D01*
X123750000Y-89135000D01*
X123873882Y-89122799D01*
X123993004Y-89086664D01*
X124102787Y-89027983D01*
X124199013Y-88949013D01*
X124277983Y-88852787D01*
X124336664Y-88743004D01*
X124372799Y-88623882D01*
X124385000Y-88500000D01*
X124385000Y-88492611D01*
X124566842Y-88567932D01*
X124853740Y-88625000D01*
X125146260Y-88625000D01*
X125433158Y-88567932D01*
X125703411Y-88455990D01*
X125946632Y-88293475D01*
X126153475Y-88086632D01*
X126315990Y-87843411D01*
X126427932Y-87573158D01*
X126485000Y-87286260D01*
X126485000Y-86993740D01*
X126427932Y-86706842D01*
X126315990Y-86436589D01*
X126153475Y-86193368D01*
X125946632Y-85986525D01*
X125772240Y-85870000D01*
X125946632Y-85753475D01*
X126153475Y-85546632D01*
X126315990Y-85303411D01*
X126427932Y-85033158D01*
X126485000Y-84746260D01*
X126485000Y-84453740D01*
X126427932Y-84166842D01*
X126315990Y-83896589D01*
X126153475Y-83653368D01*
X125946632Y-83446525D01*
X125772240Y-83330000D01*
X125946632Y-83213475D01*
X126153475Y-83006632D01*
X126226019Y-82898061D01*
X136715000Y-82898061D01*
X136715000Y-83101939D01*
X136754774Y-83301898D01*
X136832795Y-83490256D01*
X136865000Y-83538455D01*
X136865001Y-85712721D01*
X136860719Y-85756200D01*
X136877805Y-85929690D01*
X136928412Y-86096513D01*
X137010590Y-86250259D01*
X137093468Y-86351246D01*
X137093471Y-86351249D01*
X137121184Y-86385017D01*
X137154951Y-86412729D01*
X137423465Y-86681243D01*
X137434774Y-86738098D01*
X137512795Y-86926456D01*
X137626063Y-87095974D01*
X137770226Y-87240137D01*
X137939744Y-87353405D01*
X138128102Y-87431426D01*
X138328061Y-87471200D01*
X138531939Y-87471200D01*
X138731898Y-87431426D01*
X138920256Y-87353405D01*
X139089774Y-87240137D01*
X139233937Y-87095974D01*
X139347205Y-86926456D01*
X139425226Y-86738098D01*
X139465000Y-86538139D01*
X139465000Y-86334261D01*
X139425226Y-86134302D01*
X139347205Y-85945944D01*
X139233937Y-85776426D01*
X139089774Y-85632263D01*
X138920256Y-85518995D01*
X138731898Y-85440974D01*
X138675043Y-85429665D01*
X138635000Y-85389622D01*
X138635000Y-85165861D01*
X157237376Y-85165861D01*
X157237376Y-85369739D01*
X157277150Y-85569698D01*
X157355171Y-85758056D01*
X157468439Y-85927574D01*
X157612602Y-86071737D01*
X157782120Y-86185005D01*
X157970478Y-86263026D01*
X158170437Y-86302800D01*
X158374315Y-86302800D01*
X158574274Y-86263026D01*
X158762632Y-86185005D01*
X158932150Y-86071737D01*
X158976087Y-86027800D01*
X159646487Y-86027800D01*
X159690424Y-86071737D01*
X159859942Y-86185005D01*
X160048300Y-86263026D01*
X160248259Y-86302800D01*
X160452137Y-86302800D01*
X160652096Y-86263026D01*
X160840454Y-86185005D01*
X161009972Y-86071737D01*
X161154135Y-85927574D01*
X161267403Y-85758056D01*
X161345424Y-85569698D01*
X161385198Y-85369739D01*
X161385198Y-85165861D01*
X161345424Y-84965902D01*
X161267403Y-84777544D01*
X161154135Y-84608026D01*
X161009972Y-84463863D01*
X160840454Y-84350595D01*
X160652096Y-84272574D01*
X160452137Y-84232800D01*
X160248259Y-84232800D01*
X160048300Y-84272574D01*
X159859942Y-84350595D01*
X159690424Y-84463863D01*
X159646487Y-84507800D01*
X158976087Y-84507800D01*
X158932150Y-84463863D01*
X158762632Y-84350595D01*
X158574274Y-84272574D01*
X158374315Y-84232800D01*
X158170437Y-84232800D01*
X157970478Y-84272574D01*
X157782120Y-84350595D01*
X157612602Y-84463863D01*
X157468439Y-84608026D01*
X157355171Y-84777544D01*
X157277150Y-84965902D01*
X157237376Y-85165861D01*
X138635000Y-85165861D01*
X138635000Y-83538454D01*
X138667205Y-83490256D01*
X138745226Y-83301898D01*
X138785000Y-83101939D01*
X138785000Y-82898061D01*
X138745226Y-82698102D01*
X138667205Y-82509744D01*
X138553937Y-82340226D01*
X138409774Y-82196063D01*
X138240256Y-82082795D01*
X138051898Y-82004774D01*
X137851939Y-81965000D01*
X137648061Y-81965000D01*
X137448102Y-82004774D01*
X137259744Y-82082795D01*
X137090226Y-82196063D01*
X136946063Y-82340226D01*
X136832795Y-82509744D01*
X136754774Y-82698102D01*
X136715000Y-82898061D01*
X126226019Y-82898061D01*
X126315990Y-82763411D01*
X126427932Y-82493158D01*
X126485000Y-82206260D01*
X126485000Y-81913740D01*
X126427932Y-81626842D01*
X126315990Y-81356589D01*
X126153475Y-81113368D01*
X125946632Y-80906525D01*
X125772240Y-80790000D01*
X125946632Y-80673475D01*
X126153475Y-80466632D01*
X126315990Y-80223411D01*
X126427932Y-79953158D01*
X126485000Y-79666260D01*
X126485000Y-79373740D01*
X126427932Y-79086842D01*
X126315990Y-78816589D01*
X126153475Y-78573368D01*
X125946632Y-78366525D01*
X125772240Y-78250000D01*
X125946632Y-78133475D01*
X126153475Y-77926632D01*
X126315990Y-77683411D01*
X126427932Y-77413158D01*
X126485000Y-77126260D01*
X126485000Y-76833740D01*
X126427932Y-76546842D01*
X126315990Y-76276589D01*
X126153475Y-76033368D01*
X125946632Y-75826525D01*
X125772240Y-75710000D01*
X125946632Y-75593475D01*
X126153475Y-75386632D01*
X126315990Y-75143411D01*
X126427932Y-74873158D01*
X126485000Y-74586260D01*
X126485000Y-74338589D01*
X130869000Y-74338589D01*
X130869000Y-74611411D01*
X130922225Y-74878989D01*
X131026629Y-75131043D01*
X131178201Y-75357886D01*
X131371114Y-75550799D01*
X131597957Y-75702371D01*
X131850011Y-75806775D01*
X132117589Y-75860000D01*
X132390411Y-75860000D01*
X132657989Y-75806775D01*
X132910043Y-75702371D01*
X133136886Y-75550799D01*
X133329799Y-75357886D01*
X133481371Y-75131043D01*
X133524000Y-75028127D01*
X133566629Y-75131043D01*
X133718201Y-75357886D01*
X133911114Y-75550799D01*
X134137957Y-75702371D01*
X134390011Y-75806775D01*
X134657589Y-75860000D01*
X134930411Y-75860000D01*
X135197989Y-75806775D01*
X135450043Y-75702371D01*
X135676886Y-75550799D01*
X135869799Y-75357886D01*
X136021371Y-75131043D01*
X136064000Y-75028127D01*
X136106629Y-75131043D01*
X136258201Y-75357886D01*
X136451114Y-75550799D01*
X136677957Y-75702371D01*
X136930011Y-75806775D01*
X137197589Y-75860000D01*
X137470411Y-75860000D01*
X137737989Y-75806775D01*
X137990043Y-75702371D01*
X138216886Y-75550799D01*
X138335692Y-75431993D01*
X139096612Y-75431993D01*
X139162137Y-75670860D01*
X139409116Y-75786760D01*
X139673960Y-75852250D01*
X139946492Y-75864812D01*
X140216238Y-75823965D01*
X140472832Y-75731277D01*
X140585863Y-75670860D01*
X140651388Y-75431993D01*
X139874000Y-74654605D01*
X139096612Y-75431993D01*
X138335692Y-75431993D01*
X138409799Y-75357886D01*
X138561371Y-75131043D01*
X138602511Y-75031721D01*
X138617723Y-75073832D01*
X138678140Y-75186863D01*
X138917007Y-75252388D01*
X139694395Y-74475000D01*
X140053605Y-74475000D01*
X140830993Y-75252388D01*
X141069860Y-75186863D01*
X141185760Y-74939884D01*
X141251250Y-74675040D01*
X141263812Y-74402508D01*
X141254133Y-74338589D01*
X150554000Y-74338589D01*
X150554000Y-74611411D01*
X150607225Y-74878989D01*
X150711629Y-75131043D01*
X150863201Y-75357886D01*
X151056114Y-75550799D01*
X151282957Y-75702371D01*
X151535011Y-75806775D01*
X151802589Y-75860000D01*
X152075411Y-75860000D01*
X152342989Y-75806775D01*
X152595043Y-75702371D01*
X152821886Y-75550799D01*
X153014799Y-75357886D01*
X153166371Y-75131043D01*
X153209000Y-75028127D01*
X153251629Y-75131043D01*
X153403201Y-75357886D01*
X153596114Y-75550799D01*
X153822957Y-75702371D01*
X154075011Y-75806775D01*
X154342589Y-75860000D01*
X154615411Y-75860000D01*
X154882989Y-75806775D01*
X155135043Y-75702371D01*
X155361886Y-75550799D01*
X155554799Y-75357886D01*
X155706371Y-75131043D01*
X155749000Y-75028127D01*
X155791629Y-75131043D01*
X155943201Y-75357886D01*
X156136114Y-75550799D01*
X156362957Y-75702371D01*
X156615011Y-75806775D01*
X156882589Y-75860000D01*
X157155411Y-75860000D01*
X157422989Y-75806775D01*
X157675043Y-75702371D01*
X157901886Y-75550799D01*
X158020692Y-75431993D01*
X158781612Y-75431993D01*
X158847137Y-75670860D01*
X159094116Y-75786760D01*
X159358960Y-75852250D01*
X159631492Y-75864812D01*
X159901238Y-75823965D01*
X160157832Y-75731277D01*
X160270863Y-75670860D01*
X160336388Y-75431993D01*
X159559000Y-74654605D01*
X158781612Y-75431993D01*
X158020692Y-75431993D01*
X158094799Y-75357886D01*
X158246371Y-75131043D01*
X158287511Y-75031721D01*
X158302723Y-75073832D01*
X158363140Y-75186863D01*
X158602007Y-75252388D01*
X159379395Y-74475000D01*
X158602007Y-73697612D01*
X158363140Y-73763137D01*
X158288836Y-73921477D01*
X158246371Y-73818957D01*
X158094799Y-73592114D01*
X157901886Y-73399201D01*
X157675043Y-73247629D01*
X157422989Y-73143225D01*
X157155411Y-73090000D01*
X156882589Y-73090000D01*
X156615011Y-73143225D01*
X156362957Y-73247629D01*
X156136114Y-73399201D01*
X155943201Y-73592114D01*
X155791629Y-73818957D01*
X155749000Y-73921873D01*
X155706371Y-73818957D01*
X155554799Y-73592114D01*
X155361886Y-73399201D01*
X155135043Y-73247629D01*
X154882989Y-73143225D01*
X154615411Y-73090000D01*
X154342589Y-73090000D01*
X154075011Y-73143225D01*
X153822957Y-73247629D01*
X153596114Y-73399201D01*
X153403201Y-73592114D01*
X153251629Y-73818957D01*
X153209000Y-73921873D01*
X153166371Y-73818957D01*
X153014799Y-73592114D01*
X152821886Y-73399201D01*
X152595043Y-73247629D01*
X152342989Y-73143225D01*
X152075411Y-73090000D01*
X151802589Y-73090000D01*
X151535011Y-73143225D01*
X151282957Y-73247629D01*
X151056114Y-73399201D01*
X150863201Y-73592114D01*
X150711629Y-73818957D01*
X150607225Y-74071011D01*
X150554000Y-74338589D01*
X141254133Y-74338589D01*
X141222965Y-74132762D01*
X141130277Y-73876168D01*
X141069860Y-73763137D01*
X140830993Y-73697612D01*
X140053605Y-74475000D01*
X139694395Y-74475000D01*
X138917007Y-73697612D01*
X138678140Y-73763137D01*
X138603836Y-73921477D01*
X138561371Y-73818957D01*
X138409799Y-73592114D01*
X138216886Y-73399201D01*
X137990043Y-73247629D01*
X137737989Y-73143225D01*
X137470411Y-73090000D01*
X137197589Y-73090000D01*
X136930011Y-73143225D01*
X136677957Y-73247629D01*
X136451114Y-73399201D01*
X136258201Y-73592114D01*
X136106629Y-73818957D01*
X136064000Y-73921873D01*
X136021371Y-73818957D01*
X135869799Y-73592114D01*
X135676886Y-73399201D01*
X135450043Y-73247629D01*
X135197989Y-73143225D01*
X134930411Y-73090000D01*
X134657589Y-73090000D01*
X134390011Y-73143225D01*
X134137957Y-73247629D01*
X133911114Y-73399201D01*
X133718201Y-73592114D01*
X133566629Y-73818957D01*
X133524000Y-73921873D01*
X133481371Y-73818957D01*
X133329799Y-73592114D01*
X133136886Y-73399201D01*
X132910043Y-73247629D01*
X132657989Y-73143225D01*
X132390411Y-73090000D01*
X132117589Y-73090000D01*
X131850011Y-73143225D01*
X131597957Y-73247629D01*
X131371114Y-73399201D01*
X131178201Y-73592114D01*
X131026629Y-73818957D01*
X130922225Y-74071011D01*
X130869000Y-74338589D01*
X126485000Y-74338589D01*
X126485000Y-74293740D01*
X126427932Y-74006842D01*
X126315990Y-73736589D01*
X126153475Y-73493368D01*
X125946632Y-73286525D01*
X125772240Y-73170000D01*
X125946632Y-73053475D01*
X126153475Y-72846632D01*
X126315990Y-72603411D01*
X126427932Y-72333158D01*
X126485000Y-72046260D01*
X126485000Y-71798589D01*
X132139000Y-71798589D01*
X132139000Y-72071411D01*
X132192225Y-72338989D01*
X132296629Y-72591043D01*
X132448201Y-72817886D01*
X132641114Y-73010799D01*
X132867957Y-73162371D01*
X133120011Y-73266775D01*
X133387589Y-73320000D01*
X133660411Y-73320000D01*
X133927989Y-73266775D01*
X134180043Y-73162371D01*
X134406886Y-73010799D01*
X134599799Y-72817886D01*
X134751371Y-72591043D01*
X134794000Y-72488127D01*
X134836629Y-72591043D01*
X134988201Y-72817886D01*
X135181114Y-73010799D01*
X135407957Y-73162371D01*
X135660011Y-73266775D01*
X135927589Y-73320000D01*
X136200411Y-73320000D01*
X136467989Y-73266775D01*
X136720043Y-73162371D01*
X136946886Y-73010799D01*
X137139799Y-72817886D01*
X137291371Y-72591043D01*
X137334000Y-72488127D01*
X137376629Y-72591043D01*
X137528201Y-72817886D01*
X137721114Y-73010799D01*
X137947957Y-73162371D01*
X138200011Y-73266775D01*
X138467589Y-73320000D01*
X138740411Y-73320000D01*
X139007989Y-73266775D01*
X139260043Y-73162371D01*
X139486886Y-73010799D01*
X139679799Y-72817886D01*
X139757555Y-72701517D01*
X139768188Y-72809482D01*
X139804498Y-72929180D01*
X139863463Y-73039494D01*
X139904873Y-73089952D01*
X139801508Y-73085188D01*
X139531762Y-73126035D01*
X139275168Y-73218723D01*
X139162137Y-73279140D01*
X139096612Y-73518007D01*
X139874000Y-74295395D01*
X140651388Y-73518007D01*
X140597545Y-73321725D01*
X140858250Y-73320000D01*
X141017000Y-73161250D01*
X141017000Y-72062000D01*
X141271000Y-72062000D01*
X141271000Y-73161250D01*
X141429750Y-73320000D01*
X141894000Y-73323072D01*
X142018482Y-73310812D01*
X142138180Y-73274502D01*
X142248494Y-73215537D01*
X142345185Y-73136185D01*
X142424537Y-73039494D01*
X142483502Y-72929180D01*
X142519812Y-72809482D01*
X142532072Y-72685000D01*
X142529000Y-72220750D01*
X142370250Y-72062000D01*
X141271000Y-72062000D01*
X141017000Y-72062000D01*
X140997000Y-72062000D01*
X140997000Y-71808000D01*
X141017000Y-71808000D01*
X141017000Y-70708750D01*
X141271000Y-70708750D01*
X141271000Y-71808000D01*
X142370250Y-71808000D01*
X142379661Y-71798589D01*
X151824000Y-71798589D01*
X151824000Y-72071411D01*
X151877225Y-72338989D01*
X151981629Y-72591043D01*
X152133201Y-72817886D01*
X152326114Y-73010799D01*
X152552957Y-73162371D01*
X152805011Y-73266775D01*
X153072589Y-73320000D01*
X153345411Y-73320000D01*
X153612989Y-73266775D01*
X153865043Y-73162371D01*
X154091886Y-73010799D01*
X154284799Y-72817886D01*
X154436371Y-72591043D01*
X154479000Y-72488127D01*
X154521629Y-72591043D01*
X154673201Y-72817886D01*
X154866114Y-73010799D01*
X155092957Y-73162371D01*
X155345011Y-73266775D01*
X155612589Y-73320000D01*
X155885411Y-73320000D01*
X156152989Y-73266775D01*
X156405043Y-73162371D01*
X156631886Y-73010799D01*
X156824799Y-72817886D01*
X156976371Y-72591043D01*
X157019000Y-72488127D01*
X157061629Y-72591043D01*
X157213201Y-72817886D01*
X157406114Y-73010799D01*
X157632957Y-73162371D01*
X157885011Y-73266775D01*
X158152589Y-73320000D01*
X158425411Y-73320000D01*
X158570365Y-73291167D01*
X158784969Y-73505770D01*
X158781612Y-73518007D01*
X159559000Y-74295395D01*
X159573143Y-74281253D01*
X159752748Y-74460858D01*
X159738605Y-74475000D01*
X160515993Y-75252388D01*
X160754860Y-75186863D01*
X160870760Y-74939884D01*
X160936250Y-74675040D01*
X160948812Y-74402508D01*
X160907965Y-74132762D01*
X160893241Y-74092000D01*
X162569676Y-74092000D01*
X162606998Y-74095676D01*
X162644320Y-74092000D01*
X162644331Y-74092000D01*
X162755984Y-74081003D01*
X162899245Y-74037546D01*
X163031274Y-73966974D01*
X163146999Y-73872001D01*
X163170802Y-73842997D01*
X164630200Y-72383600D01*
X164692337Y-72383600D01*
X164892296Y-72343826D01*
X165080654Y-72265805D01*
X165250172Y-72152537D01*
X165394335Y-72008374D01*
X165507603Y-71838856D01*
X165585624Y-71650498D01*
X165625398Y-71450539D01*
X165625398Y-71246661D01*
X165585624Y-71046702D01*
X165507603Y-70858344D01*
X165394335Y-70688826D01*
X165250172Y-70544663D01*
X165080654Y-70431395D01*
X164892296Y-70353374D01*
X164692337Y-70313600D01*
X164488459Y-70313600D01*
X164288500Y-70353374D01*
X164100142Y-70431395D01*
X163930624Y-70544663D01*
X163786461Y-70688826D01*
X163673193Y-70858344D01*
X163595172Y-71046702D01*
X163555398Y-71246661D01*
X163555398Y-71308798D01*
X162292197Y-72572000D01*
X162217072Y-72572000D01*
X162217072Y-71185000D01*
X162204812Y-71060518D01*
X162168502Y-70940820D01*
X162109537Y-70830506D01*
X162030185Y-70733815D01*
X161933494Y-70654463D01*
X161823180Y-70595498D01*
X161703482Y-70559188D01*
X161636648Y-70552606D01*
X161568411Y-70424941D01*
X161457817Y-70290183D01*
X161424044Y-70262466D01*
X160914034Y-69752456D01*
X160886317Y-69718683D01*
X160751559Y-69608089D01*
X160597813Y-69525911D01*
X160430990Y-69475305D01*
X160300977Y-69462500D01*
X160300969Y-69462500D01*
X160257500Y-69458219D01*
X160214031Y-69462500D01*
X158902879Y-69462500D01*
X157445333Y-68004955D01*
X157434024Y-67948100D01*
X157356003Y-67759742D01*
X157242735Y-67590224D01*
X157098572Y-67446061D01*
X156929054Y-67332793D01*
X156740696Y-67254772D01*
X156540737Y-67214998D01*
X156336859Y-67214998D01*
X156136900Y-67254772D01*
X155948542Y-67332793D01*
X155779024Y-67446061D01*
X155634861Y-67590224D01*
X155521593Y-67759742D01*
X155443572Y-67948100D01*
X155403798Y-68148059D01*
X155403798Y-68351937D01*
X155443572Y-68551896D01*
X155521593Y-68740254D01*
X155634861Y-68909772D01*
X155779024Y-69053935D01*
X155948542Y-69167203D01*
X156136900Y-69245224D01*
X156193755Y-69256533D01*
X157641367Y-70704146D01*
X157632957Y-70707629D01*
X157406114Y-70859201D01*
X157213201Y-71052114D01*
X157061629Y-71278957D01*
X157019000Y-71381873D01*
X156976371Y-71278957D01*
X156824799Y-71052114D01*
X156631886Y-70859201D01*
X156405043Y-70707629D01*
X156152989Y-70603225D01*
X155885411Y-70550000D01*
X155612589Y-70550000D01*
X155345011Y-70603225D01*
X155092957Y-70707629D01*
X154866114Y-70859201D01*
X154673201Y-71052114D01*
X154521629Y-71278957D01*
X154479000Y-71381873D01*
X154436371Y-71278957D01*
X154284799Y-71052114D01*
X154091886Y-70859201D01*
X153865043Y-70707629D01*
X153612989Y-70603225D01*
X153345411Y-70550000D01*
X153072589Y-70550000D01*
X152805011Y-70603225D01*
X152552957Y-70707629D01*
X152326114Y-70859201D01*
X152133201Y-71052114D01*
X151981629Y-71278957D01*
X151877225Y-71531011D01*
X151824000Y-71798589D01*
X142379661Y-71798589D01*
X142529000Y-71649250D01*
X142532072Y-71185000D01*
X142519812Y-71060518D01*
X142483502Y-70940820D01*
X142424537Y-70830506D01*
X142345185Y-70733815D01*
X142248494Y-70654463D01*
X142138180Y-70595498D01*
X142018482Y-70559188D01*
X141894000Y-70546928D01*
X141429750Y-70550000D01*
X141271000Y-70708750D01*
X141017000Y-70708750D01*
X140858250Y-70550000D01*
X140394000Y-70546928D01*
X140269518Y-70559188D01*
X140149820Y-70595498D01*
X140039506Y-70654463D01*
X139942815Y-70733815D01*
X139863463Y-70830506D01*
X139804498Y-70940820D01*
X139768188Y-71060518D01*
X139757555Y-71168483D01*
X139679799Y-71052114D01*
X139486886Y-70859201D01*
X139260043Y-70707629D01*
X139007989Y-70603225D01*
X138740411Y-70550000D01*
X138467589Y-70550000D01*
X138200011Y-70603225D01*
X137947957Y-70707629D01*
X137721114Y-70859201D01*
X137528201Y-71052114D01*
X137376629Y-71278957D01*
X137334000Y-71381873D01*
X137291371Y-71278957D01*
X137139799Y-71052114D01*
X136946886Y-70859201D01*
X136720043Y-70707629D01*
X136467989Y-70603225D01*
X136200411Y-70550000D01*
X135927589Y-70550000D01*
X135660011Y-70603225D01*
X135407957Y-70707629D01*
X135181114Y-70859201D01*
X134988201Y-71052114D01*
X134836629Y-71278957D01*
X134794000Y-71381873D01*
X134751371Y-71278957D01*
X134599799Y-71052114D01*
X134406886Y-70859201D01*
X134180043Y-70707629D01*
X133927989Y-70603225D01*
X133660411Y-70550000D01*
X133387589Y-70550000D01*
X133120011Y-70603225D01*
X132867957Y-70707629D01*
X132641114Y-70859201D01*
X132448201Y-71052114D01*
X132296629Y-71278957D01*
X132192225Y-71531011D01*
X132139000Y-71798589D01*
X126485000Y-71798589D01*
X126485000Y-71753740D01*
X126427932Y-71466842D01*
X126315990Y-71196589D01*
X126153475Y-70953368D01*
X125946632Y-70746525D01*
X125772240Y-70630000D01*
X125946632Y-70513475D01*
X126153475Y-70306632D01*
X126315990Y-70063411D01*
X126427932Y-69793158D01*
X126485000Y-69506260D01*
X126485000Y-69213740D01*
X126427932Y-68926842D01*
X126315990Y-68656589D01*
X126153475Y-68413368D01*
X125946632Y-68206525D01*
X125703411Y-68044010D01*
X125433158Y-67932068D01*
X125146260Y-67875000D01*
X124853740Y-67875000D01*
X124566842Y-67932068D01*
X124296589Y-68044010D01*
X124053368Y-68206525D01*
X123846525Y-68413368D01*
X123730000Y-68587760D01*
X123613475Y-68413368D01*
X123406632Y-68206525D01*
X123163411Y-68044010D01*
X122893158Y-67932068D01*
X122606260Y-67875000D01*
X122313740Y-67875000D01*
X122026842Y-67932068D01*
X121756589Y-68044010D01*
X121513368Y-68206525D01*
X121306525Y-68413368D01*
X121144010Y-68656589D01*
X121032068Y-68926842D01*
X120975000Y-69213740D01*
X120975000Y-69506260D01*
X121032068Y-69793158D01*
X121144010Y-70063411D01*
X121306525Y-70306632D01*
X121513368Y-70513475D01*
X121687760Y-70630000D01*
X121513368Y-70746525D01*
X121306525Y-70953368D01*
X121144010Y-71196589D01*
X121032068Y-71466842D01*
X120975000Y-71753740D01*
X120975000Y-72046260D01*
X121032068Y-72333158D01*
X121144010Y-72603411D01*
X121306525Y-72846632D01*
X121513368Y-73053475D01*
X121687760Y-73170000D01*
X121513368Y-73286525D01*
X121306525Y-73493368D01*
X121144010Y-73736589D01*
X121032068Y-74006842D01*
X120975000Y-74293740D01*
X120975000Y-74586260D01*
X121032068Y-74873158D01*
X121144010Y-75143411D01*
X121306525Y-75386632D01*
X121513368Y-75593475D01*
X121687760Y-75710000D01*
X121513368Y-75826525D01*
X121306525Y-76033368D01*
X121144010Y-76276589D01*
X121032068Y-76546842D01*
X120975000Y-76833740D01*
X120975000Y-77126260D01*
X121032068Y-77413158D01*
X121144010Y-77683411D01*
X121306525Y-77926632D01*
X121513368Y-78133475D01*
X121687760Y-78250000D01*
X121513368Y-78366525D01*
X121306525Y-78573368D01*
X121144010Y-78816589D01*
X121032068Y-79086842D01*
X120975000Y-79373740D01*
X120975000Y-79666260D01*
X121032068Y-79953158D01*
X121144010Y-80223411D01*
X121306525Y-80466632D01*
X121513368Y-80673475D01*
X121686729Y-80789311D01*
X121611208Y-81031603D01*
X122460000Y-81880395D01*
X123308792Y-81031603D01*
X123233271Y-80789311D01*
X123406632Y-80673475D01*
X123613475Y-80466632D01*
X123730000Y-80292240D01*
X123846525Y-80466632D01*
X124053368Y-80673475D01*
X124227760Y-80790000D01*
X124053368Y-80906525D01*
X123846525Y-81113368D01*
X123730689Y-81286729D01*
X123488397Y-81211208D01*
X122639605Y-82060000D01*
X123488397Y-82908792D01*
X123730689Y-82833271D01*
X123846525Y-83006632D01*
X124053368Y-83213475D01*
X124227760Y-83330000D01*
X124053368Y-83446525D01*
X123846525Y-83653368D01*
X123730689Y-83826729D01*
X123488397Y-83751208D01*
X122639605Y-84600000D01*
X122653748Y-84614143D01*
X122474143Y-84793748D01*
X122460000Y-84779605D01*
X122445858Y-84793748D01*
X122266253Y-84614143D01*
X122280395Y-84600000D01*
X121431603Y-83751208D01*
X121182528Y-83828843D01*
X121056629Y-84092883D01*
X120984661Y-84376411D01*
X120969389Y-84668531D01*
X121011401Y-84958019D01*
X121067013Y-85115000D01*
X118000000Y-85115000D01*
X117876118Y-85127201D01*
X117756996Y-85163336D01*
X117647213Y-85222017D01*
X117550987Y-85300987D01*
X117472017Y-85397213D01*
X117413336Y-85506996D01*
X117377201Y-85626118D01*
X117365000Y-85750000D01*
X117365000Y-86849322D01*
X117340266Y-86832795D01*
X117151908Y-86754774D01*
X116951949Y-86715000D01*
X116748071Y-86715000D01*
X116548112Y-86754774D01*
X116359754Y-86832795D01*
X116190236Y-86946063D01*
X116046073Y-87090226D01*
X115932805Y-87259744D01*
X115854784Y-87448102D01*
X115815010Y-87648061D01*
X115815010Y-87851939D01*
X115854784Y-88051898D01*
X115865001Y-88076564D01*
X115865000Y-89711545D01*
X115832795Y-89759744D01*
X115754774Y-89948102D01*
X115715000Y-90148061D01*
X114660000Y-90148061D01*
X114660000Y-80633000D01*
X115492509Y-80633000D01*
X115498000Y-80688751D01*
X115514423Y-80855498D01*
X115579324Y-81069446D01*
X115684716Y-81266623D01*
X115826551Y-81439449D01*
X115869865Y-81474996D01*
X117236856Y-82841988D01*
X117366377Y-82948283D01*
X117563553Y-83053676D01*
X117777501Y-83118577D01*
X118000000Y-83140491D01*
X118222498Y-83118577D01*
X118321987Y-83088397D01*
X121611208Y-83088397D01*
X121686514Y-83330000D01*
X121611208Y-83571603D01*
X122460000Y-84420395D01*
X123308792Y-83571603D01*
X123233486Y-83330000D01*
X123308792Y-83088397D01*
X122460000Y-82239605D01*
X121611208Y-83088397D01*
X118321987Y-83088397D01*
X118436446Y-83053676D01*
X118633622Y-82948283D01*
X118806448Y-82806448D01*
X118948283Y-82633622D01*
X119053676Y-82436446D01*
X119118577Y-82222498D01*
X119127831Y-82128531D01*
X120969389Y-82128531D01*
X121011401Y-82418019D01*
X121109081Y-82693747D01*
X121182528Y-82831157D01*
X121431603Y-82908792D01*
X122280395Y-82060000D01*
X121431603Y-81211208D01*
X121182528Y-81288843D01*
X121056629Y-81552883D01*
X120984661Y-81836411D01*
X120969389Y-82128531D01*
X119127831Y-82128531D01*
X119140491Y-82000000D01*
X119118577Y-81777501D01*
X119053676Y-81563553D01*
X118948283Y-81366377D01*
X118841988Y-81236856D01*
X117768000Y-80162869D01*
X117768000Y-79118238D01*
X117751577Y-78951491D01*
X117686676Y-78737543D01*
X117581284Y-78540367D01*
X117439449Y-78367541D01*
X117266623Y-78225706D01*
X117069447Y-78120314D01*
X116855499Y-78055413D01*
X116633000Y-78033499D01*
X116410502Y-78055413D01*
X116196554Y-78120314D01*
X115999378Y-78225706D01*
X115826552Y-78367541D01*
X115684717Y-78540367D01*
X115579324Y-78737543D01*
X115514423Y-78951491D01*
X115498000Y-79118238D01*
X115498000Y-80577249D01*
X115492509Y-80633000D01*
X114660000Y-80633000D01*
X114660000Y-68000000D01*
X116109509Y-68000000D01*
X116131423Y-68222499D01*
X116196324Y-68436447D01*
X116301716Y-68633623D01*
X116443551Y-68806449D01*
X116616377Y-68948284D01*
X116813553Y-69053676D01*
X117027501Y-69118577D01*
X117194248Y-69135000D01*
X119944249Y-69135000D01*
X120000000Y-69140491D01*
X120055751Y-69135000D01*
X120055752Y-69135000D01*
X120222499Y-69118577D01*
X120436447Y-69053676D01*
X120633623Y-68948284D01*
X120806449Y-68806449D01*
X120841996Y-68763135D01*
X121341976Y-68263155D01*
X121448272Y-68133634D01*
X121553664Y-67936459D01*
X121618565Y-67722511D01*
X121640479Y-67500012D01*
X121618565Y-67277513D01*
X121553664Y-67063566D01*
X121448272Y-66866390D01*
X121306437Y-66693563D01*
X121133610Y-66551728D01*
X120936434Y-66446336D01*
X120722487Y-66381435D01*
X120499988Y-66359521D01*
X120277489Y-66381435D01*
X120063541Y-66446336D01*
X119866366Y-66551728D01*
X119736845Y-66658024D01*
X119529869Y-66865000D01*
X118985839Y-66865000D01*
X119058463Y-66834918D01*
X119326252Y-66655987D01*
X119553987Y-66428252D01*
X119732918Y-66160463D01*
X119856168Y-65862912D01*
X119919000Y-65547033D01*
X119919000Y-65224967D01*
X123149000Y-65224967D01*
X123149000Y-65547033D01*
X123211832Y-65862912D01*
X123335082Y-66160463D01*
X123514013Y-66428252D01*
X123741748Y-66655987D01*
X124009537Y-66834918D01*
X124307088Y-66958168D01*
X124622967Y-67021000D01*
X124945033Y-67021000D01*
X125260912Y-66958168D01*
X125558463Y-66834918D01*
X125826252Y-66655987D01*
X126053987Y-66428252D01*
X126232918Y-66160463D01*
X126356168Y-65862912D01*
X126419000Y-65547033D01*
X126419000Y-65224967D01*
X126356168Y-64909088D01*
X126232918Y-64611537D01*
X126053987Y-64343748D01*
X125826252Y-64116013D01*
X125692516Y-64026653D01*
X127616952Y-64026653D01*
X127772962Y-64342214D01*
X128147745Y-64533020D01*
X128552551Y-64647044D01*
X128914557Y-64675414D01*
X128810851Y-64925782D01*
X128724000Y-65362409D01*
X128724000Y-65807591D01*
X128810851Y-66244218D01*
X128981214Y-66655511D01*
X129228544Y-67025666D01*
X129543334Y-67340456D01*
X129913489Y-67587786D01*
X130324782Y-67758149D01*
X130761409Y-67845000D01*
X131206591Y-67845000D01*
X131643218Y-67758149D01*
X132054511Y-67587786D01*
X132424666Y-67340456D01*
X132739456Y-67025666D01*
X132986786Y-66655511D01*
X133157149Y-66244218D01*
X133244000Y-65807591D01*
X133244000Y-65362409D01*
X140154000Y-65362409D01*
X140154000Y-65807591D01*
X140240851Y-66244218D01*
X140411214Y-66655511D01*
X140658544Y-67025666D01*
X140973334Y-67340456D01*
X141343489Y-67587786D01*
X141754782Y-67758149D01*
X142191409Y-67845000D01*
X142636591Y-67845000D01*
X143073218Y-67758149D01*
X143484511Y-67587786D01*
X143854666Y-67340456D01*
X144169456Y-67025666D01*
X144416786Y-66655511D01*
X144587149Y-66244218D01*
X144674000Y-65807591D01*
X144674000Y-65362409D01*
X144587149Y-64925782D01*
X144484412Y-64677754D01*
X144511824Y-64679902D01*
X144929451Y-64630334D01*
X145329383Y-64500243D01*
X145625038Y-64342214D01*
X145781048Y-64026653D01*
X147301952Y-64026653D01*
X147457962Y-64342214D01*
X147832745Y-64533020D01*
X148237551Y-64647044D01*
X148599557Y-64675414D01*
X148495851Y-64925782D01*
X148409000Y-65362409D01*
X148409000Y-65807591D01*
X148495851Y-66244218D01*
X148666214Y-66655511D01*
X148913544Y-67025666D01*
X149228334Y-67340456D01*
X149598489Y-67587786D01*
X150009782Y-67758149D01*
X150446409Y-67845000D01*
X150891591Y-67845000D01*
X151328218Y-67758149D01*
X151739511Y-67587786D01*
X152109666Y-67340456D01*
X152424456Y-67025666D01*
X152671786Y-66655511D01*
X152842149Y-66244218D01*
X152929000Y-65807591D01*
X152929000Y-65362409D01*
X159839000Y-65362409D01*
X159839000Y-65807591D01*
X159925851Y-66244218D01*
X160096214Y-66655511D01*
X160343544Y-67025666D01*
X160658334Y-67340456D01*
X161028489Y-67587786D01*
X161439782Y-67758149D01*
X161876409Y-67845000D01*
X162321591Y-67845000D01*
X162758218Y-67758149D01*
X163169511Y-67587786D01*
X163539666Y-67340456D01*
X163854456Y-67025666D01*
X164101786Y-66655511D01*
X164272149Y-66244218D01*
X164359000Y-65807591D01*
X164359000Y-65362409D01*
X164272149Y-64925782D01*
X164169412Y-64677754D01*
X164196824Y-64679902D01*
X164614451Y-64630334D01*
X165014383Y-64500243D01*
X165310038Y-64342214D01*
X165466048Y-64026653D01*
X164154000Y-62714605D01*
X164139858Y-62728748D01*
X163960253Y-62549143D01*
X163974395Y-62535000D01*
X164333605Y-62535000D01*
X165645653Y-63847048D01*
X165961214Y-63691038D01*
X166152020Y-63316255D01*
X166266044Y-62911449D01*
X166298902Y-62492176D01*
X166249334Y-62074549D01*
X166119243Y-61674617D01*
X165961214Y-61378962D01*
X165645653Y-61222952D01*
X164333605Y-62535000D01*
X163974395Y-62535000D01*
X162662347Y-61222952D01*
X162346786Y-61378962D01*
X162155980Y-61753745D01*
X162041956Y-62158551D01*
X162009098Y-62577824D01*
X162058666Y-62995451D01*
X162165863Y-63325000D01*
X161876409Y-63325000D01*
X161439782Y-63411851D01*
X161028489Y-63582214D01*
X160658334Y-63829544D01*
X160343544Y-64144334D01*
X160096214Y-64514489D01*
X159925851Y-64925782D01*
X159839000Y-65362409D01*
X152929000Y-65362409D01*
X152842149Y-64925782D01*
X152671786Y-64514489D01*
X152424456Y-64144334D01*
X152109666Y-63829544D01*
X151739511Y-63582214D01*
X151328218Y-63411851D01*
X150891591Y-63325000D01*
X150607568Y-63325000D01*
X150612020Y-63316255D01*
X150726044Y-62911449D01*
X150758902Y-62492176D01*
X150709334Y-62074549D01*
X150579243Y-61674617D01*
X150421214Y-61378962D01*
X150105653Y-61222952D01*
X148793605Y-62535000D01*
X148807748Y-62549143D01*
X148628143Y-62728748D01*
X148614000Y-62714605D01*
X147301952Y-64026653D01*
X145781048Y-64026653D01*
X144469000Y-62714605D01*
X144454858Y-62728748D01*
X144275253Y-62549143D01*
X144289395Y-62535000D01*
X144648605Y-62535000D01*
X145960653Y-63847048D01*
X146276214Y-63691038D01*
X146467020Y-63316255D01*
X146539415Y-63059239D01*
X146648757Y-63395383D01*
X146806786Y-63691038D01*
X147122347Y-63847048D01*
X148434395Y-62535000D01*
X147122347Y-61222952D01*
X146806786Y-61378962D01*
X146615980Y-61753745D01*
X146543585Y-62010761D01*
X146434243Y-61674617D01*
X146276214Y-61378962D01*
X145960653Y-61222952D01*
X144648605Y-62535000D01*
X144289395Y-62535000D01*
X142977347Y-61222952D01*
X142661786Y-61378962D01*
X142470980Y-61753745D01*
X142356956Y-62158551D01*
X142324098Y-62577824D01*
X142373666Y-62995451D01*
X142480863Y-63325000D01*
X142191409Y-63325000D01*
X141754782Y-63411851D01*
X141343489Y-63582214D01*
X140973334Y-63829544D01*
X140658544Y-64144334D01*
X140411214Y-64514489D01*
X140240851Y-64925782D01*
X140154000Y-65362409D01*
X133244000Y-65362409D01*
X133157149Y-64925782D01*
X132986786Y-64514489D01*
X132739456Y-64144334D01*
X132424666Y-63829544D01*
X132054511Y-63582214D01*
X131643218Y-63411851D01*
X131206591Y-63325000D01*
X130922568Y-63325000D01*
X130927020Y-63316255D01*
X131041044Y-62911449D01*
X131073902Y-62492176D01*
X131024334Y-62074549D01*
X130894243Y-61674617D01*
X130736214Y-61378962D01*
X130420653Y-61222952D01*
X129108605Y-62535000D01*
X129122748Y-62549143D01*
X128943143Y-62728748D01*
X128929000Y-62714605D01*
X127616952Y-64026653D01*
X125692516Y-64026653D01*
X125558463Y-63937082D01*
X125260912Y-63813832D01*
X124945033Y-63751000D01*
X124622967Y-63751000D01*
X124307088Y-63813832D01*
X124009537Y-63937082D01*
X123741748Y-64116013D01*
X123514013Y-64343748D01*
X123335082Y-64611537D01*
X123211832Y-64909088D01*
X123149000Y-65224967D01*
X119919000Y-65224967D01*
X119856168Y-64909088D01*
X119732918Y-64611537D01*
X119553987Y-64343748D01*
X119326252Y-64116013D01*
X119058463Y-63937082D01*
X118760912Y-63813832D01*
X118445033Y-63751000D01*
X118122967Y-63751000D01*
X117807088Y-63813832D01*
X117509537Y-63937082D01*
X117241748Y-64116013D01*
X117014013Y-64343748D01*
X116835082Y-64611537D01*
X116711832Y-64909088D01*
X116649000Y-65224967D01*
X116649000Y-65547033D01*
X116711832Y-65862912D01*
X116835082Y-66160463D01*
X117014013Y-66428252D01*
X117241748Y-66655987D01*
X117509537Y-66834918D01*
X117582161Y-66865000D01*
X117194248Y-66865000D01*
X117027501Y-66881423D01*
X116813553Y-66946324D01*
X116616377Y-67051716D01*
X116443551Y-67193551D01*
X116301716Y-67366377D01*
X116196324Y-67563553D01*
X116131423Y-67777501D01*
X116109509Y-68000000D01*
X114660000Y-68000000D01*
X114660000Y-62577824D01*
X126784098Y-62577824D01*
X126833666Y-62995451D01*
X126963757Y-63395383D01*
X127121786Y-63691038D01*
X127437347Y-63847048D01*
X128749395Y-62535000D01*
X127437347Y-61222952D01*
X127121786Y-61378962D01*
X126930980Y-61753745D01*
X126816956Y-62158551D01*
X126784098Y-62577824D01*
X114660000Y-62577824D01*
X114660000Y-62021413D01*
X117328192Y-62021413D01*
X117423956Y-62285814D01*
X117713571Y-62426704D01*
X118025108Y-62508384D01*
X118346595Y-62527718D01*
X118665675Y-62483961D01*
X118970088Y-62378795D01*
X119144044Y-62285814D01*
X119239808Y-62021413D01*
X123828192Y-62021413D01*
X123923956Y-62285814D01*
X124213571Y-62426704D01*
X124525108Y-62508384D01*
X124846595Y-62527718D01*
X125165675Y-62483961D01*
X125470088Y-62378795D01*
X125644044Y-62285814D01*
X125739808Y-62021413D01*
X124784000Y-61065605D01*
X123828192Y-62021413D01*
X119239808Y-62021413D01*
X118284000Y-61065605D01*
X117328192Y-62021413D01*
X114660000Y-62021413D01*
X114660000Y-61032279D01*
X114668205Y-60948595D01*
X116642282Y-60948595D01*
X116686039Y-61267675D01*
X116791205Y-61572088D01*
X116884186Y-61746044D01*
X117148587Y-61841808D01*
X118104395Y-60886000D01*
X118463605Y-60886000D01*
X119419413Y-61841808D01*
X119683814Y-61746044D01*
X119824704Y-61456429D01*
X119906384Y-61144892D01*
X119918189Y-60948595D01*
X123142282Y-60948595D01*
X123186039Y-61267675D01*
X123291205Y-61572088D01*
X123384186Y-61746044D01*
X123648587Y-61841808D01*
X124604395Y-60886000D01*
X124963605Y-60886000D01*
X125919413Y-61841808D01*
X126183814Y-61746044D01*
X126324704Y-61456429D01*
X126406384Y-61144892D01*
X126412490Y-61043347D01*
X127616952Y-61043347D01*
X128929000Y-62355395D01*
X130241048Y-61043347D01*
X143156952Y-61043347D01*
X144469000Y-62355395D01*
X145781048Y-61043347D01*
X147301952Y-61043347D01*
X148614000Y-62355395D01*
X149926048Y-61043347D01*
X162841952Y-61043347D01*
X164154000Y-62355395D01*
X165466048Y-61043347D01*
X165310038Y-60727786D01*
X164935255Y-60536980D01*
X164530449Y-60422956D01*
X164111176Y-60390098D01*
X163693549Y-60439666D01*
X163293617Y-60569757D01*
X162997962Y-60727786D01*
X162841952Y-61043347D01*
X149926048Y-61043347D01*
X149770038Y-60727786D01*
X149395255Y-60536980D01*
X148990449Y-60422956D01*
X148571176Y-60390098D01*
X148153549Y-60439666D01*
X147753617Y-60569757D01*
X147457962Y-60727786D01*
X147301952Y-61043347D01*
X145781048Y-61043347D01*
X145625038Y-60727786D01*
X145250255Y-60536980D01*
X144845449Y-60422956D01*
X144426176Y-60390098D01*
X144008549Y-60439666D01*
X143608617Y-60569757D01*
X143312962Y-60727786D01*
X143156952Y-61043347D01*
X130241048Y-61043347D01*
X130085038Y-60727786D01*
X129710255Y-60536980D01*
X129305449Y-60422956D01*
X128886176Y-60390098D01*
X128468549Y-60439666D01*
X128068617Y-60569757D01*
X127772962Y-60727786D01*
X127616952Y-61043347D01*
X126412490Y-61043347D01*
X126425718Y-60823405D01*
X126381961Y-60504325D01*
X126276795Y-60199912D01*
X126183814Y-60025956D01*
X125919413Y-59930192D01*
X124963605Y-60886000D01*
X124604395Y-60886000D01*
X123648587Y-59930192D01*
X123384186Y-60025956D01*
X123243296Y-60315571D01*
X123161616Y-60627108D01*
X123142282Y-60948595D01*
X119918189Y-60948595D01*
X119925718Y-60823405D01*
X119881961Y-60504325D01*
X119776795Y-60199912D01*
X119683814Y-60025956D01*
X119419413Y-59930192D01*
X118463605Y-60886000D01*
X118104395Y-60886000D01*
X117148587Y-59930192D01*
X116884186Y-60025956D01*
X116743296Y-60315571D01*
X116661616Y-60627108D01*
X116642282Y-60948595D01*
X114668205Y-60948595D01*
X114707670Y-60546107D01*
X114839489Y-60109502D01*
X115030326Y-59750587D01*
X117328192Y-59750587D01*
X118284000Y-60706395D01*
X119239808Y-59750587D01*
X123828192Y-59750587D01*
X124784000Y-60706395D01*
X125739808Y-59750587D01*
X125644044Y-59486186D01*
X125354429Y-59345296D01*
X125042892Y-59263616D01*
X124721405Y-59244282D01*
X124402325Y-59288039D01*
X124097912Y-59393205D01*
X123923956Y-59486186D01*
X123828192Y-59750587D01*
X119239808Y-59750587D01*
X119144044Y-59486186D01*
X118854429Y-59345296D01*
X118542892Y-59263616D01*
X118221405Y-59244282D01*
X117902325Y-59288039D01*
X117597912Y-59393205D01*
X117423956Y-59486186D01*
X117328192Y-59750587D01*
X115030326Y-59750587D01*
X115053600Y-59706815D01*
X115341848Y-59353388D01*
X115693261Y-59062673D01*
X116094439Y-58845758D01*
X116530113Y-58710894D01*
X117014344Y-58660000D01*
X167455651Y-58660000D01*
X167233368Y-58808525D01*
G37*
X167233368Y-58808525D02*
X167026525Y-59015368D01*
X166864010Y-59258589D01*
X166752068Y-59528842D01*
X166695000Y-59815740D01*
X166695000Y-60108260D01*
X166752068Y-60395158D01*
X166864010Y-60665411D01*
X167026525Y-60908632D01*
X167233368Y-61115475D01*
X167407760Y-61232000D01*
X167233368Y-61348525D01*
X167026525Y-61555368D01*
X166864010Y-61798589D01*
X166752068Y-62068842D01*
X166695000Y-62355740D01*
X166695000Y-62648260D01*
X166752068Y-62935158D01*
X166864010Y-63205411D01*
X167026525Y-63448632D01*
X167233368Y-63655475D01*
X167407760Y-63772000D01*
X167233368Y-63888525D01*
X167026525Y-64095368D01*
X166864010Y-64338589D01*
X166752068Y-64608842D01*
X166695000Y-64895740D01*
X166695000Y-65188260D01*
X166752068Y-65475158D01*
X166864010Y-65745411D01*
X167026525Y-65988632D01*
X167233368Y-66195475D01*
X167407760Y-66312000D01*
X167233368Y-66428525D01*
X167026525Y-66635368D01*
X166864010Y-66878589D01*
X166752068Y-67148842D01*
X166695000Y-67435740D01*
X166695000Y-67728260D01*
X166752068Y-68015158D01*
X166864010Y-68285411D01*
X167026525Y-68528632D01*
X167233368Y-68735475D01*
X167407760Y-68852000D01*
X167233368Y-68968525D01*
X167026525Y-69175368D01*
X166864010Y-69418589D01*
X166752068Y-69688842D01*
X166695000Y-69975740D01*
X166695000Y-70268260D01*
X166752068Y-70555158D01*
X166864010Y-70825411D01*
X167026525Y-71068632D01*
X167233368Y-71275475D01*
X167407760Y-71392000D01*
X167233368Y-71508525D01*
X167026525Y-71715368D01*
X166864010Y-71958589D01*
X166752068Y-72228842D01*
X166695000Y-72515740D01*
X166695000Y-72808260D01*
X166752068Y-73095158D01*
X166864010Y-73365411D01*
X167026525Y-73608632D01*
X167233368Y-73815475D01*
X167407760Y-73932000D01*
X167233368Y-74048525D01*
X167026525Y-74255368D01*
X166864010Y-74498589D01*
X166752068Y-74768842D01*
X166695000Y-75055740D01*
X166695000Y-75348260D01*
X166731511Y-75531813D01*
X166675139Y-75520600D01*
X166471261Y-75520600D01*
X166271302Y-75560374D01*
X166082944Y-75638395D01*
X165913426Y-75751663D01*
X165769263Y-75895826D01*
X165655995Y-76065344D01*
X165577974Y-76253702D01*
X165538200Y-76453661D01*
X165538200Y-76657539D01*
X165577974Y-76857498D01*
X165655995Y-77045856D01*
X165769263Y-77215374D01*
X165913426Y-77359537D01*
X166082944Y-77472805D01*
X166271302Y-77550826D01*
X166471261Y-77590600D01*
X166675139Y-77590600D01*
X166696883Y-77586275D01*
X166695000Y-77595740D01*
X166695000Y-77888260D01*
X166752068Y-78175158D01*
X166864010Y-78445411D01*
X167026525Y-78688632D01*
X167233368Y-78895475D01*
X167407760Y-79012000D01*
X167233368Y-79128525D01*
X167026525Y-79335368D01*
X166864010Y-79578589D01*
X166752068Y-79848842D01*
X166695000Y-80135740D01*
X166695000Y-80428260D01*
X166752068Y-80715158D01*
X166762358Y-80740000D01*
X164703711Y-80740000D01*
X164659774Y-80696063D01*
X164490256Y-80582795D01*
X164301898Y-80504774D01*
X164101939Y-80465000D01*
X163898061Y-80465000D01*
X163698102Y-80504774D01*
X163509744Y-80582795D01*
X163340226Y-80696063D01*
X163196063Y-80840226D01*
X163082795Y-81009744D01*
X163004774Y-81198102D01*
X162965000Y-81398061D01*
X162965000Y-81601939D01*
X163004774Y-81801898D01*
X163082795Y-81990256D01*
X163196063Y-82159774D01*
X163286289Y-82250000D01*
X163196063Y-82340226D01*
X163082795Y-82509744D01*
X163004774Y-82698102D01*
X162965000Y-82898061D01*
X162965000Y-83101939D01*
X163001392Y-83284897D01*
X162946063Y-83340226D01*
X162832795Y-83509744D01*
X162754774Y-83698102D01*
X162715000Y-83898061D01*
X162715000Y-84101939D01*
X162754774Y-84301898D01*
X162832795Y-84490256D01*
X162946063Y-84659774D01*
X163090226Y-84803937D01*
X163259744Y-84917205D01*
X163448102Y-84995226D01*
X163648061Y-85035000D01*
X163851939Y-85035000D01*
X164051898Y-84995226D01*
X164240256Y-84917205D01*
X164409774Y-84803937D01*
X164453711Y-84760000D01*
X165564691Y-84760000D01*
X165608626Y-84803935D01*
X165778144Y-84917203D01*
X165966502Y-84995224D01*
X166166461Y-85034998D01*
X166370339Y-85034998D01*
X166570298Y-84995224D01*
X166758656Y-84917203D01*
X166928174Y-84803935D01*
X167072337Y-84659772D01*
X167185605Y-84490254D01*
X167263626Y-84301896D01*
X167303400Y-84101937D01*
X167303400Y-84022269D01*
X167476589Y-84137990D01*
X167746842Y-84249932D01*
X168033740Y-84307000D01*
X168326260Y-84307000D01*
X168613158Y-84249932D01*
X168883411Y-84137990D01*
X169126632Y-83975475D01*
X169333475Y-83768632D01*
X169450000Y-83594240D01*
X169566525Y-83768632D01*
X169773368Y-83975475D01*
X170016589Y-84137990D01*
X170286842Y-84249932D01*
X170573740Y-84307000D01*
X170866260Y-84307000D01*
X171153158Y-84249932D01*
X171423411Y-84137990D01*
X171666632Y-83975475D01*
X171873475Y-83768632D01*
X172035990Y-83525411D01*
X172147932Y-83255158D01*
X172205000Y-82968260D01*
X172205000Y-82675740D01*
X172147932Y-82388842D01*
X172035990Y-82118589D01*
X171873475Y-81875368D01*
X171666632Y-81668525D01*
X171492240Y-81552000D01*
X171666632Y-81435475D01*
X171873475Y-81228632D01*
X172035990Y-80985411D01*
X172147932Y-80715158D01*
X172205000Y-80428260D01*
X172205000Y-80135740D01*
X172147932Y-79848842D01*
X172035990Y-79578589D01*
X171873475Y-79335368D01*
X171666632Y-79128525D01*
X171492240Y-79012000D01*
X171666632Y-78895475D01*
X171873475Y-78688632D01*
X172035990Y-78445411D01*
X172147932Y-78175158D01*
X172205000Y-77888260D01*
X172205000Y-77595740D01*
X172149276Y-77315600D01*
X173641887Y-77315600D01*
X173685826Y-77359539D01*
X173855344Y-77472807D01*
X174043702Y-77550828D01*
X174243661Y-77590602D01*
X174447539Y-77590602D01*
X174647498Y-77550828D01*
X174835856Y-77472807D01*
X175005374Y-77359539D01*
X175149537Y-77215376D01*
X175262805Y-77045858D01*
X175340826Y-76857500D01*
X175380600Y-76657541D01*
X175380600Y-76453663D01*
X175340826Y-76253704D01*
X175262805Y-76065346D01*
X175149537Y-75895828D01*
X175005374Y-75751665D01*
X174835856Y-75638397D01*
X174647498Y-75560376D01*
X174447539Y-75520602D01*
X174243661Y-75520602D01*
X174043702Y-75560376D01*
X173855344Y-75638397D01*
X173685826Y-75751665D01*
X173641891Y-75795600D01*
X172081475Y-75795600D01*
X172147932Y-75635158D01*
X172205000Y-75348260D01*
X172205000Y-75055740D01*
X172147932Y-74768842D01*
X172035990Y-74498589D01*
X171873475Y-74255368D01*
X171666632Y-74048525D01*
X171492240Y-73932000D01*
X171666632Y-73815475D01*
X171873475Y-73608632D01*
X172035990Y-73365411D01*
X172147932Y-73095158D01*
X172205000Y-72808260D01*
X172205000Y-72515740D01*
X172147932Y-72228842D01*
X172035990Y-71958589D01*
X171873475Y-71715368D01*
X171666632Y-71508525D01*
X171492240Y-71392000D01*
X171666632Y-71275475D01*
X171873475Y-71068632D01*
X172035990Y-70825411D01*
X172147932Y-70555158D01*
X172205000Y-70268260D01*
X172205000Y-69975740D01*
X172147932Y-69688842D01*
X172035990Y-69418589D01*
X171873475Y-69175368D01*
X171666632Y-68968525D01*
X171493271Y-68852689D01*
X171568792Y-68610397D01*
X170720000Y-67761605D01*
X169871208Y-68610397D01*
X169946729Y-68852689D01*
X169773368Y-68968525D01*
X169566525Y-69175368D01*
X169450000Y-69349760D01*
X169333475Y-69175368D01*
X169126632Y-68968525D01*
X168952240Y-68852000D01*
X169126632Y-68735475D01*
X169333475Y-68528632D01*
X169449311Y-68355271D01*
X169691603Y-68430792D01*
X170540395Y-67582000D01*
X170899605Y-67582000D01*
X171748397Y-68430792D01*
X171997472Y-68353157D01*
X172123371Y-68089117D01*
X172195339Y-67805589D01*
X172210611Y-67513469D01*
X172168599Y-67223981D01*
X172070919Y-66948253D01*
X171997472Y-66810843D01*
X171748397Y-66733208D01*
X170899605Y-67582000D01*
X170540395Y-67582000D01*
X169691603Y-66733208D01*
X169449311Y-66808729D01*
X169333475Y-66635368D01*
X169126632Y-66428525D01*
X168952240Y-66312000D01*
X169126632Y-66195475D01*
X169333475Y-65988632D01*
X169450000Y-65814240D01*
X169566525Y-65988632D01*
X169773368Y-66195475D01*
X169946729Y-66311311D01*
X169871208Y-66553603D01*
X170720000Y-67402395D01*
X171568792Y-66553603D01*
X171493271Y-66311311D01*
X171666632Y-66195475D01*
X171873475Y-65988632D01*
X172035990Y-65745411D01*
X172147932Y-65475158D01*
X172205000Y-65188260D01*
X172205000Y-64895740D01*
X172147932Y-64608842D01*
X172035990Y-64338589D01*
X171873475Y-64095368D01*
X171666632Y-63888525D01*
X171492240Y-63772000D01*
X171666632Y-63655475D01*
X171873475Y-63448632D01*
X172035990Y-63205411D01*
X172147932Y-62935158D01*
X172205000Y-62648260D01*
X172205000Y-62355740D01*
X172147932Y-62068842D01*
X172035990Y-61798589D01*
X171873475Y-61555368D01*
X171666632Y-61348525D01*
X171492240Y-61232000D01*
X171666632Y-61115475D01*
X171873475Y-60908632D01*
X172035990Y-60665411D01*
X172147932Y-60395158D01*
X172205000Y-60108260D01*
X172205000Y-59815740D01*
X172147932Y-59528842D01*
X172035990Y-59258589D01*
X171873475Y-59015368D01*
X171666632Y-58808525D01*
X171444349Y-58660000D01*
X176967721Y-58660000D01*
X177453893Y-58707670D01*
X177890498Y-58839489D01*
X178293185Y-59053600D01*
X178646612Y-59341848D01*
X178937327Y-59693261D01*
X179154242Y-60094439D01*
X179289106Y-60530113D01*
X179340000Y-61014344D01*
X179340001Y-143873000D01*
X176314105Y-143873000D01*
X176267804Y-143863158D01*
X176258639Y-143862195D01*
X176064405Y-143843150D01*
X176064402Y-143843150D01*
X176032419Y-143840000D01*
X164467581Y-143840000D01*
X164434613Y-143843247D01*
X164421633Y-143843247D01*
X164412468Y-143844210D01*
X164218518Y-143865965D01*
X164185422Y-143873000D01*
X160000000Y-143873000D01*
X159975224Y-143875440D01*
X159951399Y-143882667D01*
X159929443Y-143894403D01*
X159910197Y-143910197D01*
X159894403Y-143929443D01*
X159882667Y-143951399D01*
X159875440Y-143975224D01*
X159873000Y-144000000D01*
X159873000Y-153873000D01*
X156377000Y-153873000D01*
X156377000Y-140887852D01*
X168901753Y-140887852D01*
X169030076Y-141179871D01*
X169365695Y-141347723D01*
X169727611Y-141446874D01*
X170101916Y-141473514D01*
X170474227Y-141426618D01*
X170830235Y-141307988D01*
X171069924Y-141179871D01*
X171198247Y-140887852D01*
X170050000Y-139739605D01*
X168901753Y-140887852D01*
X156377000Y-140887852D01*
X156377000Y-139750000D01*
X156374560Y-139725224D01*
X156367333Y-139701399D01*
X156355597Y-139679443D01*
X156339803Y-139660197D01*
X156320557Y-139644403D01*
X156298601Y-139632667D01*
X156274776Y-139625440D01*
X156250000Y-139623000D01*
X149874579Y-139623000D01*
X149863495Y-139611916D01*
X168136486Y-139611916D01*
X168183382Y-139984227D01*
X168302012Y-140340235D01*
X168430129Y-140579924D01*
X168722148Y-140708247D01*
X169870395Y-139560000D01*
X170229605Y-139560000D01*
X171377852Y-140708247D01*
X171669871Y-140579924D01*
X171837723Y-140244305D01*
X171936874Y-139882389D01*
X171963514Y-139508084D01*
X171916618Y-139135773D01*
X171797988Y-138779765D01*
X171669871Y-138540076D01*
X171377852Y-138411753D01*
X170229605Y-139560000D01*
X169870395Y-139560000D01*
X168722148Y-138411753D01*
X168430129Y-138540076D01*
X168262277Y-138875695D01*
X168163126Y-139237611D01*
X168136486Y-139611916D01*
X149863495Y-139611916D01*
X148483727Y-138232148D01*
X168901753Y-138232148D01*
X170050000Y-139380395D01*
X171198247Y-138232148D01*
X171069924Y-137940129D01*
X170734305Y-137772277D01*
X170372389Y-137673126D01*
X169998084Y-137646486D01*
X169625773Y-137693382D01*
X169269765Y-137812012D01*
X169030076Y-137940129D01*
X168901753Y-138232148D01*
X148483727Y-138232148D01*
X144543953Y-134292374D01*
X168145000Y-134292374D01*
X168145000Y-134667626D01*
X168218209Y-135035668D01*
X168361811Y-135382356D01*
X168570290Y-135694366D01*
X168835634Y-135959710D01*
X169147644Y-136168189D01*
X169494332Y-136311791D01*
X169862374Y-136385000D01*
X170237626Y-136385000D01*
X170605668Y-136311791D01*
X170952356Y-136168189D01*
X171264366Y-135959710D01*
X171529710Y-135694366D01*
X171738189Y-135382356D01*
X171881791Y-135035668D01*
X171955000Y-134667626D01*
X171955000Y-134292374D01*
X171881791Y-133924332D01*
X171738189Y-133577644D01*
X171529710Y-133265634D01*
X171264366Y-133000290D01*
X170952356Y-132791811D01*
X170605668Y-132648209D01*
X170237626Y-132575000D01*
X169862374Y-132575000D01*
X169494332Y-132648209D01*
X169147644Y-132791811D01*
X168835634Y-133000290D01*
X168570290Y-133265634D01*
X168361811Y-133577644D01*
X168218209Y-133924332D01*
X168145000Y-134292374D01*
X144543953Y-134292374D01*
X143656534Y-133404956D01*
X143628817Y-133371183D01*
X143494059Y-133260589D01*
X143340313Y-133178411D01*
X143173490Y-133127805D01*
X143043477Y-133115000D01*
X143043469Y-133115000D01*
X143000000Y-133110719D01*
X142956531Y-133115000D01*
X117293469Y-133115000D01*
X117250000Y-133110719D01*
X117206531Y-133115000D01*
X117206523Y-133115000D01*
X117076510Y-133127805D01*
X116909687Y-133178411D01*
X116755941Y-133260589D01*
X116621183Y-133371183D01*
X116593466Y-133404956D01*
X116504957Y-133493465D01*
X116448102Y-133504774D01*
X116259744Y-133582795D01*
X116090226Y-133696063D01*
X115946063Y-133840226D01*
X115832795Y-134009744D01*
X115754774Y-134198102D01*
X115715000Y-134398061D01*
X115715000Y-134601939D01*
X115754774Y-134801898D01*
X115784226Y-134873000D01*
X114660000Y-134873000D01*
X114660000Y-120228531D01*
X120969389Y-120228531D01*
X121011401Y-120518019D01*
X121109081Y-120793747D01*
X121182528Y-120931157D01*
X121431603Y-121008792D01*
X122280395Y-120160000D01*
X121431603Y-119311208D01*
X121182528Y-119388843D01*
X121056629Y-119652883D01*
X120984661Y-119936411D01*
X120969389Y-120228531D01*
X114660000Y-120228531D01*
X114660000Y-90148061D01*
X115715000Y-90148061D01*
X115715000Y-90351939D01*
X115754774Y-90551898D01*
X115832795Y-90740256D01*
X115946063Y-90909774D01*
X116090226Y-91053937D01*
X116259744Y-91167205D01*
X116448102Y-91245226D01*
X116648061Y-91285000D01*
X116851939Y-91285000D01*
X117051898Y-91245226D01*
X117240256Y-91167205D01*
X117365000Y-91083854D01*
X117365000Y-93500000D01*
X117377201Y-93623882D01*
X117413336Y-93743004D01*
X117472017Y-93852787D01*
X117550987Y-93949013D01*
X117647213Y-94027983D01*
X117756996Y-94086664D01*
X117876118Y-94122799D01*
X118000000Y-94135000D01*
X121111531Y-94135000D01*
X121032068Y-94326842D01*
X120975000Y-94613740D01*
X120975000Y-94906260D01*
X121032068Y-95193158D01*
X121144010Y-95463411D01*
X121306525Y-95706632D01*
X121513368Y-95913475D01*
X121687760Y-96030000D01*
X121513368Y-96146525D01*
X121306525Y-96353368D01*
X121144010Y-96596589D01*
X121032068Y-96866842D01*
X120975000Y-97153740D01*
X120975000Y-97446260D01*
X121032068Y-97733158D01*
X121144010Y-98003411D01*
X121306525Y-98246632D01*
X121513368Y-98453475D01*
X121687760Y-98570000D01*
X121513368Y-98686525D01*
X121306525Y-98893368D01*
X121144010Y-99136589D01*
X121032068Y-99406842D01*
X120975000Y-99693740D01*
X120975000Y-99986260D01*
X121032068Y-100273158D01*
X121144010Y-100543411D01*
X121306525Y-100786632D01*
X121513368Y-100993475D01*
X121687760Y-101110000D01*
X121513368Y-101226525D01*
X121306525Y-101433368D01*
X121144010Y-101676589D01*
X121032068Y-101946842D01*
X120975000Y-102233740D01*
X120975000Y-102526260D01*
X121032068Y-102813158D01*
X121144010Y-103083411D01*
X121306525Y-103326632D01*
X121513368Y-103533475D01*
X121687760Y-103650000D01*
X121513368Y-103766525D01*
X121306525Y-103973368D01*
X121144010Y-104216589D01*
X121032068Y-104486842D01*
X120975000Y-104773740D01*
X120975000Y-105066260D01*
X121032068Y-105353158D01*
X121144010Y-105623411D01*
X121306525Y-105866632D01*
X121513368Y-106073475D01*
X121687760Y-106190000D01*
X121513368Y-106306525D01*
X121306525Y-106513368D01*
X121144010Y-106756589D01*
X121032068Y-107026842D01*
X120975000Y-107313740D01*
X120975000Y-107606260D01*
X121032068Y-107893158D01*
X121144010Y-108163411D01*
X121306525Y-108406632D01*
X121513368Y-108613475D01*
X121687760Y-108730000D01*
X121513368Y-108846525D01*
X121306525Y-109053368D01*
X121144010Y-109296589D01*
X121032068Y-109566842D01*
X120975000Y-109853740D01*
X120975000Y-110146260D01*
X121032068Y-110433158D01*
X121144010Y-110703411D01*
X121306525Y-110946632D01*
X121513368Y-111153475D01*
X121687760Y-111270000D01*
X121513368Y-111386525D01*
X121306525Y-111593368D01*
X121144010Y-111836589D01*
X121032068Y-112106842D01*
X120975000Y-112393740D01*
X120975000Y-112686260D01*
X121032068Y-112973158D01*
X121144010Y-113243411D01*
X121306525Y-113486632D01*
X121513368Y-113693475D01*
X121687760Y-113810000D01*
X121513368Y-113926525D01*
X121306525Y-114133368D01*
X121144010Y-114376589D01*
X121032068Y-114646842D01*
X120975000Y-114933740D01*
X120975000Y-115226260D01*
X121032068Y-115513158D01*
X121144010Y-115783411D01*
X121306525Y-116026632D01*
X121513368Y-116233475D01*
X121687760Y-116350000D01*
X121513368Y-116466525D01*
X121306525Y-116673368D01*
X121144010Y-116916589D01*
X121032068Y-117186842D01*
X120975000Y-117473740D01*
X120975000Y-117766260D01*
X121032068Y-118053158D01*
X121144010Y-118323411D01*
X121306525Y-118566632D01*
X121513368Y-118773475D01*
X121686729Y-118889311D01*
X121611208Y-119131603D01*
X122460000Y-119980395D01*
X123308792Y-119131603D01*
X123233271Y-118889311D01*
X123406632Y-118773475D01*
X123613475Y-118566632D01*
X123730000Y-118392240D01*
X123846525Y-118566632D01*
X124053368Y-118773475D01*
X124227760Y-118890000D01*
X124053368Y-119006525D01*
X123846525Y-119213368D01*
X123730689Y-119386729D01*
X123488397Y-119311208D01*
X122639605Y-120160000D01*
X123488397Y-121008792D01*
X123730689Y-120933271D01*
X123846525Y-121106632D01*
X124053368Y-121313475D01*
X124227760Y-121430000D01*
X124053368Y-121546525D01*
X123846525Y-121753368D01*
X123730000Y-121927760D01*
X123613475Y-121753368D01*
X123406632Y-121546525D01*
X123233271Y-121430689D01*
X123308792Y-121188397D01*
X122460000Y-120339605D01*
X121611208Y-121188397D01*
X121686729Y-121430689D01*
X121513368Y-121546525D01*
X121306525Y-121753368D01*
X121144010Y-121996589D01*
X121032068Y-122266842D01*
X120975000Y-122553740D01*
X120975000Y-122846260D01*
X121032068Y-123133158D01*
X121144010Y-123403411D01*
X121306525Y-123646632D01*
X121513368Y-123853475D01*
X121687760Y-123970000D01*
X121513368Y-124086525D01*
X121306525Y-124293368D01*
X121144010Y-124536589D01*
X121032068Y-124806842D01*
X120975000Y-125093740D01*
X120975000Y-125386260D01*
X121032068Y-125673158D01*
X121144010Y-125943411D01*
X121306525Y-126186632D01*
X121513368Y-126393475D01*
X121687760Y-126510000D01*
X121513368Y-126626525D01*
X121306525Y-126833368D01*
X121144010Y-127076589D01*
X121032068Y-127346842D01*
X120975000Y-127633740D01*
X120975000Y-127926260D01*
X121032068Y-128213158D01*
X121144010Y-128483411D01*
X121306525Y-128726632D01*
X121513368Y-128933475D01*
X121756589Y-129095990D01*
X122026842Y-129207932D01*
X122313740Y-129265000D01*
X122606260Y-129265000D01*
X122893158Y-129207932D01*
X123163411Y-129095990D01*
X123406632Y-128933475D01*
X123613475Y-128726632D01*
X123730000Y-128552240D01*
X123846525Y-128726632D01*
X124053368Y-128933475D01*
X124296589Y-129095990D01*
X124566842Y-129207932D01*
X124853740Y-129265000D01*
X125146260Y-129265000D01*
X125433158Y-129207932D01*
X125703411Y-129095990D01*
X125946632Y-128933475D01*
X126153475Y-128726632D01*
X126315990Y-128483411D01*
X126427932Y-128213158D01*
X126485000Y-127926260D01*
X126485000Y-127633740D01*
X126427932Y-127346842D01*
X126315990Y-127076589D01*
X126153475Y-126833368D01*
X125946632Y-126626525D01*
X125772240Y-126510000D01*
X125946632Y-126393475D01*
X126153475Y-126186632D01*
X126315990Y-125943411D01*
X126359251Y-125838967D01*
X149865000Y-125838967D01*
X149865000Y-126161033D01*
X149927832Y-126476912D01*
X150051082Y-126774463D01*
X150230013Y-127042252D01*
X150457748Y-127269987D01*
X150725537Y-127448918D01*
X151023088Y-127572168D01*
X151338967Y-127635000D01*
X151661033Y-127635000D01*
X151976912Y-127572168D01*
X152274463Y-127448918D01*
X152542252Y-127269987D01*
X152769987Y-127042252D01*
X152948918Y-126774463D01*
X153072168Y-126476912D01*
X153135000Y-126161033D01*
X153135000Y-125838967D01*
X156365000Y-125838967D01*
X156365000Y-126161033D01*
X156427832Y-126476912D01*
X156551082Y-126774463D01*
X156730013Y-127042252D01*
X156957748Y-127269987D01*
X157225537Y-127448918D01*
X157523088Y-127572168D01*
X157838967Y-127635000D01*
X158161033Y-127635000D01*
X158476912Y-127572168D01*
X158774463Y-127448918D01*
X159042252Y-127269987D01*
X159269987Y-127042252D01*
X159448918Y-126774463D01*
X159572168Y-126476912D01*
X159635000Y-126161033D01*
X159635000Y-125838967D01*
X159572168Y-125523088D01*
X159448918Y-125225537D01*
X159269987Y-124957748D01*
X159042252Y-124730013D01*
X158774463Y-124551082D01*
X158476912Y-124427832D01*
X158161033Y-124365000D01*
X157838967Y-124365000D01*
X157523088Y-124427832D01*
X157225537Y-124551082D01*
X156957748Y-124730013D01*
X156730013Y-124957748D01*
X156551082Y-125225537D01*
X156427832Y-125523088D01*
X156365000Y-125838967D01*
X153135000Y-125838967D01*
X153072168Y-125523088D01*
X152948918Y-125225537D01*
X152769987Y-124957748D01*
X152542252Y-124730013D01*
X152274463Y-124551082D01*
X151976912Y-124427832D01*
X151661033Y-124365000D01*
X151338967Y-124365000D01*
X151023088Y-124427832D01*
X150725537Y-124551082D01*
X150457748Y-124730013D01*
X150230013Y-124957748D01*
X150051082Y-125225537D01*
X149927832Y-125523088D01*
X149865000Y-125838967D01*
X126359251Y-125838967D01*
X126427932Y-125673158D01*
X126485000Y-125386260D01*
X126485000Y-125093740D01*
X126427932Y-124806842D01*
X126315990Y-124536589D01*
X126153475Y-124293368D01*
X125946632Y-124086525D01*
X125772240Y-123970000D01*
X125946632Y-123853475D01*
X126153475Y-123646632D01*
X126315990Y-123403411D01*
X126427932Y-123133158D01*
X126485000Y-122846260D01*
X126485000Y-122635413D01*
X150544192Y-122635413D01*
X150639956Y-122899814D01*
X150929571Y-123040704D01*
X151241108Y-123122384D01*
X151562595Y-123141718D01*
X151881675Y-123097961D01*
X152186088Y-122992795D01*
X152360044Y-122899814D01*
X152455808Y-122635413D01*
X157044192Y-122635413D01*
X157139956Y-122899814D01*
X157429571Y-123040704D01*
X157741108Y-123122384D01*
X158062595Y-123141718D01*
X158381675Y-123097961D01*
X158686088Y-122992795D01*
X158860044Y-122899814D01*
X158955808Y-122635413D01*
X158000000Y-121679605D01*
X157044192Y-122635413D01*
X152455808Y-122635413D01*
X151500000Y-121679605D01*
X150544192Y-122635413D01*
X126485000Y-122635413D01*
X126485000Y-122553740D01*
X126427932Y-122266842D01*
X126315990Y-121996589D01*
X126153475Y-121753368D01*
X125962702Y-121562595D01*
X149858282Y-121562595D01*
X149902039Y-121881675D01*
X150007205Y-122186088D01*
X150100186Y-122360044D01*
X150364587Y-122455808D01*
X151320395Y-121500000D01*
X151679605Y-121500000D01*
X152635413Y-122455808D01*
X152899814Y-122360044D01*
X153040704Y-122070429D01*
X153122384Y-121758892D01*
X153134189Y-121562595D01*
X156358282Y-121562595D01*
X156402039Y-121881675D01*
X156507205Y-122186088D01*
X156600186Y-122360044D01*
X156864587Y-122455808D01*
X157820395Y-121500000D01*
X158179605Y-121500000D01*
X159135413Y-122455808D01*
X159399814Y-122360044D01*
X159540704Y-122070429D01*
X159622384Y-121758892D01*
X159641718Y-121437405D01*
X159597961Y-121118325D01*
X159492795Y-120813912D01*
X159399814Y-120639956D01*
X159135413Y-120544192D01*
X158179605Y-121500000D01*
X157820395Y-121500000D01*
X156864587Y-120544192D01*
X156600186Y-120639956D01*
X156459296Y-120929571D01*
X156377616Y-121241108D01*
X156358282Y-121562595D01*
X153134189Y-121562595D01*
X153141718Y-121437405D01*
X153097961Y-121118325D01*
X152992795Y-120813912D01*
X152899814Y-120639956D01*
X152635413Y-120544192D01*
X151679605Y-121500000D01*
X151320395Y-121500000D01*
X150364587Y-120544192D01*
X150100186Y-120639956D01*
X149959296Y-120929571D01*
X149877616Y-121241108D01*
X149858282Y-121562595D01*
X125962702Y-121562595D01*
X125946632Y-121546525D01*
X125772240Y-121430000D01*
X125946632Y-121313475D01*
X126153475Y-121106632D01*
X126315990Y-120863411D01*
X126427932Y-120593158D01*
X126473397Y-120364587D01*
X150544192Y-120364587D01*
X151500000Y-121320395D01*
X152455808Y-120364587D01*
X157044192Y-120364587D01*
X158000000Y-121320395D01*
X158955808Y-120364587D01*
X158860044Y-120100186D01*
X158601747Y-119974531D01*
X166689389Y-119974531D01*
X166731401Y-120264019D01*
X166829081Y-120539747D01*
X166902528Y-120677157D01*
X167151603Y-120754792D01*
X168000395Y-119906000D01*
X167151603Y-119057208D01*
X166902528Y-119134843D01*
X166776629Y-119398883D01*
X166704661Y-119682411D01*
X166689389Y-119974531D01*
X158601747Y-119974531D01*
X158570429Y-119959296D01*
X158258892Y-119877616D01*
X157937405Y-119858282D01*
X157618325Y-119902039D01*
X157313912Y-120007205D01*
X157139956Y-120100186D01*
X157044192Y-120364587D01*
X152455808Y-120364587D01*
X152360044Y-120100186D01*
X152070429Y-119959296D01*
X151758892Y-119877616D01*
X151437405Y-119858282D01*
X151118325Y-119902039D01*
X150813912Y-120007205D01*
X150639956Y-120100186D01*
X150544192Y-120364587D01*
X126473397Y-120364587D01*
X126485000Y-120306260D01*
X126485000Y-120013740D01*
X126427932Y-119726842D01*
X126315990Y-119456589D01*
X126153475Y-119213368D01*
X125946632Y-119006525D01*
X125772240Y-118890000D01*
X125946632Y-118773475D01*
X126153475Y-118566632D01*
X126315990Y-118323411D01*
X126427932Y-118053158D01*
X126485000Y-117766260D01*
X126485000Y-117473740D01*
X126427932Y-117186842D01*
X126315990Y-116916589D01*
X126153475Y-116673368D01*
X125946632Y-116466525D01*
X125772240Y-116350000D01*
X125946632Y-116233475D01*
X126153475Y-116026632D01*
X126315990Y-115783411D01*
X126427932Y-115513158D01*
X126485000Y-115226260D01*
X126485000Y-114933740D01*
X126427932Y-114646842D01*
X126315990Y-114376589D01*
X126153475Y-114133368D01*
X125946632Y-113926525D01*
X125772240Y-113810000D01*
X125946632Y-113693475D01*
X126153475Y-113486632D01*
X126315990Y-113243411D01*
X126427932Y-112973158D01*
X126485000Y-112686260D01*
X126485000Y-112393740D01*
X126427932Y-112106842D01*
X126315990Y-111836589D01*
X126153475Y-111593368D01*
X125946632Y-111386525D01*
X125772240Y-111270000D01*
X125946632Y-111153475D01*
X126153475Y-110946632D01*
X126315990Y-110703411D01*
X126427932Y-110433158D01*
X126485000Y-110146260D01*
X126485000Y-109853740D01*
X126427932Y-109566842D01*
X126315990Y-109296589D01*
X126153475Y-109053368D01*
X125946632Y-108846525D01*
X125772240Y-108730000D01*
X125946632Y-108613475D01*
X126153475Y-108406632D01*
X126315990Y-108163411D01*
X126427932Y-107893158D01*
X126485000Y-107606260D01*
X126485000Y-107313740D01*
X126477201Y-107274531D01*
X166689389Y-107274531D01*
X166731401Y-107564019D01*
X166829081Y-107839747D01*
X166902528Y-107977157D01*
X167151603Y-108054792D01*
X168000395Y-107206000D01*
X167151603Y-106357208D01*
X166902528Y-106434843D01*
X166776629Y-106698883D01*
X166704661Y-106982411D01*
X166689389Y-107274531D01*
X126477201Y-107274531D01*
X126427932Y-107026842D01*
X126315990Y-106756589D01*
X126153475Y-106513368D01*
X125946632Y-106306525D01*
X125773271Y-106190689D01*
X125848792Y-105948397D01*
X125000000Y-105099605D01*
X124151208Y-105948397D01*
X124226729Y-106190689D01*
X124053368Y-106306525D01*
X123846525Y-106513368D01*
X123730000Y-106687760D01*
X123613475Y-106513368D01*
X123406632Y-106306525D01*
X123232240Y-106190000D01*
X123406632Y-106073475D01*
X123613475Y-105866632D01*
X123729311Y-105693271D01*
X123971603Y-105768792D01*
X124820395Y-104920000D01*
X125179605Y-104920000D01*
X126028397Y-105768792D01*
X126277472Y-105691157D01*
X126403371Y-105427117D01*
X126475339Y-105143589D01*
X126490611Y-104851469D01*
X126448599Y-104561981D01*
X126350919Y-104286253D01*
X126277472Y-104148843D01*
X126028397Y-104071208D01*
X125179605Y-104920000D01*
X124820395Y-104920000D01*
X123971603Y-104071208D01*
X123729311Y-104146729D01*
X123613475Y-103973368D01*
X123406632Y-103766525D01*
X123232240Y-103650000D01*
X123406632Y-103533475D01*
X123613475Y-103326632D01*
X123730000Y-103152240D01*
X123846525Y-103326632D01*
X124053368Y-103533475D01*
X124226729Y-103649311D01*
X124151208Y-103891603D01*
X125000000Y-104740395D01*
X125848792Y-103891603D01*
X125773271Y-103649311D01*
X125946632Y-103533475D01*
X126153475Y-103326632D01*
X126315990Y-103083411D01*
X126427932Y-102813158D01*
X126485000Y-102526260D01*
X126485000Y-102233740D01*
X126427932Y-101946842D01*
X126315990Y-101676589D01*
X126153475Y-101433368D01*
X125946632Y-101226525D01*
X125772240Y-101110000D01*
X125946632Y-100993475D01*
X126153475Y-100786632D01*
X126315990Y-100543411D01*
X126427932Y-100273158D01*
X126485000Y-99986260D01*
X126485000Y-99693740D01*
X126427932Y-99406842D01*
X126326211Y-99161263D01*
X140519200Y-99161263D01*
X140519200Y-99365141D01*
X140558974Y-99565100D01*
X140636995Y-99753458D01*
X140750263Y-99922976D01*
X140794201Y-99966914D01*
X140794200Y-102521289D01*
X140750263Y-102565226D01*
X140636995Y-102734744D01*
X140558974Y-102923102D01*
X140519200Y-103123061D01*
X140519200Y-103326939D01*
X140558974Y-103526898D01*
X140636995Y-103715256D01*
X140750263Y-103884774D01*
X140894426Y-104028937D01*
X141063944Y-104142205D01*
X141252302Y-104220226D01*
X141452261Y-104260000D01*
X141656139Y-104260000D01*
X141856098Y-104220226D01*
X142044456Y-104142205D01*
X142213974Y-104028937D01*
X142358137Y-103884774D01*
X142471405Y-103715256D01*
X142549426Y-103526898D01*
X142589200Y-103326939D01*
X142589200Y-103123061D01*
X142549426Y-102923102D01*
X142471405Y-102734744D01*
X142358137Y-102565226D01*
X142314200Y-102521289D01*
X142314200Y-99966913D01*
X142358137Y-99922976D01*
X142471405Y-99753458D01*
X142549426Y-99565100D01*
X142589200Y-99365141D01*
X142589200Y-99161263D01*
X142549426Y-98961304D01*
X142471405Y-98772946D01*
X142358137Y-98603428D01*
X142213974Y-98459265D01*
X142044456Y-98345997D01*
X141856098Y-98267976D01*
X141656139Y-98228202D01*
X141452261Y-98228202D01*
X141252302Y-98267976D01*
X141063944Y-98345997D01*
X140894426Y-98459265D01*
X140750263Y-98603428D01*
X140636995Y-98772946D01*
X140558974Y-98961304D01*
X140519200Y-99161263D01*
X126326211Y-99161263D01*
X126315990Y-99136589D01*
X126153475Y-98893368D01*
X125946632Y-98686525D01*
X125772240Y-98570000D01*
X125946632Y-98453475D01*
X126153475Y-98246632D01*
X126315990Y-98003411D01*
X126427932Y-97733158D01*
X126485000Y-97446260D01*
X126485000Y-97153740D01*
X126427932Y-96866842D01*
X126315990Y-96596589D01*
X126153475Y-96353368D01*
X125946632Y-96146525D01*
X125772240Y-96030000D01*
X125946632Y-95913475D01*
X126153475Y-95706632D01*
X126315990Y-95463411D01*
X126320359Y-95452861D01*
X158908800Y-95452861D01*
X158908800Y-95656739D01*
X158948574Y-95856698D01*
X159026595Y-96045056D01*
X159139863Y-96214574D01*
X159284026Y-96358737D01*
X159453544Y-96472005D01*
X159485055Y-96485058D01*
X159483795Y-96486944D01*
X159405774Y-96675302D01*
X159366000Y-96875261D01*
X159366000Y-97079139D01*
X159405774Y-97279098D01*
X159470274Y-97434815D01*
X159470063Y-97435026D01*
X159356795Y-97604544D01*
X159278774Y-97792902D01*
X159239000Y-97992861D01*
X159239000Y-98196739D01*
X159278774Y-98396698D01*
X159356795Y-98585056D01*
X159470063Y-98754574D01*
X159614226Y-98898737D01*
X159783744Y-99012005D01*
X159972102Y-99090026D01*
X160172061Y-99129800D01*
X160375939Y-99129800D01*
X160575898Y-99090026D01*
X160764256Y-99012005D01*
X160933774Y-98898737D01*
X160977711Y-98854800D01*
X162415091Y-98854800D01*
X162459028Y-98898737D01*
X162628546Y-99012005D01*
X162816904Y-99090026D01*
X163016863Y-99129800D01*
X163220741Y-99129800D01*
X163420700Y-99090026D01*
X163609058Y-99012005D01*
X163778576Y-98898737D01*
X163922739Y-98754574D01*
X164036007Y-98585056D01*
X164114028Y-98396698D01*
X164153802Y-98196739D01*
X164153802Y-98170661D01*
X164903200Y-98170661D01*
X164903200Y-98374539D01*
X164942974Y-98574498D01*
X165020995Y-98762856D01*
X165134263Y-98932374D01*
X165278426Y-99076537D01*
X165447944Y-99189805D01*
X165636302Y-99267826D01*
X165836261Y-99307600D01*
X166040139Y-99307600D01*
X166240098Y-99267826D01*
X166428456Y-99189805D01*
X166597974Y-99076537D01*
X166641911Y-99032600D01*
X166801874Y-99032600D01*
X166752068Y-99152842D01*
X166695000Y-99439740D01*
X166695000Y-99732260D01*
X166752068Y-100019158D01*
X166864010Y-100289411D01*
X167026525Y-100532632D01*
X167233368Y-100739475D01*
X167407760Y-100856000D01*
X167233368Y-100972525D01*
X167026525Y-101179368D01*
X166864010Y-101422589D01*
X166752068Y-101692842D01*
X166695000Y-101979740D01*
X166695000Y-102272260D01*
X166752068Y-102559158D01*
X166864010Y-102829411D01*
X167026525Y-103072632D01*
X167233368Y-103279475D01*
X167407760Y-103396000D01*
X167233368Y-103512525D01*
X167026525Y-103719368D01*
X166864010Y-103962589D01*
X166752068Y-104232842D01*
X166695000Y-104519740D01*
X166695000Y-104812260D01*
X166752068Y-105099158D01*
X166864010Y-105369411D01*
X167026525Y-105612632D01*
X167233368Y-105819475D01*
X167406729Y-105935311D01*
X167331208Y-106177603D01*
X168180000Y-107026395D01*
X169028792Y-106177603D01*
X168953271Y-105935311D01*
X169126632Y-105819475D01*
X169333475Y-105612632D01*
X169450000Y-105438240D01*
X169566525Y-105612632D01*
X169773368Y-105819475D01*
X169947760Y-105936000D01*
X169773368Y-106052525D01*
X169566525Y-106259368D01*
X169450689Y-106432729D01*
X169208397Y-106357208D01*
X168359605Y-107206000D01*
X169208397Y-108054792D01*
X169450689Y-107979271D01*
X169566525Y-108152632D01*
X169773368Y-108359475D01*
X169947760Y-108476000D01*
X169773368Y-108592525D01*
X169566525Y-108799368D01*
X169450000Y-108973760D01*
X169333475Y-108799368D01*
X169126632Y-108592525D01*
X168953271Y-108476689D01*
X169028792Y-108234397D01*
X168180000Y-107385605D01*
X167331208Y-108234397D01*
X167406729Y-108476689D01*
X167233368Y-108592525D01*
X167026525Y-108799368D01*
X166864010Y-109042589D01*
X166752068Y-109312842D01*
X166695000Y-109599740D01*
X166695000Y-109892260D01*
X166752068Y-110179158D01*
X166864010Y-110449411D01*
X167026525Y-110692632D01*
X167233368Y-110899475D01*
X167407760Y-111016000D01*
X167233368Y-111132525D01*
X167026525Y-111339368D01*
X166864010Y-111582589D01*
X166752068Y-111852842D01*
X166695000Y-112139740D01*
X166695000Y-112432260D01*
X166752068Y-112719158D01*
X166864010Y-112989411D01*
X167026525Y-113232632D01*
X167233368Y-113439475D01*
X167407760Y-113556000D01*
X167233368Y-113672525D01*
X167026525Y-113879368D01*
X166864010Y-114122589D01*
X166752068Y-114392842D01*
X166695000Y-114679740D01*
X166695000Y-114972260D01*
X166752068Y-115259158D01*
X166864010Y-115529411D01*
X167026525Y-115772632D01*
X167233368Y-115979475D01*
X167407760Y-116096000D01*
X167233368Y-116212525D01*
X167026525Y-116419368D01*
X166864010Y-116662589D01*
X166752068Y-116932842D01*
X166695000Y-117219740D01*
X166695000Y-117512260D01*
X166752068Y-117799158D01*
X166864010Y-118069411D01*
X167026525Y-118312632D01*
X167233368Y-118519475D01*
X167406729Y-118635311D01*
X167331208Y-118877603D01*
X168180000Y-119726395D01*
X169028792Y-118877603D01*
X168953271Y-118635311D01*
X169126632Y-118519475D01*
X169333475Y-118312632D01*
X169450000Y-118138240D01*
X169566525Y-118312632D01*
X169773368Y-118519475D01*
X169947760Y-118636000D01*
X169773368Y-118752525D01*
X169566525Y-118959368D01*
X169450689Y-119132729D01*
X169208397Y-119057208D01*
X168359605Y-119906000D01*
X169208397Y-120754792D01*
X169450689Y-120679271D01*
X169566525Y-120852632D01*
X169773368Y-121059475D01*
X169947760Y-121176000D01*
X169773368Y-121292525D01*
X169566525Y-121499368D01*
X169450000Y-121673760D01*
X169333475Y-121499368D01*
X169126632Y-121292525D01*
X168953271Y-121176689D01*
X169028792Y-120934397D01*
X168180000Y-120085605D01*
X167331208Y-120934397D01*
X167406729Y-121176689D01*
X167233368Y-121292525D01*
X167026525Y-121499368D01*
X166864010Y-121742589D01*
X166752068Y-122012842D01*
X166695000Y-122299740D01*
X166695000Y-122592260D01*
X166752068Y-122879158D01*
X166864010Y-123149411D01*
X167026525Y-123392632D01*
X167233368Y-123599475D01*
X167407760Y-123716000D01*
X167233368Y-123832525D01*
X167026525Y-124039368D01*
X166864010Y-124282589D01*
X166752068Y-124552842D01*
X166695000Y-124839740D01*
X166695000Y-125132260D01*
X166752068Y-125419158D01*
X166864010Y-125689411D01*
X167026525Y-125932632D01*
X167233368Y-126139475D01*
X167407760Y-126256000D01*
X167233368Y-126372525D01*
X167026525Y-126579368D01*
X166864010Y-126822589D01*
X166752068Y-127092842D01*
X166695000Y-127379740D01*
X166695000Y-127672260D01*
X166752068Y-127959158D01*
X166864010Y-128229411D01*
X167026525Y-128472632D01*
X167233368Y-128679475D01*
X167476589Y-128841990D01*
X167746842Y-128953932D01*
X168033740Y-129011000D01*
X168326260Y-129011000D01*
X168613158Y-128953932D01*
X168883411Y-128841990D01*
X169126632Y-128679475D01*
X169333475Y-128472632D01*
X169450000Y-128298240D01*
X169566525Y-128472632D01*
X169773368Y-128679475D01*
X170016589Y-128841990D01*
X170286842Y-128953932D01*
X170573740Y-129011000D01*
X170866260Y-129011000D01*
X171153158Y-128953932D01*
X171423411Y-128841990D01*
X171666632Y-128679475D01*
X171873475Y-128472632D01*
X172035990Y-128229411D01*
X172147932Y-127959158D01*
X172205000Y-127672260D01*
X172205000Y-127379740D01*
X172151544Y-127110999D01*
X173889898Y-127110999D01*
X174065861Y-127146000D01*
X174269739Y-127146000D01*
X174469698Y-127106226D01*
X174658056Y-127028205D01*
X174827574Y-126914937D01*
X174971737Y-126770774D01*
X175085005Y-126601256D01*
X175163026Y-126412898D01*
X175202800Y-126212939D01*
X175202800Y-126009061D01*
X175163026Y-125809102D01*
X175085005Y-125620744D01*
X174971737Y-125451226D01*
X174827574Y-125307063D01*
X174658056Y-125193795D01*
X174469698Y-125115774D01*
X174269739Y-125076000D01*
X174065861Y-125076000D01*
X173865902Y-125115774D01*
X173677544Y-125193795D01*
X173508026Y-125307063D01*
X173363863Y-125451226D01*
X173270470Y-125590999D01*
X172076753Y-125590999D01*
X172147932Y-125419158D01*
X172205000Y-125132260D01*
X172205000Y-124839740D01*
X172147932Y-124552842D01*
X172087605Y-124407200D01*
X174530889Y-124407200D01*
X174574826Y-124451137D01*
X174744344Y-124564405D01*
X174932702Y-124642426D01*
X175132661Y-124682200D01*
X175336539Y-124682200D01*
X175536498Y-124642426D01*
X175724856Y-124564405D01*
X175894374Y-124451137D01*
X176038537Y-124306974D01*
X176151805Y-124137456D01*
X176229826Y-123949098D01*
X176269600Y-123749139D01*
X176269600Y-123545261D01*
X176229826Y-123345302D01*
X176151805Y-123156944D01*
X176038537Y-122987426D01*
X175894374Y-122843263D01*
X175724856Y-122729995D01*
X175536498Y-122651974D01*
X175336539Y-122612200D01*
X175132661Y-122612200D01*
X174932702Y-122651974D01*
X174744344Y-122729995D01*
X174574826Y-122843263D01*
X174530889Y-122887200D01*
X172144601Y-122887200D01*
X172147932Y-122879158D01*
X172205000Y-122592260D01*
X172205000Y-122299740D01*
X172147932Y-122012842D01*
X172035990Y-121742589D01*
X171873475Y-121499368D01*
X171666632Y-121292525D01*
X171492240Y-121176000D01*
X171666632Y-121059475D01*
X171873475Y-120852632D01*
X172035990Y-120609411D01*
X172147932Y-120339158D01*
X172205000Y-120052260D01*
X172205000Y-119759740D01*
X172147932Y-119472842D01*
X172035990Y-119202589D01*
X171873475Y-118959368D01*
X171666632Y-118752525D01*
X171492240Y-118636000D01*
X171666632Y-118519475D01*
X171873475Y-118312632D01*
X172035990Y-118069411D01*
X172147932Y-117799158D01*
X172205000Y-117512260D01*
X172205000Y-117219740D01*
X172147932Y-116932842D01*
X172035990Y-116662589D01*
X171873475Y-116419368D01*
X171666632Y-116212525D01*
X171492240Y-116096000D01*
X171666632Y-115979475D01*
X171873475Y-115772632D01*
X172035990Y-115529411D01*
X172147932Y-115259158D01*
X172205000Y-114972260D01*
X172205000Y-114679740D01*
X172147932Y-114392842D01*
X172035990Y-114122589D01*
X171873475Y-113879368D01*
X171666632Y-113672525D01*
X171493271Y-113556689D01*
X171568792Y-113314397D01*
X170720000Y-112465605D01*
X169871208Y-113314397D01*
X169946729Y-113556689D01*
X169773368Y-113672525D01*
X169566525Y-113879368D01*
X169450000Y-114053760D01*
X169333475Y-113879368D01*
X169126632Y-113672525D01*
X168952240Y-113556000D01*
X169126632Y-113439475D01*
X169333475Y-113232632D01*
X169449311Y-113059271D01*
X169691603Y-113134792D01*
X170540395Y-112286000D01*
X170899605Y-112286000D01*
X171748397Y-113134792D01*
X171997472Y-113057157D01*
X172123371Y-112793117D01*
X172195339Y-112509589D01*
X172210611Y-112217469D01*
X172168599Y-111927981D01*
X172070919Y-111652253D01*
X171997472Y-111514843D01*
X171748397Y-111437208D01*
X170899605Y-112286000D01*
X170540395Y-112286000D01*
X169691603Y-111437208D01*
X169449311Y-111512729D01*
X169333475Y-111339368D01*
X169126632Y-111132525D01*
X168952240Y-111016000D01*
X169126632Y-110899475D01*
X169333475Y-110692632D01*
X169450000Y-110518240D01*
X169566525Y-110692632D01*
X169773368Y-110899475D01*
X169946729Y-111015311D01*
X169871208Y-111257603D01*
X170720000Y-112106395D01*
X171568792Y-111257603D01*
X171493271Y-111015311D01*
X171666632Y-110899475D01*
X171873475Y-110692632D01*
X172035990Y-110449411D01*
X172147932Y-110179158D01*
X172205000Y-109892260D01*
X172205000Y-109599740D01*
X172147932Y-109312842D01*
X172035990Y-109042589D01*
X171873475Y-108799368D01*
X171666632Y-108592525D01*
X171492240Y-108476000D01*
X171666632Y-108359475D01*
X171873475Y-108152632D01*
X172035990Y-107909411D01*
X172147932Y-107639158D01*
X172205000Y-107352260D01*
X172205000Y-107059740D01*
X172147932Y-106772842D01*
X172035990Y-106502589D01*
X171873475Y-106259368D01*
X171666632Y-106052525D01*
X171492240Y-105936000D01*
X171666632Y-105819475D01*
X171873475Y-105612632D01*
X172035990Y-105369411D01*
X172147932Y-105099158D01*
X172205000Y-104812260D01*
X172205000Y-104519740D01*
X172147932Y-104232842D01*
X172035990Y-103962589D01*
X171873475Y-103719368D01*
X171666632Y-103512525D01*
X171492240Y-103396000D01*
X171666632Y-103279475D01*
X171873475Y-103072632D01*
X172035990Y-102829411D01*
X172147932Y-102559158D01*
X172205000Y-102272260D01*
X172205000Y-101979740D01*
X172147932Y-101692842D01*
X172035990Y-101422589D01*
X171873475Y-101179368D01*
X171666632Y-100972525D01*
X171492240Y-100856000D01*
X171666632Y-100739475D01*
X171873475Y-100532632D01*
X172035990Y-100289411D01*
X172147932Y-100019158D01*
X172205000Y-99732260D01*
X172205000Y-99439740D01*
X172147932Y-99152842D01*
X172098126Y-99032600D01*
X175648489Y-99032600D01*
X175692426Y-99076537D01*
X175861944Y-99189805D01*
X176050302Y-99267826D01*
X176250261Y-99307600D01*
X176454139Y-99307600D01*
X176654098Y-99267826D01*
X176842456Y-99189805D01*
X177011974Y-99076537D01*
X177156137Y-98932374D01*
X177269405Y-98762856D01*
X177347426Y-98574498D01*
X177387200Y-98374539D01*
X177387200Y-98170661D01*
X177347426Y-97970702D01*
X177269405Y-97782344D01*
X177156137Y-97612826D01*
X177011974Y-97468663D01*
X176842456Y-97355395D01*
X176654098Y-97277374D01*
X176454139Y-97237600D01*
X176250261Y-97237600D01*
X176050302Y-97277374D01*
X175861944Y-97355395D01*
X175692426Y-97468663D01*
X175648489Y-97512600D01*
X172134080Y-97512600D01*
X172147932Y-97479158D01*
X172205000Y-97192260D01*
X172205000Y-96899740D01*
X172147932Y-96612842D01*
X172098126Y-96492600D01*
X174835689Y-96492600D01*
X174879626Y-96536537D01*
X175049144Y-96649805D01*
X175237502Y-96727826D01*
X175437461Y-96767600D01*
X175641339Y-96767600D01*
X175841298Y-96727826D01*
X176029656Y-96649805D01*
X176199174Y-96536537D01*
X176343337Y-96392374D01*
X176456605Y-96222856D01*
X176534626Y-96034498D01*
X176574400Y-95834539D01*
X176574400Y-95630661D01*
X176534626Y-95430702D01*
X176456605Y-95242344D01*
X176343337Y-95072826D01*
X176199174Y-94928663D01*
X176029656Y-94815395D01*
X175841298Y-94737374D01*
X175641339Y-94697600D01*
X175437461Y-94697600D01*
X175237502Y-94737374D01*
X175049144Y-94815395D01*
X174879626Y-94928663D01*
X174835689Y-94972600D01*
X172134080Y-94972600D01*
X172147932Y-94939158D01*
X172205000Y-94652260D01*
X172205000Y-94359740D01*
X172147932Y-94072842D01*
X172035990Y-93802589D01*
X171873475Y-93559368D01*
X171666632Y-93352525D01*
X171492240Y-93236000D01*
X171666632Y-93119475D01*
X171873475Y-92912632D01*
X172035990Y-92669411D01*
X172147932Y-92399158D01*
X172205000Y-92112260D01*
X172205000Y-91819740D01*
X172147932Y-91532842D01*
X172035990Y-91262589D01*
X171873475Y-91019368D01*
X171666632Y-90812525D01*
X171492240Y-90696000D01*
X171666632Y-90579475D01*
X171873475Y-90372632D01*
X172035990Y-90129411D01*
X172147932Y-89859158D01*
X172205000Y-89572260D01*
X172205000Y-89279740D01*
X172147932Y-88992842D01*
X172035990Y-88722589D01*
X171873475Y-88479368D01*
X171666632Y-88272525D01*
X171492240Y-88156000D01*
X171666632Y-88039475D01*
X171873475Y-87832632D01*
X172035990Y-87589411D01*
X172147932Y-87319158D01*
X172205000Y-87032260D01*
X172205000Y-86739740D01*
X172147932Y-86452842D01*
X172035990Y-86182589D01*
X171873475Y-85939368D01*
X171666632Y-85732525D01*
X171423411Y-85570010D01*
X171153158Y-85458068D01*
X170866260Y-85401000D01*
X170573740Y-85401000D01*
X170286842Y-85458068D01*
X170016589Y-85570010D01*
X169773368Y-85732525D01*
X169566525Y-85939368D01*
X169450000Y-86113760D01*
X169333475Y-85939368D01*
X169126632Y-85732525D01*
X168883411Y-85570010D01*
X168613158Y-85458068D01*
X168326260Y-85401000D01*
X168033740Y-85401000D01*
X167746842Y-85458068D01*
X167476589Y-85570010D01*
X167233368Y-85732525D01*
X167026525Y-85939368D01*
X166864010Y-86182589D01*
X166752068Y-86452842D01*
X166695000Y-86739740D01*
X166695000Y-87032260D01*
X166752068Y-87319158D01*
X166864010Y-87589411D01*
X167026525Y-87832632D01*
X167233368Y-88039475D01*
X167407760Y-88156000D01*
X167233368Y-88272525D01*
X167026525Y-88479368D01*
X166864010Y-88722589D01*
X166752068Y-88992842D01*
X166695000Y-89279740D01*
X166695000Y-89572260D01*
X166752068Y-89859158D01*
X166864010Y-90129411D01*
X167026525Y-90372632D01*
X167233368Y-90579475D01*
X167406729Y-90695311D01*
X167331208Y-90937603D01*
X168180000Y-91786395D01*
X169028792Y-90937603D01*
X168953271Y-90695311D01*
X169126632Y-90579475D01*
X169333475Y-90372632D01*
X169450000Y-90198240D01*
X169566525Y-90372632D01*
X169773368Y-90579475D01*
X169947760Y-90696000D01*
X169773368Y-90812525D01*
X169566525Y-91019368D01*
X169450689Y-91192729D01*
X169208397Y-91117208D01*
X168359605Y-91966000D01*
X169208397Y-92814792D01*
X169450689Y-92739271D01*
X169566525Y-92912632D01*
X169773368Y-93119475D01*
X169947760Y-93236000D01*
X169773368Y-93352525D01*
X169566525Y-93559368D01*
X169450000Y-93733760D01*
X169333475Y-93559368D01*
X169126632Y-93352525D01*
X168953271Y-93236689D01*
X169028792Y-92994397D01*
X168180000Y-92145605D01*
X167331208Y-92994397D01*
X167406729Y-93236689D01*
X167233368Y-93352525D01*
X167026525Y-93559368D01*
X166864010Y-93802589D01*
X166752068Y-94072842D01*
X166695000Y-94359740D01*
X166695000Y-94652260D01*
X166699007Y-94672403D01*
X166671898Y-94661174D01*
X166471939Y-94621400D01*
X166268061Y-94621400D01*
X166068102Y-94661174D01*
X165879744Y-94739195D01*
X165710226Y-94852463D01*
X165566063Y-94996626D01*
X165452795Y-95166144D01*
X165374774Y-95354502D01*
X165335000Y-95554461D01*
X165335000Y-95758339D01*
X165374774Y-95958298D01*
X165452795Y-96146656D01*
X165566063Y-96316174D01*
X165710226Y-96460337D01*
X165879744Y-96573605D01*
X166068102Y-96651626D01*
X166268061Y-96691400D01*
X166471939Y-96691400D01*
X166671898Y-96651626D01*
X166750859Y-96618919D01*
X166695000Y-96899740D01*
X166695000Y-97192260D01*
X166752068Y-97479158D01*
X166765920Y-97512600D01*
X166641911Y-97512600D01*
X166597974Y-97468663D01*
X166428456Y-97355395D01*
X166240098Y-97277374D01*
X166040139Y-97237600D01*
X165836261Y-97237600D01*
X165636302Y-97277374D01*
X165447944Y-97355395D01*
X165278426Y-97468663D01*
X165134263Y-97612826D01*
X165020995Y-97782344D01*
X164942974Y-97970702D01*
X164903200Y-98170661D01*
X164153802Y-98170661D01*
X164153802Y-97992861D01*
X164117326Y-97809481D01*
X164235774Y-97730337D01*
X164379937Y-97586174D01*
X164493205Y-97416656D01*
X164571226Y-97228298D01*
X164611000Y-97028339D01*
X164611000Y-96824461D01*
X164571226Y-96624502D01*
X164493205Y-96436144D01*
X164379937Y-96266626D01*
X164235774Y-96122463D01*
X164066256Y-96009195D01*
X163877898Y-95931174D01*
X163773375Y-95910383D01*
X163785000Y-95851939D01*
X163785000Y-95648061D01*
X163745226Y-95448102D01*
X163667205Y-95259744D01*
X163553937Y-95090226D01*
X163409774Y-94946063D01*
X163240256Y-94832795D01*
X163051898Y-94754774D01*
X162851939Y-94715000D01*
X162648061Y-94715000D01*
X162448102Y-94754774D01*
X162259744Y-94832795D01*
X162090226Y-94946063D01*
X162046289Y-94990000D01*
X160811196Y-94990000D01*
X160747737Y-94895026D01*
X160603574Y-94750863D01*
X160434056Y-94637595D01*
X160245698Y-94559574D01*
X160045739Y-94519800D01*
X159841861Y-94519800D01*
X159641902Y-94559574D01*
X159453544Y-94637595D01*
X159284026Y-94750863D01*
X159139863Y-94895026D01*
X159026595Y-95064544D01*
X158948574Y-95252902D01*
X158908800Y-95452861D01*
X126320359Y-95452861D01*
X126427932Y-95193158D01*
X126485000Y-94906260D01*
X126485000Y-94613740D01*
X126427932Y-94326842D01*
X126315990Y-94056589D01*
X126153475Y-93813368D01*
X125946632Y-93606525D01*
X125772240Y-93490000D01*
X125946632Y-93373475D01*
X126153475Y-93166632D01*
X126315990Y-92923411D01*
X126427932Y-92653158D01*
X126485000Y-92366260D01*
X126485000Y-92150861D01*
X138309400Y-92150861D01*
X138309400Y-92354739D01*
X138349174Y-92554698D01*
X138427195Y-92743056D01*
X138540463Y-92912574D01*
X138684626Y-93056737D01*
X138854144Y-93170005D01*
X139042502Y-93248026D01*
X139242461Y-93287800D01*
X139446339Y-93287800D01*
X139646298Y-93248026D01*
X139834656Y-93170005D01*
X140004174Y-93056737D01*
X140148337Y-92912574D01*
X140261605Y-92743056D01*
X140339626Y-92554698D01*
X140379400Y-92354739D01*
X140379400Y-92150861D01*
X140379229Y-92150000D01*
X141011928Y-92150000D01*
X141011928Y-93850000D01*
X141024188Y-93974482D01*
X141060498Y-94094180D01*
X141119463Y-94204494D01*
X141198815Y-94301185D01*
X141295506Y-94380537D01*
X141405820Y-94439502D01*
X141525518Y-94475812D01*
X141650000Y-94488072D01*
X143350000Y-94488072D01*
X143474482Y-94475812D01*
X143594180Y-94439502D01*
X143704494Y-94380537D01*
X143801185Y-94301185D01*
X143880537Y-94204494D01*
X143939502Y-94094180D01*
X143963966Y-94013534D01*
X144039731Y-94097588D01*
X144273080Y-94271641D01*
X144535901Y-94396825D01*
X144683110Y-94441476D01*
X144913000Y-94320155D01*
X144913000Y-93127000D01*
X144893000Y-93127000D01*
X144893000Y-92873000D01*
X144913000Y-92873000D01*
X144913000Y-91679845D01*
X145167000Y-91679845D01*
X145167000Y-92873000D01*
X145187000Y-92873000D01*
X145187000Y-93127000D01*
X145167000Y-93127000D01*
X145167000Y-94320155D01*
X145396890Y-94441476D01*
X145544099Y-94396825D01*
X145806920Y-94271641D01*
X146040269Y-94097588D01*
X146235178Y-93881355D01*
X146304805Y-93764466D01*
X146426525Y-93946632D01*
X146633368Y-94153475D01*
X146876589Y-94315990D01*
X147146842Y-94427932D01*
X147433740Y-94485000D01*
X147726260Y-94485000D01*
X148013158Y-94427932D01*
X148283411Y-94315990D01*
X148526632Y-94153475D01*
X148733475Y-93946632D01*
X148850000Y-93772240D01*
X148966525Y-93946632D01*
X149173368Y-94153475D01*
X149416589Y-94315990D01*
X149686842Y-94427932D01*
X149973740Y-94485000D01*
X150266260Y-94485000D01*
X150553158Y-94427932D01*
X150823411Y-94315990D01*
X151066632Y-94153475D01*
X151273475Y-93946632D01*
X151435990Y-93703411D01*
X151547932Y-93433158D01*
X151605000Y-93146260D01*
X151605000Y-92853740D01*
X151547932Y-92566842D01*
X151435990Y-92296589D01*
X151273475Y-92053368D01*
X151254638Y-92034531D01*
X166689389Y-92034531D01*
X166731401Y-92324019D01*
X166829081Y-92599747D01*
X166902528Y-92737157D01*
X167151603Y-92814792D01*
X168000395Y-91966000D01*
X167151603Y-91117208D01*
X166902528Y-91194843D01*
X166776629Y-91458883D01*
X166704661Y-91742411D01*
X166689389Y-92034531D01*
X151254638Y-92034531D01*
X151066632Y-91846525D01*
X150823411Y-91684010D01*
X150553158Y-91572068D01*
X150266260Y-91515000D01*
X150046292Y-91515000D01*
X150142205Y-91371456D01*
X150220226Y-91183098D01*
X150260000Y-90983139D01*
X150260000Y-90779261D01*
X150220226Y-90579302D01*
X150142205Y-90390944D01*
X150028937Y-90221426D01*
X149985000Y-90177489D01*
X149985000Y-89324311D01*
X150028937Y-89280374D01*
X150142205Y-89110856D01*
X150220226Y-88922498D01*
X150260000Y-88722539D01*
X150260000Y-88518661D01*
X150220226Y-88318702D01*
X150142205Y-88130344D01*
X150028937Y-87960826D01*
X149884774Y-87816663D01*
X149715256Y-87703395D01*
X149526898Y-87625374D01*
X149326939Y-87585600D01*
X149123061Y-87585600D01*
X148923102Y-87625374D01*
X148734744Y-87703395D01*
X148565226Y-87816663D01*
X148421063Y-87960826D01*
X148307795Y-88130344D01*
X148229774Y-88318702D01*
X148190000Y-88518661D01*
X148190000Y-88722539D01*
X148229774Y-88922498D01*
X148307795Y-89110856D01*
X148421063Y-89280374D01*
X148465001Y-89324312D01*
X148465000Y-90177489D01*
X148421063Y-90221426D01*
X148307795Y-90390944D01*
X148229774Y-90579302D01*
X148190000Y-90779261D01*
X148190000Y-90983139D01*
X148229774Y-91183098D01*
X148307795Y-91371456D01*
X148421063Y-91540974D01*
X148565226Y-91685137D01*
X148734744Y-91798405D01*
X148923102Y-91876426D01*
X149106906Y-91912987D01*
X148966525Y-92053368D01*
X148850000Y-92227760D01*
X148733475Y-92053368D01*
X148526632Y-91846525D01*
X148283411Y-91684010D01*
X148013158Y-91572068D01*
X147726260Y-91515000D01*
X147433740Y-91515000D01*
X147146842Y-91572068D01*
X146876589Y-91684010D01*
X146633368Y-91846525D01*
X146426525Y-92053368D01*
X146304805Y-92235534D01*
X146235178Y-92118645D01*
X146040269Y-91902412D01*
X145806920Y-91728359D01*
X145544099Y-91603175D01*
X145396890Y-91558524D01*
X145167000Y-91679845D01*
X144913000Y-91679845D01*
X144683110Y-91558524D01*
X144535901Y-91603175D01*
X144273080Y-91728359D01*
X144039731Y-91902412D01*
X143963966Y-91986466D01*
X143939502Y-91905820D01*
X143880537Y-91795506D01*
X143801185Y-91698815D01*
X143704494Y-91619463D01*
X143594180Y-91560498D01*
X143474482Y-91524188D01*
X143350000Y-91511928D01*
X141650000Y-91511928D01*
X141525518Y-91524188D01*
X141405820Y-91560498D01*
X141295506Y-91619463D01*
X141198815Y-91698815D01*
X141119463Y-91795506D01*
X141060498Y-91905820D01*
X141024188Y-92025518D01*
X141011928Y-92150000D01*
X140379229Y-92150000D01*
X140339626Y-91950902D01*
X140261605Y-91762544D01*
X140148337Y-91593026D01*
X140104400Y-91549089D01*
X140104400Y-91043601D01*
X140349401Y-90798600D01*
X140411539Y-90798600D01*
X140611498Y-90758826D01*
X140799856Y-90680805D01*
X140969374Y-90567537D01*
X141113537Y-90423374D01*
X141226805Y-90253856D01*
X141304826Y-90065498D01*
X141344600Y-89865539D01*
X141344600Y-89661661D01*
X141304826Y-89461702D01*
X141226805Y-89273344D01*
X141113537Y-89103826D01*
X140969374Y-88959663D01*
X140799856Y-88846395D01*
X140611498Y-88768374D01*
X140411539Y-88728600D01*
X140207661Y-88728600D01*
X140007702Y-88768374D01*
X139819344Y-88846395D01*
X139649826Y-88959663D01*
X139505663Y-89103826D01*
X139392395Y-89273344D01*
X139314374Y-89461702D01*
X139274600Y-89661661D01*
X139274600Y-89723799D01*
X138833398Y-90165001D01*
X138804400Y-90188799D01*
X138780602Y-90217797D01*
X138780601Y-90217798D01*
X138709426Y-90304524D01*
X138638854Y-90436554D01*
X138614330Y-90517401D01*
X138595398Y-90579814D01*
X138584401Y-90691467D01*
X138580724Y-90728800D01*
X138584401Y-90766132D01*
X138584400Y-91549089D01*
X138540463Y-91593026D01*
X138427195Y-91762544D01*
X138349174Y-91950902D01*
X138309400Y-92150861D01*
X126485000Y-92150861D01*
X126485000Y-92073740D01*
X126427932Y-91786842D01*
X126315990Y-91516589D01*
X126153475Y-91273368D01*
X125946632Y-91066525D01*
X125703411Y-90904010D01*
X125433158Y-90792068D01*
X125146260Y-90735000D01*
X124853740Y-90735000D01*
X124566842Y-90792068D01*
X124296589Y-90904010D01*
X124053368Y-91066525D01*
X123846525Y-91273368D01*
X123730000Y-91447760D01*
X123613475Y-91273368D01*
X123406632Y-91066525D01*
X123163411Y-90904010D01*
X122893158Y-90792068D01*
X122606260Y-90735000D01*
X122313740Y-90735000D01*
X122026842Y-90792068D01*
X121885000Y-90850821D01*
X121885000Y-89135000D01*
X123750000Y-89135000D01*
X123873882Y-89122799D01*
X123993004Y-89086664D01*
X124102787Y-89027983D01*
X124199013Y-88949013D01*
X124277983Y-88852787D01*
X124336664Y-88743004D01*
X124372799Y-88623882D01*
X124385000Y-88500000D01*
X124385000Y-88492611D01*
X124566842Y-88567932D01*
X124853740Y-88625000D01*
X125146260Y-88625000D01*
X125433158Y-88567932D01*
X125703411Y-88455990D01*
X125946632Y-88293475D01*
X126153475Y-88086632D01*
X126315990Y-87843411D01*
X126427932Y-87573158D01*
X126485000Y-87286260D01*
X126485000Y-86993740D01*
X126427932Y-86706842D01*
X126315990Y-86436589D01*
X126153475Y-86193368D01*
X125946632Y-85986525D01*
X125772240Y-85870000D01*
X125946632Y-85753475D01*
X126153475Y-85546632D01*
X126315990Y-85303411D01*
X126427932Y-85033158D01*
X126485000Y-84746260D01*
X126485000Y-84453740D01*
X126427932Y-84166842D01*
X126315990Y-83896589D01*
X126153475Y-83653368D01*
X125946632Y-83446525D01*
X125772240Y-83330000D01*
X125946632Y-83213475D01*
X126153475Y-83006632D01*
X126226019Y-82898061D01*
X136715000Y-82898061D01*
X136715000Y-83101939D01*
X136754774Y-83301898D01*
X136832795Y-83490256D01*
X136865000Y-83538455D01*
X136865001Y-85712721D01*
X136860719Y-85756200D01*
X136877805Y-85929690D01*
X136928412Y-86096513D01*
X137010590Y-86250259D01*
X137093468Y-86351246D01*
X137093471Y-86351249D01*
X137121184Y-86385017D01*
X137154951Y-86412729D01*
X137423465Y-86681243D01*
X137434774Y-86738098D01*
X137512795Y-86926456D01*
X137626063Y-87095974D01*
X137770226Y-87240137D01*
X137939744Y-87353405D01*
X138128102Y-87431426D01*
X138328061Y-87471200D01*
X138531939Y-87471200D01*
X138731898Y-87431426D01*
X138920256Y-87353405D01*
X139089774Y-87240137D01*
X139233937Y-87095974D01*
X139347205Y-86926456D01*
X139425226Y-86738098D01*
X139465000Y-86538139D01*
X139465000Y-86334261D01*
X139425226Y-86134302D01*
X139347205Y-85945944D01*
X139233937Y-85776426D01*
X139089774Y-85632263D01*
X138920256Y-85518995D01*
X138731898Y-85440974D01*
X138675043Y-85429665D01*
X138635000Y-85389622D01*
X138635000Y-85165861D01*
X157237376Y-85165861D01*
X157237376Y-85369739D01*
X157277150Y-85569698D01*
X157355171Y-85758056D01*
X157468439Y-85927574D01*
X157612602Y-86071737D01*
X157782120Y-86185005D01*
X157970478Y-86263026D01*
X158170437Y-86302800D01*
X158374315Y-86302800D01*
X158574274Y-86263026D01*
X158762632Y-86185005D01*
X158932150Y-86071737D01*
X158976087Y-86027800D01*
X159646487Y-86027800D01*
X159690424Y-86071737D01*
X159859942Y-86185005D01*
X160048300Y-86263026D01*
X160248259Y-86302800D01*
X160452137Y-86302800D01*
X160652096Y-86263026D01*
X160840454Y-86185005D01*
X161009972Y-86071737D01*
X161154135Y-85927574D01*
X161267403Y-85758056D01*
X161345424Y-85569698D01*
X161385198Y-85369739D01*
X161385198Y-85165861D01*
X161345424Y-84965902D01*
X161267403Y-84777544D01*
X161154135Y-84608026D01*
X161009972Y-84463863D01*
X160840454Y-84350595D01*
X160652096Y-84272574D01*
X160452137Y-84232800D01*
X160248259Y-84232800D01*
X160048300Y-84272574D01*
X159859942Y-84350595D01*
X159690424Y-84463863D01*
X159646487Y-84507800D01*
X158976087Y-84507800D01*
X158932150Y-84463863D01*
X158762632Y-84350595D01*
X158574274Y-84272574D01*
X158374315Y-84232800D01*
X158170437Y-84232800D01*
X157970478Y-84272574D01*
X157782120Y-84350595D01*
X157612602Y-84463863D01*
X157468439Y-84608026D01*
X157355171Y-84777544D01*
X157277150Y-84965902D01*
X157237376Y-85165861D01*
X138635000Y-85165861D01*
X138635000Y-83538454D01*
X138667205Y-83490256D01*
X138745226Y-83301898D01*
X138785000Y-83101939D01*
X138785000Y-82898061D01*
X138745226Y-82698102D01*
X138667205Y-82509744D01*
X138553937Y-82340226D01*
X138409774Y-82196063D01*
X138240256Y-82082795D01*
X138051898Y-82004774D01*
X137851939Y-81965000D01*
X137648061Y-81965000D01*
X137448102Y-82004774D01*
X137259744Y-82082795D01*
X137090226Y-82196063D01*
X136946063Y-82340226D01*
X136832795Y-82509744D01*
X136754774Y-82698102D01*
X136715000Y-82898061D01*
X126226019Y-82898061D01*
X126315990Y-82763411D01*
X126427932Y-82493158D01*
X126485000Y-82206260D01*
X126485000Y-81913740D01*
X126427932Y-81626842D01*
X126315990Y-81356589D01*
X126153475Y-81113368D01*
X125946632Y-80906525D01*
X125772240Y-80790000D01*
X125946632Y-80673475D01*
X126153475Y-80466632D01*
X126315990Y-80223411D01*
X126427932Y-79953158D01*
X126485000Y-79666260D01*
X126485000Y-79373740D01*
X126427932Y-79086842D01*
X126315990Y-78816589D01*
X126153475Y-78573368D01*
X125946632Y-78366525D01*
X125772240Y-78250000D01*
X125946632Y-78133475D01*
X126153475Y-77926632D01*
X126315990Y-77683411D01*
X126427932Y-77413158D01*
X126485000Y-77126260D01*
X126485000Y-76833740D01*
X126427932Y-76546842D01*
X126315990Y-76276589D01*
X126153475Y-76033368D01*
X125946632Y-75826525D01*
X125772240Y-75710000D01*
X125946632Y-75593475D01*
X126153475Y-75386632D01*
X126315990Y-75143411D01*
X126427932Y-74873158D01*
X126485000Y-74586260D01*
X126485000Y-74338589D01*
X130869000Y-74338589D01*
X130869000Y-74611411D01*
X130922225Y-74878989D01*
X131026629Y-75131043D01*
X131178201Y-75357886D01*
X131371114Y-75550799D01*
X131597957Y-75702371D01*
X131850011Y-75806775D01*
X132117589Y-75860000D01*
X132390411Y-75860000D01*
X132657989Y-75806775D01*
X132910043Y-75702371D01*
X133136886Y-75550799D01*
X133329799Y-75357886D01*
X133481371Y-75131043D01*
X133524000Y-75028127D01*
X133566629Y-75131043D01*
X133718201Y-75357886D01*
X133911114Y-75550799D01*
X134137957Y-75702371D01*
X134390011Y-75806775D01*
X134657589Y-75860000D01*
X134930411Y-75860000D01*
X135197989Y-75806775D01*
X135450043Y-75702371D01*
X135676886Y-75550799D01*
X135869799Y-75357886D01*
X136021371Y-75131043D01*
X136064000Y-75028127D01*
X136106629Y-75131043D01*
X136258201Y-75357886D01*
X136451114Y-75550799D01*
X136677957Y-75702371D01*
X136930011Y-75806775D01*
X137197589Y-75860000D01*
X137470411Y-75860000D01*
X137737989Y-75806775D01*
X137990043Y-75702371D01*
X138216886Y-75550799D01*
X138335692Y-75431993D01*
X139096612Y-75431993D01*
X139162137Y-75670860D01*
X139409116Y-75786760D01*
X139673960Y-75852250D01*
X139946492Y-75864812D01*
X140216238Y-75823965D01*
X140472832Y-75731277D01*
X140585863Y-75670860D01*
X140651388Y-75431993D01*
X139874000Y-74654605D01*
X139096612Y-75431993D01*
X138335692Y-75431993D01*
X138409799Y-75357886D01*
X138561371Y-75131043D01*
X138602511Y-75031721D01*
X138617723Y-75073832D01*
X138678140Y-75186863D01*
X138917007Y-75252388D01*
X139694395Y-74475000D01*
X140053605Y-74475000D01*
X140830993Y-75252388D01*
X141069860Y-75186863D01*
X141185760Y-74939884D01*
X141251250Y-74675040D01*
X141263812Y-74402508D01*
X141254133Y-74338589D01*
X150554000Y-74338589D01*
X150554000Y-74611411D01*
X150607225Y-74878989D01*
X150711629Y-75131043D01*
X150863201Y-75357886D01*
X151056114Y-75550799D01*
X151282957Y-75702371D01*
X151535011Y-75806775D01*
X151802589Y-75860000D01*
X152075411Y-75860000D01*
X152342989Y-75806775D01*
X152595043Y-75702371D01*
X152821886Y-75550799D01*
X153014799Y-75357886D01*
X153166371Y-75131043D01*
X153209000Y-75028127D01*
X153251629Y-75131043D01*
X153403201Y-75357886D01*
X153596114Y-75550799D01*
X153822957Y-75702371D01*
X154075011Y-75806775D01*
X154342589Y-75860000D01*
X154615411Y-75860000D01*
X154882989Y-75806775D01*
X155135043Y-75702371D01*
X155361886Y-75550799D01*
X155554799Y-75357886D01*
X155706371Y-75131043D01*
X155749000Y-75028127D01*
X155791629Y-75131043D01*
X155943201Y-75357886D01*
X156136114Y-75550799D01*
X156362957Y-75702371D01*
X156615011Y-75806775D01*
X156882589Y-75860000D01*
X157155411Y-75860000D01*
X157422989Y-75806775D01*
X157675043Y-75702371D01*
X157901886Y-75550799D01*
X158020692Y-75431993D01*
X158781612Y-75431993D01*
X158847137Y-75670860D01*
X159094116Y-75786760D01*
X159358960Y-75852250D01*
X159631492Y-75864812D01*
X159901238Y-75823965D01*
X160157832Y-75731277D01*
X160270863Y-75670860D01*
X160336388Y-75431993D01*
X159559000Y-74654605D01*
X158781612Y-75431993D01*
X158020692Y-75431993D01*
X158094799Y-75357886D01*
X158246371Y-75131043D01*
X158287511Y-75031721D01*
X158302723Y-75073832D01*
X158363140Y-75186863D01*
X158602007Y-75252388D01*
X159379395Y-74475000D01*
X158602007Y-73697612D01*
X158363140Y-73763137D01*
X158288836Y-73921477D01*
X158246371Y-73818957D01*
X158094799Y-73592114D01*
X157901886Y-73399201D01*
X157675043Y-73247629D01*
X157422989Y-73143225D01*
X157155411Y-73090000D01*
X156882589Y-73090000D01*
X156615011Y-73143225D01*
X156362957Y-73247629D01*
X156136114Y-73399201D01*
X155943201Y-73592114D01*
X155791629Y-73818957D01*
X155749000Y-73921873D01*
X155706371Y-73818957D01*
X155554799Y-73592114D01*
X155361886Y-73399201D01*
X155135043Y-73247629D01*
X154882989Y-73143225D01*
X154615411Y-73090000D01*
X154342589Y-73090000D01*
X154075011Y-73143225D01*
X153822957Y-73247629D01*
X153596114Y-73399201D01*
X153403201Y-73592114D01*
X153251629Y-73818957D01*
X153209000Y-73921873D01*
X153166371Y-73818957D01*
X153014799Y-73592114D01*
X152821886Y-73399201D01*
X152595043Y-73247629D01*
X152342989Y-73143225D01*
X152075411Y-73090000D01*
X151802589Y-73090000D01*
X151535011Y-73143225D01*
X151282957Y-73247629D01*
X151056114Y-73399201D01*
X150863201Y-73592114D01*
X150711629Y-73818957D01*
X150607225Y-74071011D01*
X150554000Y-74338589D01*
X141254133Y-74338589D01*
X141222965Y-74132762D01*
X141130277Y-73876168D01*
X141069860Y-73763137D01*
X140830993Y-73697612D01*
X140053605Y-74475000D01*
X139694395Y-74475000D01*
X138917007Y-73697612D01*
X138678140Y-73763137D01*
X138603836Y-73921477D01*
X138561371Y-73818957D01*
X138409799Y-73592114D01*
X138216886Y-73399201D01*
X137990043Y-73247629D01*
X137737989Y-73143225D01*
X137470411Y-73090000D01*
X137197589Y-73090000D01*
X136930011Y-73143225D01*
X136677957Y-73247629D01*
X136451114Y-73399201D01*
X136258201Y-73592114D01*
X136106629Y-73818957D01*
X136064000Y-73921873D01*
X136021371Y-73818957D01*
X135869799Y-73592114D01*
X135676886Y-73399201D01*
X135450043Y-73247629D01*
X135197989Y-73143225D01*
X134930411Y-73090000D01*
X134657589Y-73090000D01*
X134390011Y-73143225D01*
X134137957Y-73247629D01*
X133911114Y-73399201D01*
X133718201Y-73592114D01*
X133566629Y-73818957D01*
X133524000Y-73921873D01*
X133481371Y-73818957D01*
X133329799Y-73592114D01*
X133136886Y-73399201D01*
X132910043Y-73247629D01*
X132657989Y-73143225D01*
X132390411Y-73090000D01*
X132117589Y-73090000D01*
X131850011Y-73143225D01*
X131597957Y-73247629D01*
X131371114Y-73399201D01*
X131178201Y-73592114D01*
X131026629Y-73818957D01*
X130922225Y-74071011D01*
X130869000Y-74338589D01*
X126485000Y-74338589D01*
X126485000Y-74293740D01*
X126427932Y-74006842D01*
X126315990Y-73736589D01*
X126153475Y-73493368D01*
X125946632Y-73286525D01*
X125772240Y-73170000D01*
X125946632Y-73053475D01*
X126153475Y-72846632D01*
X126315990Y-72603411D01*
X126427932Y-72333158D01*
X126485000Y-72046260D01*
X126485000Y-71798589D01*
X132139000Y-71798589D01*
X132139000Y-72071411D01*
X132192225Y-72338989D01*
X132296629Y-72591043D01*
X132448201Y-72817886D01*
X132641114Y-73010799D01*
X132867957Y-73162371D01*
X133120011Y-73266775D01*
X133387589Y-73320000D01*
X133660411Y-73320000D01*
X133927989Y-73266775D01*
X134180043Y-73162371D01*
X134406886Y-73010799D01*
X134599799Y-72817886D01*
X134751371Y-72591043D01*
X134794000Y-72488127D01*
X134836629Y-72591043D01*
X134988201Y-72817886D01*
X135181114Y-73010799D01*
X135407957Y-73162371D01*
X135660011Y-73266775D01*
X135927589Y-73320000D01*
X136200411Y-73320000D01*
X136467989Y-73266775D01*
X136720043Y-73162371D01*
X136946886Y-73010799D01*
X137139799Y-72817886D01*
X137291371Y-72591043D01*
X137334000Y-72488127D01*
X137376629Y-72591043D01*
X137528201Y-72817886D01*
X137721114Y-73010799D01*
X137947957Y-73162371D01*
X138200011Y-73266775D01*
X138467589Y-73320000D01*
X138740411Y-73320000D01*
X139007989Y-73266775D01*
X139260043Y-73162371D01*
X139486886Y-73010799D01*
X139679799Y-72817886D01*
X139757555Y-72701517D01*
X139768188Y-72809482D01*
X139804498Y-72929180D01*
X139863463Y-73039494D01*
X139904873Y-73089952D01*
X139801508Y-73085188D01*
X139531762Y-73126035D01*
X139275168Y-73218723D01*
X139162137Y-73279140D01*
X139096612Y-73518007D01*
X139874000Y-74295395D01*
X140651388Y-73518007D01*
X140597545Y-73321725D01*
X140858250Y-73320000D01*
X141017000Y-73161250D01*
X141017000Y-72062000D01*
X141271000Y-72062000D01*
X141271000Y-73161250D01*
X141429750Y-73320000D01*
X141894000Y-73323072D01*
X142018482Y-73310812D01*
X142138180Y-73274502D01*
X142248494Y-73215537D01*
X142345185Y-73136185D01*
X142424537Y-73039494D01*
X142483502Y-72929180D01*
X142519812Y-72809482D01*
X142532072Y-72685000D01*
X142529000Y-72220750D01*
X142370250Y-72062000D01*
X141271000Y-72062000D01*
X141017000Y-72062000D01*
X140997000Y-72062000D01*
X140997000Y-71808000D01*
X141017000Y-71808000D01*
X141017000Y-70708750D01*
X141271000Y-70708750D01*
X141271000Y-71808000D01*
X142370250Y-71808000D01*
X142379661Y-71798589D01*
X151824000Y-71798589D01*
X151824000Y-72071411D01*
X151877225Y-72338989D01*
X151981629Y-72591043D01*
X152133201Y-72817886D01*
X152326114Y-73010799D01*
X152552957Y-73162371D01*
X152805011Y-73266775D01*
X153072589Y-73320000D01*
X153345411Y-73320000D01*
X153612989Y-73266775D01*
X153865043Y-73162371D01*
X154091886Y-73010799D01*
X154284799Y-72817886D01*
X154436371Y-72591043D01*
X154479000Y-72488127D01*
X154521629Y-72591043D01*
X154673201Y-72817886D01*
X154866114Y-73010799D01*
X155092957Y-73162371D01*
X155345011Y-73266775D01*
X155612589Y-73320000D01*
X155885411Y-73320000D01*
X156152989Y-73266775D01*
X156405043Y-73162371D01*
X156631886Y-73010799D01*
X156824799Y-72817886D01*
X156976371Y-72591043D01*
X157019000Y-72488127D01*
X157061629Y-72591043D01*
X157213201Y-72817886D01*
X157406114Y-73010799D01*
X157632957Y-73162371D01*
X157885011Y-73266775D01*
X158152589Y-73320000D01*
X158425411Y-73320000D01*
X158570365Y-73291167D01*
X158784969Y-73505770D01*
X158781612Y-73518007D01*
X159559000Y-74295395D01*
X159573143Y-74281253D01*
X159752748Y-74460858D01*
X159738605Y-74475000D01*
X160515993Y-75252388D01*
X160754860Y-75186863D01*
X160870760Y-74939884D01*
X160936250Y-74675040D01*
X160948812Y-74402508D01*
X160907965Y-74132762D01*
X160893241Y-74092000D01*
X162569676Y-74092000D01*
X162606998Y-74095676D01*
X162644320Y-74092000D01*
X162644331Y-74092000D01*
X162755984Y-74081003D01*
X162899245Y-74037546D01*
X163031274Y-73966974D01*
X163146999Y-73872001D01*
X163170802Y-73842997D01*
X164630200Y-72383600D01*
X164692337Y-72383600D01*
X164892296Y-72343826D01*
X165080654Y-72265805D01*
X165250172Y-72152537D01*
X165394335Y-72008374D01*
X165507603Y-71838856D01*
X165585624Y-71650498D01*
X165625398Y-71450539D01*
X165625398Y-71246661D01*
X165585624Y-71046702D01*
X165507603Y-70858344D01*
X165394335Y-70688826D01*
X165250172Y-70544663D01*
X165080654Y-70431395D01*
X164892296Y-70353374D01*
X164692337Y-70313600D01*
X164488459Y-70313600D01*
X164288500Y-70353374D01*
X164100142Y-70431395D01*
X163930624Y-70544663D01*
X163786461Y-70688826D01*
X163673193Y-70858344D01*
X163595172Y-71046702D01*
X163555398Y-71246661D01*
X163555398Y-71308798D01*
X162292197Y-72572000D01*
X162217072Y-72572000D01*
X162217072Y-71185000D01*
X162204812Y-71060518D01*
X162168502Y-70940820D01*
X162109537Y-70830506D01*
X162030185Y-70733815D01*
X161933494Y-70654463D01*
X161823180Y-70595498D01*
X161703482Y-70559188D01*
X161636648Y-70552606D01*
X161568411Y-70424941D01*
X161457817Y-70290183D01*
X161424044Y-70262466D01*
X160914034Y-69752456D01*
X160886317Y-69718683D01*
X160751559Y-69608089D01*
X160597813Y-69525911D01*
X160430990Y-69475305D01*
X160300977Y-69462500D01*
X160300969Y-69462500D01*
X160257500Y-69458219D01*
X160214031Y-69462500D01*
X158902879Y-69462500D01*
X157445333Y-68004955D01*
X157434024Y-67948100D01*
X157356003Y-67759742D01*
X157242735Y-67590224D01*
X157098572Y-67446061D01*
X156929054Y-67332793D01*
X156740696Y-67254772D01*
X156540737Y-67214998D01*
X156336859Y-67214998D01*
X156136900Y-67254772D01*
X155948542Y-67332793D01*
X155779024Y-67446061D01*
X155634861Y-67590224D01*
X155521593Y-67759742D01*
X155443572Y-67948100D01*
X155403798Y-68148059D01*
X155403798Y-68351937D01*
X155443572Y-68551896D01*
X155521593Y-68740254D01*
X155634861Y-68909772D01*
X155779024Y-69053935D01*
X155948542Y-69167203D01*
X156136900Y-69245224D01*
X156193755Y-69256533D01*
X157641367Y-70704146D01*
X157632957Y-70707629D01*
X157406114Y-70859201D01*
X157213201Y-71052114D01*
X157061629Y-71278957D01*
X157019000Y-71381873D01*
X156976371Y-71278957D01*
X156824799Y-71052114D01*
X156631886Y-70859201D01*
X156405043Y-70707629D01*
X156152989Y-70603225D01*
X155885411Y-70550000D01*
X155612589Y-70550000D01*
X155345011Y-70603225D01*
X155092957Y-70707629D01*
X154866114Y-70859201D01*
X154673201Y-71052114D01*
X154521629Y-71278957D01*
X154479000Y-71381873D01*
X154436371Y-71278957D01*
X154284799Y-71052114D01*
X154091886Y-70859201D01*
X153865043Y-70707629D01*
X153612989Y-70603225D01*
X153345411Y-70550000D01*
X153072589Y-70550000D01*
X152805011Y-70603225D01*
X152552957Y-70707629D01*
X152326114Y-70859201D01*
X152133201Y-71052114D01*
X151981629Y-71278957D01*
X151877225Y-71531011D01*
X151824000Y-71798589D01*
X142379661Y-71798589D01*
X142529000Y-71649250D01*
X142532072Y-71185000D01*
X142519812Y-71060518D01*
X142483502Y-70940820D01*
X142424537Y-70830506D01*
X142345185Y-70733815D01*
X142248494Y-70654463D01*
X142138180Y-70595498D01*
X142018482Y-70559188D01*
X141894000Y-70546928D01*
X141429750Y-70550000D01*
X141271000Y-70708750D01*
X141017000Y-70708750D01*
X140858250Y-70550000D01*
X140394000Y-70546928D01*
X140269518Y-70559188D01*
X140149820Y-70595498D01*
X140039506Y-70654463D01*
X139942815Y-70733815D01*
X139863463Y-70830506D01*
X139804498Y-70940820D01*
X139768188Y-71060518D01*
X139757555Y-71168483D01*
X139679799Y-71052114D01*
X139486886Y-70859201D01*
X139260043Y-70707629D01*
X139007989Y-70603225D01*
X138740411Y-70550000D01*
X138467589Y-70550000D01*
X138200011Y-70603225D01*
X137947957Y-70707629D01*
X137721114Y-70859201D01*
X137528201Y-71052114D01*
X137376629Y-71278957D01*
X137334000Y-71381873D01*
X137291371Y-71278957D01*
X137139799Y-71052114D01*
X136946886Y-70859201D01*
X136720043Y-70707629D01*
X136467989Y-70603225D01*
X136200411Y-70550000D01*
X135927589Y-70550000D01*
X135660011Y-70603225D01*
X135407957Y-70707629D01*
X135181114Y-70859201D01*
X134988201Y-71052114D01*
X134836629Y-71278957D01*
X134794000Y-71381873D01*
X134751371Y-71278957D01*
X134599799Y-71052114D01*
X134406886Y-70859201D01*
X134180043Y-70707629D01*
X133927989Y-70603225D01*
X133660411Y-70550000D01*
X133387589Y-70550000D01*
X133120011Y-70603225D01*
X132867957Y-70707629D01*
X132641114Y-70859201D01*
X132448201Y-71052114D01*
X132296629Y-71278957D01*
X132192225Y-71531011D01*
X132139000Y-71798589D01*
X126485000Y-71798589D01*
X126485000Y-71753740D01*
X126427932Y-71466842D01*
X126315990Y-71196589D01*
X126153475Y-70953368D01*
X125946632Y-70746525D01*
X125772240Y-70630000D01*
X125946632Y-70513475D01*
X126153475Y-70306632D01*
X126315990Y-70063411D01*
X126427932Y-69793158D01*
X126485000Y-69506260D01*
X126485000Y-69213740D01*
X126427932Y-68926842D01*
X126315990Y-68656589D01*
X126153475Y-68413368D01*
X125946632Y-68206525D01*
X125703411Y-68044010D01*
X125433158Y-67932068D01*
X125146260Y-67875000D01*
X124853740Y-67875000D01*
X124566842Y-67932068D01*
X124296589Y-68044010D01*
X124053368Y-68206525D01*
X123846525Y-68413368D01*
X123730000Y-68587760D01*
X123613475Y-68413368D01*
X123406632Y-68206525D01*
X123163411Y-68044010D01*
X122893158Y-67932068D01*
X122606260Y-67875000D01*
X122313740Y-67875000D01*
X122026842Y-67932068D01*
X121756589Y-68044010D01*
X121513368Y-68206525D01*
X121306525Y-68413368D01*
X121144010Y-68656589D01*
X121032068Y-68926842D01*
X120975000Y-69213740D01*
X120975000Y-69506260D01*
X121032068Y-69793158D01*
X121144010Y-70063411D01*
X121306525Y-70306632D01*
X121513368Y-70513475D01*
X121687760Y-70630000D01*
X121513368Y-70746525D01*
X121306525Y-70953368D01*
X121144010Y-71196589D01*
X121032068Y-71466842D01*
X120975000Y-71753740D01*
X120975000Y-72046260D01*
X121032068Y-72333158D01*
X121144010Y-72603411D01*
X121306525Y-72846632D01*
X121513368Y-73053475D01*
X121687760Y-73170000D01*
X121513368Y-73286525D01*
X121306525Y-73493368D01*
X121144010Y-73736589D01*
X121032068Y-74006842D01*
X120975000Y-74293740D01*
X120975000Y-74586260D01*
X121032068Y-74873158D01*
X121144010Y-75143411D01*
X121306525Y-75386632D01*
X121513368Y-75593475D01*
X121687760Y-75710000D01*
X121513368Y-75826525D01*
X121306525Y-76033368D01*
X121144010Y-76276589D01*
X121032068Y-76546842D01*
X120975000Y-76833740D01*
X120975000Y-77126260D01*
X121032068Y-77413158D01*
X121144010Y-77683411D01*
X121306525Y-77926632D01*
X121513368Y-78133475D01*
X121687760Y-78250000D01*
X121513368Y-78366525D01*
X121306525Y-78573368D01*
X121144010Y-78816589D01*
X121032068Y-79086842D01*
X120975000Y-79373740D01*
X120975000Y-79666260D01*
X121032068Y-79953158D01*
X121144010Y-80223411D01*
X121306525Y-80466632D01*
X121513368Y-80673475D01*
X121686729Y-80789311D01*
X121611208Y-81031603D01*
X122460000Y-81880395D01*
X123308792Y-81031603D01*
X123233271Y-80789311D01*
X123406632Y-80673475D01*
X123613475Y-80466632D01*
X123730000Y-80292240D01*
X123846525Y-80466632D01*
X124053368Y-80673475D01*
X124227760Y-80790000D01*
X124053368Y-80906525D01*
X123846525Y-81113368D01*
X123730689Y-81286729D01*
X123488397Y-81211208D01*
X122639605Y-82060000D01*
X123488397Y-82908792D01*
X123730689Y-82833271D01*
X123846525Y-83006632D01*
X124053368Y-83213475D01*
X124227760Y-83330000D01*
X124053368Y-83446525D01*
X123846525Y-83653368D01*
X123730689Y-83826729D01*
X123488397Y-83751208D01*
X122639605Y-84600000D01*
X122653748Y-84614143D01*
X122474143Y-84793748D01*
X122460000Y-84779605D01*
X122445858Y-84793748D01*
X122266253Y-84614143D01*
X122280395Y-84600000D01*
X121431603Y-83751208D01*
X121182528Y-83828843D01*
X121056629Y-84092883D01*
X120984661Y-84376411D01*
X120969389Y-84668531D01*
X121011401Y-84958019D01*
X121067013Y-85115000D01*
X118000000Y-85115000D01*
X117876118Y-85127201D01*
X117756996Y-85163336D01*
X117647213Y-85222017D01*
X117550987Y-85300987D01*
X117472017Y-85397213D01*
X117413336Y-85506996D01*
X117377201Y-85626118D01*
X117365000Y-85750000D01*
X117365000Y-86849322D01*
X117340266Y-86832795D01*
X117151908Y-86754774D01*
X116951949Y-86715000D01*
X116748071Y-86715000D01*
X116548112Y-86754774D01*
X116359754Y-86832795D01*
X116190236Y-86946063D01*
X116046073Y-87090226D01*
X115932805Y-87259744D01*
X115854784Y-87448102D01*
X115815010Y-87648061D01*
X115815010Y-87851939D01*
X115854784Y-88051898D01*
X115865001Y-88076564D01*
X115865000Y-89711545D01*
X115832795Y-89759744D01*
X115754774Y-89948102D01*
X115715000Y-90148061D01*
X114660000Y-90148061D01*
X114660000Y-80633000D01*
X115492509Y-80633000D01*
X115498000Y-80688751D01*
X115514423Y-80855498D01*
X115579324Y-81069446D01*
X115684716Y-81266623D01*
X115826551Y-81439449D01*
X115869865Y-81474996D01*
X117236856Y-82841988D01*
X117366377Y-82948283D01*
X117563553Y-83053676D01*
X117777501Y-83118577D01*
X118000000Y-83140491D01*
X118222498Y-83118577D01*
X118321987Y-83088397D01*
X121611208Y-83088397D01*
X121686514Y-83330000D01*
X121611208Y-83571603D01*
X122460000Y-84420395D01*
X123308792Y-83571603D01*
X123233486Y-83330000D01*
X123308792Y-83088397D01*
X122460000Y-82239605D01*
X121611208Y-83088397D01*
X118321987Y-83088397D01*
X118436446Y-83053676D01*
X118633622Y-82948283D01*
X118806448Y-82806448D01*
X118948283Y-82633622D01*
X119053676Y-82436446D01*
X119118577Y-82222498D01*
X119127831Y-82128531D01*
X120969389Y-82128531D01*
X121011401Y-82418019D01*
X121109081Y-82693747D01*
X121182528Y-82831157D01*
X121431603Y-82908792D01*
X122280395Y-82060000D01*
X121431603Y-81211208D01*
X121182528Y-81288843D01*
X121056629Y-81552883D01*
X120984661Y-81836411D01*
X120969389Y-82128531D01*
X119127831Y-82128531D01*
X119140491Y-82000000D01*
X119118577Y-81777501D01*
X119053676Y-81563553D01*
X118948283Y-81366377D01*
X118841988Y-81236856D01*
X117768000Y-80162869D01*
X117768000Y-79118238D01*
X117751577Y-78951491D01*
X117686676Y-78737543D01*
X117581284Y-78540367D01*
X117439449Y-78367541D01*
X117266623Y-78225706D01*
X117069447Y-78120314D01*
X116855499Y-78055413D01*
X116633000Y-78033499D01*
X116410502Y-78055413D01*
X116196554Y-78120314D01*
X115999378Y-78225706D01*
X115826552Y-78367541D01*
X115684717Y-78540367D01*
X115579324Y-78737543D01*
X115514423Y-78951491D01*
X115498000Y-79118238D01*
X115498000Y-80577249D01*
X115492509Y-80633000D01*
X114660000Y-80633000D01*
X114660000Y-68000000D01*
X116109509Y-68000000D01*
X116131423Y-68222499D01*
X116196324Y-68436447D01*
X116301716Y-68633623D01*
X116443551Y-68806449D01*
X116616377Y-68948284D01*
X116813553Y-69053676D01*
X117027501Y-69118577D01*
X117194248Y-69135000D01*
X119944249Y-69135000D01*
X120000000Y-69140491D01*
X120055751Y-69135000D01*
X120055752Y-69135000D01*
X120222499Y-69118577D01*
X120436447Y-69053676D01*
X120633623Y-68948284D01*
X120806449Y-68806449D01*
X120841996Y-68763135D01*
X121341976Y-68263155D01*
X121448272Y-68133634D01*
X121553664Y-67936459D01*
X121618565Y-67722511D01*
X121640479Y-67500012D01*
X121618565Y-67277513D01*
X121553664Y-67063566D01*
X121448272Y-66866390D01*
X121306437Y-66693563D01*
X121133610Y-66551728D01*
X120936434Y-66446336D01*
X120722487Y-66381435D01*
X120499988Y-66359521D01*
X120277489Y-66381435D01*
X120063541Y-66446336D01*
X119866366Y-66551728D01*
X119736845Y-66658024D01*
X119529869Y-66865000D01*
X118985839Y-66865000D01*
X119058463Y-66834918D01*
X119326252Y-66655987D01*
X119553987Y-66428252D01*
X119732918Y-66160463D01*
X119856168Y-65862912D01*
X119919000Y-65547033D01*
X119919000Y-65224967D01*
X123149000Y-65224967D01*
X123149000Y-65547033D01*
X123211832Y-65862912D01*
X123335082Y-66160463D01*
X123514013Y-66428252D01*
X123741748Y-66655987D01*
X124009537Y-66834918D01*
X124307088Y-66958168D01*
X124622967Y-67021000D01*
X124945033Y-67021000D01*
X125260912Y-66958168D01*
X125558463Y-66834918D01*
X125826252Y-66655987D01*
X126053987Y-66428252D01*
X126232918Y-66160463D01*
X126356168Y-65862912D01*
X126419000Y-65547033D01*
X126419000Y-65224967D01*
X126356168Y-64909088D01*
X126232918Y-64611537D01*
X126053987Y-64343748D01*
X125826252Y-64116013D01*
X125692516Y-64026653D01*
X127616952Y-64026653D01*
X127772962Y-64342214D01*
X128147745Y-64533020D01*
X128552551Y-64647044D01*
X128914557Y-64675414D01*
X128810851Y-64925782D01*
X128724000Y-65362409D01*
X128724000Y-65807591D01*
X128810851Y-66244218D01*
X128981214Y-66655511D01*
X129228544Y-67025666D01*
X129543334Y-67340456D01*
X129913489Y-67587786D01*
X130324782Y-67758149D01*
X130761409Y-67845000D01*
X131206591Y-67845000D01*
X131643218Y-67758149D01*
X132054511Y-67587786D01*
X132424666Y-67340456D01*
X132739456Y-67025666D01*
X132986786Y-66655511D01*
X133157149Y-66244218D01*
X133244000Y-65807591D01*
X133244000Y-65362409D01*
X140154000Y-65362409D01*
X140154000Y-65807591D01*
X140240851Y-66244218D01*
X140411214Y-66655511D01*
X140658544Y-67025666D01*
X140973334Y-67340456D01*
X141343489Y-67587786D01*
X141754782Y-67758149D01*
X142191409Y-67845000D01*
X142636591Y-67845000D01*
X143073218Y-67758149D01*
X143484511Y-67587786D01*
X143854666Y-67340456D01*
X144169456Y-67025666D01*
X144416786Y-66655511D01*
X144587149Y-66244218D01*
X144674000Y-65807591D01*
X144674000Y-65362409D01*
X144587149Y-64925782D01*
X144484412Y-64677754D01*
X144511824Y-64679902D01*
X144929451Y-64630334D01*
X145329383Y-64500243D01*
X145625038Y-64342214D01*
X145781048Y-64026653D01*
X147301952Y-64026653D01*
X147457962Y-64342214D01*
X147832745Y-64533020D01*
X148237551Y-64647044D01*
X148599557Y-64675414D01*
X148495851Y-64925782D01*
X148409000Y-65362409D01*
X148409000Y-65807591D01*
X148495851Y-66244218D01*
X148666214Y-66655511D01*
X148913544Y-67025666D01*
X149228334Y-67340456D01*
X149598489Y-67587786D01*
X150009782Y-67758149D01*
X150446409Y-67845000D01*
X150891591Y-67845000D01*
X151328218Y-67758149D01*
X151739511Y-67587786D01*
X152109666Y-67340456D01*
X152424456Y-67025666D01*
X152671786Y-66655511D01*
X152842149Y-66244218D01*
X152929000Y-65807591D01*
X152929000Y-65362409D01*
X159839000Y-65362409D01*
X159839000Y-65807591D01*
X159925851Y-66244218D01*
X160096214Y-66655511D01*
X160343544Y-67025666D01*
X160658334Y-67340456D01*
X161028489Y-67587786D01*
X161439782Y-67758149D01*
X161876409Y-67845000D01*
X162321591Y-67845000D01*
X162758218Y-67758149D01*
X163169511Y-67587786D01*
X163539666Y-67340456D01*
X163854456Y-67025666D01*
X164101786Y-66655511D01*
X164272149Y-66244218D01*
X164359000Y-65807591D01*
X164359000Y-65362409D01*
X164272149Y-64925782D01*
X164169412Y-64677754D01*
X164196824Y-64679902D01*
X164614451Y-64630334D01*
X165014383Y-64500243D01*
X165310038Y-64342214D01*
X165466048Y-64026653D01*
X164154000Y-62714605D01*
X164139858Y-62728748D01*
X163960253Y-62549143D01*
X163974395Y-62535000D01*
X164333605Y-62535000D01*
X165645653Y-63847048D01*
X165961214Y-63691038D01*
X166152020Y-63316255D01*
X166266044Y-62911449D01*
X166298902Y-62492176D01*
X166249334Y-62074549D01*
X166119243Y-61674617D01*
X165961214Y-61378962D01*
X165645653Y-61222952D01*
X164333605Y-62535000D01*
X163974395Y-62535000D01*
X162662347Y-61222952D01*
X162346786Y-61378962D01*
X162155980Y-61753745D01*
X162041956Y-62158551D01*
X162009098Y-62577824D01*
X162058666Y-62995451D01*
X162165863Y-63325000D01*
X161876409Y-63325000D01*
X161439782Y-63411851D01*
X161028489Y-63582214D01*
X160658334Y-63829544D01*
X160343544Y-64144334D01*
X160096214Y-64514489D01*
X159925851Y-64925782D01*
X159839000Y-65362409D01*
X152929000Y-65362409D01*
X152842149Y-64925782D01*
X152671786Y-64514489D01*
X152424456Y-64144334D01*
X152109666Y-63829544D01*
X151739511Y-63582214D01*
X151328218Y-63411851D01*
X150891591Y-63325000D01*
X150607568Y-63325000D01*
X150612020Y-63316255D01*
X150726044Y-62911449D01*
X150758902Y-62492176D01*
X150709334Y-62074549D01*
X150579243Y-61674617D01*
X150421214Y-61378962D01*
X150105653Y-61222952D01*
X148793605Y-62535000D01*
X148807748Y-62549143D01*
X148628143Y-62728748D01*
X148614000Y-62714605D01*
X147301952Y-64026653D01*
X145781048Y-64026653D01*
X144469000Y-62714605D01*
X144454858Y-62728748D01*
X144275253Y-62549143D01*
X144289395Y-62535000D01*
X144648605Y-62535000D01*
X145960653Y-63847048D01*
X146276214Y-63691038D01*
X146467020Y-63316255D01*
X146539415Y-63059239D01*
X146648757Y-63395383D01*
X146806786Y-63691038D01*
X147122347Y-63847048D01*
X148434395Y-62535000D01*
X147122347Y-61222952D01*
X146806786Y-61378962D01*
X146615980Y-61753745D01*
X146543585Y-62010761D01*
X146434243Y-61674617D01*
X146276214Y-61378962D01*
X145960653Y-61222952D01*
X144648605Y-62535000D01*
X144289395Y-62535000D01*
X142977347Y-61222952D01*
X142661786Y-61378962D01*
X142470980Y-61753745D01*
X142356956Y-62158551D01*
X142324098Y-62577824D01*
X142373666Y-62995451D01*
X142480863Y-63325000D01*
X142191409Y-63325000D01*
X141754782Y-63411851D01*
X141343489Y-63582214D01*
X140973334Y-63829544D01*
X140658544Y-64144334D01*
X140411214Y-64514489D01*
X140240851Y-64925782D01*
X140154000Y-65362409D01*
X133244000Y-65362409D01*
X133157149Y-64925782D01*
X132986786Y-64514489D01*
X132739456Y-64144334D01*
X132424666Y-63829544D01*
X132054511Y-63582214D01*
X131643218Y-63411851D01*
X131206591Y-63325000D01*
X130922568Y-63325000D01*
X130927020Y-63316255D01*
X131041044Y-62911449D01*
X131073902Y-62492176D01*
X131024334Y-62074549D01*
X130894243Y-61674617D01*
X130736214Y-61378962D01*
X130420653Y-61222952D01*
X129108605Y-62535000D01*
X129122748Y-62549143D01*
X128943143Y-62728748D01*
X128929000Y-62714605D01*
X127616952Y-64026653D01*
X125692516Y-64026653D01*
X125558463Y-63937082D01*
X125260912Y-63813832D01*
X124945033Y-63751000D01*
X124622967Y-63751000D01*
X124307088Y-63813832D01*
X124009537Y-63937082D01*
X123741748Y-64116013D01*
X123514013Y-64343748D01*
X123335082Y-64611537D01*
X123211832Y-64909088D01*
X123149000Y-65224967D01*
X119919000Y-65224967D01*
X119856168Y-64909088D01*
X119732918Y-64611537D01*
X119553987Y-64343748D01*
X119326252Y-64116013D01*
X119058463Y-63937082D01*
X118760912Y-63813832D01*
X118445033Y-63751000D01*
X118122967Y-63751000D01*
X117807088Y-63813832D01*
X117509537Y-63937082D01*
X117241748Y-64116013D01*
X117014013Y-64343748D01*
X116835082Y-64611537D01*
X116711832Y-64909088D01*
X116649000Y-65224967D01*
X116649000Y-65547033D01*
X116711832Y-65862912D01*
X116835082Y-66160463D01*
X117014013Y-66428252D01*
X117241748Y-66655987D01*
X117509537Y-66834918D01*
X117582161Y-66865000D01*
X117194248Y-66865000D01*
X117027501Y-66881423D01*
X116813553Y-66946324D01*
X116616377Y-67051716D01*
X116443551Y-67193551D01*
X116301716Y-67366377D01*
X116196324Y-67563553D01*
X116131423Y-67777501D01*
X116109509Y-68000000D01*
X114660000Y-68000000D01*
X114660000Y-62577824D01*
X126784098Y-62577824D01*
X126833666Y-62995451D01*
X126963757Y-63395383D01*
X127121786Y-63691038D01*
X127437347Y-63847048D01*
X128749395Y-62535000D01*
X127437347Y-61222952D01*
X127121786Y-61378962D01*
X126930980Y-61753745D01*
X126816956Y-62158551D01*
X126784098Y-62577824D01*
X114660000Y-62577824D01*
X114660000Y-62021413D01*
X117328192Y-62021413D01*
X117423956Y-62285814D01*
X117713571Y-62426704D01*
X118025108Y-62508384D01*
X118346595Y-62527718D01*
X118665675Y-62483961D01*
X118970088Y-62378795D01*
X119144044Y-62285814D01*
X119239808Y-62021413D01*
X123828192Y-62021413D01*
X123923956Y-62285814D01*
X124213571Y-62426704D01*
X124525108Y-62508384D01*
X124846595Y-62527718D01*
X125165675Y-62483961D01*
X125470088Y-62378795D01*
X125644044Y-62285814D01*
X125739808Y-62021413D01*
X124784000Y-61065605D01*
X123828192Y-62021413D01*
X119239808Y-62021413D01*
X118284000Y-61065605D01*
X117328192Y-62021413D01*
X114660000Y-62021413D01*
X114660000Y-61032279D01*
X114668205Y-60948595D01*
X116642282Y-60948595D01*
X116686039Y-61267675D01*
X116791205Y-61572088D01*
X116884186Y-61746044D01*
X117148587Y-61841808D01*
X118104395Y-60886000D01*
X118463605Y-60886000D01*
X119419413Y-61841808D01*
X119683814Y-61746044D01*
X119824704Y-61456429D01*
X119906384Y-61144892D01*
X119918189Y-60948595D01*
X123142282Y-60948595D01*
X123186039Y-61267675D01*
X123291205Y-61572088D01*
X123384186Y-61746044D01*
X123648587Y-61841808D01*
X124604395Y-60886000D01*
X124963605Y-60886000D01*
X125919413Y-61841808D01*
X126183814Y-61746044D01*
X126324704Y-61456429D01*
X126406384Y-61144892D01*
X126412490Y-61043347D01*
X127616952Y-61043347D01*
X128929000Y-62355395D01*
X130241048Y-61043347D01*
X143156952Y-61043347D01*
X144469000Y-62355395D01*
X145781048Y-61043347D01*
X147301952Y-61043347D01*
X148614000Y-62355395D01*
X149926048Y-61043347D01*
X162841952Y-61043347D01*
X164154000Y-62355395D01*
X165466048Y-61043347D01*
X165310038Y-60727786D01*
X164935255Y-60536980D01*
X164530449Y-60422956D01*
X164111176Y-60390098D01*
X163693549Y-60439666D01*
X163293617Y-60569757D01*
X162997962Y-60727786D01*
X162841952Y-61043347D01*
X149926048Y-61043347D01*
X149770038Y-60727786D01*
X149395255Y-60536980D01*
X148990449Y-60422956D01*
X148571176Y-60390098D01*
X148153549Y-60439666D01*
X147753617Y-60569757D01*
X147457962Y-60727786D01*
X147301952Y-61043347D01*
X145781048Y-61043347D01*
X145625038Y-60727786D01*
X145250255Y-60536980D01*
X144845449Y-60422956D01*
X144426176Y-60390098D01*
X144008549Y-60439666D01*
X143608617Y-60569757D01*
X143312962Y-60727786D01*
X143156952Y-61043347D01*
X130241048Y-61043347D01*
X130085038Y-60727786D01*
X129710255Y-60536980D01*
X129305449Y-60422956D01*
X128886176Y-60390098D01*
X128468549Y-60439666D01*
X128068617Y-60569757D01*
X127772962Y-60727786D01*
X127616952Y-61043347D01*
X126412490Y-61043347D01*
X126425718Y-60823405D01*
X126381961Y-60504325D01*
X126276795Y-60199912D01*
X126183814Y-60025956D01*
X125919413Y-59930192D01*
X124963605Y-60886000D01*
X124604395Y-60886000D01*
X123648587Y-59930192D01*
X123384186Y-60025956D01*
X123243296Y-60315571D01*
X123161616Y-60627108D01*
X123142282Y-60948595D01*
X119918189Y-60948595D01*
X119925718Y-60823405D01*
X119881961Y-60504325D01*
X119776795Y-60199912D01*
X119683814Y-60025956D01*
X119419413Y-59930192D01*
X118463605Y-60886000D01*
X118104395Y-60886000D01*
X117148587Y-59930192D01*
X116884186Y-60025956D01*
X116743296Y-60315571D01*
X116661616Y-60627108D01*
X116642282Y-60948595D01*
X114668205Y-60948595D01*
X114707670Y-60546107D01*
X114839489Y-60109502D01*
X115030326Y-59750587D01*
X117328192Y-59750587D01*
X118284000Y-60706395D01*
X119239808Y-59750587D01*
X123828192Y-59750587D01*
X124784000Y-60706395D01*
X125739808Y-59750587D01*
X125644044Y-59486186D01*
X125354429Y-59345296D01*
X125042892Y-59263616D01*
X124721405Y-59244282D01*
X124402325Y-59288039D01*
X124097912Y-59393205D01*
X123923956Y-59486186D01*
X123828192Y-59750587D01*
X119239808Y-59750587D01*
X119144044Y-59486186D01*
X118854429Y-59345296D01*
X118542892Y-59263616D01*
X118221405Y-59244282D01*
X117902325Y-59288039D01*
X117597912Y-59393205D01*
X117423956Y-59486186D01*
X117328192Y-59750587D01*
X115030326Y-59750587D01*
X115053600Y-59706815D01*
X115341848Y-59353388D01*
X115693261Y-59062673D01*
X116094439Y-58845758D01*
X116530113Y-58710894D01*
X117014344Y-58660000D01*
X167455651Y-58660000D01*
X167233368Y-58808525D01*
%TD*%
M02*
